<svg width="487" height="309" viewBox="0 0 487 309" fill="none" xmlns="http://www.w3.org/2000/svg">
<g clip-path="url(#clip0_25_352)">
<rect x="0.000488281" y="0.0966797" width="486.511" height="308.365" rx="20" fill="#D3B6D7"/>
<rect width="41.6513" height="17.4667" transform="matrix(-1 0 0 1 516.078 37.6013)" fill="black" fill-opacity="0.08"/>
<rect width="47.0256" height="17.4667" transform="matrix(-1 0 0 1 502.642 16.1039)" fill="black" fill-opacity="0.08"/>
<rect width="37.6205" height="18.8103" transform="matrix(-1 0 0 1 469.052 38.9448)" fill="black" fill-opacity="0.08"/>
<rect width="41.6513" height="17.4667" transform="matrix(-1 0 0 1 499.955 61.7861)" fill="black" fill-opacity="0.08"/>
<rect width="47.0256" height="17.4667" transform="matrix(-1 0 0 1 463.678 -5.39355)" fill="black" fill-opacity="0.08"/>
<rect width="41.6513" height="18.8103" transform="matrix(-1 0 0 1 451.586 16.1039)" fill="black" fill-opacity="0.08"/>
<rect width="41.6513" height="17.4667" transform="matrix(-1 0 0 1 39.3466 129.104)" fill="black" fill-opacity="0.08"/>
<rect width="47.0256" height="17.4667" transform="matrix(-1 0 0 1 25.9106 107.607)" fill="black" fill-opacity="0.08"/>
<rect width="41.6513" height="17.4667" transform="matrix(-1 0 0 1 23.2236 153.289)" fill="black" fill-opacity="0.08"/>
<path d="M257.884 392.092C474.315 392.092 649.767 362.988 649.767 327.086C649.767 291.184 721.024 168.763 504.593 168.763C125.939 142.305 -134 291.184 -134 327.086C-134 362.988 41.4523 392.092 257.884 392.092Z" fill="black" fill-opacity="0.12"/>
<ellipse cx="218.196" cy="265.66" rx="71.1264" ry="17.5239" fill="black" fill-opacity="0.1"/>
<ellipse cx="410.59" cy="251.339" rx="63.9107" ry="14.4314" fill="black" fill-opacity="0.1"/>
<ellipse cx="77.6611" cy="287.994" rx="63.9107" ry="10.9954" fill="black" fill-opacity="0.1"/>
<path d="M456.873 254.606C455.274 255.195 453.489 255.032 451.782 254.858C444.827 254.161 437.872 253.469 430.924 252.772C430.1 252.688 429.252 252.598 428.549 252.207C427.419 251.57 426.992 250.386 426.974 249.123C426.956 248.36 427.088 247.567 427.305 246.857C427.437 246.412 427.599 245.962 427.744 245.511C428.231 244.038 428.669 242.541 428.183 241.111C433.039 240.858 437.854 240.552 442.627 240.017C443.336 240.437 444.046 240.852 444.749 241.267C448.8 243.647 452.732 245.944 456.657 248.246C457.51 248.739 458.412 249.298 458.947 250.061C459.121 250.314 459.26 250.578 459.344 250.879C459.783 252.418 458.472 254.01 456.873 254.606Z" fill="#535A61"/>
<path d="M456.873 254.606C455.274 255.195 453.489 255.032 451.782 254.858C444.827 254.161 437.872 253.47 430.924 252.772C430.1 252.688 429.252 252.598 428.549 252.207C427.419 251.57 426.992 250.386 426.974 249.124C432.829 250.801 438.966 251.444 445.043 252.069C447.682 252.339 450.351 252.616 452.99 252.285C455.112 252.021 457.24 251.324 458.953 250.055C459.127 250.308 459.266 250.572 459.35 250.873C459.783 252.418 458.472 254.011 456.873 254.606Z" fill="#81898F"/>
<path d="M444.749 241.256C439.687 244.357 433.664 245.848 427.743 245.499C428.23 244.027 428.669 242.53 428.182 241.099C433.039 240.847 437.854 240.54 442.627 240.005C443.336 240.426 444.045 240.847 444.749 241.256Z" fill="#404754"/>
<path d="M385.769 253.404C387.367 253.993 389.153 253.831 390.86 253.656C397.815 252.959 404.769 252.268 411.718 251.571C412.542 251.486 413.389 251.396 414.093 251.005C415.223 250.368 415.65 249.184 415.668 247.922C415.686 247.158 415.553 246.365 415.337 245.656C415.205 245.211 415.042 244.76 414.898 244.309C414.411 242.836 413.972 241.34 414.459 239.909C409.602 239.657 404.788 239.35 400.015 238.815C399.305 239.236 398.596 239.651 397.893 240.065C393.841 242.446 389.91 244.742 385.985 247.044C385.131 247.537 384.23 248.096 383.695 248.86C383.52 249.112 383.382 249.376 383.298 249.677C382.859 251.216 384.17 252.809 385.769 253.404Z" fill="#535A61"/>
<path d="M385.768 253.404C387.367 253.993 389.152 253.831 390.86 253.656C397.814 252.959 404.769 252.268 411.718 251.57C412.542 251.486 413.389 251.396 414.092 251.005C415.222 250.368 415.649 249.184 415.667 247.922C409.812 249.599 403.675 250.242 397.598 250.867C394.959 251.138 392.29 251.414 389.651 251.083C387.529 250.819 385.402 250.122 383.688 248.853C383.514 249.106 383.376 249.37 383.292 249.671C382.859 251.216 384.169 252.809 385.768 253.404Z" fill="#81898F"/>
<path d="M397.893 240.053C402.954 243.154 408.977 244.645 414.898 244.296C414.411 242.824 413.972 241.327 414.459 239.896C409.602 239.644 404.787 239.337 400.015 238.802C399.305 239.223 398.596 239.644 397.893 240.053Z" fill="#404754"/>
<path d="M412.319 164.632V164.614C412.307 164.446 412.295 164.284 412.283 164.116C412.283 164.091 412.277 164.061 412.277 164.037C412.277 164.061 412.271 164.085 412.271 164.11C411.219 179.66 412.283 203.145 413.455 222.741V222.747C413.894 230.063 415.307 237.282 415.673 242.897C409.578 243.053 403.086 240.702 397.682 238.803C393.054 202.538 392.555 175.098 392.555 137.438C392.555 134.866 392.927 132.323 393.156 129.804C406.434 129.257 419.749 129.498 433.304 131.421C433.52 134.535 433.736 137.625 433.959 140.69C436.393 174.304 440.337 207.467 444.256 240.005C439.128 241.724 432.985 243.894 426.974 244.592C422.087 213.376 416.978 194.399 412.319 164.632Z" fill="#E3405E"/>
<path d="M433.959 140.69C420.224 143.498 405.689 142.373 392.555 137.438C392.723 134.872 392.927 132.323 393.156 129.804C406.434 129.257 419.749 129.498 433.304 131.421C433.52 134.535 433.736 137.625 433.959 140.69Z" fill="#CC2F56"/>
<path d="M413.455 222.742C403.507 201.012 402.623 158.568 402.623 158.568L412.271 164.11C411.219 179.66 412.283 203.146 413.455 222.742Z" fill="#CC2F56"/>
<path d="M396.108 99.9716C388.546 105.165 376.59 111.603 372.021 111.603C366.87 111.603 351.103 101.114 342.91 92.9206C344.647 89.6025 346.45 87.4085 348.259 85.2205C356.783 91.1714 362.518 92.2955 372.953 95.0065C378.579 92.8665 381.519 89.9031 385.961 86.1462C388.672 89.2178 393.787 96.6535 396.108 99.9716Z" fill="#EABFC0"/>
<path d="M404.769 82.2326C404.379 79.0768 403.916 76.0652 402.678 73.3783C397.881 73.6067 393.354 76.8767 389.946 79.8161C386.538 82.7556 383.346 86.0196 380.046 88.6224C384.182 94.2728 389.026 101.294 394.911 104.93C400.303 99.863 405.839 90.9667 404.769 82.2326Z" fill="#34384F"/>
<path d="M349.041 86.8194C348.001 81.9324 346.6 76.9011 343.276 73.1743C342.831 72.6754 342.338 72.1945 341.719 71.9661C341.094 71.7376 340.313 71.8218 339.886 72.3267C339.273 73.0541 339.645 74.1541 340.048 75.0197C340.806 76.6487 341.563 78.2837 342.14 79.6482C340.21 78.2416 338.269 76.823 336.081 75.8733C335.468 75.6028 334.807 75.3683 334.139 75.4465C333.472 75.5246 332.805 75.9995 332.721 76.6667C332.606 77.5744 333.508 78.2416 334.284 78.7345C335.997 79.8285 337.584 81.1209 339.098 82.5576C337.457 81.7641 335.756 81.1029 334.013 80.5739C333.55 80.4296 333.069 80.2974 332.582 80.3395C332.096 80.3816 331.603 80.628 331.392 81.0668C331.02 81.8483 331.687 82.7018 332.534 83.5374C331.993 83.4352 331.452 83.892 331.344 84.433C331.236 84.974 331.482 85.539 331.855 85.9478C332.228 86.3565 332.715 86.6331 333.196 86.9096C335.047 87.9615 336.898 89.0134 338.503 89.9091C339.585 92.6922 342.284 94.778 345.23 94.9944C346.654 92.3977 348.085 89.8189 349.041 86.8194Z" fill="#EABFC0"/>
<path d="M332.931 83.9282C335.161 84.4993 337.241 85.6474 338.912 87.2283" stroke="#6E2949" stroke-width="0.601106" stroke-miterlimit="10" stroke-linecap="round"/>
<path d="M348.061 87.0599C347.34 84.3068 345.975 81.7221 344.094 79.5881C343.763 79.2095 343.402 78.8368 342.946 78.6324C342.489 78.428 341.906 78.428 341.521 78.7586C340.872 79.3176 341.154 80.3636 341.509 81.145C341.972 82.1549 342.471 83.1467 343.21 84.3489C341.93 86.1703 343.294 90.4982 343.348 90.4922" fill="#EABFC0"/>
<path d="M348.061 87.0599C347.34 84.3068 345.975 81.7221 344.094 79.5881C343.763 79.2095 343.402 78.8368 342.946 78.6324C342.489 78.428 341.906 78.428 341.521 78.7586C340.872 79.3176 341.154 80.3636 341.509 81.145C341.972 82.1549 342.471 83.1467 343.21 84.3489C341.93 86.1703 343.294 90.4982 343.348 90.4922" stroke="#6E2949" stroke-width="0.601106" stroke-miterlimit="10" stroke-linecap="round"/>
<path d="M434.476 135.616C422.075 139.596 404.781 139.716 392.35 136.019C392.422 132.851 392.471 129.287 392.531 125.512C392.825 106.276 393.336 81.5469 397.82 75.7702C399.083 74.1472 402.136 73.2576 406.007 72.933C412.289 72.4161 420.711 73.3898 427.112 75.115C431.741 76.3653 435.317 78.0184 436.249 79.7856C438.431 83.9152 435.798 102.58 433.67 111.602C433.64 111.74 433.604 111.873 433.574 112.005C431.675 119.855 432.787 128.523 434.476 135.616Z" fill="#40455A"/>
<path d="M427.112 75.1151C423.987 78.4633 420.386 81.3546 416.443 83.6929C414.778 84.6848 412.824 85.5984 410.961 85.0514C409.175 84.5225 408.027 82.7793 407.312 81.0541C406.254 78.4994 405.809 75.6922 406.008 72.9331C412.289 72.4162 420.711 73.39 427.112 75.1151Z" fill="#575F73"/>
<path d="M434.476 135.616C422.075 139.595 404.781 139.716 392.35 136.019C392.422 132.851 392.47 129.286 392.531 125.512C395.867 127.327 399.503 128.571 403.254 129.148C410.666 130.284 418.456 128.794 424.924 125.007C417.14 127.543 410.353 126.527 405.292 122.945C412.385 123.612 420.332 121.544 426.884 117.294C429.366 115.683 431.651 113.766 433.67 111.602C433.64 111.74 433.604 111.872 433.574 112.005C431.675 119.855 432.787 128.523 434.476 135.616Z" fill="#34384F"/>
<path d="M423.975 75.0129C422.166 77.8861 414.363 83.6447 411.887 82.9114C410.089 82.3764 408.803 80.7354 408.19 78.9681C407.583 77.1949 407.553 75.2894 407.523 73.4199C408.004 72.9631 408.436 72.4041 408.791 71.7669C409.789 70.0297 410.258 67.7575 409.819 65.6416C414.471 63.6159 418.998 61.7344 423.374 59.5464C422.851 62.047 422.604 64.4875 422.64 66.8618C422.677 69.687 423.121 72.4161 423.975 75.0129Z" fill="#FFDCDD"/>
<path d="M423.374 59.5465C422.851 62.0471 422.604 64.4876 422.64 66.862C416.623 72.3681 410.6 74.9168 408.791 71.767C409.789 70.0298 410.257 67.7576 409.819 65.6417C414.471 63.616 418.998 61.7345 423.374 59.5465Z" fill="#EABFC0"/>
<path d="M399.268 51.5415C396.326 50.7579 393.5 51.7792 392.956 53.8227C392.411 55.8661 394.355 58.1579 397.296 58.9415C400.238 59.7251 403.064 58.7038 403.608 56.6603C404.153 54.6169 402.209 52.3251 399.268 51.5415Z" fill="#EABFC0"/>
<path d="M428.387 51.0283C429.132 40.3767 422.688 31.2459 413.996 30.6388C405.298 30.0257 397.646 38.1707 396.895 48.8223C396.15 59.4739 400.85 68.5926 409.548 69.2058C418.246 69.8189 427.642 61.6799 428.387 51.0283Z" fill="#FFDCDD"/>
<path d="M426.199 48.8699C424.792 47.0185 423.019 45.4556 421.083 44.5119C419.599 45.1972 417.898 45.3835 416.299 45.0469C414.7 44.7042 413.221 43.8386 412.127 42.5463C410.702 43.8507 408.502 44.2234 406.729 43.472C404.956 42.7206 403.699 40.8752 403.742 38.8254C403.146 39.7151 402.798 40.743 402.425 41.7468C402.052 42.7506 401.638 43.7665 400.934 44.572C400.231 45.3775 399.185 45.9606 398.175 45.678C397.394 47.4092 396.955 49.2967 396.739 51.3405C395.723 47.3371 396.246 42.967 398.175 39.3123C399.089 37.5871 400.327 35.9942 401.968 34.9363C403.561 33.9144 405.449 33.4455 407.324 33.2051C411.412 32.6821 415.625 33.181 419.478 34.6537C421.793 35.5314 424.011 36.7937 425.64 38.6511C427.269 40.5085 428.249 43.0392 427.87 45.4797" fill="#EABFC0"/>
<path d="M410.871 49.5138C411.977 48.8405 413.335 48.5881 414.61 48.8165C415.884 49.0449 417.068 49.7482 418.024 50.8903C417.573 49.9766 417.038 49.087 416.287 48.4017C415.535 47.7165 414.531 47.2536 413.522 47.3258C412.506 47.4039 411.514 48.0892 410.871 49.5138Z" fill="#FCB735"/>
<path d="M398.007 50.3134C398.764 49.3757 399.864 48.8407 400.946 48.8828C402.034 48.9248 403.098 49.538 403.669 50.2893C403.188 49.3636 402.599 48.48 401.824 47.909C401.048 47.3379 400.051 47.1215 399.209 47.5483C398.373 47.9811 397.79 49.1532 398.007 50.3134Z" fill="#FCB735"/>
<path d="M412.396 53.3651C411.858 53.3621 411.418 54.0325 411.414 54.8624C411.409 55.6924 411.841 56.3676 412.379 56.3706C412.917 56.3737 413.357 55.7033 413.361 54.8733C413.366 54.0434 412.934 53.3681 412.396 53.3651Z" fill="#2C3C4D"/>
<path d="M400.736 53.3002C400.199 53.2972 399.759 53.9675 399.754 54.7975C399.749 55.6274 400.182 56.3027 400.72 56.3057C401.257 56.3087 401.697 55.6383 401.702 54.8084C401.706 53.9784 401.274 53.3032 400.736 53.3002Z" fill="#2C3C4D"/>
<path d="M404.775 54.8274C404.541 55.8853 404.685 57.0274 405.178 57.9892" stroke="#6E2949" stroke-width="0.601106" stroke-miterlimit="10" stroke-linecap="round"/>
<path d="M405.929 60.6276C408.135 60.4533 410.299 59.7921 412.211 58.7822C413.028 59.8823 413.016 61.4511 412.175 62.5391C411.339 63.6211 409.734 64.1441 408.352 63.7774C406.975 63.4107 405.911 62.1845 405.929 60.6276Z" fill="white"/>
<path d="M433.628 43.7974C433.178 45.6308 432.606 47.6265 431.176 48.7866C429.583 50.073 427.864 51.2031 426.048 52.1468C425.537 48.8648 423.878 45.6609 421.402 43.2925C418.012 44.3505 414.165 43.3947 412.079 40.828C410.985 42.1624 409.35 42.7275 407.961 42.2887C406.735 41.91 405.821 40.8701 405.184 39.752C404.547 38.6339 404.126 37.4017 403.729 36.3317C401.92 38.0388 401.283 40.5996 400.399 42.9198C400.159 43.557 399.864 44.2182 399.299 44.5909C398.728 44.9576 397.814 44.8674 397.844 44.2543C396.889 47.0074 396.955 49.7965 396.955 53.361C395.362 50.8665 394.653 47.38 395.284 44.4947C395.206 44.4947 393.799 43.6652 393.571 42.7155C393.541 42.5892 393.517 42.457 393.498 42.3247C393.396 41.4652 393.637 40.5755 393.985 39.764C394.406 38.8203 395.14 37.8405 396.047 37.4798C395.055 36.7164 394.833 35.2197 395.326 34.0655C395.825 32.9174 396.907 32.0999 398.073 31.6491C399.245 31.1983 400.507 31.06 402.359 30.8616C403.14 28.6015 405.004 26.8222 407.138 25.7342C409.278 24.6522 411.676 24.2014 414.062 23.973C414.952 23.8888 415.878 23.8347 416.719 24.1353C417.567 24.4358 418.312 25.1812 417.921 26.1069C419.839 26.1009 421.775 26.1069 423.638 26.5457C425.141 26.9003 426.607 27.5736 427.713 28.6195C427.984 28.878 428.236 29.1605 428.459 29.4611C429.601 30.9999 429.938 33.212 429.318 34.6005C431.158 35.0213 432.655 36.494 433.37 38.2372C434.085 39.9864 434.079 41.9641 433.628 43.7974Z" fill="#FCB735"/>
<path d="M427.713 28.6195C423.951 26.6779 419.262 26.4375 415.283 28.2168C415.788 27.3872 415.156 26.2331 414.255 25.8785C413.353 25.5178 412.325 25.7342 411.399 26.0287C407.991 27.1288 404.859 29.4009 403.206 32.5868C402.142 32.3584 401.036 32.2322 399.972 32.4245C398.902 32.6229 397.869 33.1819 397.285 34.1016C396.696 35.0153 396.66 36.3016 397.736 37.2394C395.699 38.2492 394.178 40.1607 393.498 42.3247C393.396 41.4651 393.637 40.5755 393.985 39.764C394.406 38.8203 395.14 37.8405 396.047 37.4798C395.055 36.7164 394.833 35.2197 395.326 34.0655C395.825 32.9174 396.907 32.0999 398.073 31.6491C399.245 31.1983 400.507 31.06 402.359 30.8616C403.14 28.6015 405.004 26.8222 407.138 25.7342C409.278 24.6522 411.676 24.2014 414.062 23.973C414.952 23.8888 415.878 23.8347 416.719 24.1353C417.567 24.4358 418.312 25.1812 417.921 26.1069C419.839 26.1009 421.775 26.1069 423.638 26.5457C425.141 26.9003 426.607 27.5736 427.713 28.6195Z" fill="#FFD261"/>
<path d="M433.278 50.1415C432.178 48.1776 429.242 47.7306 426.719 49.1429C424.197 50.5553 423.043 53.2923 424.143 55.2561C425.242 57.22 428.178 57.6671 430.701 56.2547C433.224 54.8423 434.377 52.1053 433.278 50.1415Z" fill="#FFDCDD"/>
<path d="M437.499 102.454C437.373 102.683 437.241 102.923 437.109 103.152C435.245 106.506 433.34 109.824 431.314 112.601C429.384 115.258 427.359 117.416 425.147 118.654C420.296 121.377 402.19 120.944 392.344 119.592C391.473 116.791 391.485 114.879 391.376 112.006C401.541 111.098 408.075 107.876 417.831 106.59C418.324 105.382 418.823 104.149 419.316 102.899C420.476 100.014 421.636 97.0384 422.736 94.0569C423.59 91.7727 424.395 89.4765 425.135 87.2103C430.394 91.3219 434.56 95.4695 437.499 102.454Z" fill="#FFDCDD"/>
<path d="M437.109 103.152C432.618 99.5931 427.936 96.1908 422.742 94.0569C421.642 97.0384 420.476 100.014 419.322 102.899C422.61 106.963 426.74 110.329 431.314 112.607" fill="#EABFC0"/>
<path d="M435.799 111.296C445.008 89.326 437.963 78.7585 433.394 76.7328C429.944 75.206 425.604 76.6126 423.981 80.0209C422.376 83.3931 420.014 98.5289 418.956 101.559C425.634 105.243 429.078 108.321 435.799 111.296Z" fill="#575F73"/>
<path d="M345.728 134.336C343.174 135.887 340.523 136.056 339.802 134.709C339.729 134.577 339.687 134.445 339.657 134.294C339.387 132.918 340.823 130.874 343.132 129.467C344.64 128.554 346.185 128.121 347.345 128.199C348.145 128.247 348.758 128.548 349.053 129.095C349.774 130.441 348.277 132.791 345.728 134.336Z" fill="#E69749"/>
<path d="M347.345 128.205C347.718 129.359 346.173 131.397 343.739 132.87C342.248 133.771 340.757 134.264 339.657 134.294C339.387 132.918 340.823 130.874 343.132 129.467C344.641 128.56 346.185 128.127 347.345 128.205Z" fill="#EDAD5A"/>
<path d="M346.901 133.513L347.093 130.622L366.557 131.86L366.359 134.751L346.901 133.513Z" fill="#E69749"/>
<path d="M349.449 132.635L348.097 131.547L359.993 115.041L361.345 116.129L349.449 132.635Z" fill="#E69749"/>
<path d="M382.738 128.44L381.993 126.426L389.429 123.27C390.048 123.006 390.511 122.543 390.661 122.02C390.751 121.707 390.715 121.419 390.547 121.16L383.117 109.763C382.672 109.084 381.638 108.784 380.605 109.036L374.702 110.467L374.263 108.351L380.166 106.92C382.023 106.469 383.893 107.113 384.812 108.519L392.242 119.916C392.765 120.716 392.903 121.683 392.621 122.639C392.284 123.805 391.388 124.767 390.174 125.284L382.738 128.44Z" fill="#E69749"/>
<path d="M383.61 133.988L364.964 138.683C363.046 139.164 361.183 137.997 360.762 136.11C360.738 135.996 360.714 135.894 360.702 135.773L356.62 103.897L375.928 98.7753L386.231 129.227C386.904 131.247 385.678 133.465 383.61 133.988Z" fill="#E69749"/>
<path d="M380.358 131.313L361.712 136.008C361.393 136.086 361.075 136.122 360.762 136.11C360.738 135.996 360.714 135.894 360.702 135.773L356.62 103.897L373.77 99.3464L382.973 126.553C383.652 128.572 382.426 130.79 380.358 131.313Z" fill="#EDAD5A"/>
<path d="M394.665 112.107C393.504 110.286 391.809 106.367 389.321 105.573C387.187 104.894 384.927 105.658 383.117 107.076C383.61 107.497 383.785 107.767 384.193 108.477C382.697 109.144 381.152 109.841 380.052 111.019C379.679 111.416 379.354 111.897 379.33 112.426C379.294 113.262 380.166 114.019 381.164 113.971C381.062 114.542 381.26 115.149 381.675 115.57C382.089 115.985 382.721 116.207 383.454 116.261C383.388 116.904 383.676 117.571 384.199 117.974C384.722 118.383 385.468 118.515 386.411 118.527C386.021 119.134 386.255 119.976 386.808 120.439C387.367 120.902 388.167 121.028 388.906 120.932C389.645 120.836 390.343 120.547 391.022 120.246C391.701 119.952 392.386 119.645 393.246 119.483C393.895 116.189 394.394 115.696 394.665 112.107Z" fill="#FFDCDD"/>
<path d="M252.419 141.351C266.418 120.438 270.26 93.4367 262.613 69.6449C254.967 45.8531 235.984 25.716 213.774 17C211.105 39.6497 208.454 62.7262 212.95 85.1114C217.44 107.485 230.292 129.467 252.419 141.351Z" fill="#C2CD61"/>
<path d="M253.898 175.049C254.535 128.656 244.136 75.6681 217.14 23.7626" stroke="#62663A" stroke-width="1.20221" stroke-miterlimit="10" stroke-linecap="round"/>
<mask id="mask0_25_352" style="mask-type:alpha" maskUnits="userSpaceOnUse" x="210" y="17" width="57" height="125">
<path d="M252.419 141.351C266.418 120.438 270.26 93.4367 262.613 69.6449C254.967 45.8531 235.984 25.716 213.774 17C211.105 39.6497 208.454 62.7262 212.95 85.1114C217.44 107.485 230.292 129.467 252.419 141.351Z" fill="#B0BA59"/>
</mask>
<g mask="url(#mask0_25_352)">
<path d="M231.579 21.8148C228.501 26.1728 225.429 30.5249 222.352 34.8829C215.992 33.4462 209.205 33.8369 203.074 35.9949" stroke="#E7ED74" stroke-width="0.601106" stroke-miterlimit="10"/>
<path d="M204.072 40.5205C210.606 37.6532 218.33 37.4308 224.978 40.3461C229.156 34.5154 234.969 29.7847 241.629 26.8032" stroke="#E7ED74" stroke-width="0.601106" stroke-miterlimit="10"/>
<path d="M204.072 58.2357C213.533 55.8252 223.638 55.8012 232.961 58.7226C237.247 50.0125 244.701 42.7992 253.699 38.6516" stroke="#E7ED74" stroke-width="0.601106" stroke-miterlimit="10"/>
<path d="M259.698 48.3538C250.261 53.2888 242.314 60.8628 236.441 70.4925C227.317 67.1443 216.821 67.475 207.943 71.3882" stroke="#E7ED74" stroke-width="0.601106" stroke-miterlimit="10"/>
<path d="M205.226 88.9641C217.621 86.6198 230.514 86.7761 242.927 89.7155C247.796 78.2524 256.458 68.3342 267.332 61.7821" stroke="#E7ED74" stroke-width="0.601106" stroke-miterlimit="10"/>
<path d="M268.613 64.6079C257.564 71.3283 248.68 81.3367 243.174 92.9561C231.056 90.75 218.228 92.4031 207.126 97.5966" stroke="#E7ED74" stroke-width="0.601106" stroke-miterlimit="10"/>
<path d="M211.213 114.896C222.911 110.352 236.135 109.606 248.043 112.924C253.375 99.4776 262.349 87.4013 273.83 78.2405" stroke="#E7ED74" stroke-width="0.601106" stroke-miterlimit="10"/>
<path d="M282.582 87.2751C269.166 95.5343 257.847 106.961 249.792 120.685C238.203 116.832 224.984 117.835 214.158 123.396" stroke="#E7ED74" stroke-width="0.601106" stroke-miterlimit="10"/>
<path d="M226.102 135.369C234.193 132.484 243.348 132.49 252.443 135.718C256.963 128.637 265.15 123.87 273.734 123.323" stroke="#E7ED74" stroke-width="0.601106" stroke-miterlimit="10"/>
<path d="M253.898 175.049C254.535 128.656 244.136 75.6681 217.14 23.7626" stroke="#62663A" stroke-width="1.20221" stroke-miterlimit="10" stroke-linecap="round"/>
</g>
<path d="M260.913 141.88C253.453 123.276 254.336 101.69 263.305 83.7228C272.273 65.7557 289.177 51.6538 308.256 46.2378C309.332 82.1779 292.988 118.25 260.913 141.88Z" fill="#CDDC71"/>
<path d="M260.654 186.008C253.459 121.888 281.885 79.582 302.305 55.3934" stroke="#62663A" stroke-width="1.20221" stroke-miterlimit="10" stroke-linecap="round"/>
<mask id="mask1_25_352" style="mask-type:alpha" maskUnits="userSpaceOnUse" x="255" y="46" width="54" height="96">
<path d="M260.913 141.88C253.453 123.276 254.336 101.69 263.305 83.7228C272.273 65.7557 289.177 51.6538 308.256 46.2378C309.332 82.1779 292.988 118.25 260.913 141.88Z" fill="#CACF6B"/>
</mask>
<g mask="url(#mask1_25_352)">
<path d="M287.301 49.9357C290.481 54.9068 292.91 60.3288 293.841 66.1475C300.67 64.6387 307.709 63.9955 314.712 64.242" stroke="#FFFF91" stroke-width="0.601106" stroke-miterlimit="10"/>
<path d="M275.075 60.382C280.25 65.3231 284.157 71.4964 286.039 78.8119C293.853 77.0326 301.926 76.3173 309.939 76.708" stroke="#FFFF91" stroke-width="0.601106" stroke-miterlimit="10"/>
<path d="M309.608 80.8442C300.219 80.8322 290.824 82.1546 281.476 84.8536C277.329 79.7983 272.231 75.4824 266.503 72.1763" stroke="#FFFF91" stroke-width="0.601106" stroke-miterlimit="10"/>
<path d="M252.112 90.1669C258.713 96.755 264.387 104.209 268.703 112.48C279.848 107.683 292.176 105.495 304.355 106.156" stroke="#FFFF91" stroke-width="0.601106" stroke-miterlimit="10"/>
<path d="M298.614 110.87C287.331 111.044 276.103 113.791 266.263 118.564C262.698 113.581 258.25 109.192 253.182 105.64" stroke="#FFFF91" stroke-width="0.601106" stroke-miterlimit="10"/>
<path d="M248.572 122.609C253.79 124.695 258.634 127.641 263.263 131.854C270.53 128.759 278.94 128.254 286.55 130.448" stroke="#FFFF91" stroke-width="0.601106" stroke-miterlimit="10"/>
<path d="M260.654 186.008C253.459 121.888 281.885 79.582 302.305 55.3934" stroke="#62663A" stroke-width="1.20221" stroke-miterlimit="10" stroke-linecap="round"/>
</g>
<path d="M237.722 145.42C244.226 128.175 238.546 108.092 226.439 93.9596C214.333 79.8276 196.672 71.0334 179 66.2906C181.495 82.9533 184.777 99.9346 193.649 114.409C202.521 128.89 218.114 140.569 237.722 145.42Z" fill="#CDDC71"/>
<path d="M246.144 169.165C240.042 140.985 216.413 98.1799 183.268 70.3667" stroke="#62663A" stroke-width="1.20221" stroke-miterlimit="10" stroke-linecap="round"/>
<mask id="mask2_25_352" style="mask-type:alpha" maskUnits="userSpaceOnUse" x="179" y="66" width="62" height="80">
<path d="M237.722 145.42C244.226 128.175 238.546 108.092 226.439 93.9596C214.333 79.8276 196.672 71.0334 179 66.2906C181.495 82.9533 184.777 99.9346 193.649 114.409C202.521 128.89 218.114 140.569 237.722 145.42Z" fill="#CACF6B"/>
</mask>
<g mask="url(#mask2_25_352)">
<path d="M199.762 65.8707C197.153 70.1326 195.049 74.6829 193.511 79.4016C187.878 80.5678 182.57 83.1646 178.26 86.8614" stroke="#FFFF91" stroke-width="0.601106" stroke-miterlimit="10"/>
<path d="M177.846 94.1948C183.412 89.2357 190.349 85.7373 197.73 84.1624C198.295 77.6945 202.407 71.6173 208.31 68.5276" stroke="#FFFF91" stroke-width="0.601106" stroke-miterlimit="10"/>
<path d="M227.239 75.3859C219.364 81.8838 213.846 90.9966 211.832 100.819C201.944 98.829 191.347 100.344 182.474 105.008" stroke="#FFFF91" stroke-width="0.601106" stroke-miterlimit="10"/>
<path d="M185.059 116.616C195.35 110.184 208.659 108.489 220.29 112.252C222.478 103.542 228.748 95.8779 237.001 91.8204" stroke="#FFFF91" stroke-width="0.601106" stroke-miterlimit="10"/>
<path d="M248.427 108.988C239.88 111.873 232.402 117.662 227.617 125.104C217.116 123.451 205.965 126.12 197.466 132.311" stroke="#FFFF91" stroke-width="0.601106" stroke-miterlimit="10"/>
<path d="M196.312 135.954C206.921 130.55 219.124 128.109 231.933 129.462C235.606 123.042 242.068 118.179 249.396 116.304" stroke="#FFFF91" stroke-width="0.601106" stroke-miterlimit="10"/>
<path d="M247.791 128.584C242.507 130.502 237.902 134.12 234.867 138.719C226.169 137.811 217.134 140.48 210.438 145.926" stroke="#FFFF91" stroke-width="0.601106" stroke-miterlimit="10"/>
<path d="M246.144 169.165C240.042 140.985 216.413 98.1799 183.268 70.3667" stroke="#62663A" stroke-width="1.20221" stroke-miterlimit="10" stroke-linecap="round"/>
</g>
<path d="M289.098 151.264L274.828 248.42L268.835 248.378L253.122 248.282L231.41 248.42L218.078 157.641L217.14 151.264H289.098Z" fill="#887360"/>
<path d="M282.162 157.641L268.835 248.378L253.122 248.282L231.41 248.421L218.078 157.641H282.162Z" fill="#645649"/>
<path d="M329.607 219.164C325.339 213.85 323.632 206.481 325.123 199.772C325.543 197.885 326.199 195.955 325.808 194.062C325.165 190.948 321.979 189.097 320.65 186.217C319.701 184.156 319.797 181.775 319.953 179.503C320.109 177.231 320.296 174.875 319.496 172.747C318.703 170.619 316.599 168.815 314.405 169.212C320.909 167.854 328.068 172.242 329.973 178.752C330.749 181.397 330.743 184.27 331.855 186.783C333.797 191.183 338.942 194.134 339.056 198.961C339.098 200.836 338.329 202.622 337.938 204.455C337.283 207.509 337.692 210.725 337.03 213.772C336.375 216.82 334.043 219.934 329.607 219.164Z" fill="#A0B327"/>
<path d="M322.664 174.496C325.11 175.193 326.252 178.103 326.463 180.693C326.673 183.284 326.337 186.007 327.328 188.4C328.735 191.796 332.648 194.104 332.702 197.795C332.726 199.646 331.717 201.383 331.747 203.235C331.777 205.068 332.811 206.691 333.514 208.374C335.257 212.54 334.963 217.547 332.744 221.466" stroke="#6A8F1F" stroke-width="0.601106" stroke-miterlimit="10" stroke-linecap="round"/>
<path d="M327.87 176.347C327.407 177.688 326.95 179.022 326.535 180.303C325.213 180.056 323.884 179.816 322.562 179.569" stroke="#6A8F1F" stroke-width="0.601106" stroke-miterlimit="10" stroke-linecap="round"/>
<path d="M322.622 187.817C324.425 187.979 326.205 188.358 327.761 189.121C328.471 187.744 329.378 186.476 330.454 185.376" stroke="#6A8F1F" stroke-width="0.601106" stroke-miterlimit="10" stroke-linecap="round"/>
<path d="M334.662 192.463C333.67 193.442 332.829 194.579 331.945 195.847C330.635 195.39 329.24 195.204 327.864 195.294" stroke="#6A8F1F" stroke-width="0.601106" stroke-miterlimit="10" stroke-linecap="round"/>
<path d="M327.725 202.904C329.03 203.373 330.388 203.698 332.029 203.662C332.955 202.441 333.983 201.299 335.095 200.253" stroke="#6A8F1F" stroke-width="0.601106" stroke-miterlimit="10" stroke-linecap="round"/>
<path d="M337.289 206.901C336.159 207.827 335.137 208.897 334.109 210.358C332.528 209.985 330.887 209.877 329.27 210.027" stroke="#6A8F1F" stroke-width="0.601106" stroke-miterlimit="10" stroke-linecap="round"/>
<path d="M336.201 221.569C334.019 219.459 333.586 216.063 333.845 212.997C334.103 209.937 334.915 206.902 334.698 203.836C334.536 201.522 333.797 199.135 334.53 196.941C335.402 194.339 338.034 192.878 339.753 190.762C341.419 188.712 342.194 186.067 343.54 183.789C344.887 181.511 347.249 179.449 349.822 179.876C347.586 180.994 346.991 183.994 347.189 186.53C347.394 189.067 348.103 191.664 347.418 194.11C346.576 197.11 343.781 199.244 343.066 202.279C342.404 205.08 343.667 207.99 343.522 210.875C343.294 215.522 339.603 219.092 336.201 221.569Z" fill="#CACC34"/>
<path d="M345.68 184.583C344.232 185.25 343.727 187.107 343.739 188.73C343.757 190.353 344.117 192.012 343.691 193.581C342.795 196.917 338.75 198.546 337.782 201.865C336.73 205.459 339.765 209.24 338.966 212.901C338.647 214.356 337.752 215.6 337.072 216.922C336.393 218.245 335.918 219.838 336.495 221.214" stroke="#95B332" stroke-width="0.601106" stroke-miterlimit="10" stroke-linecap="round"/>
<path d="M346.516 188.863C345.548 189.169 344.641 189.686 343.727 190.329C343.276 189.83 342.693 189.458 342.062 189.259" stroke="#95B332" stroke-width="0.601106" stroke-miterlimit="10" stroke-linecap="round"/>
<path d="M338.623 193.552C340.03 194.165 341.232 195.247 341.948 196.527C343.264 196.118 344.64 195.92 346.017 195.932" stroke="#95B332" stroke-width="0.601106" stroke-miterlimit="10" stroke-linecap="round"/>
<path d="M342.567 201.083C340.848 201.191 339.146 201.612 337.566 202.322C337.031 201.636 336.375 201.047 335.63 200.608" stroke="#95B332" stroke-width="0.601106" stroke-miterlimit="10" stroke-linecap="round"/>
<path d="M335.432 208.224C336.778 208.248 338.106 208.885 338.99 209.925C340.114 208.988 341.539 208.429 342.987 208.363" stroke="#95B332" stroke-width="0.601106" stroke-miterlimit="10" stroke-linecap="round"/>
<path d="M335.041 214.812C335.726 215.311 336.351 215.9 336.958 216.718C337.962 216.255 339.074 216.033 340.174 216.087" stroke="#95B332" stroke-width="0.601106" stroke-miterlimit="10" stroke-linecap="round"/>
<path d="M332.444 221.629C334.398 219.657 333.941 216.285 332.757 213.748C331.573 211.212 329.793 208.873 329.439 206.09C329.234 204.461 329.535 202.808 329.499 201.167C329.463 199.526 328.976 197.735 327.641 196.827C326.397 195.98 324.774 196.118 323.313 195.775C320.308 195.072 318.21 192.403 315.836 190.389C313.461 188.376 309.818 186.987 307.12 189.373C308.809 190.077 309.386 192.223 309.47 194.086C309.554 195.949 309.404 197.969 310.42 199.52C312.211 202.267 316.731 202.159 318.204 205.098C319.424 207.527 317.849 210.839 319.4 213.063C320.765 215.023 323.854 215.041 325.159 217.042C325.844 218.094 325.964 219.615 327.028 220.258C327.731 220.679 328.609 220.559 329.421 220.631C330.238 220.715 331.176 221.178 332.444 221.629Z" fill="#CACC34"/>
<path d="M311.82 191.688C313.69 191.784 314.958 193.689 315.607 195.486C316.256 197.29 316.671 199.31 318.066 200.59C319.641 202.033 322.189 202.249 323.343 204.064C324.185 205.393 323.975 207.124 324.311 208.669C324.852 211.163 326.776 213.057 328.489 214.92C330.202 216.784 331.873 219.05 331.711 221.599" stroke="#95B332" stroke-width="0.601106" stroke-miterlimit="10" stroke-linecap="round"/>
<path d="M316.527 192.103C316.052 192.938 315.727 193.864 315.661 194.651C314.724 194.856 313.78 195.066 312.842 195.27C312.866 195.349 312.884 195.433 312.908 195.511" stroke="#95B332" stroke-width="0.601106" stroke-miterlimit="10" stroke-linecap="round"/>
<path d="M313.275 201.251C314.663 200.572 316.232 200.301 317.777 200.488C318.577 198.901 319.857 197.578 321.396 196.743" stroke="#95B332" stroke-width="0.601106" stroke-miterlimit="10" stroke-linecap="round"/>
<path d="M327.473 199.37C325.856 200.77 324.492 202.484 323.476 204.317C322.147 204.449 320.843 204.822 319.635 205.399" stroke="#95B332" stroke-width="0.601106" stroke-miterlimit="10" stroke-linecap="round"/>
<path d="M321.468 213.598C322.953 212.865 324.642 212.558 326.415 212.817C326.812 211.518 327.683 210.382 328.82 209.673" stroke="#95B332" stroke-width="0.601106" stroke-miterlimit="10" stroke-linecap="round"/>
<path d="M332.029 214.53C331.446 215.383 330.857 216.237 330.358 217.144C329.294 217.126 328.224 217.385 327.293 217.902" stroke="#95B332" stroke-width="0.601106" stroke-miterlimit="10" stroke-linecap="round"/>
<path d="M352.725 216.627C352.677 217.294 352.605 217.937 352.509 218.55C352.287 219.975 351.932 221.279 351.457 222.458C348.668 229.454 341.767 232.256 333.478 232.256C325.183 232.256 317.909 229.448 314.982 222.458C314.477 221.279 314.11 219.975 313.882 218.55C313.78 217.937 313.708 217.294 313.66 216.627H352.725Z" fill="#FA987D"/>
<path d="M352.503 218.545C352.281 219.969 351.926 221.274 351.451 222.452H314.976C314.471 221.274 314.105 219.969 313.876 218.545H352.503Z" fill="#FAB693"/>
<path d="M307.961 105.244C307.943 102.388 309.019 99.5451 310.919 97.4172C312.818 95.2892 315.523 93.9007 318.36 93.5941C316.75 98.409 313.005 102.46 307.961 105.244Z" fill="#739E3E"/>
<path d="M313.095 112.997C314.207 110.208 316.347 107.846 319.01 106.475C321.672 105.105 324.84 104.72 328.14 105.321C324.197 109.475 318.829 112.246 313.095 112.997Z" fill="#739E3E"/>
<path d="M310.24 112.114C307.997 111.098 305.31 111.11 303.074 112.15C300.838 113.19 299.095 115.228 298.428 117.602C300.688 117.338 302.966 117.067 305.112 116.31C307.252 115.546 309.278 114.248 310.24 112.114Z" fill="#739E3E"/>
<path d="M303.615 103.891C301.235 102.533 298.133 103.001 295.801 104.444C293.469 105.887 291.792 108.165 290.349 110.497C295.248 110.509 300.117 108.399 303.615 103.891Z" fill="#96BF54"/>
<path d="M298.259 97.4173C297.328 97.1769 296.582 96.4435 296.101 95.608C295.621 94.7725 295.374 93.8287 295.134 92.897C294.653 91.0516 294.172 89.2062 293.691 87.3668C295.434 88.4608 297.189 89.639 298.404 91.3101C299.612 92.9751 300.195 95.2413 298.259 97.4173Z" fill="#BDDE71"/>
<path d="M296.474 98.3132C294.322 97.5678 291.9 97.6279 289.79 98.4935C287.68 99.3591 285.907 101.012 284.897 103.05C288.858 103.35 292.928 101.968 296.474 98.3132Z" fill="#96BF54"/>
<path d="M295.206 96.1361C293.937 93.7558 291.683 91.9224 289.099 91.159C286.514 90.3956 283.622 90.7142 281.266 92.0246C283.526 92.9864 285.504 94.5132 287.722 95.5651C289.94 96.611 292.627 97.146 295.206 96.1361Z" fill="#BDDE71"/>
<path d="M304.216 100.789C302.04 95.0728 303.549 88.13 307.913 83.8381C308.112 86.8557 308.304 89.8973 307.949 92.8968C307.589 95.9083 306.651 98.9079 304.216 100.789Z" fill="#96BF54"/>
<path d="M314.916 120.999C311.195 109.097 302.016 99.0225 290.511 94.2136" stroke="#246E2D" stroke-width="0.300553" stroke-miterlimit="10" stroke-linecap="round"/>
<path d="M298.644 98.6019C298.434 96.8166 297.725 95.0855 296.618 93.6729" stroke="#246E2D" stroke-width="0.300553" stroke-miterlimit="10" stroke-linecap="round"/>
<path d="M297.64 98.0963C295.572 98.8417 293.396 99.2565 291.202 99.3286" stroke="#246E2D" stroke-width="0.300553" stroke-miterlimit="10" stroke-linecap="round"/>
<path d="M304.685 103.934C301.265 103.825 297.815 104.889 295.044 106.903" stroke="#246E2D" stroke-width="0.300553" stroke-miterlimit="10" stroke-linecap="round"/>
<path d="M307.414 107.054C308.232 104 309.879 101.175 312.133 98.9567" stroke="#246E2D" stroke-width="0.300553" stroke-miterlimit="10" stroke-linecap="round"/>
<path d="M312.295 114.05C314.742 111.081 318.096 108.863 321.787 107.775" stroke="#246E2D" stroke-width="0.300553" stroke-miterlimit="10" stroke-linecap="round"/>
<path d="M311.327 112.662C309.891 112.397 308.394 112.601 306.999 113.04C305.605 113.479 304.288 114.134 302.978 114.783" stroke="#246E2D" stroke-width="0.300553" stroke-miterlimit="10" stroke-linecap="round"/>
<path d="M305.93 89.5734C305.323 94.0576 304.715 98.5359 304.102 103.02" stroke="#246E2D" stroke-width="0.300553" stroke-miterlimit="10" stroke-linecap="round"/>
<path d="M333.677 76.8294C333.52 72.4834 334.518 67.1095 337.145 63.4908C339.772 59.8722 343.655 57.0289 348.085 55.4901C346.721 63.8695 341.094 72.4954 333.677 76.8294Z" fill="#D4E66E"/>
<path d="M330.461 84.4754C334.879 76.8113 343.878 72.0445 352.696 72.6937C347.875 79.7567 339.832 84.5174 330.461 84.4754Z" fill="#B8D957"/>
<path d="M330.731 83.5137C332.493 75.7414 329.698 67.0915 323.741 61.8739C324.137 64.5789 323.945 67.3319 323.873 70.067C323.801 72.802 323.843 75.5911 324.69 78.1879C325.526 80.7907 327.275 83.2072 330.731 83.5137Z" fill="#D4E66E"/>
<path d="M328.405 90.6849C327.022 86.8979 325.616 83.0749 323.458 79.7087C321.3 76.3425 318.282 73.4151 314.58 72.1948C315.373 76.2583 316.185 80.3939 318.09 84.0366C320.002 87.6793 323.199 90.8171 328.405 90.6849Z" fill="#B8D957"/>
<path d="M327.221 95.0186C329.673 91.5863 333.623 89.4043 337.74 88.2502C341.852 87.0961 346.168 86.8676 350.441 86.6512C344.172 92.8547 335.384 96.5575 327.221 95.0186Z" fill="#B8D957"/>
<path d="M325.033 102.406C322.484 94.0086 316.84 87.4385 310.306 85.2505C311.207 89.2599 312.374 93.161 313.78 96.8999C314.682 99.2863 316.389 100.981 318.228 101.991C320.068 103.001 322.051 103.404 325.033 102.406Z" fill="#94BA47"/>
<path d="M323.741 108.651C328.032 99.16 335.348 96.6233 345.152 97.555C340.019 103.698 332.306 110.004 323.741 108.651Z" fill="#94BA47"/>
<path d="M322.929 121.876C323.843 117.608 326.752 113.948 330.341 111.477C333.935 109.007 338.173 107.624 342.447 106.752C337.536 116.316 330.779 120.644 322.929 121.876Z" fill="#94BA47"/>
<path d="M323.211 115.402C320.434 108.021 313.984 102.364 306.681 100.898C307.444 104.985 309.494 108.778 312.422 111.525C315.349 114.272 319.13 115.955 323.211 115.402Z" fill="#94BA47"/>
<path d="M342.17 61.8735C335.552 70.8721 330.876 82.7439 327.539 92.8846C324.203 103.019 322.346 113.803 323.614 124.401" stroke="#246E2D" stroke-width="0.300553" stroke-miterlimit="10" stroke-linecap="round"/>
<path d="M325.682 67.8247C327.329 73.2888 328.97 78.7588 330.617 84.2229" stroke="#246E2D" stroke-width="0.300553" stroke-miterlimit="10" stroke-linecap="round"/>
<path d="M344.815 76.2402C339.844 78.5906 335.059 81.3376 330.527 84.4513" stroke="#246E2D" stroke-width="0.300553" stroke-miterlimit="10" stroke-linecap="round"/>
<path d="M343.331 89.1039C337.788 91.1657 332.246 93.2335 326.698 95.2953" stroke="#246E2D" stroke-width="0.300553" stroke-miterlimit="10" stroke-linecap="round"/>
<path d="M339.057 100.531C334.062 103.079 329.06 105.634 324.065 108.183" stroke="#246E2D" stroke-width="0.300553" stroke-miterlimit="10" stroke-linecap="round"/>
<path d="M318.529 78.2778C320.705 82.9304 324.011 87.054 328.081 90.1918" stroke="#246E2D" stroke-width="0.300553" stroke-miterlimit="10" stroke-linecap="round"/>
<path d="M314.321 90.8411C316.894 95.4876 320.525 99.5451 324.853 102.617" stroke="#246E2D" stroke-width="0.300553" stroke-miterlimit="10" stroke-linecap="round"/>
<path d="M311.075 105.148C314.574 109.079 318.601 112.535 323.013 115.409" stroke="#246E2D" stroke-width="0.300553" stroke-miterlimit="10" stroke-linecap="round"/>
<path d="M337.362 110.515C333.16 114.897 328.327 118.678 323.067 121.714" stroke="#246E2D" stroke-width="0.300553" stroke-miterlimit="10" stroke-linecap="round"/>
<path d="M334.53 152.388H305.527V155.093H334.53V152.388Z" fill="#DB6F5E"/>
<path d="M339.411 123.301L339.032 129.36L337.71 150.453C337.596 152.256 336.105 153.657 334.302 153.657H306.098C304.312 153.657 302.828 152.28 302.695 150.501L301.096 129.36L300.64 123.301H339.411Z" fill="#FA987D"/>
<path d="M339.411 123.301L339.032 129.36H301.096L300.64 123.301H339.411Z" fill="#DB6F5E"/>
<path d="M341.064 119.249V123.691C341.064 124.995 340 126.047 338.684 126.047H301.367C300.73 126.047 300.147 125.801 299.72 125.398C299.263 124.965 298.987 124.358 298.987 123.691V119.249C298.987 117.95 300.051 116.898 301.373 116.898H338.69C339.874 116.898 340.848 117.752 341.034 118.87C341.058 118.99 341.064 119.122 341.064 119.249Z" fill="#FAB693"/>
<path d="M341.064 119.249V123.691C341.064 124.996 340 126.048 338.684 126.048H301.367C300.73 126.048 300.147 125.801 299.72 125.399C299.696 125.278 299.684 125.146 299.684 125.014V120.572C299.684 119.267 300.748 118.215 302.07 118.215H339.387C340.024 118.215 340.607 118.468 341.028 118.865C341.058 118.991 341.064 119.123 341.064 119.249Z" fill="#FA987D"/>
<path d="M368.114 157.431H361.959V248.865H368.114V157.431Z" fill="#F4E8D8"/>
<path d="M293.649 157.431H287.493V248.865H293.649V157.431Z" fill="#F4E8D8"/>
<path d="M373.043 155.093H282.877V162.805H373.043V155.093Z" fill="#835F53"/>
<path d="M373.043 231.536H282.877V239.248H373.043V231.536Z" fill="#835F53"/>
<path d="M51.5092 290.485C51.4431 290.743 51.3469 290.984 51.1966 291.206C50.4332 292.354 48.66 292.396 47.3736 291.687C46.0933 290.972 45.1976 289.715 44.35 288.507C40.9057 283.572 37.4554 278.649 34.005 273.714C33.5963 273.131 33.1815 272.53 33.0432 271.85C32.8208 270.756 33.3558 269.807 34.1673 269.085C34.6542 268.646 35.2493 268.286 35.8384 268.027C35.9706 267.967 36.1029 267.913 36.2351 267.859C37.6898 267.246 39.2887 266.717 40.0822 265.376C42.9735 268.406 45.8708 271.376 48.9064 274.189C49.1228 275.385 49.3392 276.569 49.5496 277.741C50.1748 281.21 50.7939 284.588 51.407 287.972C51.5633 288.808 51.7016 289.709 51.5092 290.485Z" fill="#535A61"/>
<path d="M47.3737 291.686C46.0933 290.971 45.1977 289.715 44.3501 288.506C40.8998 283.577 37.4494 278.648 34.0051 273.713C33.5963 273.13 33.1816 272.523 33.0433 271.844C32.8209 270.75 33.3619 269.806 34.1734 269.079C36.3674 273.846 39.391 278.21 42.3905 282.525C43.6949 284.401 45.0113 286.294 46.7065 287.833C48.071 289.072 49.724 290.069 51.5093 290.478C51.4432 290.731 51.347 290.971 51.1967 291.199C50.4273 292.36 48.6601 292.396 47.3737 291.686Z" fill="#81898F"/>
<path d="M49.5497 277.741C44.8911 276.04 40.6593 273.142 37.4314 269.373C37.0166 268.886 36.6139 268.382 36.2352 267.859C37.6899 267.245 39.2888 266.716 40.0823 265.376C42.9736 268.406 45.8709 271.375 48.9065 274.188C49.1229 275.384 49.3393 276.569 49.5497 277.741Z" fill="#404754"/>
<path d="M121.25 292.853C119.873 293.358 118.334 293.219 116.868 293.069C110.88 292.468 104.893 291.873 98.9064 291.272C98.1971 291.2 97.4698 291.122 96.8627 290.785C95.8889 290.238 95.5222 289.216 95.5042 288.128C95.4861 287.473 95.6004 286.788 95.7867 286.174C95.9009 285.79 96.0392 285.405 96.1654 285.014C96.5862 283.746 96.9649 282.46 96.5441 281.227C100.728 281.011 104.869 280.746 108.981 280.284C109.594 280.644 110.201 281.005 110.808 281.36C114.295 283.409 117.679 285.387 121.063 287.371C121.797 287.797 122.572 288.278 123.035 288.933C123.185 289.15 123.305 289.378 123.377 289.637C123.75 290.971 122.626 292.342 121.25 292.853Z" fill="#535A61"/>
<path d="M121.25 292.853C119.873 293.358 118.334 293.219 116.868 293.069C110.881 292.468 104.894 291.873 98.9067 291.272C98.1974 291.2 97.4701 291.122 96.863 290.785C95.8892 290.238 95.5225 289.216 95.5045 288.128C100.548 289.571 105.831 290.124 111.061 290.665C113.333 290.899 115.629 291.134 117.902 290.851C119.729 290.623 121.562 290.022 123.035 288.934C123.185 289.15 123.306 289.378 123.378 289.637C123.75 290.971 122.626 292.342 121.25 292.853Z" fill="#81898F"/>
<path d="M110.808 281.36C106.45 284.029 101.263 285.315 96.1654 285.015C96.5862 283.746 96.9649 282.46 96.5441 281.228C100.728 281.011 104.869 280.747 108.981 280.284C109.594 280.645 110.201 281.005 110.808 281.36Z" fill="#404754"/>
<path d="M110.075 280.879C108.001 282.436 98.8524 283.494 96.0873 282.538C84.5641 252.904 87.6357 242.721 89.0062 234.353C88.7177 232.761 88.4472 231.288 88.1827 229.911C85.8685 217.595 84.6061 212.84 82.8569 195.282C82.8449 195.558 82.8269 195.829 82.8149 196.099C81.8711 215.779 82.6646 231.336 78.9678 236.493C74.3393 242.949 60.9707 262.834 50.5775 277.339C46.1053 274.76 40.7494 270.059 39.2226 265.377C51.6054 248.101 49.4234 240.046 62.7139 230.837C57.6586 206.498 56.3181 190.467 56.6547 179.923C57.2197 161.794 62.7139 159.888 62.7139 159.888C62.7139 159.888 88.4352 164.445 102.351 160.652C103.331 165.112 104.052 169.476 104.569 173.786C108.38 205.44 102.032 233.915 110.075 280.879Z" fill="#2B3650"/>
<path d="M104.569 173.786C89.7936 180.759 72.7282 182.881 56.6546 179.923C57.2196 161.794 62.7137 159.888 62.7137 159.888C62.7137 159.888 88.4351 164.445 102.351 160.652C103.33 165.112 104.052 169.476 104.569 173.786Z" fill="#1D2538"/>
<path d="M90.6773 190.647L88.1827 229.911C85.8684 217.595 84.6061 212.84 82.8569 195.282C83.1094 195.161 90.6773 190.647 90.6773 190.647Z" fill="#1D2538"/>
<path d="M50.1808 117.672C48.3414 115.635 47.4698 112.755 47.6622 110.02C47.9687 105.614 51.4011 102.152 53.3246 98.1724C55.6569 93.3335 55.6749 87.4427 53.6612 82.5978C64.9019 85.447 76.6716 86.1984 88.7839 84.9301C86.4215 88.0799 87.2811 92.6002 88.9942 96.1407C90.7074 99.6812 93.1719 102.963 93.8812 106.834C95.0414 113.2 90.9238 119.644 85.3816 122.992C79.8334 126.346 61.3013 129.995 50.1808 117.672Z" fill="#40455A"/>
<path d="M79.4666 111.402C79.7491 108.95 80.1218 106.449 81.2759 104.267C82.43 102.085 84.5159 100.246 86.9744 100.017C90.1663 99.7229 92.9614 102.103 94.9992 104.58C98.8703 109.293 101.521 114.871 103.92 120.575C99.4714 124.17 94.5964 127.242 89.4389 129.7C85.1651 124.134 78.6731 118.327 79.4666 111.402Z" fill="#F4E8D8"/>
<path d="M105.789 171.459C90.2564 176.911 71.52 175.667 55.3021 172.866C57.0513 162.695 59.1432 151.027 58.0011 146.711C57.9831 146.639 57.959 146.561 57.941 146.489C57.941 146.483 57.935 146.489 57.935 146.489C56.2639 140.472 49.9643 128.221 48.7741 119.8C50.8539 115.207 55.1038 109.076 58.7104 104.598C67.9013 107.73 74.5736 108.277 82.1836 102.867C95.2096 112.058 97.1692 127.181 98.4916 137.719C99.1829 143.225 99.9944 147.661 100.986 152.109C102.249 157.778 103.805 163.476 105.789 171.459Z" fill="#19C078"/>
<path d="M105.789 171.459C90.2565 176.911 71.52 175.667 55.3021 172.865C57.0513 162.695 59.1432 151.027 58.0011 146.711C57.9831 146.639 57.959 146.561 57.941 146.489C64.7756 151.184 73.2932 153.726 81.6546 154.111C88.1706 154.405 94.6325 153.582 100.986 152.109C102.249 157.778 103.805 163.476 105.789 171.459Z" fill="#19C078"/>
<path d="M122.235 157.177C123.293 158.782 124.345 160.387 125.403 161.986C125.812 162.611 126.245 163.357 125.992 164.06C125.65 165.022 124.309 165.154 123.353 164.799C121.827 164.228 120.648 162.81 120.372 161.205C120.095 159.6 120.727 157.869 122.235 157.177Z" fill="#E88A82"/>
<path d="M127.952 144.493L126.167 149.969L121.833 163.199C121.244 165.002 118.833 166.145 116.164 165.898L94.9394 163.914C92.2645 163.662 90.1305 162.093 89.9081 160.218L88.2851 146.434L87.6119 140.724L127.952 144.493Z" fill="#FA987D"/>
<path d="M127.952 144.493L126.16 149.969L88.2788 146.434L87.6055 140.724L127.952 144.493Z" fill="#DB6F5E"/>
<path d="M130.314 140.291L128.643 147.438L86.2832 143.483L85.9045 137.724L85.7963 136.137L130.314 140.291Z" fill="#FAB693"/>
<path d="M128.836 141.734L127.519 147.336L86.2832 143.483L85.9045 137.724L128.836 141.734Z" fill="#FA987D"/>
<path d="M108.338 155.903C110.177 158.163 110.808 159.792 110.604 160.387C110.195 161.571 108.193 161.415 107.316 160.79C108.368 162.215 109.005 163.273 109.474 165.166C107.598 163.838 105.651 162.052 104.298 160.195C103.871 159.606 103.451 158.878 103.673 158.181C103.847 157.64 104.364 157.292 104.875 157.039C105.801 156.576 107.208 156.089 108.338 155.903Z" fill="#DB6F5E"/>
<path d="M97.8424 152.621C97.8424 152.621 102.549 152.212 104.773 153.21C106.997 154.208 108.783 156.005 110.231 157.971C110.688 158.596 111.139 159.395 110.826 160.105C110.52 160.802 109.582 161.018 108.849 160.796C108.121 160.573 107.538 160.032 106.949 159.546C106.36 159.059 105.681 158.596 104.893 158.746C106.312 160.646 107.737 162.539 109.155 164.439C109.402 164.769 109.66 165.142 109.63 165.551C109.582 166.134 108.963 166.506 108.392 166.627C107.172 166.891 105.819 166.464 104.905 165.418C104.725 166.128 104.148 166.723 103.445 166.927C102.741 167.132 101.936 166.945 101.431 166.422C101.016 166.981 100.301 167.294 99.6096 167.222C98.9184 167.15 98.2812 166.699 97.9867 166.284C97.5599 166.819 96.7183 166.867 96.1052 166.554C95.4921 166.242 95.0713 165.665 94.7046 165.076C93.5084 163.14 92.751 160.934 92.6669 159.047C94.38 157.081 97.8424 152.621 97.8424 152.621Z" fill="#F9B6A7"/>
<path d="M121.484 167.978C119.224 168.093 119.549 164.426 120.047 162.929C120.222 162.412 120.534 161.907 121.184 161.871C122.067 161.829 122.247 162.28 122.524 163.061C122.849 163.993 123.756 167.864 121.484 167.978Z" fill="#F9B6A7"/>
<path d="M115.461 167.323C113.201 167.437 113.525 163.771 114.024 162.274C114.199 161.757 114.511 161.252 115.16 161.216C116.044 161.174 116.224 161.625 116.501 162.406C116.825 163.338 117.733 167.215 115.461 167.323Z" fill="#F9B6A7"/>
<path d="M112.726 167.323C110.466 167.438 110.79 163.771 111.289 162.274C111.464 161.757 111.776 161.252 112.425 161.216C113.309 161.174 113.489 161.625 113.766 162.406C114.09 163.338 114.998 167.215 112.726 167.323Z" fill="#F9B6A7"/>
<path d="M118.719 167.317C116.471 167.516 116.501 163.843 116.88 162.334C117.012 161.811 117.288 161.294 117.926 161.234C118.803 161.156 119.02 161.601 119.356 162.37C119.765 163.284 120.979 167.113 118.719 167.317Z" fill="#F9B6A7"/>
<path d="M80.9454 110.945C80.5426 112.562 79.6109 114.089 78.2524 114.63C76.8999 115.165 75.4212 114.63 74.0927 114.023C69.9451 112.111 66.08 109.352 62.7138 105.914C63.2548 103.882 63.6155 101.923 63.8379 100.017C64.0903 97.8592 64.1685 95.7794 64.1324 93.7657C64.1144 92.3892 64.0302 91.0487 63.928 89.7383C67.7691 90.2973 71.6402 90.5678 76.389 90.8203C76.383 91.0487 76.377 91.2771 76.3709 91.4995C76.2988 93.9821 76.2748 96.4887 76.7977 98.8871C77.2425 100.931 78.1442 102.921 79.4967 104.261C79.8754 104.64 80.2841 104.964 80.741 105.229C81.294 107.609 81.3421 109.328 80.9454 110.945Z" fill="#F9B6A7"/>
<path d="M79.4966 104.261C74.1047 105.704 68.1538 104.081 63.8378 100.017C64.0903 97.8591 64.1684 95.7793 64.1324 93.7656C68.286 93.9098 72.4577 93.1404 76.3709 91.4994C76.2988 93.982 76.2747 96.4886 76.7977 98.887C77.2365 100.931 78.1381 102.92 79.4966 104.261Z" fill="#E88A82"/>
<path d="M92.5715 86.088C92.0386 84.0416 89.2185 83.0046 86.2725 83.7717C83.3266 84.5389 81.3704 86.8197 81.9033 88.8662C82.4362 90.9126 85.2564 91.9496 88.2024 91.1825C91.1483 90.4153 93.1045 88.1345 92.5715 86.088Z" fill="#E88A82"/>
<path d="M57.1777 83.0839C56.4924 72.4263 62.9844 63.3375 71.6824 62.7725C80.3804 62.2135 87.9904 70.3945 88.6817 81.0522C89.373 91.7098 84.6122 100.799 75.9142 101.364C67.2162 101.929 57.863 93.7415 57.1777 83.0839Z" fill="#F9B6A7"/>
<path d="M59.4619 81.0831C64.5533 79.959 68.8692 77.0977 71.6102 72.6014C75.9562 75.8715 80.9935 77.224 86.3434 78.0715C87.2991 80.1694 87.9303 82.4175 88.2128 84.7077C88.6035 81.2454 88.5554 77.7349 88.0265 74.1583C82.6646 72.1266 77.5191 69.5418 72.9447 66.3079C68.1899 71.1107 63.5915 76.0698 59.4619 81.0831Z" fill="#E88A82"/>
<path d="M63.9942 59.7976C56.9612 60.4949 52.3988 66.6382 51.8338 72.3367C51.0103 80.6861 55.9454 87.701 56.0716 87.9354C56.9973 86.1682 57.5804 84.2867 57.2197 82.4714C64.5472 80.0309 71.0211 73.6592 71.8567 67.7082C71.0572 63.7289 70.2878 59.1725 63.9942 59.7976Z" fill="#40455A"/>
<path d="M58.8568 81.1696C56.3417 79.7426 53.4024 80.1729 52.2916 82.1307C51.1808 84.0885 52.3192 86.8324 54.8343 88.2594C57.3494 89.6863 60.2887 89.256 61.3995 87.2983C62.5103 85.3405 61.3719 82.5966 58.8568 81.1696Z" fill="#F9B6A7"/>
<path d="M90.8036 80.716C90.1664 82.7718 89.4871 84.9057 88.2909 87.1719C88.2849 84.0461 87.7139 80.9504 87.0527 77.8968C82.2799 76.2137 77.8197 74.729 73.8403 72.3005C69.867 69.8841 66.3506 66.4157 64.7636 61.8653C64.7636 60.7953 65.485 59.6172 66.7894 58.6253C69.0495 56.9122 73.0649 55.7821 78.1202 56.7739C85.1411 58.1565 89.5533 63.5785 91.1582 68.8922C92.2462 72.4929 92.138 76.388 90.8036 80.716Z" fill="#40455A"/>
<path d="M90.8035 80.7159C90.8576 76.9169 90.2505 73.1119 88.7718 69.6194C86.8663 65.1111 83.4279 61.1679 78.9737 59.1181C75.1808 57.3629 70.6544 57.1104 66.7833 58.6312C69.0435 56.9181 73.0588 55.788 78.1141 56.7798C85.1351 58.1623 89.5472 63.5843 91.1521 68.8981C92.2462 72.4927 92.138 76.3879 90.8035 80.7159Z" fill="#5A6478"/>
<path d="M72.3558 81.9121C71.2497 81.2329 69.8972 80.9744 68.6229 81.1968C67.3486 81.4192 66.1584 82.1165 65.1966 83.2526C65.6534 82.3449 66.1884 81.4553 66.9458 80.77C67.7032 80.0908 68.7071 79.6339 69.7169 79.7121C70.7328 79.7902 71.7246 80.4875 72.3558 81.9121Z" fill="#40455A"/>
<path d="M86.4095 82.237C85.5379 81.2932 84.2695 80.7522 83.0132 80.7883C81.7509 80.8244 80.5186 81.4315 79.8514 82.1769C80.4164 81.2512 81.0957 80.3735 82.0034 79.8025C82.905 79.2374 84.0652 79.021 85.0329 79.4599C85.9947 79.8987 86.668 81.0768 86.4095 82.237Z" fill="#40455A"/>
<path d="M70.5222 88.3503C71.06 88.3503 71.496 87.6774 71.496 86.8475C71.496 86.0175 71.06 85.3447 70.5222 85.3447C69.9843 85.3447 69.5484 86.0175 69.5484 86.8475C69.5484 87.6774 69.9843 88.3503 70.5222 88.3503Z" fill="#2C3C4D"/>
<path d="M82.1836 88.3503C82.7214 88.3503 83.1574 87.6774 83.1574 86.8475C83.1574 86.0175 82.7214 85.3447 82.1836 85.3447C81.6458 85.3447 81.2098 86.0175 81.2098 86.8475C81.2098 87.6774 81.6458 88.3503 82.1836 88.3503Z" fill="#2C3C4D"/>
<path d="M78.5651 87.3036C78.7935 88.3615 78.6432 89.5036 78.1443 90.4654" stroke="#9E4958" stroke-width="0.601106" stroke-miterlimit="10" stroke-linecap="round"/>
<path d="M77.9519 94.6609C76.341 95.3161 74.3393 94.8713 73.1611 93.5909" stroke="#9E4958" stroke-width="0.601106" stroke-miterlimit="10" stroke-linecap="round"/>
<path d="M98.4916 152.543C97.4396 155.951 95.6844 158.77 93.5084 161.217C84.3836 157.496 74.6637 154.773 67.0477 148.78C63.3148 145.846 60.8383 141.549 58.0311 137.665C56.2398 135.201 54.5327 132.67 52.8976 130.085C57.418 128.132 62.1847 126.124 67.0597 124.447C68.2259 126.467 69.4401 128.474 70.7024 130.452C73.203 134.407 74.6637 139.787 78.8474 141.939C81.9491 143.532 84.9246 144.65 87.4793 146.676C90.7553 149.267 94.5062 151.268 98.4916 152.543Z" fill="#F9B6A7"/>
<path d="M70.7024 130.452C67.1078 133.782 62.7317 136.271 58.0311 137.665C56.2398 135.201 54.5327 132.67 52.8976 130.085C57.418 128.132 62.1847 126.124 67.0597 124.447C68.2259 126.467 69.4401 128.474 70.7024 130.452Z" fill="#E88A82"/>
<path d="M70.8527 128.053C65.1662 131.708 56.7928 133.932 50.3429 135.237C49.0505 126.593 46.021 118.856 46.9527 111.18C48.1308 101.503 60.5978 99.6031 64.4208 109.058C66.6449 114.553 69.1876 121.075 70.8527 128.053Z" fill="#F4E8D8"/>
<path d="M222.74 263.036C210.772 266.108 198.353 267.106 186.096 265.982C182.574 265.657 178.787 265.02 176.298 262.303C173.221 258.943 173.185 253.533 174.158 248.923C175.998 240.188 180.65 232.374 186.307 225.828C191.969 219.282 198.642 213.866 206.786 209.322C214.216 211.077 221.646 212.832 229.082 214.587C230.518 214.924 232.063 215.333 233.007 216.547C234.227 218.11 234.023 220.418 233.722 222.438C231.69 235.86 228.132 249.007 222.74 263.036Z" fill="#30344A"/>
<path d="M258.795 251.646C258.782 251.808 258.752 251.958 258.71 252.102C258.223 253.792 255.939 254.465 254.076 254.717C246.424 255.763 238.778 256.803 231.126 257.849C229.214 252.968 227.411 248.057 226.395 243.158C226.046 241.487 225.698 239.774 225.98 238.097C226.263 236.414 227.321 234.754 228.956 234.268C231.216 233.594 233.422 235.307 235.243 236.804C235.303 236.852 235.369 236.906 235.43 236.955C241.14 241.607 247.674 245.262 254.617 247.714C256.57 248.4 258.975 249.584 258.795 251.646Z" fill="#734943"/>
<path d="M258.795 251.645C258.783 251.807 258.752 251.958 258.71 252.102C249.73 247.473 240.082 244.149 230.158 242.262C231.084 239.899 232.977 238.126 235.43 236.954C241.14 241.607 247.674 245.261 254.617 247.714C256.57 248.399 258.975 249.583 258.795 251.645Z" fill="#996A59"/>
<path d="M182.983 208.75C181.174 210.987 179.436 213.283 177.819 215.627C174.76 220.057 172.121 224.656 170.167 229.338C165.815 229.032 161.457 228.719 157.61 227.607C159.209 220.352 161.475 213.247 164.721 206.262C165.389 204.825 166.092 203.401 166.843 201.976C172.842 200.912 179.346 203.569 182.983 208.75Z" fill="#FFD4C4"/>
<path d="M177.819 215.627C177.843 214.996 177.831 214.359 177.783 213.728C177.615 211.582 176.936 209.412 175.493 207.807C173.846 205.979 171.309 205.072 168.851 205.18C167.414 205.246 166.014 205.631 164.721 206.262C165.389 204.825 166.092 203.401 166.843 201.976C172.842 200.912 179.346 203.569 182.983 208.75C181.174 210.987 179.436 213.283 177.819 215.627Z" fill="#EDAB9F"/>
<path d="M175.692 163.632C169.915 166.409 170.149 175.095 169.482 181.442C168.815 187.79 168.238 194.504 165.503 199.421C171.562 200.089 177.411 202.517 182.081 206.31C187.666 200.179 190.383 191.685 189.361 183.57C188.339 175.455 183.59 167.851 175.692 163.632Z" fill="#8ADBD5"/>
<path d="M181.775 211.095C179.767 208.414 177.17 206.19 174.159 205.048C171.153 203.906 167.727 203.9 164.842 205.378C163.796 204.855 163.153 203.377 163.309 202.138C163.477 200.834 165.93 198.195 165.497 196.969C168.827 195.52 172.085 195.039 176.299 195.941C180.513 196.843 185.135 199.572 186.127 204.236C184.949 205.306 184.462 205.066 184.263 206.719C184.155 207.621 184.215 208.564 183.921 209.418C183.638 210.265 182.815 211.017 181.775 211.095Z" fill="#AEEBE1"/>
<path d="M159.798 226.206C154.082 228.665 149.79 234.177 148.804 240.326C148.726 240.819 148.666 241.33 148.816 241.805C148.966 242.28 149.369 242.706 149.868 242.73C150.481 242.755 150.944 242.201 151.305 241.703C152.615 239.869 153.925 238.042 155.362 236.118C154.286 238.913 153.841 241.943 154.058 244.931C154.1 245.514 154.178 246.109 154.478 246.608C154.779 247.107 155.368 247.473 155.939 247.347C156.775 247.161 157.063 246.145 157.424 244.961C157.67 245.808 158.295 246.62 159.167 246.764C160.039 246.914 161.018 246.085 161.205 245.039C161.481 245.784 162.485 246.061 163.212 245.736C163.94 245.411 164.385 244.648 164.571 243.879C164.751 243.103 164.715 242.298 164.739 241.504C164.763 240.711 164.854 239.887 165.118 238.931C167.096 238.042 168.755 236.449 169.716 234.501C170.678 232.554 170.949 230.276 170.197 228.436C166.921 227.955 163.699 227.138 159.798 226.206Z" fill="#FFD4C4"/>
<path d="M297.638 267.177C297.367 268.121 296.622 268.674 295.69 268.981C294.687 269.305 293.478 269.353 292.42 269.293C285.796 268.915 279.172 268.542 272.548 268.169C271.46 268.109 270.378 268.043 269.29 267.983C268.352 262.819 267.523 257.662 267.456 252.655C267.45 252.27 267.444 251.891 267.45 251.507C267.462 250.172 267.553 248.844 268.015 247.605C268.262 246.956 268.635 246.331 269.109 245.808C269.783 245.051 270.666 244.516 271.67 244.42C274.021 244.191 275.854 246.295 277.357 248.11C282.111 253.845 287.87 258.75 294.29 262.525C296.075 263.571 298.209 265.194 297.638 267.177Z" fill="#835F53"/>
<path d="M297.638 267.178C297.367 268.121 296.622 268.674 295.69 268.981C295.089 267.574 294.049 266.288 292.859 265.332C290.497 263.445 287.581 262.375 285.153 260.577C281.685 258.029 279.43 254.2 276.587 250.972C274.573 248.688 271.971 246.602 269.109 245.808C269.783 245.051 270.666 244.516 271.67 244.42C274.02 244.191 275.854 246.295 277.357 248.11C282.111 253.845 287.87 258.75 294.29 262.525C296.075 263.571 298.209 265.194 297.638 267.178Z" fill="#A37F6D"/>
<path d="M272.548 268.169C271.46 268.109 270.378 268.043 269.29 267.983C268.352 262.819 267.523 257.662 267.456 252.654C267.45 252.27 267.444 251.891 267.45 251.506C269.807 253.34 271.406 256.171 272.133 259.104C272.866 262.056 272.836 265.127 272.548 268.169Z" fill="#735046"/>
<path d="M270.606 270.194C259.444 271.234 225.511 273.158 217.955 273.158C217.925 273.158 217.901 273.152 217.871 273.152C213.2 272.671 208.091 269.443 207.905 264.748C207.514 254.854 210.904 244.996 215.689 235.979C216.513 234.434 217.372 232.92 218.262 231.429C213.236 229.457 208.945 226.969 205.975 223.164C205.536 222.605 205.128 222.004 204.773 221.378C202.675 217.772 201.978 213.269 203.937 209.651C219.56 212.921 236.782 208.96 250.072 201.74C251.491 209.488 251.81 216.293 250.715 222.917C249.597 229.704 244.885 242.597 240.431 249.835C251.142 247.557 255.35 247.959 267.45 246.829C271.165 252.083 272.548 264.406 270.606 270.194Z" fill="#40455A"/>
<path d="M250.715 222.917C239.685 226.259 227.561 225.592 216.05 223.843C212.263 223.272 208.416 222.551 204.773 221.378C202.675 217.772 201.978 213.269 203.937 209.651C219.56 212.921 236.782 208.96 250.072 201.74C251.491 209.488 251.81 216.293 250.715 222.917Z" fill="#30344A"/>
<path d="M235.82 262.062C237.96 258.81 239.439 255.131 240.467 251.092C240.912 255.299 239 259.681 235.82 262.062Z" fill="#30344A"/>
<path d="M241.134 251.158C242.541 254.8 242.625 258.936 241.368 262.633C243.4 259.134 243.382 254.542 241.134 251.158Z" fill="#30344A"/>
<path d="M258.037 253.615C260.285 254.33 262.293 255.785 263.681 257.696C265.07 259.608 265.827 261.964 265.809 264.327C264.565 261.213 262.756 258.322 260.496 255.845C259.612 254.871 258.602 253.927 258.037 253.615Z" fill="#30344A"/>
<path d="M263.724 252.208C267.192 255.707 268.388 261.267 266.669 265.884C266.891 261.333 265.689 256.717 263.724 252.208Z" fill="#30344A"/>
<path d="M217.955 273.158C217.925 273.158 217.901 273.152 217.871 273.152C213.2 272.671 208.091 269.443 207.905 264.748C207.514 254.854 210.904 244.996 215.689 235.979C213.741 242.988 212.269 250.123 211.283 257.331C210.814 260.751 210.483 264.4 211.956 267.525C213.146 270.056 215.407 271.944 217.955 273.158Z" fill="#515970"/>
<path d="M253.216 216.474C240.671 222.455 212.353 224.3 195.582 215.542C197.211 212.873 199.501 210.204 200.451 207.938C200.691 207.367 200.842 206.82 200.878 206.303C201.088 203.286 193.767 193.788 189.228 190.434C185.784 187.891 181.883 186.01 178.517 183.371C175.15 180.726 172.247 177.035 171.983 172.768C171.706 168.325 174.387 164.112 177.909 161.389C181.426 158.666 185.718 157.163 190.088 155.396C201.148 151.819 219.386 152.426 232.159 161.154C236.451 164.082 241.645 171.974 245.943 183.948C249.086 192.718 251.749 203.676 253.216 216.474Z" fill="#6CC5C3"/>
<path d="M253.216 216.474C240.671 222.455 212.353 224.301 195.582 215.543C197.211 212.874 199.501 210.205 200.451 207.939C205.176 210.59 210.471 212.225 215.869 212.627C224.411 213.265 233.145 210.818 240.112 205.835C233.963 208.017 227.002 207.819 220.991 205.294C229.556 203.755 237.425 198.616 242.27 191.378C243.815 189.076 245.041 186.569 245.943 183.949C249.086 192.719 251.749 203.677 253.216 216.474Z" fill="#5AB4B8"/>
<path d="M209.005 153.52C210.844 157.44 211.776 161.798 211.241 166.078C210.604 171.175 207.712 176.092 203.192 178.538C198.678 180.979 192.589 180.558 188.862 177.024C187.01 175.274 185.832 172.936 184.744 170.628C184.185 169.438 183.632 168.103 184.017 166.847C184.383 165.651 185.489 164.869 186.529 164.184C192.078 160.523 197.746 157.037 204.25 153.34" fill="#3C99A3"/>
<path d="M206.348 154.049C207.231 157.385 208.127 160.764 208.157 164.22C208.187 167.67 207.274 171.259 204.941 173.808C202.2 176.801 197.716 177.943 193.779 176.945C189.841 175.947 186.535 172.978 184.798 169.311C192.078 164.911 198.978 159.892 206.348 154.049Z" fill="#EDAB9F"/>
<path d="M175.497 153.416C172.46 153.201 169.878 154.737 169.728 156.847C169.579 158.956 171.92 160.84 174.957 161.055C177.994 161.27 180.576 159.734 180.725 157.624C180.874 155.515 178.533 153.631 175.497 153.416Z" fill="#EDAB9F"/>
<path d="M204.352 147.569C201.773 137.206 192.829 130.51 184.371 132.614C175.914 134.718 171.748 144.69 173.72 155.185C175.655 165.482 180.62 174.21 192.042 171.572C200.535 169.606 206.925 157.933 204.352 147.569Z" fill="#FFD4C4"/>
<path d="M200.385 148.315C197.283 147.071 194.65 144.702 193.231 141.877C190.953 143.759 188.212 145.075 185.315 145.67C184.57 145.82 183.8 145.929 183.055 145.796C182.309 145.664 181.576 145.255 181.263 144.45C179.009 146.037 176.238 146.86 173.431 146.542C173.347 144.991 173.263 143.434 173.179 141.883C180.747 139.395 188.176 136.491 195.42 133.179C197.577 137.158 199.735 141.138 200.385 148.315Z" fill="#EDAB9F"/>
<path d="M207.58 149.493C206.029 149.865 204.556 150.551 203.499 151.741C199.08 148.988 195.828 144.419 194.272 139.009C192.865 140.224 191.434 141.438 189.829 142.376C188.218 143.319 186.415 143.987 184.558 144.029C183.933 144.041 183.277 143.974 182.76 143.62C182.249 143.265 181.937 142.556 182.231 142.105C178.691 144.209 174.85 146.385 170.744 146.078C169.957 146.018 169.157 145.862 168.49 145.441C168.292 145.315 168.105 145.165 167.949 144.99C167.564 144.588 167.312 144.065 167.306 143.512C167.306 142.724 167.913 141.931 168.779 141.642C167.889 141.354 167.18 140.638 166.747 139.803C166.32 138.967 166.146 138.024 166.086 137.092C166.008 136.004 166.098 134.85 166.723 133.96C167.282 133.167 168.196 132.704 169.109 132.379C170.852 131.766 172.746 131.568 174.333 131.694C174.002 130.353 174.958 128.959 176.184 128.322C177.417 127.685 178.853 127.624 180.236 127.582C183.951 127.456 187.665 127.336 191.386 127.21C192.907 127.162 194.506 127.125 195.883 127.787C196.345 128.009 196.766 128.34 197.139 128.742C197.872 129.548 198.395 130.66 198.563 131.868C200.204 130.72 202.621 131.556 203.865 133.125C205.104 134.693 205.47 136.761 205.795 138.733C206.39 142.321 206.985 145.904 207.58 149.493Z" fill="#73323B"/>
<path d="M209.412 148.943C208.251 147.014 205.302 146.659 202.824 148.149C200.347 149.64 199.279 152.412 200.439 154.341C201.599 156.269 204.548 156.625 207.026 155.134C209.504 153.643 210.572 150.872 209.412 148.943Z" fill="#FFD4C4"/>
<path d="M197.139 128.742C191.362 128.057 185.435 128.61 179.881 130.359C179.13 130.594 178.372 130.858 177.765 131.357C177.158 131.856 176.731 132.638 176.611 133.491C174.465 133.082 172.169 133.539 170.354 134.748C169.199 135.517 168.196 136.659 167.973 138.03C167.757 139.4 168.532 140.975 170.203 141.6C168.989 142.315 168.184 143.602 167.949 144.99C167.564 144.588 167.312 144.065 167.306 143.512C167.306 142.724 167.913 141.931 168.779 141.642C167.889 141.354 167.18 140.638 166.747 139.803C166.32 138.967 166.146 138.024 166.086 137.092C166.008 136.004 166.098 134.85 166.723 133.96C167.282 133.167 168.196 132.704 169.109 132.379C170.852 131.766 172.746 131.568 174.333 131.694C174.002 130.353 174.958 128.959 176.184 128.322C177.417 127.685 178.853 127.624 180.236 127.582C183.951 127.456 187.665 127.336 191.386 127.21C192.907 127.162 194.506 127.125 195.883 127.787C196.345 128.009 196.766 128.34 197.139 128.742Z" fill="#944B50"/>
<path d="M203.667 168.884C203.084 170.586 201.779 172.689 199.663 174.457C196.97 176.699 192.961 178.406 187.449 178.051C183.969 177.829 180.133 175.935 178.018 172.173C177.104 170.544 176.365 168.83 175.757 167.003C174.832 164.256 174.189 161.256 173.642 157.926C173.064 154.386 172.854 145.706 172.854 145.706C172.854 145.706 173.479 146.175 174.05 145.255C173.521 158.828 176.581 163.096 180.037 166.552C179.202 162.296 181.823 161.389 185.159 160.968C191.885 160.126 195.492 160.048 196.898 164.635C201.779 160.854 202.422 153.875 199.916 147.617C201.154 147.557 202.699 141.071 203.979 145.982C204.298 147.233 207.442 157.872 203.667 168.884Z" fill="#73323B"/>
<path d="M199.664 174.457C196.971 176.699 192.961 178.406 187.449 178.051C183.969 177.829 180.134 175.935 178.018 172.173C177.104 170.544 176.365 168.83 175.758 167.003C176.226 167.917 176.743 168.806 177.32 169.654C178.835 171.884 180.837 173.856 183.301 174.944C185.544 175.935 188.056 176.146 190.509 176.11C193.61 176.062 196.79 175.581 199.664 174.457Z" fill="#944B50"/>
<path d="M189.859 150.022C190.797 149.126 192.059 148.585 193.358 148.525C194.656 148.465 195.961 148.898 197.139 149.806C196.502 149.012 195.786 148.261 194.903 147.756C194.019 147.251 192.943 147.016 191.969 147.311C190.989 147.6 190.172 148.495 189.859 150.022Z" fill="#73323B"/>
<path d="M174.964 151.632C175.835 150.688 177.104 150.147 178.36 150.184C179.616 150.22 180.855 150.827 181.522 151.572C180.957 150.646 180.272 149.769 179.37 149.198C178.468 148.627 177.308 148.416 176.34 148.855C175.373 149.294 174.705 150.472 174.964 151.632Z" fill="#73323B"/>
<path d="M192.581 155.616C192.329 154.825 191.71 154.316 191.197 154.479C190.685 154.642 190.473 155.416 190.725 156.207C190.977 156.997 191.596 157.506 192.109 157.343C192.621 157.18 192.833 156.407 192.581 155.616Z" fill="#2C3C4D"/>
<path d="M181.472 156.535C181.22 155.744 180.6 155.235 180.088 155.399C179.576 155.562 179.364 156.335 179.616 157.126C179.867 157.917 180.487 158.426 180.999 158.262C181.512 158.099 181.723 157.326 181.472 156.535Z" fill="#2C3C4D"/>
<path d="M183.53 164.622C186.626 164.382 189.655 163.408 192.468 161.737C192.985 163.324 192.595 165.181 191.471 166.42C190.346 167.658 188.543 168.241 186.908 167.88C185.285 167.526 183.885 166.245 183.53 164.622Z" fill="white"/>
<path d="M183.524 155.6C183.975 156.586 184.155 157.704 184.041 158.792C183.999 159.176 183.932 159.615 184.173 159.922C184.347 160.144 184.642 160.228 184.918 160.198C185.195 160.168 185.447 160.042 185.688 159.904" fill="#FFD4C4"/>
<path d="M183.524 155.6C183.975 156.586 184.155 157.704 184.041 158.792C183.999 159.176 183.932 159.615 184.173 159.922C184.347 160.144 184.642 160.228 184.918 160.198C185.195 160.168 185.447 160.042 185.688 159.904" stroke="#BA6168" stroke-width="0.601106" stroke-miterlimit="10" stroke-linecap="round"/>
<path d="M218.43 220.351C216.266 222.635 213.946 224.775 211.505 226.753C205.494 231.64 197.812 236.316 190.587 239.082C189.877 236.028 187.834 232.842 184.606 230.876C189.823 225.707 195.185 220.285 199.928 214.19C200.721 213.174 201.491 212.14 202.242 211.088C205.614 211.449 209.059 211.821 212.142 213.234C215.232 214.647 217.949 217.303 218.43 220.351Z" fill="#FFD4C4"/>
<path d="M218.43 220.351C216.266 222.635 213.946 224.775 211.505 226.753C212.251 223.711 211.626 220.309 209.666 217.85C207.394 215.001 203.505 213.594 199.928 214.189C200.722 213.174 201.491 212.14 202.242 211.088C205.615 211.448 209.059 211.821 212.143 213.234C215.232 214.646 217.949 217.303 218.43 220.351Z" fill="#EDAB9F"/>
<path d="M223.467 212.121C230.885 201.415 234.912 188.401 234.84 175.375C234.81 169.839 233.524 163.48 228.661 160.829C225.06 158.869 220.366 159.699 217.12 162.205C213.874 164.712 211.944 168.619 211.048 172.616C210.153 176.62 210.363 180.773 209.966 184.374C208.975 193.324 205.969 201.98 202.314 210.216C207.905 214.291 215.491 215.475 223.467 212.121Z" fill="#8ADBD5"/>
<path d="M217.841 222.55C213.705 216.527 206.149 213.04 198.882 213.81C198.167 212.205 199.441 210.714 200.631 209.572C201.821 208.43 202.621 206.699 202.308 205.082C210.706 204.973 219.241 208.003 225.288 213.022C225.511 213.966 225.096 214.952 224.525 215.733C223.954 216.515 223.221 217.17 222.668 217.963C222.024 218.877 221.634 219.953 220.979 220.861C220.329 221.762 219.283 222.532 217.841 222.55Z" fill="#AEEBE1"/>
<path d="M206.708 203.417C213.898 200.519 219.975 194.959 223.497 188.058C221.766 195.542 215.076 201.619 206.708 203.417Z" fill="#6BBBBF"/>
<path d="M213.092 204.794C217.63 204.818 222.169 203.555 226.046 201.199C223.251 204.457 218.628 206.032 213.092 204.794Z" fill="#6BBBBF"/>
<path d="M155.007 202.908C158.289 215.26 159.954 228.04 159.936 240.825" stroke="#3E704F" stroke-width="0.601106" stroke-miterlimit="10"/>
<path d="M167.775 214.864C165.617 223.772 164.366 232.897 164.054 242.058" stroke="#3E704F" stroke-width="0.601106" stroke-miterlimit="10"/>
<path d="M169.272 184.82C164.775 204.735 162.533 225.155 162.587 245.568" stroke="#3E704F" stroke-width="0.601106" stroke-miterlimit="10"/>
<path d="M156.546 166.865C161.77 190.838 163.435 215.585 161.469 240.044" stroke="#3E704F" stroke-width="0.601106" stroke-miterlimit="10"/>
<path d="M163.339 268.571H155.482V272.04H163.339V268.571Z" fill="#D96662"/>
<path d="M173.996 268.572H166.14V272.04H173.996V268.572Z" fill="#D96662"/>
<path d="M183.253 242.285L182.742 244.888L182.46 246.337L181.486 251.332L180.975 253.941L180.001 258.936L178.883 264.646C178.366 267.285 176.461 269.365 173.996 270.195C173.245 270.447 172.439 270.591 171.598 270.591H157.874C157.045 270.591 156.233 270.453 155.476 270.195C153.011 269.365 151.106 267.285 150.589 264.646L149.471 258.936L148.497 253.941L147.986 251.332L147.012 246.337L146.73 244.888L146.219 242.285H183.253Z" fill="#FA987D"/>
<path d="M182.46 246.336L181.486 251.331H147.992L147.019 246.336H182.46Z" fill="#F7C7B2"/>
<path d="M180.975 253.934L180.001 258.93H149.477L148.503 253.934H180.975Z" fill="#F7C7B2"/>
<path d="M183.253 242.285L182.742 244.888H146.736L146.225 242.285H183.253Z" fill="#ED806B"/>
<path d="M185.778 237.121V241.564C185.778 242.868 184.714 243.92 183.397 243.92H146.081C145.443 243.92 144.86 243.673 144.433 243.271C143.977 242.838 143.7 242.231 143.7 241.564V237.121C143.7 235.823 144.764 234.771 146.087 234.771H183.403C184.587 234.771 185.561 235.625 185.748 236.743C185.766 236.857 185.778 236.995 185.778 237.121Z" fill="#FAB693"/>
<path d="M185.778 237.122V241.564C185.778 242.868 184.714 243.92 183.397 243.92H146.081C145.443 243.92 144.86 243.674 144.434 243.271C144.41 243.151 144.398 243.018 144.398 242.886V238.444C144.398 237.14 145.461 236.088 146.784 236.088H184.101C184.738 236.088 185.321 236.34 185.742 236.737C185.766 236.857 185.778 236.995 185.778 237.122Z" fill="#FA987D"/>
<path d="M186.818 229.422C184.461 228.484 181.726 228.532 179.4 229.542C177.074 230.552 175.18 232.524 174.254 234.886C174.014 235.499 173.882 236.292 174.375 236.731C174.681 237.002 175.138 237.026 175.523 236.9C175.908 236.773 176.238 236.527 176.557 236.28C177.609 235.469 178.667 234.663 180.079 233.966C178.733 237.098 176.965 240.049 174.838 242.718C174.363 243.313 173.858 243.915 173.665 244.648C173.473 245.381 173.683 246.289 174.357 246.632C175.132 247.028 176.058 246.535 176.755 246.018C178.324 244.852 179.719 243.458 181.161 241.937C180.163 244.155 179.172 246.373 178.174 248.591C178.005 248.97 177.831 249.361 177.777 249.775C177.723 250.19 177.819 250.647 178.114 250.941C178.45 251.278 178.985 251.338 179.448 251.224C179.911 251.11 180.314 250.833 180.722 250.545C181.72 251.326 183.361 251.086 184.209 250.01C185.147 250.16 186.102 249.697 186.77 249.024C187.437 248.351 187.876 247.485 188.296 246.632C189.577 244.041 190.845 241.384 191.2 238.523C191.566 235.637 191.542 231.297 186.818 229.422Z" fill="#FFD4C4"/>
<path d="M181.107 250.087C182.784 247.785 183.866 245.05 184.209 242.225" stroke="#BA6168" stroke-width="0.601106" stroke-miterlimit="10" stroke-linecap="round"/>
<path d="M184.702 248.831C185.531 247.996 186.06 246.902 186.379 245.772C186.703 244.642 186.836 243.464 186.962 242.297" stroke="#BA6168" stroke-width="0.601106" stroke-miterlimit="10" stroke-linecap="round"/>
<path d="M152.014 198.741C154.496 196.704 157.64 196.529 160.453 198.032C163.272 199.535 165.046 202.829 164.787 206.051C164.523 209.321 162.401 212.122 160.104 214.442C156.576 218.019 152.404 220.922 147.902 223.098C143.905 225.034 137.527 226.975 137.527 226.975C137.527 226.975 135.465 223.032 134.642 216.787C134.035 212.194 133.644 207.524 134.539 202.973C135.183 199.709 136.355 196.439 138.645 194.047C140.935 191.654 144.512 190.332 147.601 191.432C150.691 192.532 153.24 196.283 152.014 198.741Z" fill="#3E704F"/>
<mask id="mask3_25_352" style="mask-type:alpha" maskUnits="userSpaceOnUse" x="134" y="191" width="31" height="36">
<path d="M152.014 198.741C154.496 196.704 157.64 196.529 160.453 198.032C163.272 199.535 165.046 202.829 164.787 206.051C164.523 209.321 162.401 212.122 160.104 214.442C156.576 218.019 152.404 220.922 147.902 223.098C143.905 225.034 137.527 226.975 137.527 226.975C137.527 226.975 135.465 223.032 134.642 216.787C134.035 212.194 133.644 207.524 134.539 202.973C135.183 199.709 136.355 196.439 138.645 194.047C140.935 191.654 144.512 190.332 147.601 191.432C150.691 192.532 153.24 196.283 152.014 198.741Z" fill="#3E704F"/>
</mask>
<g mask="url(#mask3_25_352)">
<path d="M153.69 196.367C146.291 206.495 140.502 217.802 136.613 229.734" stroke="#7EBF7E" stroke-width="0.601106" stroke-miterlimit="10"/>
<path d="M151.076 200.19C155.993 198.35 161.319 197.623 166.542 198.068" stroke="#7EBF7E" stroke-width="0.601106" stroke-miterlimit="10"/>
<path d="M148.335 204.482C154.376 204.025 160.549 205.696 165.544 209.122" stroke="#7EBF7E" stroke-width="0.601106" stroke-miterlimit="10"/>
<path d="M145.461 209.266C151.196 211.551 156.36 215.26 160.351 219.966" stroke="#7EBF7E" stroke-width="0.601106" stroke-miterlimit="10"/>
<path d="M142.528 215.199C146.718 218.067 150 222.256 151.785 227.011" stroke="#7EBF7E" stroke-width="0.601106" stroke-miterlimit="10"/>
<path d="M139.907 221.187C141.187 223.513 141.752 226.23 141.506 228.875" stroke="#7EBF7E" stroke-width="0.601106" stroke-miterlimit="10"/>
<path d="M150.931 200.304C150.072 198.079 149.2 195.837 147.89 193.848C146.579 191.858 144.788 190.103 142.558 189.261" stroke="#7EBF7E" stroke-width="0.601106" stroke-miterlimit="10"/>
<path d="M148.257 204.518C144.932 199.739 139.865 196.192 134.239 194.708" stroke="#7EBF7E" stroke-width="0.601106" stroke-miterlimit="10"/>
<path d="M145.66 209.531C140.947 206.123 135.176 204.199 129.364 204.115" stroke="#7EBF7E" stroke-width="0.601106" stroke-miterlimit="10"/>
<path d="M142.522 215.259C138.026 213.468 132.892 213.318 128.294 214.838" stroke="#7EBF7E" stroke-width="0.601106" stroke-miterlimit="10"/>
<path d="M139.859 220.904C137.034 220.765 134.167 221.751 132.033 223.603" stroke="#7EBF7E" stroke-width="0.601106" stroke-miterlimit="10"/>
</g>
<path d="M155.398 165.043C157.826 163.721 160.513 164.087 162.641 165.825C164.769 167.562 165.731 170.645 164.979 173.332C164.216 176.061 161.962 178.093 159.648 179.686C156.077 182.139 152.08 183.918 147.92 185.03C144.229 186.016 138.519 186.617 138.519 186.617C138.519 186.617 137.431 182.932 137.761 177.498C138.008 173.507 138.447 169.479 139.949 165.764C141.025 163.102 142.558 160.517 144.884 158.864C147.211 157.211 150.451 156.676 152.879 158.118C155.302 159.555 156.834 163.15 155.398 165.043Z" fill="#468554"/>
<mask id="mask4_25_352" style="mask-type:alpha" maskUnits="userSpaceOnUse" x="137" y="157" width="29" height="30">
<path d="M155.398 165.043C157.826 163.721 160.513 164.087 162.641 165.825C164.769 167.562 165.731 170.645 164.979 173.332C164.216 176.061 161.962 178.093 159.648 179.686C156.077 182.139 152.08 183.918 147.92 185.03C144.229 186.016 138.519 186.617 138.519 186.617C138.519 186.617 137.431 182.932 137.761 177.498C138.008 173.507 138.447 169.479 139.949 165.764C141.025 163.102 142.558 160.517 144.884 158.864C147.211 157.211 150.451 156.676 152.879 158.118C155.302 159.555 156.834 163.15 155.398 165.043Z" fill="#468554"/>
</mask>
<g mask="url(#mask4_25_352)">
<path d="M157.201 163.3C149.285 170.675 142.534 179.319 137.293 188.799" stroke="#7EBF7E" stroke-width="0.601106" stroke-miterlimit="10"/>
<path d="M154.364 166.113C158.818 165.361 163.434 165.614 167.774 166.852" stroke="#7EBF7E" stroke-width="0.601106" stroke-miterlimit="10"/>
<path d="M151.346 169.304C156.522 169.912 161.463 172.334 165.112 176.067" stroke="#7EBF7E" stroke-width="0.601106" stroke-miterlimit="10"/>
<path d="M148.136 172.894C152.603 175.773 156.347 179.764 158.944 184.411" stroke="#7EBF7E" stroke-width="0.601106" stroke-miterlimit="10"/>
<path d="M144.68 177.443C147.746 180.563 149.826 184.65 150.547 188.978" stroke="#7EBF7E" stroke-width="0.601106" stroke-miterlimit="10"/>
<path d="M141.476 182.09C142.173 184.272 142.203 186.671 141.56 188.871" stroke="#7EBF7E" stroke-width="0.601106" stroke-miterlimit="10"/>
<path d="M154.226 166.185C153.865 164.159 153.498 162.115 152.723 160.21C151.947 158.304 150.721 156.525 148.978 155.443" stroke="#7EBF7E" stroke-width="0.601106" stroke-miterlimit="10"/>
<path d="M151.274 169.322C149.254 164.724 145.564 160.889 141.055 158.701" stroke="#7EBF7E" stroke-width="0.601106" stroke-miterlimit="10"/>
<path d="M148.257 173.146C144.842 169.479 140.286 166.906 135.387 165.878" stroke="#7EBF7E" stroke-width="0.601106" stroke-miterlimit="10"/>
<path d="M144.662 177.492C141.158 175.231 136.854 174.264 132.718 174.799" stroke="#7EBF7E" stroke-width="0.601106" stroke-miterlimit="10"/>
<path d="M141.488 181.844C139.126 181.261 136.547 181.627 134.437 182.848" stroke="#7EBF7E" stroke-width="0.601106" stroke-miterlimit="10"/>
</g>
<path d="M168.394 212.849C166.007 210.697 162.876 210.379 159.996 211.749C157.117 213.12 155.187 216.324 155.302 219.557C155.416 222.834 157.412 225.731 159.588 228.153C162.948 231.886 166.981 234.976 171.375 237.362C175.276 239.478 181.558 241.708 181.558 241.708C181.558 241.708 183.794 237.867 184.906 231.664C185.724 227.107 186.325 222.461 185.64 217.874C185.147 214.586 184.125 211.262 181.949 208.768C179.773 206.273 176.256 204.788 173.124 205.744C169.999 206.706 167.282 210.33 168.394 212.849Z" fill="#468554"/>
<mask id="mask5_25_352" style="mask-type:alpha" maskUnits="userSpaceOnUse" x="155" y="205" width="31" height="37">
<path d="M168.394 212.849C166.007 210.697 162.876 210.379 159.996 211.749C157.117 213.12 155.187 216.324 155.302 219.557C155.416 222.834 157.412 225.731 159.588 228.153C162.948 231.886 166.981 234.976 171.375 237.362C175.276 239.478 181.558 241.708 181.558 241.708C181.558 241.708 183.794 237.867 184.906 231.664C185.724 227.107 186.325 222.461 185.64 217.874C185.147 214.586 184.125 211.262 181.949 208.768C179.773 206.273 176.256 204.788 173.124 205.744C169.999 206.706 167.282 210.33 168.394 212.849Z" fill="#468554"/>
</mask>
<g mask="url(#mask5_25_352)">
<path d="M166.831 210.402C173.756 220.856 179.015 232.415 182.352 244.509" stroke="#7EBF7E" stroke-width="0.601106" stroke-miterlimit="10"/>
<path d="M169.265 214.34C164.444 212.278 159.155 211.305 153.913 211.515" stroke="#7EBF7E" stroke-width="0.601106" stroke-miterlimit="10"/>
<path d="M171.802 218.746C165.791 218.012 159.546 219.395 154.406 222.593" stroke="#7EBF7E" stroke-width="0.601106" stroke-miterlimit="10"/>
<path d="M174.453 223.656C168.622 225.67 163.296 229.138 159.095 233.653" stroke="#7EBF7E" stroke-width="0.601106" stroke-miterlimit="10"/>
<path d="M177.11 229.716C172.794 232.39 169.325 236.418 167.324 241.088" stroke="#7EBF7E" stroke-width="0.601106" stroke-miterlimit="10"/>
<path d="M179.454 235.818C178.066 238.084 177.38 240.771 177.506 243.421" stroke="#7EBF7E" stroke-width="0.601106" stroke-miterlimit="10"/>
<path d="M169.404 214.454C170.366 212.272 171.339 210.078 172.734 208.142C174.129 206.213 176.004 204.542 178.27 203.808" stroke="#7EBF7E" stroke-width="0.601106" stroke-miterlimit="10"/>
<path d="M171.88 218.788C175.421 214.165 180.638 210.859 186.331 209.633" stroke="#7EBF7E" stroke-width="0.601106" stroke-miterlimit="10"/>
<path d="M174.243 223.915C179.106 220.723 184.954 219.076 190.767 219.25" stroke="#7EBF7E" stroke-width="0.601106" stroke-miterlimit="10"/>
<path d="M177.116 229.777C181.69 228.196 186.824 228.28 191.344 230.011" stroke="#7EBF7E" stroke-width="0.601106" stroke-miterlimit="10"/>
<path d="M179.514 235.541C182.339 235.529 185.159 236.647 187.208 238.594" stroke="#7EBF7E" stroke-width="0.601106" stroke-miterlimit="10"/>
</g>
<path d="M171.285 181.753C169.446 180.064 167.035 179.818 164.811 180.894C162.587 181.97 161.103 184.482 161.193 187.019C161.283 189.592 162.816 191.864 164.499 193.763C167.09 196.691 170.197 199.119 173.587 200.989C176.593 202.648 181.438 204.397 181.438 204.397C181.438 204.397 183.163 201.379 184.017 196.516C184.642 192.94 185.111 189.297 184.582 185.697C184.203 183.118 183.416 180.509 181.738 178.549C180.061 176.59 177.35 175.424 174.934 176.175C172.518 176.926 170.426 179.782 171.285 181.753Z" fill="#468554"/>
<mask id="mask6_25_352" style="mask-type:alpha" maskUnits="userSpaceOnUse" x="161" y="175" width="24" height="30">
<path d="M171.285 181.753C169.446 180.064 167.035 179.818 164.811 180.894C162.587 181.97 161.103 184.482 161.193 187.019C161.283 189.592 162.816 191.864 164.499 193.763C167.09 196.691 170.197 199.119 173.587 200.989C176.593 202.648 181.438 204.397 181.438 204.397C181.438 204.397 183.163 201.379 184.017 196.516C184.642 192.94 185.111 189.297 184.582 185.697C184.203 183.118 183.416 180.509 181.738 178.549C180.061 176.59 177.35 175.424 174.934 176.175C172.518 176.926 170.426 179.782 171.285 181.753Z" fill="#468554"/>
</mask>
<g mask="url(#mask6_25_352)">
<path d="M170.077 179.836C175.415 188.041 179.472 197.112 182.045 206.597" stroke="#7EBF7E" stroke-width="0.601106" stroke-miterlimit="10"/>
<path d="M171.952 182.926C168.231 181.309 164.162 180.545 160.116 180.707" stroke="#7EBF7E" stroke-width="0.601106" stroke-miterlimit="10"/>
<path d="M173.912 186.388C169.277 185.817 164.462 186.898 160.501 189.405" stroke="#7EBF7E" stroke-width="0.601106" stroke-miterlimit="10"/>
<path d="M175.95 190.241C171.453 191.822 167.348 194.545 164.108 198.085" stroke="#7EBF7E" stroke-width="0.601106" stroke-miterlimit="10"/>
<path d="M178.006 194.99C174.675 197.088 172.007 200.25 170.462 203.911" stroke="#7EBF7E" stroke-width="0.601106" stroke-miterlimit="10"/>
<path d="M179.809 199.781C178.739 201.56 178.21 203.664 178.306 205.75" stroke="#7EBF7E" stroke-width="0.601106" stroke-miterlimit="10"/>
<path d="M172.06 183.015C172.8 181.302 173.551 179.577 174.627 178.062C175.703 176.547 177.146 175.237 178.895 174.66" stroke="#7EBF7E" stroke-width="0.601106" stroke-miterlimit="10"/>
<path d="M173.966 186.418C176.695 182.793 180.716 180.197 185.105 179.235" stroke="#7EBF7E" stroke-width="0.601106" stroke-miterlimit="10"/>
<path d="M175.793 190.439C179.538 187.938 184.052 186.64 188.531 186.778" stroke="#7EBF7E" stroke-width="0.601106" stroke-miterlimit="10"/>
<path d="M178.005 195.038C181.534 193.793 185.489 193.859 188.976 195.218" stroke="#7EBF7E" stroke-width="0.601106" stroke-miterlimit="10"/>
<path d="M179.851 199.558C182.033 199.552 184.203 200.43 185.784 201.951" stroke="#7EBF7E" stroke-width="0.601106" stroke-miterlimit="10"/>
</g>
</g>
<defs>
<clipPath id="clip0_25_352">
<rect x="0.000488281" y="0.0966797" width="486.511" height="308.365" rx="20" fill="white"/>
</clipPath>
</defs>
</svg>
