<svg width="487" height="309" viewBox="0 0 487 309" fill="none" xmlns="http://www.w3.org/2000/svg">
<g clip-path="url(#clip0_25_252)">
<rect y="0.0966797" width="486.511" height="308.365" rx="20" fill="#F0D36C"/>
<path d="M378.908 220.078C378.908 220.078 371.671 364.996 340.462 389.948H373.858C373.858 389.948 403.61 340.596 405.846 220.078H378.908Z" fill="#263238"/>
<path opacity="0.1" d="M378.908 220.078C378.908 220.078 371.671 364.996 340.462 389.948H373.858C373.858 389.948 403.61 340.596 405.846 220.078H378.908Z" fill="white"/>
<path d="M411.702 251.791H358.228C342.547 251.791 331.239 237.719 332.948 220.355L335.235 197.186C336.944 179.822 351.016 165.75 366.696 165.75H420.17C435.825 165.75 447.158 179.822 445.449 197.186L443.163 220.355C441.454 237.719 427.332 251.791 411.702 251.791Z" fill="#19C078"/>
<path d="M150.715 561.327L186.096 550.898C186.096 550.898 164.912 431.336 143.377 389.873C144.985 389.346 147.121 388.667 149.76 387.888C154.509 386.456 160.816 384.672 168.229 382.611C219.794 368.313 324.304 341.5 324.304 341.5L276.559 296.947C276.559 296.947 86.385 325.946 82.4398 376.052C80.7059 400.151 150.715 561.327 150.715 561.327Z" fill="#64542D"/>
<path opacity="0.4" d="M150.715 561.327L186.096 550.898C186.096 550.898 164.912 431.336 143.377 389.873C144.985 389.346 147.121 388.667 149.76 387.888C154.509 386.456 160.816 384.672 168.229 382.611C219.794 368.313 324.304 341.5 324.304 341.5L276.559 296.947C276.559 296.947 86.385 325.946 82.4398 376.052C80.7059 400.151 150.715 561.327 150.715 561.327Z" fill="white"/>
<path d="M235.675 320.794L245.726 275.11L352.926 275.939C352.926 275.939 364.862 347.154 355.69 364.116C339.306 394.396 251.104 379.193 225.297 382.083C240.726 445.181 239.218 568.488 239.218 568.488L202.354 571.303C202.354 571.303 173.984 438.422 168.254 375.298C164.259 332.705 199.54 333.761 235.675 320.794Z" fill="#64542D"/>
<path opacity="0.4" d="M235.675 320.794L245.726 275.11L352.926 275.939C352.926 275.939 364.862 347.154 355.69 364.116C339.306 394.396 251.104 379.193 225.297 382.083C240.726 445.181 239.218 568.488 239.218 568.488L202.354 571.303C202.354 571.303 173.984 438.422 168.254 375.298C164.259 332.705 199.54 333.761 235.675 320.794Z" fill="white"/>
<path d="M314.655 275.663L352.8 275.94L354.232 285.313L314.655 285.916V275.663Z" fill="#263238"/>
<path d="M309.704 275.613V285.991L243.012 286.996V275.11L309.704 275.613Z" fill="#263238"/>
<path d="M261.03 276.14H272.514C274.193 276.14 275.554 277.502 275.554 279.181V286.016C275.554 287.695 274.193 289.057 272.514 289.057H261.03C259.351 289.057 257.989 287.695 257.989 286.016V279.181C257.989 277.502 259.351 276.14 261.03 276.14Z" fill="white"/>
<path d="M256.08 178.993C256.08 178.993 255.477 180.677 254.346 183.391C253.215 186.105 251.531 190.251 249.471 194.749C244.445 205.705 237.133 219.576 229.493 227.09C227.575 229.107 225.267 230.714 222.709 231.814C214.592 234.93 194.188 235.508 175.969 235.332C157.751 235.156 142.171 234.226 142.171 234.226V220.431L202.078 204.474C202.078 204.474 233.64 147.482 252.335 139.139L256.08 178.993Z" fill="#263238"/>
<path opacity="0.2" d="M254.346 183.491C253.215 186.33 251.531 190.351 249.471 194.849C244.445 205.805 237.132 219.676 229.493 227.19C221.729 198.593 250.451 171.354 250.451 171.354L254.346 183.491Z" fill="black"/>
<path d="M355.589 279.182H241.253C227.131 175.325 252.31 139.491 252.31 139.491C261.624 136.808 271.136 134.867 280.756 133.686C294.808 132.581 308.911 132.279 322.997 132.782C332.623 133.064 342.214 134.055 351.694 135.747C356.72 137.908 361.947 160.323 356.72 230.08C355.498 246.417 355.12 262.806 355.589 279.182Z" fill="#263238"/>
<path opacity="0.1" d="M355.589 279.182H241.253C227.131 175.325 252.31 139.491 252.31 139.491C261.624 136.808 271.136 134.867 280.756 133.686C294.808 132.581 308.911 132.279 322.997 132.782C332.623 133.064 342.214 134.055 351.694 135.747C356.72 137.908 361.947 160.323 356.72 230.08C355.498 246.417 355.12 262.806 355.589 279.182Z" fill="white"/>
<path d="M266.86 175.048H246.883L245.35 198.896L256.08 205.856L266.86 200.529V175.048Z" fill="#263238"/>
<path d="M322.068 131.751L288.521 143.285L287.164 133.661C290.431 127.931 291.26 124.338 288.496 117.679L310.885 91.9471C310.282 105.039 312.67 123.031 322.068 131.751Z" fill="#FCC7B0"/>
<path opacity="0.2" d="M301.688 102.351L288.445 117.428C289.494 119.762 290.335 122.184 290.958 124.665C296.562 122.981 303.522 115.518 303.196 109.437C303.136 107.002 302.625 104.599 301.688 102.351Z" fill="black"/>
<path d="M273.619 61.0135C281.736 65.1347 279.424 74.1559 264.221 89.786C256.23 81.7448 252.888 64.6572 257.788 59.6315C262.688 54.6057 266.508 57.4453 273.619 61.0135Z" fill="#263238"/>
<path d="M307.568 70.8387C309.076 89.233 310.885 99.8876 303.07 110.592C291.26 126.65 267.563 121.574 260.578 104.009C254.321 88.2278 252.863 60.8124 269.649 50.987C273.337 48.7924 277.525 47.5787 281.815 47.4617C286.105 47.3447 290.353 48.3283 294.155 50.3187C297.957 52.3091 301.186 55.24 303.534 58.8321C305.882 62.4241 307.271 66.5576 307.568 70.8387Z" fill="#FCC7B0"/>
<path d="M281.082 79.7844C281.283 81.267 280.68 82.5737 279.7 82.7245C278.72 82.8753 277.791 81.7696 277.59 80.2116C277.389 78.6536 277.966 77.4223 278.921 77.2715C279.876 77.1208 280.756 78.327 281.082 79.7844Z" fill="#263238"/>
<path d="M264.221 82.2473C264.448 83.7299 263.819 85.0366 262.864 85.1874C261.91 85.3382 260.93 84.2576 260.703 82.6745C260.477 81.0914 261.105 79.8601 262.06 79.7345C263.015 79.6088 263.995 80.7647 264.221 82.2473Z" fill="#263238"/>
<path d="M269.825 82.1467C268.71 86.9389 266.943 91.5554 264.573 95.867C265.694 96.443 266.927 96.7662 268.186 96.8139C269.445 96.8617 270.699 96.6328 271.86 96.1435L269.825 82.1467Z" fill="#D58745"/>
<path d="M284.902 73.8045C285.102 73.7913 285.293 73.7215 285.455 73.6035C285.618 73.4348 285.709 73.2096 285.709 72.9753C285.709 72.7409 285.618 72.5157 285.455 72.347C284.493 71.3523 283.306 70.6044 281.994 70.167C280.681 69.7295 279.282 69.6153 277.916 69.8342C277.807 69.8523 277.702 69.8922 277.608 69.9517C277.514 70.0112 277.433 70.0889 277.369 70.1804C277.306 70.2718 277.262 70.375 277.239 70.4839C277.217 70.5928 277.216 70.7051 277.238 70.8142C277.292 71.0418 277.432 71.2396 277.629 71.3661C277.826 71.4926 278.064 71.538 278.293 71.4926C279.384 71.3445 280.494 71.4563 281.534 71.8188C282.573 72.1812 283.512 72.7841 284.274 73.5783C284.448 73.7289 284.672 73.8095 284.902 73.8045Z" fill="#263238"/>
<path d="M255.728 77.6741C255.89 77.6433 256.042 77.5718 256.17 77.4664C256.297 77.3609 256.396 77.2249 256.457 77.071C256.753 76.0072 257.3 75.0299 258.052 74.221C258.804 73.4122 259.739 72.7954 260.779 72.4222C261.003 72.3524 261.192 72.198 261.304 71.9916C261.417 71.7852 261.445 71.5431 261.382 71.3166C261.353 71.2073 261.302 71.1049 261.233 71.0153C261.164 70.9257 261.078 70.8507 260.98 70.7946C260.882 70.7385 260.774 70.7024 260.661 70.6885C260.549 70.6746 260.435 70.6831 260.326 70.7135C259.002 71.1711 257.807 71.9391 256.841 72.9534C255.875 73.9677 255.166 75.1987 254.773 76.5434C254.738 76.6506 254.724 76.7637 254.733 76.8762C254.742 76.9887 254.773 77.0984 254.824 77.1988C254.876 77.2993 254.946 77.3886 255.032 77.4616C255.119 77.5345 255.218 77.5897 255.326 77.6239C255.455 77.6685 255.592 77.6856 255.728 77.6741Z" fill="#263238"/>
<path d="M297.969 55.7368C289.878 59.9082 292.24 68.9294 307.543 84.4338C315.509 76.3424 318.751 59.1543 313.775 54.1537C308.8 49.1531 305.03 52.1434 297.969 55.7368Z" fill="#263238"/>
<path d="M318.349 84.1573C317.714 88.7599 315.284 92.9245 311.589 95.7416C306.689 99.4104 302.015 95.5406 301.538 89.7359C301.085 84.5091 303.146 76.292 309.076 74.9099C310.348 74.6397 311.668 74.6913 312.915 75.0599C314.162 75.4285 315.298 76.1025 316.218 77.0209C317.139 77.9392 317.816 79.0728 318.188 80.319C318.56 81.5652 318.615 82.8844 318.349 84.1573Z" fill="#FCC7B0"/>
<path d="M274.675 105.34C277.152 105.304 279.571 104.58 281.661 103.249C283.751 101.918 285.43 100.032 286.51 97.8017C286.546 97.7231 286.565 97.6378 286.565 97.5515C286.565 97.4651 286.547 97.3797 286.511 97.3011C286.475 97.2225 286.423 97.1524 286.358 97.0957C286.293 97.039 286.216 96.997 286.134 96.9725C286.053 96.9364 285.966 96.9175 285.878 96.9172C285.79 96.9169 285.703 96.9351 285.622 96.9707C285.542 97.0062 285.47 97.0583 285.411 97.1235C285.351 97.1888 285.307 97.2657 285.279 97.3494C284.299 99.3688 282.777 101.076 280.881 102.278C278.986 103.481 276.794 104.132 274.549 104.159C274.374 104.178 274.212 104.265 274.1 104.401C273.987 104.537 273.932 104.712 273.946 104.888C274.001 105.033 274.102 105.156 274.234 105.238C274.365 105.32 274.52 105.356 274.675 105.34Z" fill="#263238"/>
<path d="M279.072 55.3341C279.072 55.3341 284.098 73.3012 301.914 72.1955C319.731 71.0899 322.017 59.6311 322.017 59.6311C320.606 60.0326 319.171 60.3432 317.72 60.5609C318.851 57.6762 319.238 54.5538 318.847 51.4803C318.457 48.4068 317.3 45.4808 315.484 42.9708C309.227 35.0301 290.531 28.3207 278.067 34.6029C273.842 33.8027 269.498 33.8806 265.305 34.8317C261.111 35.7827 257.158 37.5867 253.692 40.1312C242.384 48.8006 246.531 63.9784 246.531 63.9784C246.531 63.9784 244.772 54.6556 250.149 51.414C250.149 51.414 245.551 71.517 256.783 75.4371C256.833 75.4371 255.451 56.2639 279.072 55.3341Z" fill="#263238"/>
<path opacity="0.5" d="M298.924 105.416C298.924 105.416 291.813 91.0678 287.164 90.8668C282.515 90.6658 277.112 98.129 277.112 98.129L279.298 99.6116C279.298 99.6116 283.721 94.4602 285.681 93.9828C287.641 93.5053 294.652 102.25 293.371 105.416C292.206 107.555 290.304 109.198 288.018 110.04L283.922 105.743L280.278 107.879L282.54 113.558C280.009 114.581 277.18 114.581 274.65 113.558C271.408 111.699 270.403 103.155 270.654 102.627C272.327 101.894 274.082 101.362 275.881 101.044L274.65 99.109C274.65 99.109 267.915 98.2798 266.835 100.441C265.754 102.602 269.046 115.769 272.338 117.252C274.822 118.55 277.571 119.259 280.373 119.324C283.175 119.39 285.954 118.81 288.496 117.629C296.11 114.362 300.909 109.085 298.924 105.416Z" fill="black"/>
<path d="M260.628 219.45C260.628 219.45 197.178 218.018 193.635 217.666C190.092 217.314 175.039 208.821 171.848 208.469C168.657 208.117 160.088 221.536 159.032 224.727C157.977 227.919 183.005 236.387 185.493 236.035C188.297 235.282 191.023 234.264 193.635 232.995L258.392 241.287L260.628 219.45Z" fill="#FCC7B0"/>
<path opacity="0.2" d="M358.755 194.045C349.332 209.323 336.14 225.632 322.997 224.878C309.252 224.074 322.997 195.98 337.899 171.555C338.451 172.736 338.954 173.867 339.356 174.972C342.698 184.345 352.9 172.811 358.102 157.734C358.998 169.816 359.216 181.939 358.755 194.045Z" fill="black"/>
<path d="M351.694 135.746C384.136 147.431 327.219 235.256 309.528 244.302C291.838 253.349 245.35 242.92 245.35 242.92L248.239 215.781C248.239 215.781 285.053 218.294 292.365 216.41C299.678 214.525 317.092 177.133 327.093 159.443C332.653 149.195 341.246 140.918 351.694 135.746Z" fill="#263238"/>
<path d="M319.957 125.695C310.497 131.988 300.387 137.246 289.802 141.375C288.645 136.696 288.645 131.806 289.802 127.127L274.976 134.515C274.976 134.515 273.745 146.024 277.163 151.979L288.018 144.039L300.231 154.09C300.231 154.09 323.349 145.169 326.968 133.083L319.957 125.695Z" fill="#263238"/>
<path d="M126.666 618.67H141.04L143.377 259.128H124.329L126.666 618.67Z" fill="#263238"/>
<path opacity="0.4" d="M124.304 259.706L124.681 317.729L126.666 618.67H141.04L143 317.729L143.377 259.706H124.304Z" fill="white"/>
<path opacity="0.2" d="M124.304 259.706L124.681 318.357H143L143.377 259.706H124.304Z" fill="black"/>
<path d="M-25.9155 618.67H-11.5419L14.2653 259.128H-4.80739L-25.9155 618.67Z" fill="#263238"/>
<path opacity="0.5" d="M-25.9405 618.67H-11.5417L13.0091 276.995L14.2655 259.706H-4.80717L-5.83746 276.995L-25.9405 618.67Z" fill="white"/>
<path opacity="0.2" d="M-5.83746 276.14H13.0091L14.2655 259.706H-4.80717L-5.83746 276.14Z" fill="black"/>
<path d="M279.248 618.67H293.622L272.513 259.128H253.441L279.248 618.67Z" fill="#263238"/>
<path opacity="0.5" d="M253.441 259.706L254.697 276.995L279.273 618.67H293.621L273.544 276.995L272.513 259.706H253.441Z" fill="white"/>
<path opacity="0.2" d="M272.514 259.706H253.441L254.697 276.14H273.544L272.514 259.706Z" fill="black"/>
<path d="M287.616 250.132H-19.96V262.696C-19.96 263.409 -19.8196 264.115 -19.5468 264.774C-19.274 265.432 -18.8742 266.031 -18.3702 266.535C-17.8662 267.039 -17.2678 267.438 -16.6093 267.711C-15.9508 267.984 -15.2449 268.124 -14.5322 268.124H282.188C282.901 268.124 283.607 267.984 284.265 267.711C284.924 267.438 285.522 267.039 286.026 266.535C286.53 266.031 286.93 265.432 287.203 264.774C287.475 264.115 287.616 263.409 287.616 262.696V250.132Z" fill="#263238"/>
<path opacity="0.6" d="M287.616 250.132H-19.96V262.696C-19.96 263.409 -19.8196 264.115 -19.5468 264.774C-19.274 265.432 -18.8742 266.031 -18.3702 266.535C-17.8662 267.039 -17.2678 267.438 -16.6093 267.711C-15.9508 267.984 -15.2449 268.124 -14.5322 268.124H282.188C282.901 268.124 283.607 267.984 284.265 267.711C284.924 267.438 285.522 267.039 286.026 266.535C286.53 266.031 286.93 265.432 287.203 264.774C287.475 264.115 287.616 263.409 287.616 262.696V250.132Z" fill="white"/>
<path opacity="0.2" d="M-19.9097 250.132H287.616V259.128H-19.9097V250.132Z" fill="black"/>
<path d="M-28.8302 252.469H296.537C297.87 252.469 299.148 251.94 300.09 250.997C301.033 250.055 301.562 248.776 301.562 247.443C301.562 246.111 301.033 244.832 300.09 243.89C299.148 242.947 297.87 242.418 296.537 242.418H-28.8302C-30.1632 242.418 -31.4415 242.947 -32.384 243.89C-33.3265 244.832 -33.856 246.111 -33.856 247.443C-33.856 248.776 -33.3265 250.055 -32.384 250.997C-31.4415 251.94 -30.1632 252.469 -28.8302 252.469Z" fill="#263238"/>
<path opacity="0.6" d="M-28.8302 252.469H296.537C297.87 252.469 299.148 251.94 300.09 250.997C301.033 250.055 301.562 248.776 301.562 247.443C301.562 246.111 301.033 244.832 300.09 243.89C299.148 242.947 297.87 242.418 296.537 242.418H-28.8302C-30.1632 242.418 -31.4415 242.947 -32.384 243.89C-33.3265 244.832 -33.856 246.111 -33.856 247.443C-33.856 248.776 -33.3265 250.055 -32.384 250.997C-31.4415 251.94 -30.1632 252.469 -28.8302 252.469Z" fill="white"/>
<path d="M72.6142 231.939V237.819C72.6142 239.578 75.6548 240.835 77.3887 240.835H214.893C216.652 240.835 219.467 239.578 219.467 237.819V231.939H72.6142Z" fill="#263238"/>
<path opacity="0.6" d="M72.6142 231.939V237.819C72.6142 239.578 75.6548 240.835 77.3887 240.835H214.893C216.652 240.835 219.467 239.578 219.467 237.819V231.939H72.6142Z" fill="white"/>
<path opacity="0.2" d="M72.6141 231.939V237.819C72.6141 239.578 75.6547 240.835 77.3886 240.835H168.078C169.837 240.835 172.752 239.578 172.752 237.819V231.939H72.6141Z" fill="black"/>
<path d="M50.5513 159.644L66.9352 234.15C67.2207 235.365 67.8913 236.454 68.847 237.256C69.8026 238.057 70.992 238.528 72.2374 238.598H161.671C162.248 238.546 162.805 238.366 163.303 238.07C163.801 237.773 164.226 237.369 164.547 236.887C164.868 236.404 165.076 235.856 165.157 235.283C165.237 234.709 165.188 234.125 165.013 233.572L148.679 159.87C148.36 158.734 147.652 157.746 146.678 157.08C145.704 156.414 144.526 156.111 143.352 156.226H53.9437C51.5313 156.276 50.0236 157.206 50.5513 159.644Z" fill="#263238"/>
<path opacity="0.6" d="M50.5513 159.644L66.9352 234.15C67.2207 235.365 67.8913 236.454 68.847 237.256C69.8026 238.057 70.992 238.528 72.2374 238.598H161.671C162.248 238.546 162.805 238.366 163.303 238.07C163.801 237.773 164.226 237.369 164.547 236.887C164.868 236.404 165.076 235.856 165.157 235.283C165.237 234.709 165.188 234.125 165.013 233.572L148.679 159.87C148.36 158.734 147.652 157.746 146.678 157.08C145.704 156.414 144.526 156.111 143.352 156.226H53.9437C51.5313 156.276 50.0236 157.206 50.5513 159.644Z" fill="white"/>
<path opacity="0.4" d="M50.5512 159.644L66.9352 234.15C67.2206 235.365 67.8913 236.454 68.8469 237.256C69.8026 238.057 70.9919 238.528 72.2373 238.598H158.63C159.207 238.545 159.765 238.364 160.264 238.068C160.762 237.773 161.188 237.369 161.511 236.887C161.833 236.406 162.045 235.858 162.129 235.285C162.213 234.711 162.168 234.126 161.997 233.572L145.638 159.87C145.319 158.734 144.611 157.746 143.637 157.08C142.663 156.414 141.486 156.111 140.311 156.226H53.9436C51.5312 156.276 50.0235 157.206 50.5512 159.644Z" fill="white"/>
<path opacity="0.2" d="M103.171 207.388C98.9993 207.388 94.7274 202.915 93.6469 197.337C92.5664 191.758 95.0541 187.285 99.2506 187.285C100.04 187.291 100.823 187.435 101.562 187.713C101.945 189.679 102.786 191.528 104.018 193.109C105.249 194.689 106.835 195.957 108.649 196.809C108.657 196.96 108.657 197.111 108.649 197.262C109.855 202.915 107.342 207.388 103.171 207.388Z" fill="black"/>
<rect x="109.804" y="37.6013" width="41.6513" height="17.4667" fill="black" fill-opacity="0.05"/>
<rect x="123.24" y="16.1039" width="47.0256" height="17.4667" fill="black" fill-opacity="0.05"/>
<rect x="156.829" y="38.9448" width="37.6205" height="18.8103" fill="black" fill-opacity="0.05"/>
<rect x="125.927" y="61.7861" width="41.6513" height="17.4667" fill="black" fill-opacity="0.05"/>
<rect x="162.204" y="-5.39355" width="47.0256" height="17.4667" fill="black" fill-opacity="0.05"/>
<rect x="174.296" y="16.1039" width="41.6513" height="18.8103" fill="black" fill-opacity="0.05"/>
<rect x="392.548" y="85.1826" width="41.6513" height="17.4667" fill="black" fill-opacity="0.05"/>
<rect x="405.984" y="63.6852" width="47.0256" height="17.4667" fill="black" fill-opacity="0.05"/>
<rect x="439.574" y="86.5261" width="37.6205" height="18.8103" fill="black" fill-opacity="0.05"/>
<rect x="408.671" y="109.368" width="41.6513" height="17.4667" fill="black" fill-opacity="0.05"/>
<rect x="409.018" y="20.2273" width="47.0256" height="17.4667" fill="black" fill-opacity="0.05"/>
<rect x="457.04" y="63.6852" width="41.6513" height="18.8103" fill="black" fill-opacity="0.05"/>
<rect width="41.6513" height="17.4667" transform="matrix(1 0 0 -1 -38.4312 102.14)" fill="black" fill-opacity="0.05"/>
<rect width="47.0256" height="17.4667" transform="matrix(1 0 0 -1 -24.9953 123.638)" fill="black" fill-opacity="0.05"/>
<rect width="37.6205" height="18.8103" transform="matrix(1 0 0 -1 8.59436 100.797)" fill="black" fill-opacity="0.05"/>
<rect width="41.6513" height="17.4667" transform="matrix(1 0 0 -1 -22.3083 77.9557)" fill="black" fill-opacity="0.05"/>
<rect width="47.0256" height="17.4667" transform="matrix(1 0 0 -1 13.9688 145.135)" fill="black" fill-opacity="0.05"/>
<rect width="31.111" height="19.2156" transform="matrix(1 0 0 -1 51.2418 109.901)" fill="black" fill-opacity="0.05"/>
</g>
<defs>
<clipPath id="clip0_25_252">
<rect y="0.0966797" width="486.511" height="308.365" rx="20" fill="white"/>
</clipPath>
</defs>
</svg>
