<svg width="487" height="309" viewBox="0 0 487 309" fill="none" xmlns="http://www.w3.org/2000/svg">
<g clip-path="url(#clip0_25_65)">
<rect width="486.796" height="308.546" rx="20" fill="#0D0D0D"/>
<rect width="486.796" height="308.546" rx="20" fill="#97D8F4"/>
<path d="M390.56 350.16C390.651 345.597 393.605 306.265 421.998 286.462C413.374 316.817 415.279 339.631 419.18 350.16H390.56Z" fill="#F5F5F5"/>
<path d="M406.335 350.16C407.031 347.137 407.738 325.52 435.845 308.352C425.26 328.281 423.537 343.247 424.986 350.16H406.335Z" fill="#F5F5F5"/>
<path d="M264.042 350.16C263.346 347.137 262.639 325.52 234.531 308.352C245.117 328.281 246.84 343.247 245.391 350.16H264.042Z" fill="#F5F5F5"/>
<path d="M103.953 68.0934C83.6368 62.4697 113.797 53.0017 146.251 53.3211C222.907 54.074 242.585 41.9139 297.111 39.7465C314.096 39.0735 301.035 57.5532 261.315 64.2378C211.021 72.7019 125.729 62.8347 146.194 70.3863C166.658 77.9378 142.92 96.8396 99.2647 88.8887C65.4994 82.7517 15.764 101.642 34.4034 84.2346C46.187 73.2267 71.5338 78.531 83.4543 78.2002C95.3748 77.8694 134 76.4093 103.953 68.0934Z" fill="#FAFAFA"/>
<path d="M281.948 105.098C289.203 107.962 307.409 101.756 318.976 101.961C330.543 102.167 348.486 106.524 357.84 97.2047C367.194 87.885 318.759 93.2692 308.789 94.1703C290.344 95.8244 271.328 100.98 281.948 105.098Z" fill="#FAFAFA"/>
<path d="M87.4125 14.6849C83.4428 11.7191 72.5033 17.2059 65.8529 16.6812C59.2025 16.1565 49.1756 11.4681 43.1069 20.1946C37.0383 28.9211 65.3396 25.0769 71.1572 24.4951C81.9256 23.4571 93.2301 19.0083 87.4125 14.6849Z" fill="#FAFAFA"/>
<path d="M461.273 74.4135C457.303 71.4476 446.364 76.9345 439.713 76.4097C433.063 75.885 423.036 71.1967 416.967 79.9232C410.899 88.6497 439.2 84.8054 445.017 84.2237C455.786 83.14 467.09 78.7482 461.273 74.4135Z" fill="#FAFAFA"/>
<path d="M427.062 13.0313C416.681 19.1113 387.513 14.2404 369.957 17.3888C352.402 20.5372 326.097 31.4425 309.67 19.7615C293.244 8.08056 368.258 4.25915 383.646 3.15265C412.187 1.09936 442.268 4.12227 427.062 13.0313Z" fill="#FAFAFA"/>
<path d="M178.736 128.384C184.384 136.286 190.39 144.408 196.426 152.163C202.315 159.897 208.608 167.315 215.28 174.385C216.091 175.267 216.911 176.061 217.741 176.869L218.988 178.07L219.612 178.671L220.088 179.091C221.492 180.326 223.012 181.423 224.627 182.366C226.477 183.436 228.406 184.364 230.397 185.14C232.447 185.99 234.589 186.785 236.838 187.516C241.389 188.917 246.013 190.071 250.688 190.974C253.03 191.444 255.473 191.876 257.889 192.261C260.304 192.647 262.811 192.978 265.078 193.287L265.424 203.977C254.657 205.508 243.724 205.454 232.974 203.815C227.231 202.967 221.621 201.386 216.281 199.111C213.324 197.835 210.523 196.226 207.932 194.315L206.922 193.551L206.119 192.892L204.519 191.549C203.452 190.653 202.386 189.758 201.404 188.833C193.588 181.641 186.299 173.896 179.594 165.658C172.92 157.559 166.759 149.383 160.839 140.57L178.736 128.384Z" fill="#FAC3A4"/>
<path d="M153.533 132.762C151.947 146.288 184.646 176.841 184.646 176.841L208.562 154.922C201.58 144.628 193.517 135.11 184.51 126.533C171.06 114.378 155.261 117.873 153.533 132.762Z" fill="#19C078"/>
<path opacity="0.2" d="M172.508 145.05C178.444 146.467 188.859 158.376 194.795 167.531L184.653 176.817C176.812 169.387 169.53 161.387 162.867 152.884C165.799 148.321 169.367 144.31 172.508 145.05Z" fill="black"/>
<path d="M261.647 193.73L277.717 190.24L277.836 206.471C277.836 206.471 265.765 210.791 260.13 202.077L261.647 193.73Z" fill="#FAC3A4"/>
<path d="M286.218 192.016L281.529 205.006L277.836 206.47L277.717 190.24L286.218 192.016Z" fill="#FAC3A4"/>
<path d="M302.197 159.69C305.656 145.983 303.486 137.054 296.751 136.379C290.016 135.703 281.493 149.849 277.981 163.608C274.469 177.366 277.144 187.564 283.825 186.477C290.506 185.389 298.737 173.397 302.197 159.69ZM279.801 163.232C282.658 151.677 289.397 141.558 294.832 140.63C300.267 139.703 302.366 148.302 299.501 159.842C296.635 171.381 289.896 181.5 284.446 182.436C278.996 183.373 276.956 174.841 279.801 163.232Z" fill="white"/>
<path opacity="0.2" d="M302.197 159.69C305.656 145.983 303.486 137.054 296.751 136.379C290.016 135.703 281.493 149.849 277.981 163.608C274.469 177.366 277.144 187.564 283.825 186.477C290.506 185.389 298.737 173.397 302.197 159.69ZM279.801 163.232C282.658 151.677 289.397 141.558 294.832 140.63C300.267 139.703 302.366 148.302 299.501 159.842C296.635 171.381 289.896 181.5 284.446 182.436C278.996 183.373 276.956 174.841 279.801 163.232Z" fill="black"/>
<path d="M300.408 159.284C303.828 145.58 301.342 135.352 294.886 136.472C288.43 137.591 280.416 149.6 277.005 163.319C273.594 177.039 276.071 187.251 282.536 186.147C289.001 185.043 296.952 172.927 300.408 159.284ZM278.883 162.868C281.749 151.328 288.488 141.209 293.938 140.273C299.388 139.336 301.458 147.953 298.592 159.493C295.726 171.032 288.987 181.151 283.537 182.088C278.087 183.024 275.95 174.467 278.883 162.868Z" fill="white"/>
<path opacity="0.3" d="M278.549 162.963C281.496 151.107 288.408 140.721 293.992 139.767C299.576 138.813 301.696 147.586 298.777 159.487C295.857 171.389 288.918 181.729 283.334 182.683C277.75 183.637 275.633 174.8 278.549 162.963Z" fill="white"/>
<path d="M282.137 186.342C281.761 188.817 281.257 191.27 280.63 193.693C280.006 196.126 279.338 198.482 278.661 200.822C277.983 203.163 277.141 205.54 276.32 207.883C275.5 210.225 275.473 212.759 271.612 214.323C270.985 214.518 270.322 214.566 269.674 214.463C269.026 214.36 268.411 214.109 267.876 213.729C267.698 213.589 267.539 213.426 267.404 213.245C265.296 210.139 267.269 208.104 267.959 205.714C268.649 203.325 269.853 201.106 270.868 198.813C271.883 196.52 272.98 194.261 274.141 192.005C275.302 189.749 276.512 187.506 277.916 185.313C278.319 184.703 279.517 184.53 280.681 184.893C281.845 185.256 282.155 185.815 282.137 186.342Z" fill="white"/>
<path d="M277.576 191.849L270.804 192.331L264.942 194.069L264.437 202.869L268.411 201.671L272.579 197.14C274.484 196.626 276.305 195.84 277.985 194.805C279.243 193.689 277.576 191.849 277.576 191.849Z" fill="#FAC3A4"/>
<path d="M105.188 102.98C100.234 159.033 76.7792 211.624 74.0094 222.988C84.6625 226.201 125.056 238.239 147.054 244.791C185.282 172.563 181.482 126.506 181.482 126.506C181.482 126.506 177.256 123.878 171.29 120.877C169.408 119.936 167.384 118.96 165.236 118.001C164.064 117.468 162.839 116.953 161.685 116.456C151.519 112.776 141.151 109.681 130.631 107.188C128.642 106.709 126.6 106.265 124.63 105.856C122.659 105.448 120.972 105.146 119.303 104.862C111.384 103.548 105.188 102.98 105.188 102.98Z" fill="#19C078"/>
<path d="M78.9797 224.923H78.8554C78.7995 224.906 78.7473 224.879 78.7018 224.843C78.6564 224.806 78.6185 224.761 78.5905 224.71C78.5625 224.659 78.5448 224.603 78.5385 224.545C78.5321 224.487 78.5373 224.428 78.5536 224.372C78.5536 224.266 81.6607 213.346 85.7622 202.231C92.8643 182.878 101.653 151.842 102.718 138.312C102.723 138.254 102.739 138.197 102.766 138.145C102.792 138.093 102.829 138.047 102.873 138.009C102.918 137.971 102.969 137.942 103.025 137.924C103.081 137.906 103.14 137.899 103.198 137.904C103.256 137.909 103.313 137.925 103.365 137.951C103.417 137.978 103.464 138.014 103.502 138.059C103.54 138.103 103.569 138.155 103.586 138.211C103.604 138.266 103.611 138.325 103.606 138.384C102.541 152.02 93.7876 183.162 86.5967 202.569C82.4952 213.666 79.4946 224.55 79.4058 224.656C79.3681 224.737 79.3078 224.805 79.2322 224.852C79.1566 224.9 79.0689 224.924 78.9797 224.923Z" fill="white"/>
<path opacity="0.2" d="M112.057 130.465C111.472 135.792 101.404 157.613 94.3022 161.182C96.3263 153.76 98.2439 145.948 99.9307 137.851L112.057 130.465Z" fill="black"/>
<path d="M165.715 118.231L165.236 118C164.064 117.468 162.839 116.953 161.685 116.456C151.519 112.775 141.151 109.681 130.631 107.187C129.104 106.814 127.541 106.477 126.014 106.158L127.506 108.892C130.613 114.591 136.383 125.209 150.286 129.896C152.311 130.621 154.439 131.016 156.589 131.068C158.062 131.16 159.534 130.884 160.874 130.264C162.213 129.644 163.376 128.7 164.259 127.517C165.956 124.737 166.48 121.397 165.715 118.231Z" fill="white"/>
<path d="M144.071 73.1503C143.041 83.8035 139.543 102.606 130.559 107.187C134.376 114.289 139.614 122.563 151.35 126.523C163.087 130.482 163.459 121.711 161.613 116.455C151.262 110.472 154.014 102.251 158.275 95.1491L144.071 73.1503Z" fill="#FAC3A4"/>
<path opacity="0.2" d="M149.859 82.1165L158.275 95.0955C157.257 96.7639 156.384 98.5162 155.665 100.333C151.599 98.4335 147.142 92.0239 148.012 87.4253C148.299 85.5579 148.925 83.7587 149.859 82.1165Z" fill="black"/>
<path d="M147.374 57.7564C144.16 71.5345 141.586 79.4356 146.344 88.4197C153.446 101.931 172.054 100.724 179.315 88.1712C185.849 76.8966 189.969 56.2117 178.357 46.9257C175.803 44.8528 172.761 43.4679 169.52 42.9025C166.28 42.3372 162.948 42.6102 159.843 43.6957C156.738 44.7812 153.962 46.643 151.779 49.1041C149.597 51.5652 148.08 54.5437 147.374 57.7564Z" fill="#FAC3A4"/>
<path d="M141.461 66.3502C149.238 83.2532 160.814 55.9812 159.678 49.0744C158.542 42.1676 146.876 41.9723 143.698 44.5468C140.52 47.1213 137.821 58.4846 141.461 66.3502Z" fill="#263238"/>
<path d="M155.389 47.1216C159.586 53.4925 175.343 59.2146 178.509 58.3111C176.673 56.5659 175.28 54.1456 174.507 51.3611C174.507 51.3611 149.076 31.2293 155.389 47.1216Z" fill="#263238"/>
<path d="M170.634 50.7259C175.552 54.8807 185.804 64.2977 192.256 59.2479C188.434 57.7945 187.768 51.2756 185.708 47.7431C185.708 47.7431 162.413 39.7354 170.634 50.7259Z" fill="#263238"/>
<path d="M147.552 44.2808C147.121 43.3811 146.878 42.4024 146.84 41.4053C146.801 40.4082 146.968 39.4138 147.329 38.4836C147.69 37.5534 148.238 36.7072 148.939 35.9971C149.64 35.2871 150.48 34.7284 151.405 34.3555C168.858 27.2534 184.175 49.3575 193.94 46.6232C193.94 46.6232 191.316 54.6383 183.841 54.4785C176.366 54.3187 147.552 44.2808 147.552 44.2808Z" fill="#263238"/>
<path d="M147.906 44.3333C150.001 42.0428 142.899 40.3561 138.23 40.871C143.858 42.8596 145.669 46.7835 147.906 44.3333Z" fill="#263238"/>
<path d="M137.448 67.8768C137.543 71.431 139.043 74.8026 141.621 77.2516C145.065 80.4831 148.954 77.9263 149.806 73.5408C150.587 69.5991 149.806 63.1717 145.403 61.6092C140.999 60.0468 137.377 63.5801 137.448 67.8768Z" fill="#FAC3A4"/>
<path d="M147.053 244.809L99.1136 230.462C97.6971 243.506 96.9859 256.617 96.983 269.737C131.481 301.093 175.106 330.691 188.795 338.237C186.381 361.709 175.745 453.078 175.745 453.078L199.875 452.705C199.875 452.705 226.596 386.726 227.111 341.45C227.591 297.95 147.053 244.809 147.053 244.809Z" fill="#263238"/>
<path opacity="0.2" d="M121.592 290.67C118.041 287.865 114.65 285.024 111.223 282.13L118.734 251.946C118.734 251.946 123.421 273.323 121.592 290.67Z" fill="black"/>
<path opacity="0.2" d="M121.592 290.67C118.041 287.865 114.65 285.024 111.223 282.13L118.734 251.946C118.734 251.946 123.421 273.323 121.592 290.67Z" fill="black"/>
<path d="M126.299 238.594C126.299 238.594 108.348 326.447 87.2371 362.454C64.1552 401.907 -2.28494 453.468 -2.28494 453.468L-23.751 443.543C-23.751 443.543 20.2287 390.277 44.3049 352.796C71.7367 310.041 62.2377 257.272 73.9917 222.969L126.299 238.594Z" fill="#263238"/>
<path d="M166.762 67.6646C166.425 68.7654 166.762 69.8307 167.473 70.0438C168.183 70.2569 169.035 69.5467 169.372 68.4458C169.71 67.345 169.372 66.2797 168.662 66.0666C167.952 65.8535 167.082 66.5638 166.762 67.6646Z" fill="#263238"/>
<path d="M179.209 71.3748C178.889 72.4756 179.209 73.5409 179.919 73.7717C180.629 74.0026 181.499 73.2568 181.819 72.156C182.138 71.0552 181.819 69.9899 181.109 69.7768C180.398 69.5638 179.546 70.2739 179.209 71.3748Z" fill="#263238"/>
<path d="M175.107 70.6827C175.414 74.4415 176.238 78.14 177.557 81.6732C176.643 81.9829 175.673 82.0908 174.714 81.9897C173.754 81.8885 172.828 81.5807 171.999 81.0873L175.107 70.6827Z" fill="#ED893E"/>
<path d="M166.459 82.7207C165.276 82.2053 164.209 81.4548 163.324 80.5148C162.438 79.5748 161.754 78.4648 161.31 77.2521C161.297 77.209 161.293 77.1637 161.298 77.119C161.303 77.0742 161.316 77.0308 161.337 76.9912C161.359 76.9517 161.388 76.9167 161.423 76.8884C161.458 76.86 161.498 76.8388 161.541 76.826C161.584 76.8132 161.629 76.8089 161.674 76.8136C161.719 76.8183 161.762 76.8317 161.802 76.8531C161.842 76.8746 161.876 76.9036 161.905 76.9385C161.933 76.9735 161.954 77.0137 161.967 77.0568C162.476 78.3935 163.293 79.5915 164.351 80.5539C165.409 81.5163 166.679 82.2161 168.057 82.5964C168.141 82.6213 168.212 82.6777 168.255 82.7539C168.298 82.8301 168.31 82.9201 168.288 83.0048C168.276 83.0483 168.255 83.089 168.227 83.1243C168.199 83.1596 168.164 83.1889 168.124 83.2105C168.084 83.232 168.041 83.2453 167.996 83.2496C167.951 83.254 167.905 83.2492 167.862 83.2356C167.382 83.0992 166.913 82.9271 166.459 82.7207Z" fill="#263238"/>
<path d="M165.448 60.9646C165.345 60.9141 165.254 60.8413 165.182 60.7516C165.127 60.6798 165.087 60.5977 165.064 60.5102C165.041 60.4227 165.036 60.3315 165.05 60.2421C165.063 60.1527 165.094 60.0668 165.141 59.9896C165.188 59.9124 165.25 59.8455 165.324 59.7928C166.172 59.1387 167.165 58.6988 168.219 58.5102C169.273 58.3217 170.356 58.3901 171.378 58.7097C171.463 58.7395 171.54 58.7857 171.607 58.8457C171.673 58.9057 171.727 58.9783 171.765 59.0593C171.803 59.1402 171.824 59.2279 171.828 59.3173C171.832 59.4066 171.818 59.4958 171.787 59.5797C171.719 59.7439 171.592 59.876 171.43 59.9487C171.268 60.0213 171.084 60.0291 170.917 59.9703C170.102 59.7309 169.242 59.6898 168.408 59.8504C167.574 60.011 166.79 60.3687 166.123 60.8936C166.025 60.9608 165.912 61.0025 165.794 61.0149C165.677 61.0273 165.558 61.01 165.448 60.9646Z" fill="#263238"/>
<path d="M187.323 68.7469C187.211 68.7575 187.099 68.7421 186.994 68.7021C186.889 68.6621 186.795 68.5984 186.719 68.516C186.183 67.8574 185.497 67.3365 184.719 66.9967C183.941 66.657 183.093 66.5082 182.245 66.5629C182.07 66.5785 181.895 66.5266 181.756 66.4177C181.618 66.3088 181.526 66.1513 181.499 65.977C181.474 65.8005 181.519 65.6211 181.626 65.4781C181.732 65.335 181.891 65.2399 182.067 65.2136C183.138 65.1364 184.212 65.3151 185.2 65.735C186.188 66.1549 187.062 66.8038 187.749 67.6283C187.873 67.7572 187.942 67.929 187.942 68.1077C187.942 68.2864 187.873 68.4581 187.749 68.5871C187.629 68.6856 187.479 68.7418 187.323 68.7469Z" fill="#263238"/>
<path d="M113.39 125.724L91.9061 146.817L81.253 157.47L76.0507 162.797L73.4939 165.496L72.2156 166.827L71.1858 167.999C65.6201 174.722 61.7748 182.699 59.9822 191.241C58.8891 195.819 58.1354 200.472 57.7273 205.161C57.5142 207.54 57.3367 209.937 57.2656 212.263C57.2656 213.47 57.2656 214.678 57.2656 215.814C57.2656 216.95 57.2656 218.282 57.2656 219.276L46.7545 221.265C46.0107 218.596 45.4179 215.887 44.979 213.151C44.5351 210.47 44.1622 207.824 43.9314 205.054C43.4762 199.546 43.5178 194.008 44.0557 188.506C44.5962 182.802 45.7876 177.179 47.6068 171.746C49.5519 166.022 52.3665 160.633 55.9517 155.766L57.3189 153.99L58.544 152.446L61.0297 149.374C62.681 147.35 64.3677 145.343 66.0722 143.39C69.4812 139.449 72.9435 135.56 76.4946 131.778C83.5967 124.179 90.8053 116.935 98.5111 109.851L113.39 125.724Z" fill="#FAC3A4"/>
<path d="M105.188 102.998C91.587 102.163 63.9244 138.792 63.9244 138.792L87.3436 161.874C87.3436 161.874 104.033 145.433 115.202 131.832C127.382 116.953 121.664 103.992 105.188 102.998Z" fill="#19C078"/>
<path d="M56.9623 217.235L59.6256 231.439L43.4151 230.853C43.4151 230.853 42.9001 220.04 47.0904 216.365L56.9623 217.235Z" fill="#FAC3A4"/>
<path d="M56.2363 245.484L41.4284 238.435L43.417 230.871L59.6275 231.457L56.2363 245.484Z" fill="#FAC3A4"/>
<path d="M475.118 344.363C475.118 344.363 480.4 296.592 510.917 256.479C488.335 271.449 460.401 320.374 462.846 344.478L475.118 344.363Z" fill="#8ED854"/>
<path d="M483.49 344.363C483.49 344.363 484.067 309.993 515.345 279.776C492.74 289.972 467.69 324.987 471.219 344.363H483.49Z" fill="#7CC840"/>
<path d="M457.172 344.363C457.172 344.363 469.12 309.993 460.955 279.776C470.989 289.972 473.618 324.987 464.622 344.363H457.172Z" fill="#8ED854"/>
<path d="M422.548 348.791H236.931L253.539 293.109L279.627 277.008L299.787 253.342L390.531 234.335L420.172 259.893L453.388 277.008L457.54 301.136L483.629 328.401L491.333 349.299L422.548 348.791Z" fill="#676767"/>
<path opacity="0.6" d="M422.548 348.791H236.931L253.539 293.109L279.627 277.008L299.787 253.342L390.531 234.335L420.172 259.893L453.388 277.008L457.54 301.136L483.629 328.401L491.333 349.299L422.548 348.791Z" fill="white"/>
<path opacity="0.2" d="M279.628 277.007L307.261 272.855L329.867 277.007L309.222 267.919L286.432 269.026L279.628 277.007Z" fill="#343434"/>
<path opacity="0.2" d="M420.172 259.892L399.712 261.852L379.552 259.892L403.795 267.919L429.514 264.713L420.172 259.892Z" fill="#343434"/>
<path opacity="0.2" d="M356.092 303.488L414.289 306.049L444.46 303.488L415.604 314.076L356.092 303.488Z" fill="#343434"/>
<path d="M278.843 351.051C278.843 351.051 283.71 301.573 264.149 259.915C281.634 275.393 297.112 326.093 290.03 351.051H278.843Z" fill="#8ED854"/>
<path d="M271.231 351.051C271.231 351.051 277.666 315.436 255.338 284.158C273.791 294.722 289.476 330.983 282.395 351.051H271.231Z" fill="#7CC840"/>
<path d="M295.15 351.051C295.15 351.051 291.251 315.436 304.745 284.158C293.581 294.722 284.101 331.006 288.391 351.051H295.15Z" fill="#8ED854"/>
<path d="M357.312 203.805C357.511 202.481 362.145 170.48 352.864 159.438C351.939 158.276 350.769 157.333 349.436 156.676C348.104 156.019 346.643 155.665 345.158 155.639C326.411 155.202 323.856 170.202 323.829 170.401L326.04 170.745C326.12 170.202 328.344 157.505 345.092 157.876C346.261 157.892 347.412 158.171 348.459 158.691C349.506 159.211 350.423 159.96 351.143 160.881C359.788 171.155 355.115 203.156 355.115 203.474L357.312 203.805Z" fill="#5D982F"/>
<path d="M358.438 202.348L360.675 202.282C360.675 201.977 359.934 172.824 374.299 166.786C388.386 160.895 394.715 173.022 394.979 173.539L396.979 172.532C396.912 172.387 389.472 157.969 373.438 164.734C357.657 171.354 358.398 201.077 358.438 202.348Z" fill="#5D982F"/>
<path d="M358.372 204.639C358.372 204.175 358.504 158.048 367.507 144.557C376.139 131.609 390.014 137.699 390.65 137.937L391.577 135.912C391.418 135.832 375.345 128.736 365.64 143.286C356.28 157.333 356.147 202.679 356.134 204.612L358.372 204.639Z" fill="#5D982F"/>
<path d="M342.471 156.751C342.471 156.751 350.653 159.769 348.217 166.892C345.781 174.015 319.924 185.732 319.924 185.732C319.924 185.732 309.08 175.789 319.037 159.65C328.993 143.511 342.246 151.653 342.471 156.751Z" fill="#9EFF51"/>
<path d="M367.904 142.121C367.904 142.121 362.105 141.499 362.608 137.964C363.111 134.429 385.182 125.32 398.236 140.042C398.236 140.042 389.882 154.394 377.807 154.606C365.733 154.818 367.904 142.121 367.904 142.121Z" fill="#9EFF51"/>
<path d="M373.875 165.767C373.875 165.767 369.903 162.524 374.193 160.948C378.483 159.372 399.746 159.809 399.957 180.808C399.957 180.808 375.239 184.912 372.154 176.902C369.069 168.892 373.875 165.767 373.875 165.767Z" fill="#9EFF51"/>
<path opacity="0.2" d="M342.471 156.751C342.471 156.751 350.653 159.769 348.217 166.892C345.781 174.015 319.924 185.732 319.924 185.732C319.924 185.732 309.08 175.789 319.037 159.65C328.993 143.511 342.246 151.653 342.471 156.751Z" fill="black"/>
<path opacity="0.2" d="M367.904 142.121C367.904 142.121 362.105 141.499 362.608 137.964C363.111 134.429 385.182 125.32 398.236 140.042C398.236 140.042 389.882 154.394 377.807 154.606C365.733 154.818 367.904 142.121 367.904 142.121Z" fill="black"/>
<path opacity="0.2" d="M373.875 165.767C373.875 165.767 369.903 162.524 374.193 160.948C378.483 159.372 399.746 159.809 399.957 180.808C399.957 180.808 375.239 184.912 372.154 176.902C369.069 168.892 373.875 165.767 373.875 165.767Z" fill="black"/>
<path d="M338.075 246.635H376.444L380.575 204.639H333.931L338.075 246.635Z" fill="#A98D46"/>
<path opacity="0.5" d="M338.075 246.635H376.444L380.575 204.639H333.931L338.075 246.635Z" fill="white"/>
<path d="M331.892 209.26H382.627V199.992H331.892V209.26Z" fill="#A98D46"/>
<path opacity="0.2" d="M331.892 209.26H382.627V199.992H331.892V209.26Z" fill="white"/>
<path d="M285.429 231.405C281.073 226.03 272.626 222.442 263.359 220.707C264.074 223.355 263.531 225.805 261.968 226.4C260.406 226.996 257.877 225.196 256.739 222.217C256.432 221.422 256.236 220.589 256.156 219.741C246.888 218.986 237.475 220.059 231.252 223.051C231.252 223.051 237.356 228.559 244.267 243.016H244.902C249.378 243.016 252.979 245.227 252.952 247.849C252.952 249.755 250.98 251.384 248.186 252.099C248.543 253.025 248.914 253.979 249.272 254.945C255.891 272.779 273.421 259.884 273.262 247.69C273.275 247.677 295.213 243.466 285.429 231.405Z" fill="#96CA27"/>
<path d="M238.746 225.474L238.203 225.341L238.746 225.474Z" fill="#263238"/>
<path d="M300.576 286.892C300.192 285.939 299.609 284.536 298.788 282.748C292.688 269.619 284.274 257.694 273.95 247.544C271.501 245.187 268.866 242.87 266.007 240.633C265.848 238.422 266.007 232.517 271.461 229.128C271.461 229.128 265.437 230.028 264.577 239.521C256.742 233.543 248.034 228.805 238.759 225.474C250.464 230.296 261.161 237.27 270.296 246.035C267.91 246.188 265.613 246.999 263.659 248.377C261.705 249.756 260.172 251.649 259.228 253.846C259.506 253.475 264.127 247.226 271.859 247.531L273.183 248.921C282.769 258.662 290.408 270.144 295.69 282.748C296.405 284.43 297.093 286.178 297.742 287.952C297.863 288.28 298.096 288.555 298.399 288.73C298.702 288.904 299.057 288.967 299.401 288.908C299.746 288.848 300.059 288.669 300.286 288.402C300.512 288.136 300.638 287.798 300.642 287.449C300.651 287.261 300.629 287.073 300.576 286.892Z" fill="#D9409B"/>
<path d="M310.796 231.524C313.736 225.262 321.057 219.741 329.637 215.835C329.57 218.576 330.682 220.826 332.351 221.025C334.019 221.224 336.031 218.867 336.415 215.729C336.535 214.89 336.535 214.039 336.415 213.2C345.286 210.208 354.62 209.003 361.385 210.407C361.385 210.407 356.791 217.212 353.561 232.914L352.938 233.06C348.609 234.185 345.63 237.151 346.319 239.68C346.795 241.533 349.086 242.645 351.972 242.672C351.839 243.652 351.72 244.658 351.601 245.69C349.509 264.583 329.345 256.282 326.565 244.366C326.499 244.393 304.203 245.585 310.796 231.524Z" fill="#96CA27"/>
<path d="M354.712 214.538L355.149 214.246L354.712 214.538Z" fill="#F5F5F5"/>
<path d="M329.994 240.593C336.423 230.817 344.484 222.219 353.825 215.173C345.985 220.509 338.984 226.984 333.052 234.384C332.415 232.399 331.394 230.559 330.047 228.969L329.967 228.876C329.234 227.967 328.306 227.232 327.253 226.726C326.199 226.22 325.046 225.955 323.877 225.95C326.408 226.753 328.568 228.434 329.967 230.69C329.999 230.731 330.025 230.776 330.047 230.822C330.979 232.351 331.62 234.039 331.94 235.801C331.291 236.648 330.616 237.482 330.047 238.329C330.014 238.365 329.988 238.405 329.967 238.449C328.538 240.421 327.187 242.42 325.996 244.406C324.398 246.957 322.95 249.499 321.653 252.032C321.637 252.075 321.637 252.122 321.653 252.165C316.659 261.824 312.985 272.111 310.73 282.749C310.148 285.542 309.803 287.713 309.618 289.037C309.592 289.234 309.606 289.435 309.659 289.626C309.712 289.817 309.803 289.996 309.927 290.152C310.05 290.307 310.204 290.437 310.378 290.532C310.553 290.627 310.744 290.686 310.942 290.706H311.127C311.492 290.704 311.844 290.569 312.115 290.324C312.386 290.08 312.558 289.744 312.597 289.382C312.849 287.118 313.153 284.907 313.524 282.762C315.045 273.505 317.783 264.49 321.666 255.951C321.659 255.899 321.659 255.845 321.666 255.793C323.244 252.309 325.012 248.914 326.962 245.624C327.28 245.055 327.624 244.499 327.968 243.943C328.638 243.734 329.325 243.584 330.02 243.493H330.1C334.299 243.099 338.484 244.373 341.751 247.041C340.416 245.257 338.64 243.85 336.598 242.958C334.555 242.067 332.316 241.722 330.1 241.957H330.02C329.722 241.989 329.426 242.038 329.133 242.103C329.425 241.639 329.729 241.189 330.02 240.779L329.994 240.593Z" fill="#D9409B"/>
<path d="M317.059 229.644C315.735 222.852 309.843 215.769 302.416 209.97C301.847 212.618 300.231 214.578 298.563 214.379C296.895 214.18 295.492 211.426 295.915 208.249C296.012 207.407 296.226 206.582 296.551 205.8C288.607 200.821 279.829 197.459 272.918 197.234C272.918 197.234 275.791 204.939 275.248 220.959L275.831 221.237C279.803 223.342 281.974 226.93 280.743 229.181C279.842 230.876 277.367 231.405 274.546 230.756C274.441 231.749 274.335 232.756 274.202 233.788C271.819 252.642 293.347 249.318 298.841 238.422C298.775 238.475 320.17 244.857 317.059 229.644Z" fill="#96CA27"/>
<path opacity="0.2" d="M317.059 229.644C315.735 222.852 309.843 215.769 302.416 209.97C301.847 212.618 300.231 214.578 298.563 214.379C296.895 214.18 295.492 211.426 295.915 208.249C296.012 207.407 296.226 206.582 296.551 205.8C288.607 200.821 279.829 197.459 272.918 197.234C272.918 197.234 275.791 204.939 275.248 220.959L275.831 221.237C279.803 223.342 281.974 226.93 280.743 229.181C279.842 230.876 277.367 231.405 274.546 230.756C274.441 231.749 274.335 232.756 274.202 233.788C271.819 252.642 293.347 249.318 298.841 238.422C298.775 238.475 320.17 244.857 317.059 229.644Z" fill="white"/>
<path d="M278.372 202.834L278.015 202.45L278.372 202.834Z" fill="#263238"/>
<path d="M295.557 228.85C296.445 226.824 299.318 221.661 305.699 221.171C305.699 221.171 299.953 219.198 294.803 227.208C290.709 218.507 285.326 210.473 278.836 203.377C286.759 212.951 292.869 223.889 296.868 235.655C294.688 234.667 292.274 234.313 289.901 234.633C287.529 234.954 285.296 235.937 283.456 237.469C284.853 236.838 286.326 236.393 287.839 236.145C291.166 235.487 294.62 236.046 297.57 237.721L298.166 239.601C302.434 253.572 303.825 268.264 302.257 282.789C302.164 283.702 302.058 284.616 301.939 285.542C301.911 285.741 301.924 285.943 301.976 286.137C302.028 286.331 302.118 286.512 302.242 286.67C302.365 286.829 302.519 286.96 302.695 287.058C302.87 287.155 303.063 287.216 303.263 287.237H303.435C303.802 287.239 304.157 287.105 304.431 286.86C304.705 286.616 304.879 286.278 304.918 285.913C304.997 285.132 305.09 284.099 305.156 282.789C306.004 267.821 304.042 252.827 299.371 238.581C298.285 235.417 297.04 232.133 295.557 228.85Z" fill="#D9409B"/>
<path d="M324.91 286.893V287.277L324.804 288.892L322.884 318.019C322.83 318.856 322.459 319.641 321.847 320.215C321.234 320.788 320.426 321.106 319.588 321.104H288.368C287.53 321.106 286.722 320.788 286.109 320.215C285.497 319.641 285.126 318.856 285.072 318.019L283.218 288.892L283.112 287.277V286.893C283.096 286.495 283.14 286.098 283.245 285.714V285.595C283.245 285.463 283.337 285.33 283.39 285.185C283.449 285.044 283.515 284.907 283.589 284.774V284.682C283.631 284.6 283.684 284.524 283.748 284.457C283.771 284.403 283.802 284.354 283.84 284.311L284.052 284.059C284.201 283.891 284.365 283.735 284.542 283.596L284.754 283.437C285.278 283.078 285.883 282.855 286.515 282.788H286.912H321.044H321.441H321.613C322.49 282.92 323.294 283.351 323.89 284.006L324.102 284.258C324.141 284.301 324.172 284.35 324.195 284.404C324.258 284.471 324.312 284.547 324.354 284.629C324.358 284.659 324.358 284.691 324.354 284.721C324.432 284.854 324.503 284.991 324.566 285.132C324.566 285.277 324.672 285.41 324.711 285.542V285.661C324.844 286.058 324.911 286.474 324.91 286.893Z" fill="#263238"/>
<path d="M324.777 285.688C324.571 284.85 324.089 284.106 323.41 283.573C322.731 283.04 321.894 282.75 321.031 282.749H286.899C286.037 282.755 285.201 283.047 284.523 283.579C283.845 284.11 283.363 284.852 283.152 285.688L283.046 287.29L283.218 288.892C283.432 289.725 283.915 290.464 284.593 290.993C285.271 291.523 286.105 291.813 286.965 291.818H321.097C321.958 291.817 322.794 291.529 323.473 290.999C324.152 290.469 324.634 289.727 324.844 288.892L324.95 287.277L324.777 285.688Z" fill="#263238"/>
<path d="M325.572 290.031H282.159L281.365 282.749H326.353L325.572 290.031Z" fill="#263238"/>
<path d="M422.471 279.349C422.471 279.349 414.991 263.025 423.53 246.938C432.07 230.852 434.559 227.079 429.117 223.769C423.676 220.459 421.174 236.638 421.174 236.638C421.174 236.638 416.579 225.517 420.379 213.879C424.179 202.241 426.549 183.282 421.372 181.256C416.196 179.231 420.379 204.902 415.891 213.654C413.602 207.508 412.125 201.09 411.495 194.562C410.873 185.215 411.84 170.281 407.749 166.454C403.658 162.628 401.049 165.276 405.101 185.904C407.516 198.231 408.845 210.746 409.073 223.306C409.073 223.306 400.202 196.244 394.244 195.502C388.286 194.761 388.299 203.446 393.397 211.085C398.494 218.725 408.331 232.269 409.946 239.312C409.946 239.312 400.202 218.95 391.411 225.186C382.62 231.422 399.037 243.721 406.345 248.17C413.653 252.618 418.724 280.475 418.724 280.475L422.471 279.349Z" fill="#AFB13F"/>
<path opacity="0.2" d="M422.471 279.349C422.471 279.349 414.991 263.025 423.53 246.938C432.07 230.852 434.559 227.079 429.117 223.769C423.676 220.459 421.174 236.638 421.174 236.638C421.174 236.638 416.579 225.517 420.379 213.879C424.179 202.241 426.549 183.282 421.372 181.256C416.196 179.231 420.379 204.902 415.891 213.654C413.602 207.508 412.125 201.09 411.495 194.562C410.873 185.215 411.84 170.281 407.749 166.454C403.658 162.628 401.049 165.276 405.101 185.904C407.516 198.231 408.845 210.746 409.073 223.306C409.073 223.306 400.202 196.244 394.244 195.502C388.286 194.761 388.299 203.446 393.397 211.085C398.494 218.725 408.331 232.269 409.946 239.312C409.946 239.312 400.202 218.95 391.411 225.186C382.62 231.422 399.037 243.721 406.345 248.17C413.653 252.618 418.724 280.475 418.724 280.475L422.471 279.349Z" fill="black"/>
<path d="M416.606 285.969C416.606 285.969 423.888 269.552 415.15 253.585C406.411 237.618 403.896 233.871 409.298 230.495C414.7 227.119 417.4 243.245 417.4 243.245C417.4 243.245 421.862 232.057 417.93 220.486C413.998 208.914 411.39 190.035 416.606 187.877C421.822 185.719 417.93 211.496 422.484 220.181C424.697 214.008 426.095 207.572 426.642 201.037C427.158 191.676 426.006 176.768 430.044 172.876C434.082 168.984 436.744 171.552 432.97 192.285C430.701 204.643 429.518 217.176 429.435 229.741C429.435 229.741 437.975 202.546 443.999 201.672C450.023 200.799 450.036 209.55 445.032 217.229C440.027 224.908 430.216 238.704 428.694 245.734C428.694 245.734 438.187 225.226 447.031 231.343C455.875 237.459 439.683 249.997 432.375 254.552C425.066 259.106 420.379 287.042 420.379 287.042L416.606 285.969Z" fill="#AFB13F"/>
<path d="M450.195 274.305H390.034L394.906 317.36H445.323L450.195 274.305Z" fill="#263238"/>
</g>
<defs>
<clipPath id="clip0_25_65">
<rect width="486.796" height="308.546" rx="20" fill="white"/>
</clipPath>
</defs>
</svg>
