<svg width="487" height="310" viewBox="0 0 487 310" fill="none" xmlns="http://www.w3.org/2000/svg">
<g clip-path="url(#clip0_25_193)">
<rect width="486.511" height="308.365" rx="20" transform="matrix(-1 0 0 1 486.511 0.745117)" fill="#19C078"/>
<path d="M92.1332 85.3911C92.1332 77.7707 96.1192 70.8798 102.554 65.9298C102.341 64.9233 102.232 63.8975 102.229 62.8687C102.229 52.7082 112.558 44.4495 125.415 44.2151C129.323 34.3803 140.943 27.2809 154.724 27.2809C165.692 27.2809 175.319 31.8141 180.777 38.6268C182.154 38.4384 183.542 38.3427 184.932 38.3402C198.037 38.3402 208.666 46.7031 208.666 57.0199C208.667 58.7668 208.358 60.5001 207.754 62.1392C216.104 66.529 221.614 74.0061 221.614 82.4992C221.614 90.6797 216.508 97.9093 208.666 102.351V102.612C208.666 112.629 198.662 120.849 186.079 121.265C179.149 128.039 168.519 132.377 156.6 132.377C148.774 132.444 141.067 130.459 134.247 126.619C133.174 126.739 132.096 126.8 131.017 126.801C117.912 126.801 107.283 118.439 107.283 108.122V107.939C98.1123 102.99 92.1332 94.7439 92.1332 85.3911Z" fill="#E7E7E7"/>
<path d="M222.643 140.245C222.643 141.951 224.623 143.332 227.059 143.332C229.495 143.332 231.475 141.951 231.475 140.245C231.475 138.538 229.495 137.157 227.059 137.157C224.623 137.157 222.643 138.538 222.643 140.245Z" fill="#E7E7E7"/>
<path d="M192.057 132.872C192.057 137.809 197.802 141.808 204.888 141.808C211.975 141.808 217.68 137.835 217.68 132.872C217.68 127.909 211.936 123.936 204.849 123.936C197.763 123.936 192.057 127.974 192.057 132.872Z" fill="#E7E7E7"/>
<path opacity="0.7" d="M92.1332 85.3911C92.1332 77.7707 96.1192 70.8798 102.554 65.9298C102.341 64.9233 102.232 63.8975 102.229 62.8687C102.229 52.7082 112.558 44.4495 125.415 44.2151C129.323 34.3803 140.943 27.2809 154.724 27.2809C165.692 27.2809 175.319 31.8141 180.777 38.6268C182.154 38.4384 183.542 38.3427 184.932 38.3402C198.037 38.3402 208.666 46.7031 208.666 57.0199C208.667 58.7668 208.358 60.5001 207.754 62.1392C216.104 66.529 221.614 74.0061 221.614 82.4992C221.614 90.6797 216.508 97.9093 208.666 102.351V102.612C208.666 112.629 198.662 120.849 186.079 121.265C179.149 128.039 168.519 132.377 156.6 132.377C148.774 132.444 141.067 130.459 134.247 126.619C133.174 126.739 132.096 126.8 131.017 126.801C117.912 126.801 107.283 118.439 107.283 108.122V107.939C98.1123 102.99 92.1332 94.7439 92.1332 85.3911Z" fill="white"/>
<path opacity="0.7" d="M222.643 140.245C222.643 141.951 224.623 143.332 227.059 143.332C229.495 143.332 231.475 141.951 231.475 140.245C231.475 138.538 229.495 137.157 227.059 137.157C224.623 137.157 222.643 138.538 222.643 140.245Z" fill="white"/>
<path opacity="0.7" d="M192.057 132.872C192.057 137.809 197.802 141.808 204.888 141.808C211.975 141.808 217.68 137.835 217.68 132.872C217.68 127.909 211.936 123.936 204.849 123.936C197.763 123.936 192.057 127.974 192.057 132.872Z" fill="white"/>
<path d="M157.447 46.1436C170.121 46.1436 177.963 52.0965 177.963 62.6869C177.963 77.0158 163.4 78.8525 163.4 89.9118H150.829C150.829 75.3614 162.462 74.5017 162.462 65.4354C162.462 61.5276 160 59.6648 155.845 59.6648C151.207 59.6648 148.745 62.4003 148.654 68.0798H135.706C135.797 54.1807 143.926 46.1436 157.447 46.1436ZM165.028 105.244C165.028 107.389 164.176 109.447 162.659 110.964C161.142 112.481 159.084 113.333 156.939 113.333C154.793 113.333 152.736 112.481 151.219 110.964C149.702 109.447 148.849 107.389 148.849 105.244C148.849 103.098 149.702 101.041 151.219 99.5237C152.736 98.0066 154.793 97.1544 156.939 97.1544C159.084 97.1544 161.142 98.0066 162.659 99.5237C164.176 101.041 165.028 103.098 165.028 105.244Z" fill="#19C078"/>
<path d="M222.969 240.729C211.428 255.723 199.118 271.471 184.216 282.869C181.568 284.943 178.585 286.551 175.397 287.624C175.176 287.689 175.397 287.806 175.658 287.989C175.918 288.171 175.814 288.145 175.814 288.249C175.814 288.353 176.218 288.614 176.322 288.705C177.663 289.962 178.493 291.668 178.654 293.499C178.654 293.864 178.576 293.838 178.576 293.603C179.37 287.611 183.004 281.71 186.079 276.122C198.519 255.11 214.163 235.48 229.182 215.941L217.459 204.451C204.261 215.676 191.816 227.755 180.204 240.612C171.242 250.642 162.488 261.168 155.688 273.269C148.928 284.849 144.89 301.275 156.926 311.475C162.254 315.937 168.981 318.385 175.931 318.392C198.727 318.079 219.569 296.586 233.546 281.137C239.505 274.346 245.068 267.217 250.207 259.787L223.008 240.729H222.969Z" fill="#FEBDB3"/>
<path d="M256.108 190.683L242.365 190.018C240.837 189.951 239.325 190.361 238.04 191.191L216.756 204.985L220.286 219.822C233.546 228.185 244.866 220.5 248.331 217.647C249.133 216.981 250.071 216.501 251.08 216.24L258.609 214.221C260.29 213.772 261.756 212.738 262.744 211.306C263.733 209.874 264.178 208.136 264.002 206.405L263.064 197.287C262.893 195.533 262.096 193.9 260.818 192.687C259.54 191.474 257.868 190.762 256.108 190.683Z" fill="#FFBFB6"/>
<path d="M182.614 282.843L196.396 326.755C196.396 326.755 197.946 325.934 200.473 324.514C207.129 320.776 220.598 312.934 230.55 305.157C236.334 300.65 240.971 296.169 242.274 292.522C246.898 280.277 219.374 236.861 219.374 236.861C210.724 239.023 200.225 254.707 200.225 254.707C200.225 254.707 185.936 274.858 182.614 282.843Z" fill="#E7E7E7"/>
<path opacity="0.2" d="M200.473 324.514C207.129 320.775 220.598 312.934 230.55 305.157C230.805 298.965 230.328 292.766 229.13 286.686C229.13 286.686 207.012 299.217 200.473 324.514Z" fill="black"/>
<path d="M219.387 236.874C219.387 236.874 192.709 305.6 218.514 433.427L340.127 433.127C340.922 414.461 332.468 327.055 350.262 239.036C350.262 239.036 345.272 232.94 306.037 230.348C290.51 229.319 267.988 229.201 254.336 230.478C242.537 231.694 230.852 233.832 219.387 236.874Z" fill="#263238"/>
<path opacity="0.6" d="M207.533 343.376C207.702 348.027 207.937 352.807 208.249 357.705C208.523 361.704 208.822 365.808 209.187 370.002C209.643 375.004 210.164 380.15 210.815 385.425C211.31 389.767 211.875 394.161 212.509 398.608C213.282 404.018 214.15 409.55 215.114 415.203C216.13 421.117 217.25 427.187 218.514 433.44L340.127 433.14C340.309 429.076 340.049 421.755 339.71 411.895C339.567 407.987 339.424 403.584 339.28 398.868C339.189 395.442 339.098 391.795 339.02 388.004C338.942 383.784 338.863 379.342 338.837 374.692C338.837 371.088 338.837 367.362 338.837 363.515C338.837 359.073 338.903 354.488 339.007 349.785C339.007 346.294 339.163 342.751 339.28 339.143C339.71 326.312 340.479 312.726 341.755 298.67C343.517 278.652 346.366 258.745 350.287 239.036C350.287 239.036 345.285 232.94 305.998 230.348C290.471 229.319 267.962 229.188 254.284 230.478C242.486 231.703 230.801 233.841 219.335 236.874C219.335 236.874 205.11 273.621 207.533 343.376Z" fill="#FAFAFA"/>
<path opacity="0.2" d="M326.606 293.095C326.606 293.095 327.687 322.117 339.281 339.169C339.71 326.338 340.479 312.752 341.755 298.696C337.001 295.062 331.829 292.913 326.606 293.095Z" fill="black"/>
<path d="M307.562 176.692C302.768 192.962 296.685 223 307.236 235.141C290.732 240.351 278.852 243.869 264.249 254.68C260.42 244.064 255.743 230.295 255.743 230.295C274.631 227.612 275.439 213.869 273.42 200.7L307.562 176.692Z" fill="#FFBFB6"/>
<path opacity="0.2" d="M293.702 186.501L273.498 200.712C274.022 203.775 274.266 206.88 274.227 209.987C281.379 209.635 291.8 202.796 293.246 195.476C293.941 192.536 294.096 189.495 293.702 186.501Z" fill="black"/>
<path d="M321.435 231.585L309.776 220.63L278.539 231.351L264.888 252.336L259.794 231.064L252.734 224.694L240.372 232.263L242.287 245.745L251.223 241.368L262.022 259.045L286.159 244.872L292.894 251.333L321.435 231.585Z" fill="#E7E7E7"/>
<path opacity="0.2" d="M262.021 259.044L255.717 236.951L242.287 245.744L251.223 241.367L262.021 259.044Z" fill="black"/>
<path opacity="0.2" d="M262.022 259.044L283.293 238.202L292.894 251.333L286.159 244.872L262.022 259.044Z" fill="black"/>
<path d="M313.475 274.207C305.659 283.625 294.978 296.703 287.058 305.691C277.614 316.19 268.222 327.341 256.798 335.391C256.355 335.665 256.863 335.391 257.085 335.391C257.206 335.346 257.333 335.32 257.462 335.313C257.566 335.313 257.462 335.313 257.462 335.378C252.33 336.511 246.559 335.313 241.075 334.57C224.363 331.757 207.923 327.028 191.185 322.717L184.606 337.788C190.95 341.696 197.268 345.017 203.833 348.209C220.285 355.92 250.246 369.846 268.404 363.02C275.114 359.905 281.367 355.891 286.993 351.088C295.643 343.89 303.823 336.145 311.482 327.901C318.998 319.916 326.111 311.748 332.962 303.229C335.268 300.39 337.43 297.602 339.723 294.554L313.475 274.207Z" fill="#FEBDB3"/>
<path d="M361.047 254.094C374.373 296.325 314.504 337.671 314.504 337.671L282.512 301.301C282.512 301.301 296.606 275.249 312.577 252.088C329.289 227.859 354.026 231.871 361.047 254.094Z" fill="#E7E7E7"/>
<path d="M193.803 324.671L171.294 301.302L154.282 323.993C154.282 323.993 167.712 342.595 185.988 337.749L193.803 324.671Z" fill="#FFBFB6"/>
<path d="M149.345 294.137L140.708 314.093L154.282 323.993L171.294 301.301L149.345 294.137Z" fill="#FFBFB6"/>
<path d="M264.119 116.264C252.538 120.81 244.579 152.386 258.661 159.993C272.742 167.6 286.068 107.666 264.119 116.264Z" fill="#263238"/>
<path d="M314.075 153.428C308.082 175.572 305.686 188.716 291.93 198.238C271.296 212.567 245.687 197.587 244.944 174.387C244.267 153.545 254.193 120.862 278.031 115.769C301.504 110.728 320.041 131.335 314.075 153.428Z" fill="#FFBFB6"/>
<path d="M294.301 124.952L296.75 105.517C301.542 108.126 307.035 109.156 312.446 108.461C335.894 104.436 352.632 120.315 341.104 132.612C351.708 137.992 344.778 152.555 336.91 161.621C325.981 174.244 314.765 179.858 307.731 173.345C301.218 169.685 301.583 146.55 304.305 138.174C308.421 125.486 294.301 124.952 294.301 124.952Z" fill="#263238"/>
<path d="M317.983 177.005C314.148 181.187 308.984 183.911 303.367 184.716C296.268 185.563 295.017 178.946 298.912 172.823C302.429 167.313 310.362 160.24 316.563 162.22C322.763 164.2 322.841 171.755 317.983 177.005Z" fill="#FFBFB6"/>
<path d="M280.141 153.844C279.764 155.655 278.487 156.97 277.289 156.762C276.09 156.553 275.426 154.912 275.804 153.102C276.181 151.291 277.458 149.975 278.656 150.171C279.855 150.366 280.506 152.02 280.141 153.844Z" fill="#263238"/>
<path d="M259.456 150.301C259.078 152.125 257.814 153.428 256.616 153.219C255.418 153.011 254.753 151.382 255.131 149.559C255.509 147.735 256.785 146.432 257.971 146.641C259.156 146.849 259.833 148.504 259.456 150.301Z" fill="#263238"/>
<path d="M264.38 152.333C264.38 152.333 258.049 162.103 252.421 166.388C255.027 169.944 260.823 169.515 260.823 169.515L264.38 152.333Z" fill="#DE5753"/>
<path d="M273.511 144.309C273.337 144.376 273.184 144.489 273.068 144.634C272.98 144.748 272.915 144.878 272.877 145.017C272.839 145.156 272.828 145.301 272.847 145.444C272.865 145.586 272.911 145.724 272.982 145.849C273.054 145.974 273.149 146.084 273.263 146.172C274.592 147.257 276.169 147.997 277.853 148.326C279.537 148.656 281.276 148.564 282.916 148.06C283.052 148.014 283.177 147.94 283.284 147.844C283.39 147.749 283.477 147.632 283.538 147.502C283.598 147.372 283.632 147.231 283.637 147.087C283.643 146.944 283.619 146.801 283.567 146.667C283.467 146.396 283.265 146.177 283.004 146.055C282.743 145.933 282.445 145.918 282.173 146.015C280.88 146.392 279.514 146.446 278.195 146.173C276.876 145.901 275.643 145.31 274.605 144.452C274.454 144.33 274.271 144.251 274.078 144.226C273.885 144.201 273.689 144.229 273.511 144.309Z" fill="#263238"/>
<path d="M253.489 140.388C253.661 140.435 253.841 140.438 254.014 140.397C254.187 140.356 254.347 140.272 254.479 140.154C255.5 139.203 256.723 138.496 258.057 138.088C259.391 137.679 260.8 137.58 262.178 137.796C262.322 137.849 262.475 137.871 262.628 137.86C262.781 137.85 262.93 137.808 263.065 137.736C263.2 137.665 263.319 137.566 263.414 137.445C263.509 137.325 263.577 137.186 263.615 137.037C263.652 136.889 263.658 136.734 263.632 136.583C263.606 136.432 263.549 136.288 263.464 136.161C263.379 136.033 263.268 135.925 263.138 135.844C263.009 135.762 262.863 135.708 262.712 135.686C260.993 135.376 259.225 135.471 257.55 135.964C255.874 136.457 254.337 137.334 253.059 138.526C252.843 138.716 252.71 138.985 252.691 139.273C252.671 139.561 252.766 139.845 252.955 140.063C253.1 140.219 253.284 140.332 253.489 140.388Z" fill="#263238"/>
<path d="M313.684 111.001C313.684 111.001 297.505 79.7381 267.388 86.134C267.388 86.134 273.146 87.4366 275.595 89.612C275.595 89.612 249.308 87.3194 241.114 105.791L246.142 102.834C246.142 102.834 239.447 118.139 247.289 128.222L248.761 123.155C248.761 123.155 259.52 136.507 275.582 132.716L270.033 129.902C270.033 129.902 297.7 129.055 304.552 121.995C311.404 114.935 313.684 111.001 313.684 111.001Z" fill="#263238"/>
<path d="M258.061 179.064C258.183 179.064 258.303 179.039 258.414 178.992C258.526 178.945 258.628 178.877 258.713 178.79C262.79 174.374 269.941 176.068 270.006 176.081C270.222 176.109 270.44 176.057 270.62 175.935C270.799 175.813 270.928 175.629 270.981 175.419C271.034 175.208 271.008 174.985 270.907 174.793C270.807 174.6 270.639 174.451 270.436 174.374C270.097 174.296 262.217 172.42 257.41 177.592C257.248 177.757 257.158 177.979 257.158 178.21C257.158 178.442 257.248 178.664 257.41 178.829C257.498 178.909 257.6 178.971 257.712 179.012C257.824 179.052 257.943 179.07 258.061 179.064Z" fill="#263238"/>
<rect width="41.6513" height="17.4667" transform="matrix(-1 0 0 1 469.126 82.1713)" fill="black" fill-opacity="0.08"/>
<rect width="47.0256" height="17.4667" transform="matrix(-1 0 0 1 455.69 60.6738)" fill="black" fill-opacity="0.08"/>
<rect width="37.6205" height="18.8103" transform="matrix(-1 0 0 1 422.1 83.5148)" fill="black" fill-opacity="0.08"/>
<rect width="37.6205" height="18.8103" transform="matrix(-1 0 0 1 469.126 19.9606)" fill="black" fill-opacity="0.08"/>
<rect width="41.6513" height="17.4667" transform="matrix(-1 0 0 1 453.003 106.356)" fill="black" fill-opacity="0.08"/>
<rect width="47.0256" height="17.4667" transform="matrix(-1 0 0 1 416.726 39.1764)" fill="black" fill-opacity="0.08"/>
<rect width="41.6513" height="18.8103" transform="matrix(-1 0 0 1 404.634 60.6738)" fill="black" fill-opacity="0.08"/>
<rect x="-14.0106" y="224.916" width="41.6513" height="17.4667" fill="black" fill-opacity="0.08"/>
<rect x="-0.574615" y="203.419" width="47.0256" height="17.4667" fill="black" fill-opacity="0.08"/>
<rect x="33.0152" y="226.26" width="37.6205" height="18.8103" fill="black" fill-opacity="0.08"/>
<rect x="2.1124" y="249.101" width="41.6513" height="17.4667" fill="black" fill-opacity="0.08"/>
<rect x="38.3893" y="181.921" width="47.0256" height="17.4667" fill="black" fill-opacity="0.08"/>
<rect x="50.4817" y="203.419" width="41.6513" height="18.8103" fill="black" fill-opacity="0.08"/>
</g>
<defs>
<clipPath id="clip0_25_193">
<rect width="486.511" height="308.365" rx="20" transform="matrix(-1 0 0 1 486.511 0.745117)" fill="white"/>
</clipPath>
</defs>
</svg>
