<svg width="892" height="558" viewBox="0 0 892 558" fill="none" xmlns="http://www.w3.org/2000/svg">
<path d="M570.252 605.479C885.193 605.479 1140.5 563.128 1140.5 510.885C1140.5 458.641 1244.19 280.5 929.252 280.5C378.252 242 0 458.641 0 510.885C0 563.128 255.31 605.479 570.252 605.479Z" fill="black" fill-opacity="0.12"/>
<ellipse cx="512.5" cy="421.5" rx="103.5" ry="25.5" fill="black" fill-opacity="0.1"/>
<ellipse cx="760" cy="341" rx="93" ry="21" fill="black" fill-opacity="0.1"/>
<ellipse cx="308" cy="454" rx="93" ry="16" fill="black" fill-opacity="0.1"/>
<path d="M827.349 345.753C825.022 346.61 822.425 346.374 819.94 346.121C809.82 345.106 799.7 344.1 789.588 343.085C788.39 342.963 787.157 342.832 786.133 342.263C784.489 341.336 783.868 339.613 783.841 337.776C783.815 336.665 784.008 335.51 784.323 334.478C784.515 333.831 784.751 333.175 784.961 332.519C785.67 330.376 786.308 328.198 785.6 326.116C792.667 325.749 799.674 325.303 806.619 324.524C807.651 325.136 808.683 325.74 809.706 326.344C815.602 329.807 821.322 333.149 827.034 336.499C828.276 337.216 829.588 338.03 830.367 339.14C830.621 339.508 830.822 339.893 830.944 340.33C831.583 342.569 829.676 344.887 827.349 345.753Z" fill="#535A61"/>
<path d="M827.349 345.753C825.022 346.61 822.425 346.374 819.94 346.121C809.82 345.106 799.7 344.1 789.588 343.085C788.39 342.963 787.157 342.832 786.133 342.263C784.489 341.336 783.868 339.613 783.841 337.776C792.361 340.216 801.292 341.152 810.135 342.062C813.975 342.456 817.859 342.858 821.699 342.377C824.786 341.992 827.883 340.977 830.376 339.132C830.629 339.499 830.83 339.884 830.953 340.321C831.583 342.569 829.676 344.887 827.349 345.753Z" fill="#81898F"/>
<path d="M809.706 326.327C802.341 330.84 793.577 333.01 784.961 332.502C785.669 330.359 786.308 328.181 785.599 326.1C792.667 325.732 799.673 325.286 806.618 324.508C807.651 325.12 808.683 325.732 809.706 326.327Z" fill="#404754"/>
<path d="M723.881 344.005C726.207 344.862 728.805 344.626 731.289 344.372C741.41 343.357 751.53 342.352 761.642 341.337C762.84 341.214 764.073 341.083 765.097 340.515C766.741 339.587 767.362 337.864 767.388 336.027C767.415 334.917 767.222 333.762 766.907 332.73C766.715 332.082 766.479 331.426 766.269 330.77C765.56 328.627 764.922 326.449 765.63 324.368C758.563 324 751.556 323.554 744.611 322.776C743.579 323.388 742.547 323.991 741.523 324.595C735.628 328.059 729.907 331.4 724.195 334.75C722.953 335.468 721.641 336.281 720.863 337.392C720.609 337.759 720.408 338.144 720.286 338.582C719.647 340.821 721.554 343.139 723.881 344.005Z" fill="#535A61"/>
<path d="M723.88 344.004C726.207 344.861 728.805 344.625 731.289 344.372C741.409 343.357 751.53 342.351 761.641 341.336C762.84 341.214 764.073 341.083 765.096 340.514C766.741 339.587 767.362 337.864 767.388 336.027C758.869 338.467 749.938 339.403 741.095 340.313C737.255 340.707 733.371 341.109 729.531 340.628C726.443 340.243 723.347 339.228 720.854 337.383C720.6 337.75 720.399 338.135 720.277 338.572C719.647 340.82 721.554 343.138 723.88 344.004Z" fill="#81898F"/>
<path d="M741.523 324.577C748.888 329.09 757.653 331.259 766.268 330.752C765.56 328.609 764.921 326.431 765.63 324.349C758.562 323.982 751.556 323.536 744.611 322.757C743.579 323.37 742.546 323.982 741.523 324.577Z" fill="#404754"/>
<path d="M762.516 214.828V214.802C762.498 214.557 762.481 214.321 762.463 214.076C762.463 214.041 762.455 213.997 762.455 213.962C762.455 213.997 762.446 214.032 762.446 214.067C760.915 236.696 762.463 270.871 764.169 299.386V299.395C764.807 310.04 766.863 320.545 767.397 328.715C758.527 328.942 749.08 325.522 741.217 322.758C734.482 269.987 733.755 230.057 733.755 175.257C733.755 171.513 734.298 167.813 734.63 164.148C753.952 163.352 773.327 163.702 793.052 166.501C793.367 171.032 793.681 175.528 794.005 179.989C797.548 228.902 803.286 277.16 808.989 324.507C801.528 327.009 792.588 330.167 783.841 331.181C776.73 285.758 769.295 258.144 762.516 214.828Z" fill="#E3405E"/>
<path d="M794.005 179.989C774.018 184.074 752.868 182.438 733.755 175.257C734 171.522 734.298 167.813 734.63 164.148C753.952 163.352 773.327 163.702 793.052 166.501C793.367 171.032 793.681 175.528 794.005 179.989Z" fill="#CC2F56"/>
<path d="M764.169 299.386C749.693 267.766 748.407 206.003 748.407 206.003L762.446 214.068C760.915 236.696 762.463 270.871 764.169 299.386Z" fill="#CC2F56"/>
<path d="M738.925 120.736C727.922 128.294 710.524 137.662 703.876 137.662C696.38 137.662 673.436 122.398 661.514 110.476C664.042 105.648 666.666 102.455 669.299 99.2712C681.702 107.931 690.047 109.567 705.232 113.511C713.419 110.397 717.696 106.085 724.16 100.618C728.105 105.088 735.549 115.908 738.925 120.736Z" fill="#EABFC0"/>
<path d="M751.53 94.9236C750.961 90.3314 750.288 85.9491 748.486 82.0392C741.506 82.3716 734.919 87.13 729.96 91.4073C725 95.6846 720.356 100.434 715.553 104.222C721.571 112.444 728.622 122.66 737.185 127.952C745.031 120.579 753.087 107.633 751.53 94.9236Z" fill="#34384F"/>
<path d="M670.436 101.598C668.923 94.4868 666.885 87.1655 662.047 81.7424C661.4 81.0164 660.683 80.3166 659.782 79.9842C658.872 79.6518 657.735 79.7743 657.114 80.509C656.222 81.5674 656.764 83.1681 657.35 84.4277C658.452 86.7982 659.555 89.1774 660.394 91.1629C657.586 89.1161 654.761 87.0518 651.577 85.6698C650.685 85.2762 649.723 84.935 648.752 85.0488C647.781 85.1625 646.81 85.8535 646.688 86.8244C646.522 88.1452 647.834 89.1161 648.962 89.8334C651.455 91.4253 653.764 93.306 655.968 95.3965C653.58 94.2419 651.105 93.2797 648.568 92.51C647.895 92.3 647.195 92.1076 646.487 92.1688C645.778 92.2301 645.061 92.5887 644.755 93.2272C644.212 94.3643 645.183 95.6064 646.417 96.8223C645.629 96.6736 644.842 97.3383 644.685 98.1256C644.527 98.9128 644.886 99.735 645.428 100.33C645.97 100.925 646.679 101.327 647.379 101.729C650.073 103.26 652.767 104.791 655.102 106.094C656.677 110.144 660.604 113.179 664.89 113.494C666.963 109.715 669.045 105.963 670.436 101.598Z" fill="#EABFC0"/>
<path d="M646.994 97.391C650.239 98.222 653.265 99.8926 655.697 102.193" stroke="#6E2949" stroke-width="0.874704" stroke-miterlimit="10" stroke-linecap="round"/>
<path d="M669.01 101.948C667.961 97.9419 665.975 94.1806 663.237 91.0754C662.756 90.5244 662.231 89.9821 661.566 89.6847C660.902 89.3873 660.053 89.3873 659.493 89.8683C658.549 90.6818 658.96 92.2038 659.476 93.3409C660.149 94.8104 660.875 96.2537 661.951 98.0031C660.088 100.653 662.074 106.951 662.153 106.943" fill="#EABFC0"/>
<path d="M669.01 101.948C667.961 97.9419 665.975 94.1806 663.237 91.0754C662.756 90.5244 662.231 89.9821 661.566 89.6847C660.902 89.3873 660.053 89.3873 659.493 89.8683C658.549 90.6818 658.96 92.2038 659.476 93.3409C660.149 94.8104 660.875 96.2537 661.951 98.0031C660.088 100.653 662.074 106.951 662.153 106.943" stroke="#6E2949" stroke-width="0.874704" stroke-miterlimit="10" stroke-linecap="round"/>
<path d="M794.757 172.605C776.712 178.396 751.547 178.571 733.458 173.191C733.563 168.582 733.633 163.395 733.721 157.902C734.149 129.911 734.893 93.9257 741.418 85.5198C743.255 83.1581 747.698 81.8636 753.331 81.3912C762.472 80.639 774.727 82.056 784.042 84.5664C790.777 86.3858 795.982 88.7912 797.338 91.3628C800.513 97.3721 796.682 124.532 793.585 137.661C793.542 137.862 793.489 138.055 793.445 138.247C790.681 149.671 792.299 162.284 794.757 172.605Z" fill="#40455A"/>
<path d="M784.042 84.5665C779.494 89.4386 774.254 93.6459 768.516 97.0485C766.093 98.4918 763.251 99.8213 760.539 99.0254C757.941 98.2556 756.271 95.719 755.23 93.2086C753.69 89.4911 753.043 85.4062 753.332 81.3913C762.472 80.6391 774.727 82.0561 784.042 84.5665Z" fill="#575F73"/>
<path d="M794.757 172.605C776.712 178.395 751.547 178.57 733.458 173.191C733.563 168.581 733.633 163.394 733.72 157.901C738.575 160.543 743.867 162.353 749.325 163.193C760.11 164.846 771.446 162.677 780.858 157.166C769.531 160.858 759.655 159.379 752.29 154.166C762.612 155.137 774.175 152.128 783.71 145.944C787.322 143.6 790.646 140.809 793.585 137.661C793.541 137.862 793.489 138.054 793.445 138.247C790.681 149.67 792.299 162.283 794.757 172.605Z" fill="#34384F"/>
<path d="M779.477 84.4177C776.844 88.5988 765.49 96.9785 761.886 95.9114C759.271 95.1329 757.399 92.7449 756.507 90.1733C755.624 87.5929 755.58 84.8201 755.536 82.0998C756.236 81.435 756.866 80.6215 757.382 79.6943C758.834 77.1665 759.516 73.8601 758.877 70.7811C765.648 67.8334 772.234 65.0955 778.602 61.9116C777.841 65.5504 777.482 69.1017 777.535 72.5568C777.587 76.6679 778.235 80.639 779.477 84.4177Z" fill="#FFDCDD"/>
<path d="M778.602 61.9117C777.841 65.5505 777.482 69.1018 777.535 72.5569C768.779 80.5692 760.014 84.2779 757.381 79.6945C758.833 77.1666 759.516 73.8602 758.877 70.7812C765.647 67.8335 772.234 65.0957 778.602 61.9117Z" fill="#EABFC0"/>
<path d="M743.524 50.2633C739.243 49.123 735.131 50.6092 734.339 53.5827C733.547 56.5563 736.375 59.8912 740.655 61.0315C744.936 62.1717 749.048 60.6855 749.84 57.712C750.632 54.7384 747.804 51.4035 743.524 50.2633Z" fill="#EABFC0"/>
<path d="M785.897 49.5164C786.982 34.0166 777.605 20.7299 764.957 19.8464C752.3 18.9542 741.165 30.8065 740.071 46.3062C738.987 61.806 745.827 75.0752 758.484 75.9674C771.141 76.8596 784.812 65.0161 785.897 49.5164Z" fill="#FFDCDD"/>
<path d="M782.713 46.3756C780.666 43.6816 778.086 41.4073 775.269 40.034C773.109 41.0312 770.633 41.3024 768.306 40.8125C765.98 40.3139 763.828 39.0544 762.236 37.1738C760.163 39.0719 756.962 39.6142 754.381 38.5208C751.801 37.4274 749.973 34.7421 750.034 31.7593C749.168 33.0539 748.661 34.5496 748.118 36.0104C747.576 37.4712 746.972 38.9494 745.949 40.1215C744.926 41.2936 743.404 42.1421 741.934 41.731C740.797 44.2501 740.158 46.9967 739.844 49.9707C738.365 44.1452 739.126 37.7861 741.934 32.4679C743.264 29.9575 745.066 27.6395 747.454 26.1C749.771 24.613 752.518 23.9307 755.247 23.5809C761.195 22.8199 767.327 23.5459 772.934 25.6889C776.301 26.966 779.529 28.8028 781.899 31.5057C784.27 34.2085 785.696 37.891 785.144 41.4423" fill="#EABFC0"/>
<path d="M760.408 47.3125C762.017 46.3328 763.994 45.9654 765.849 46.2978C767.703 46.6302 769.426 47.6536 770.817 49.3155C770.161 47.986 769.382 46.6914 768.289 45.6943C767.196 44.6971 765.735 44.0236 764.265 44.1286C762.787 44.2423 761.344 45.2394 760.408 47.3125Z" fill="#FCB735"/>
<path d="M741.689 48.4759C742.791 47.1114 744.392 46.3329 745.967 46.3941C747.55 46.4554 749.098 47.3475 749.929 48.4409C749.229 47.0939 748.372 45.8081 747.244 44.9771C746.115 44.1461 744.663 43.8312 743.439 44.4523C742.223 45.0821 741.374 46.7877 741.689 48.4759Z" fill="#FCB735"/>
<path d="M762.627 52.917C761.845 52.9126 761.205 53.8881 761.198 55.0958C761.191 56.3035 761.82 57.2861 762.603 57.2905C763.386 57.2949 764.025 56.3194 764.032 55.1117C764.039 53.904 763.41 52.9214 762.627 52.917Z" fill="#2C3C4D"/>
<path d="M745.661 52.8223C744.878 52.8179 744.239 53.7934 744.232 55.0011C744.225 56.2088 744.854 57.1914 745.637 57.1958C746.419 57.2002 747.059 56.2247 747.066 55.017C747.073 53.8093 746.444 52.8267 745.661 52.8223Z" fill="#2C3C4D"/>
<path d="M751.539 55.0448C751.197 56.5843 751.407 58.2462 752.125 59.6457" stroke="#6E2949" stroke-width="0.874704" stroke-miterlimit="10" stroke-linecap="round"/>
<path d="M753.218 63.4849C756.428 63.2312 759.577 62.2691 762.359 60.7996C763.548 62.4003 763.531 64.6832 762.306 66.2665C761.09 67.8409 758.755 68.6019 756.743 68.0683C754.74 67.5348 753.192 65.7504 753.218 63.4849Z" fill="white"/>
<path d="M793.524 38.9944C792.868 41.6623 792.037 44.5663 789.955 46.2545C787.637 48.1263 785.136 49.7708 782.494 51.1441C781.751 46.3682 779.336 41.706 775.733 38.2597C770.799 39.7992 765.201 38.4084 762.166 34.6734C760.574 36.6152 758.195 37.4375 756.174 36.7989C754.39 36.2479 753.06 34.7346 752.133 33.1077C751.206 31.4807 750.594 29.6876 750.016 28.1306C747.384 30.6148 746.456 34.341 745.17 37.7174C744.821 38.6446 744.392 39.6067 743.57 40.149C742.739 40.6826 741.409 40.5514 741.453 39.6592C740.062 43.6654 740.158 47.724 740.158 52.911C737.84 49.281 736.808 44.2077 737.727 40.0091C737.613 40.0091 735.566 38.802 735.234 37.42C735.19 37.2363 735.155 37.0438 735.129 36.8514C734.98 35.6006 735.33 34.306 735.837 33.1252C736.45 31.7519 737.517 30.3261 738.838 29.8013C737.394 28.6904 737.071 26.5124 737.788 24.833C738.514 23.1623 740.088 21.9727 741.785 21.3167C743.491 20.6607 745.328 20.4595 748.022 20.1708C749.159 16.8819 751.871 14.2928 754.976 12.7096C758.09 11.1351 761.58 10.4791 765.053 10.1467C766.347 10.0243 767.694 9.94553 768.919 10.3829C770.152 10.8202 771.237 11.9049 770.668 13.2519C773.458 13.2432 776.275 13.2519 778.987 13.8904C781.173 14.4065 783.308 15.3862 784.917 16.9082C785.311 17.2843 785.678 17.6954 786.002 18.1328C787.664 20.372 788.153 23.5909 787.253 25.6115C789.929 26.2238 792.107 28.3668 793.148 30.9034C794.189 33.4488 794.18 36.3266 793.524 38.9944Z" fill="#FCB735"/>
<path d="M784.917 16.9082C779.441 14.0829 772.619 13.733 766.828 16.3221C767.563 15.115 766.645 13.4356 765.332 12.9195C764.02 12.3947 762.525 12.7096 761.178 13.1382C756.218 14.7389 751.661 18.0453 749.255 22.6812C747.707 22.3488 746.098 22.1651 744.549 22.445C742.993 22.7337 741.488 23.5472 740.64 24.8855C739.782 26.215 739.73 28.0869 741.296 29.4514C738.33 30.9209 736.117 33.7025 735.129 36.8514C734.98 35.6006 735.33 34.306 735.837 33.1252C736.45 31.7519 737.517 30.3261 738.838 29.8013C737.394 28.6904 737.071 26.5124 737.788 24.833C738.514 23.1623 740.088 21.9727 741.785 21.3167C743.491 20.6607 745.328 20.4595 748.022 20.1708C749.159 16.8819 751.871 14.2928 754.976 12.7096C758.09 11.1351 761.58 10.4791 765.053 10.1467C766.347 10.0243 767.694 9.94553 768.919 10.3829C770.152 10.8202 771.237 11.9049 770.668 13.2519C773.458 13.2432 776.275 13.2519 778.987 13.8904C781.173 14.4065 783.308 15.3862 784.917 16.9082Z" fill="#FFD261"/>
<path d="M793.014 48.2259C791.414 45.3682 787.141 44.7177 783.47 46.7729C779.799 48.8281 778.121 52.8108 779.721 55.6685C781.321 58.5262 785.594 59.1768 789.264 57.1216C792.935 55.0664 794.614 51.0837 793.014 48.2259Z" fill="#FFDCDD"/>
<path d="M799.157 124.349C798.973 124.682 798.781 125.032 798.588 125.364C795.877 130.245 793.104 135.073 790.156 139.114C787.348 142.981 784.401 146.121 781.182 147.923C774.123 151.885 747.777 151.255 733.449 149.287C732.181 145.211 732.198 142.429 732.041 138.248C746.832 136.928 756.34 132.239 770.536 130.367C771.254 128.609 771.98 126.816 772.697 124.997C774.385 120.798 776.073 116.468 777.674 112.13C778.916 108.806 780.088 105.465 781.164 102.167C788.818 108.15 794.88 114.185 799.157 124.349Z" fill="#FFDCDD"/>
<path d="M798.589 125.364C792.054 120.186 785.241 115.235 777.683 112.13C776.082 116.468 774.385 120.798 772.706 124.997C777.491 130.91 783.5 135.808 790.156 139.123" fill="#EABFC0"/>
<path d="M796.682 137.216C810.082 105.246 799.831 89.8683 793.183 86.9205C788.162 84.6988 781.847 86.7456 779.485 91.7051C777.15 96.6122 773.712 118.637 772.173 123.046C781.891 128.408 786.903 132.886 796.682 137.216Z" fill="#575F73"/>
<path d="M665.616 170.742C661.899 172.999 658.041 173.244 656.991 171.285C656.886 171.092 656.825 170.9 656.782 170.681C656.388 168.678 658.478 165.704 661.837 163.657C664.033 162.328 666.281 161.698 667.969 161.812C669.132 161.882 670.025 162.319 670.453 163.115C671.503 165.074 669.325 168.494 665.616 170.742Z" fill="#E69749"/>
<path d="M667.969 161.821C668.511 163.5 666.263 166.465 662.721 168.609C660.551 169.921 658.382 170.638 656.782 170.682C656.388 168.678 658.478 165.704 661.837 163.658C664.033 162.337 666.281 161.707 667.969 161.821Z" fill="#EDAD5A"/>
<path d="M667.322 169.545L667.602 165.337L695.925 167.139L695.636 171.347L667.322 169.545Z" fill="#E69749"/>
<path d="M671.03 168.267L669.062 166.684L686.373 142.665L688.341 144.248L671.03 168.267Z" fill="#E69749"/>
<path d="M719.471 162.162L718.387 159.232L729.207 154.64C730.108 154.255 730.781 153.581 731 152.82C731.131 152.366 731.079 151.946 730.834 151.57L720.022 134.985C719.375 133.997 717.871 133.559 716.366 133.927L707.777 136.009L707.138 132.93L715.728 130.848C718.43 130.192 721.151 131.128 722.489 133.175L733.3 149.759C734.061 150.922 734.263 152.331 733.851 153.721C733.362 155.418 732.058 156.818 730.291 157.57L719.471 162.162Z" fill="#E69749"/>
<path d="M720.74 170.236L693.607 177.067C690.816 177.767 688.105 176.07 687.492 173.324C687.457 173.157 687.422 173.009 687.405 172.834L681.466 126.448L709.561 118.996L724.554 163.308C725.533 166.247 723.749 169.475 720.74 170.236Z" fill="#E69749"/>
<path d="M716.008 166.344L688.874 173.175C688.411 173.289 687.947 173.341 687.492 173.324C687.457 173.158 687.422 173.009 687.405 172.834L681.466 126.448L706.421 119.827L719.813 159.416C720.801 162.355 719.017 165.583 716.008 166.344Z" fill="#EDAD5A"/>
<path d="M736.826 138.396C735.138 135.746 732.671 130.043 729.05 128.888C725.944 127.9 722.655 129.011 720.023 131.075C720.74 131.687 720.994 132.081 721.588 133.113C719.41 134.084 717.162 135.098 715.562 136.813C715.019 137.39 714.547 138.09 714.512 138.86C714.46 140.076 715.728 141.178 717.18 141.108C717.031 141.939 717.32 142.822 717.923 143.434C718.527 144.038 719.445 144.362 720.513 144.44C720.416 145.376 720.836 146.347 721.597 146.933C722.358 147.528 723.443 147.72 724.816 147.738C724.247 148.621 724.589 149.846 725.393 150.52C726.207 151.193 727.37 151.377 728.446 151.237C729.522 151.097 730.537 150.677 731.525 150.24C732.513 149.811 733.511 149.365 734.761 149.129C735.706 144.335 736.432 143.618 736.826 138.396Z" fill="#FFDCDD"/>
<path d="M529.836 180.95C550.208 150.519 555.797 111.227 544.671 76.6065C533.545 41.9858 505.921 12.6832 473.601 0C469.717 32.9588 465.86 66.5387 472.403 99.1126C478.937 131.669 497.638 163.657 529.836 180.95Z" fill="#C2CD61"/>
<path d="M531.988 229.986C532.915 162.476 517.783 85.3712 478.5 9.84058" stroke="#62663A" stroke-width="1.74941" stroke-miterlimit="10" stroke-linecap="round"/>
<mask id="mask0_25_835" style="mask-type:alpha" maskUnits="userSpaceOnUse" x="468" y="0" width="83" height="181">
<path d="M529.836 180.95C550.208 150.519 555.797 111.227 544.671 76.6065C533.545 41.9858 505.921 12.6832 473.601 0C469.717 32.9588 465.86 66.5387 472.403 99.1126C478.937 131.669 497.638 163.657 529.836 180.95Z" fill="#B0BA59"/>
</mask>
<g mask="url(#mask0_25_835)">
<path d="M499.51 7.00623C495.032 13.3478 490.562 19.6807 486.083 26.0223C476.829 23.9317 466.954 24.5003 458.032 27.6405" stroke="#E7ED74" stroke-width="0.874704" stroke-miterlimit="10"/>
<path d="M459.484 34.226C468.992 30.0537 480.231 29.73 489.906 33.9723C495.985 25.4877 504.443 18.6038 514.135 14.2653" stroke="#E7ED74" stroke-width="0.874704" stroke-miterlimit="10"/>
<path d="M459.484 60.0043C473.251 56.4967 487.955 56.4618 501.522 60.7128C507.758 48.0384 518.605 37.5419 531.699 31.5065" stroke="#E7ED74" stroke-width="0.874704" stroke-miterlimit="10"/>
<path d="M540.429 45.6245C526.696 52.8058 515.132 63.8271 506.586 77.8398C493.308 72.9677 478.036 73.4488 465.117 79.1432" stroke="#E7ED74" stroke-width="0.874704" stroke-miterlimit="10"/>
<path d="M461.163 104.719C479.199 101.308 497.962 101.535 516.024 105.812C523.109 89.1318 535.714 74.6992 551.537 65.1649" stroke="#E7ED74" stroke-width="0.874704" stroke-miterlimit="10"/>
<path d="M553.4 69.2769C537.323 79.056 524.395 93.6199 516.383 110.528C498.749 107.318 480.083 109.723 463.927 117.281" stroke="#E7ED74" stroke-width="0.874704" stroke-miterlimit="10"/>
<path d="M469.875 142.454C486.897 135.841 506.14 134.757 523.468 139.585C531.227 120.018 544.286 102.445 560.993 89.1145" stroke="#E7ED74" stroke-width="0.874704" stroke-miterlimit="10"/>
<path d="M573.729 102.261C554.205 114.28 537.735 130.908 526.014 150.877C509.149 145.271 489.915 146.731 474.161 154.822" stroke="#E7ED74" stroke-width="0.874704" stroke-miterlimit="10"/>
<path d="M491.542 172.246C503.315 168.047 516.637 168.056 529.871 172.753C536.449 162.449 548.362 155.513 560.853 154.717" stroke="#E7ED74" stroke-width="0.874704" stroke-miterlimit="10"/>
<path d="M531.988 229.986C532.915 162.476 517.783 85.3712 478.5 9.84058" stroke="#62663A" stroke-width="1.74941" stroke-miterlimit="10" stroke-linecap="round"/>
</g>
<path d="M542.196 181.72C531.341 154.648 532.626 123.237 545.677 97.092C558.728 70.9472 583.324 50.4266 611.087 42.5455C612.653 94.8441 588.87 147.335 542.196 181.72Z" fill="#CDDC71"/>
<path d="M541.819 245.933C531.349 152.628 572.714 91.0664 602.428 55.8683" stroke="#62663A" stroke-width="1.74941" stroke-miterlimit="10" stroke-linecap="round"/>
<mask id="mask1_25_835" style="mask-type:alpha" maskUnits="userSpaceOnUse" x="534" y="42" width="78" height="140">
<path d="M542.196 181.72C531.341 154.648 532.626 123.237 545.677 97.092C558.728 70.9472 583.324 50.4266 611.087 42.5455C612.653 94.8441 588.87 147.335 542.196 181.72Z" fill="#CACF6B"/>
</mask>
<g mask="url(#mask1_25_835)">
<path d="M580.595 47.9264C585.222 55.1602 588.756 63.05 590.112 71.5171C600.049 69.3216 610.291 68.3857 620.482 68.7443" stroke="#FFFF91" stroke-width="0.874704" stroke-miterlimit="10"/>
<path d="M562.804 63.1276C570.335 70.3176 576.02 79.3008 578.758 89.946C590.129 87.3569 601.877 86.316 613.536 86.8845" stroke="#FFFF91" stroke-width="0.874704" stroke-miterlimit="10"/>
<path d="M613.055 92.9033C599.393 92.8858 585.721 94.8101 572.119 98.7375C566.084 91.3813 558.666 85.1009 550.33 80.29" stroke="#FFFF91" stroke-width="0.874704" stroke-miterlimit="10"/>
<path d="M529.39 106.469C538.994 116.056 547.252 126.902 553.532 138.938C569.749 131.958 587.689 128.774 605.411 129.736" stroke="#FFFF91" stroke-width="0.874704" stroke-miterlimit="10"/>
<path d="M597.057 136.595C580.639 136.848 564.299 140.846 549.981 147.791C544.794 140.54 538.321 134.154 530.947 128.985" stroke="#FFFF91" stroke-width="0.874704" stroke-miterlimit="10"/>
<path d="M524.238 153.678C531.83 156.713 538.881 160.999 545.616 167.131C556.191 162.626 568.428 161.891 579.502 165.084" stroke="#FFFF91" stroke-width="0.874704" stroke-miterlimit="10"/>
<path d="M541.819 245.933C531.349 152.628 572.714 91.0664 602.428 55.8683" stroke="#62663A" stroke-width="1.74941" stroke-miterlimit="10" stroke-linecap="round"/>
</g>
<path d="M508.45 186.872C517.914 161.776 509.648 132.552 492.032 111.988C474.415 91.4239 448.716 78.627 423 71.7256C426.63 95.9724 431.406 120.683 444.316 141.746C457.227 162.817 479.917 179.813 508.45 186.872Z" fill="#CDDC71"/>
<path d="M520.704 221.423C511.826 180.417 477.442 118.129 429.21 77.6567" stroke="#62663A" stroke-width="1.74941" stroke-miterlimit="10" stroke-linecap="round"/>
<mask id="mask2_25_835" style="mask-type:alpha" maskUnits="userSpaceOnUse" x="423" y="71" width="90" height="116">
<path d="M508.45 186.872C517.914 161.776 509.648 132.552 492.032 111.988C474.415 91.4239 448.716 78.627 423 71.7256C426.63 95.9724 431.406 120.683 444.316 141.746C457.227 162.817 479.917 179.813 508.45 186.872Z" fill="#CACF6B"/>
</mask>
<g mask="url(#mask2_25_835)">
<path d="M453.212 71.1145C449.416 77.3162 446.354 83.9377 444.115 90.8041C435.919 92.501 428.196 96.2797 421.924 101.659" stroke="#FFFF91" stroke-width="0.874704" stroke-miterlimit="10"/>
<path d="M421.32 112.33C429.42 105.114 439.514 100.023 450.256 97.7316C451.078 88.3198 457.061 79.4766 465.65 74.9806" stroke="#FFFF91" stroke-width="0.874704" stroke-miterlimit="10"/>
<path d="M493.195 84.9604C481.736 94.416 473.706 107.677 470.776 121.969C456.387 119.074 440.966 121.278 428.056 128.066" stroke="#FFFF91" stroke-width="0.874704" stroke-miterlimit="10"/>
<path d="M431.817 144.957C446.792 135.597 466.158 133.131 483.083 138.606C486.267 125.932 495.391 114.779 507.4 108.875" stroke="#FFFF91" stroke-width="0.874704" stroke-miterlimit="10"/>
<path d="M524.028 133.857C511.59 138.056 500.708 146.479 493.746 157.308C478.465 154.902 462.239 158.786 449.871 167.796" stroke="#FFFF91" stroke-width="0.874704" stroke-miterlimit="10"/>
<path d="M448.191 173.096C463.63 165.233 481.386 161.681 500.026 163.65C505.371 154.308 514.774 147.231 525.437 144.502" stroke="#FFFF91" stroke-width="0.874704" stroke-miterlimit="10"/>
<path d="M523.101 162.372C515.412 165.163 508.712 170.428 504.295 177.12C491.638 175.799 478.491 179.683 468.747 187.608" stroke="#FFFF91" stroke-width="0.874704" stroke-miterlimit="10"/>
<path d="M520.704 221.423C511.826 180.417 477.442 118.129 429.21 77.6567" stroke="#62663A" stroke-width="1.74941" stroke-miterlimit="10" stroke-linecap="round"/>
</g>
<path d="M583.211 195.375L562.445 336.753L553.724 336.692L530.86 336.552L499.265 336.753L479.864 204.655L478.5 195.375H583.211Z" fill="#887360"/>
<path d="M573.116 204.655L553.724 336.692L530.859 336.552L499.265 336.753L479.864 204.655H573.116Z" fill="#645649"/>
<path d="M642.157 294.18C635.946 286.448 633.462 275.724 635.631 265.962C636.244 263.216 637.197 260.408 636.629 257.653C635.693 253.122 631.057 250.428 629.124 246.238C627.742 243.237 627.882 239.774 628.109 236.467C628.336 233.161 628.607 229.732 627.444 226.636C626.29 223.539 623.228 220.915 620.035 221.492C629.5 219.515 639.917 225.901 642.69 235.374C643.819 239.223 643.81 243.404 645.428 247.06C648.253 253.463 655.741 257.758 655.907 264.781C655.968 267.51 654.849 270.108 654.28 272.776C653.327 277.22 653.921 281.899 652.959 286.334C652.006 290.769 648.612 295.3 642.157 294.18Z" fill="#A0B327"/>
<path d="M632.054 229.181C635.614 230.196 637.276 234.429 637.582 238.199C637.888 241.969 637.398 245.931 638.842 249.413C640.888 254.355 646.583 257.714 646.661 263.084C646.696 265.778 645.227 268.306 645.271 271C645.314 273.668 646.819 276.03 647.842 278.479C650.379 284.541 649.95 291.827 646.723 297.53" stroke="#6A8F1F" stroke-width="0.874704" stroke-miterlimit="10" stroke-linecap="round"/>
<path d="M639.629 231.875C638.955 233.826 638.29 235.767 637.687 237.631C635.763 237.272 633.829 236.922 631.905 236.563" stroke="#6A8F1F" stroke-width="0.874704" stroke-miterlimit="10" stroke-linecap="round"/>
<path d="M631.993 248.565C634.617 248.801 637.206 249.352 639.471 250.463C640.504 248.46 641.824 246.614 643.39 245.013" stroke="#6A8F1F" stroke-width="0.874704" stroke-miterlimit="10" stroke-linecap="round"/>
<path d="M649.513 255.325C648.07 256.751 646.845 258.404 645.559 260.25C643.652 259.585 641.623 259.314 639.62 259.445" stroke="#6A8F1F" stroke-width="0.874704" stroke-miterlimit="10" stroke-linecap="round"/>
<path d="M639.419 270.52C641.317 271.202 643.294 271.674 645.682 271.622C647.029 269.846 648.524 268.184 650.143 266.662" stroke="#6A8F1F" stroke-width="0.874704" stroke-miterlimit="10" stroke-linecap="round"/>
<path d="M653.335 276.336C651.691 277.683 650.204 279.24 648.708 281.366C646.408 280.823 644.02 280.666 641.667 280.885" stroke="#6A8F1F" stroke-width="0.874704" stroke-miterlimit="10" stroke-linecap="round"/>
<path d="M651.752 297.68C648.577 294.609 647.947 289.667 648.323 285.206C648.7 280.754 649.88 276.337 649.566 271.876C649.329 268.508 648.253 265.036 649.321 261.843C650.589 258.055 654.42 255.93 656.922 252.851C659.345 249.868 660.473 246.02 662.432 242.704C664.392 239.389 667.829 236.389 671.573 237.01C668.319 238.637 667.453 243.002 667.742 246.693C668.039 250.384 669.071 254.163 668.074 257.723C666.85 262.088 662.782 265.193 661.741 269.61C660.779 273.686 662.616 277.92 662.406 282.119C662.074 288.88 656.703 294.076 651.752 297.68Z" fill="#CACC34"/>
<path d="M665.546 243.859C663.438 244.83 662.703 247.533 662.721 249.895C662.747 252.256 663.272 254.67 662.651 256.953C661.348 261.808 655.461 264.178 654.053 269.007C652.522 274.238 656.939 279.739 655.776 285.066C655.312 287.183 654.009 288.994 653.02 290.918C652.032 292.843 651.341 295.16 652.181 297.164" stroke="#95B332" stroke-width="0.874704" stroke-miterlimit="10" stroke-linecap="round"/>
<path d="M666.762 250.087C665.354 250.533 664.033 251.286 662.703 252.221C662.047 251.495 661.199 250.953 660.281 250.664" stroke="#95B332" stroke-width="0.874704" stroke-miterlimit="10" stroke-linecap="round"/>
<path d="M655.277 256.91C657.324 257.802 659.073 259.377 660.114 261.24C662.03 260.645 664.033 260.357 666.036 260.374" stroke="#95B332" stroke-width="0.874704" stroke-miterlimit="10" stroke-linecap="round"/>
<path d="M661.015 267.87C658.514 268.027 656.038 268.639 653.738 269.672C652.959 268.674 652.006 267.817 650.921 267.179" stroke="#95B332" stroke-width="0.874704" stroke-miterlimit="10" stroke-linecap="round"/>
<path d="M650.633 278.261C652.592 278.296 654.525 279.223 655.811 280.737C657.446 279.372 659.519 278.559 661.628 278.462" stroke="#95B332" stroke-width="0.874704" stroke-miterlimit="10" stroke-linecap="round"/>
<path d="M650.064 287.848C651.061 288.574 651.971 289.431 652.854 290.621C654.315 289.947 655.933 289.624 657.534 289.702" stroke="#95B332" stroke-width="0.874704" stroke-miterlimit="10" stroke-linecap="round"/>
<path d="M646.285 297.767C649.128 294.898 648.463 289.99 646.74 286.299C645.017 282.608 642.428 279.205 641.912 275.155C641.614 272.785 642.052 270.38 641.999 267.992C641.947 265.604 641.238 262.997 639.296 261.676C637.486 260.443 635.124 260.644 632.999 260.146C628.625 259.122 625.572 255.238 622.117 252.308C618.662 249.378 613.362 247.357 609.434 250.83C611.892 251.853 612.732 254.976 612.854 257.688C612.977 260.399 612.758 263.338 614.236 265.595C616.843 269.592 623.421 269.435 625.564 273.712C627.339 277.246 625.048 282.066 627.304 285.302C629.29 288.154 633.786 288.18 635.684 291.093C636.681 292.623 636.856 294.836 638.404 295.772C639.428 296.385 640.705 296.21 641.886 296.315C643.075 296.437 644.44 297.111 646.285 297.767Z" fill="#CACC34"/>
<path d="M616.274 254.198C618.995 254.337 620.84 257.11 621.785 259.726C622.73 262.35 623.333 265.289 625.362 267.152C627.654 269.251 631.363 269.566 633.042 272.208C634.267 274.141 633.961 276.66 634.451 278.908C635.238 282.538 638.037 285.293 640.53 288.005C643.023 290.716 645.454 294.014 645.218 297.723" stroke="#95B332" stroke-width="0.874704" stroke-miterlimit="10" stroke-linecap="round"/>
<path d="M623.123 254.802C622.432 256.017 621.96 257.364 621.864 258.51C620.499 258.808 619.126 259.114 617.761 259.411C617.796 259.525 617.823 259.647 617.858 259.761" stroke="#95B332" stroke-width="0.874704" stroke-miterlimit="10" stroke-linecap="round"/>
<path d="M618.391 268.114C620.412 267.126 622.695 266.732 624.943 267.003C626.106 264.694 627.969 262.77 630.208 261.554" stroke="#95B332" stroke-width="0.874704" stroke-miterlimit="10" stroke-linecap="round"/>
<path d="M639.052 265.376C636.699 267.415 634.713 269.907 633.235 272.575C631.302 272.768 629.404 273.31 627.646 274.15" stroke="#95B332" stroke-width="0.874704" stroke-miterlimit="10" stroke-linecap="round"/>
<path d="M630.313 286.08C632.474 285.013 634.932 284.567 637.512 284.943C638.089 283.054 639.358 281.401 641.011 280.369" stroke="#95B332" stroke-width="0.874704" stroke-miterlimit="10" stroke-linecap="round"/>
<path d="M645.682 287.436C644.833 288.678 643.976 289.92 643.25 291.241C641.702 291.215 640.145 291.591 638.789 292.343" stroke="#95B332" stroke-width="0.874704" stroke-miterlimit="10" stroke-linecap="round"/>
<path d="M675.798 290.488C675.728 291.459 675.623 292.395 675.483 293.287C675.159 295.36 674.643 297.258 673.952 298.973C669.894 309.154 659.852 313.231 647.79 313.231C635.719 313.231 625.135 309.146 620.875 298.973C620.14 297.258 619.607 295.36 619.275 293.287C619.126 292.395 619.021 291.459 618.951 290.488H675.798Z" fill="#FA987D"/>
<path d="M675.474 293.279C675.151 295.352 674.635 297.25 673.944 298.965H620.867C620.132 297.25 619.598 295.352 619.266 293.279H675.474Z" fill="#FAB693"/>
<path d="M610.659 128.408C610.633 124.253 612.198 120.116 614.962 117.019C617.726 113.923 621.663 111.902 625.791 111.456C623.447 118.463 617.998 124.358 610.659 128.408Z" fill="#739E3E"/>
<path d="M618.129 139.691C619.747 135.632 622.861 132.195 626.736 130.201C630.611 128.206 635.22 127.646 640.023 128.521C634.285 134.565 626.473 138.598 618.129 139.691Z" fill="#739E3E"/>
<path d="M613.974 138.406C610.711 136.927 606.801 136.945 603.548 138.458C600.294 139.971 597.757 142.937 596.786 146.392C600.075 146.007 603.39 145.613 606.513 144.511C609.627 143.4 612.575 141.511 613.974 138.406Z" fill="#739E3E"/>
<path d="M604.335 126.44C600.871 124.463 596.358 125.145 592.964 127.245C589.57 129.344 587.129 132.659 585.03 136.053C592.159 136.07 599.244 133 604.335 126.44Z" fill="#96BF54"/>
<path d="M596.541 117.02C595.185 116.67 594.101 115.603 593.401 114.387C592.701 113.171 592.343 111.798 591.993 110.442C591.293 107.757 590.593 105.071 589.893 102.395C592.43 103.987 594.984 105.701 596.751 108.133C598.509 110.556 599.358 113.853 596.541 117.02Z" fill="#BDDE71"/>
<path d="M593.943 118.323C590.812 117.239 587.287 117.326 584.217 118.586C581.146 119.845 578.566 122.251 577.097 125.216C582.861 125.653 588.783 123.642 593.943 118.323Z" fill="#96BF54"/>
<path d="M592.098 115.155C590.252 111.692 586.972 109.024 583.211 107.913C579.45 106.802 575.242 107.266 571.813 109.173C575.102 110.572 577.98 112.794 581.208 114.325C584.435 115.846 588.345 116.625 592.098 115.155Z" fill="#BDDE71"/>
<path d="M605.21 121.927C602.043 113.608 604.239 103.505 610.589 97.26C610.878 101.651 611.158 106.077 610.642 110.442C610.117 114.824 608.752 119.189 605.21 121.927Z" fill="#96BF54"/>
<path d="M620.779 151.335C615.365 134.015 602.008 119.355 585.266 112.358" stroke="#246E2D" stroke-width="0.437352" stroke-miterlimit="10" stroke-linecap="round"/>
<path d="M597.101 118.743C596.795 116.145 595.763 113.626 594.153 111.571" stroke="#246E2D" stroke-width="0.437352" stroke-miterlimit="10" stroke-linecap="round"/>
<path d="M595.64 118.008C592.631 119.092 589.465 119.696 586.272 119.801" stroke="#246E2D" stroke-width="0.437352" stroke-miterlimit="10" stroke-linecap="round"/>
<path d="M605.892 126.502C600.915 126.344 595.894 127.893 591.862 130.823" stroke="#246E2D" stroke-width="0.437352" stroke-miterlimit="10" stroke-linecap="round"/>
<path d="M609.863 131.042C611.052 126.598 613.449 122.487 616.729 119.26" stroke="#246E2D" stroke-width="0.437352" stroke-miterlimit="10" stroke-linecap="round"/>
<path d="M616.966 141.223C620.526 136.902 625.406 133.675 630.777 132.092" stroke="#246E2D" stroke-width="0.437352" stroke-miterlimit="10" stroke-linecap="round"/>
<path d="M615.557 139.202C613.467 138.817 611.289 139.115 609.259 139.753C607.23 140.392 605.314 141.345 603.407 142.29" stroke="#246E2D" stroke-width="0.437352" stroke-miterlimit="10" stroke-linecap="round"/>
<path d="M607.703 105.605C606.819 112.131 605.936 118.647 605.043 125.173" stroke="#246E2D" stroke-width="0.437352" stroke-miterlimit="10" stroke-linecap="round"/>
<path d="M648.079 87.061C647.851 80.7369 649.303 72.917 653.126 67.6513C656.948 62.3856 662.599 58.2483 669.045 56.009C667.06 68.2024 658.873 80.7544 648.079 87.061Z" fill="#D4E66E"/>
<path d="M643.399 98.1871C649.828 87.0346 662.922 80.0982 675.754 81.0429C668.739 91.3207 657.036 98.2483 643.399 98.1871Z" fill="#B8D957"/>
<path d="M643.793 96.7878C646.356 85.4779 642.288 72.8909 633.62 65.2985C634.197 69.2346 633.917 73.2408 633.812 77.2207C633.708 81.2006 633.769 85.2592 635.002 89.0379C636.218 92.8254 638.763 96.3417 643.793 96.7878Z" fill="#D4E66E"/>
<path d="M640.408 107.223C638.396 101.712 636.349 96.1492 633.209 91.2508C630.069 86.3525 625.678 82.0927 620.289 80.317C621.444 86.23 622.625 92.248 625.398 97.5487C628.179 102.849 632.833 107.415 640.408 107.223Z" fill="#B8D957"/>
<path d="M638.684 113.529C642.253 108.535 648 105.36 653.992 103.68C659.975 102.001 666.255 101.668 672.474 101.354C663.351 110.38 650.563 115.769 638.684 113.529Z" fill="#B8D957"/>
<path d="M635.501 124.279C631.792 112.06 623.578 102.499 614.07 99.3152C615.382 105.149 617.079 110.826 619.126 116.267C620.438 119.74 622.922 122.206 625.599 123.676C628.275 125.145 631.162 125.731 635.501 124.279Z" fill="#94BA47"/>
<path d="M633.62 133.367C639.865 119.556 650.511 115.864 664.777 117.22C657.307 126.16 646.085 135.335 633.62 133.367Z" fill="#94BA47"/>
<path d="M632.439 152.611C633.769 146.401 638.002 141.074 643.224 137.479C648.455 133.884 654.622 131.872 660.841 130.604C653.694 144.52 643.863 150.818 632.439 152.611Z" fill="#94BA47"/>
<path d="M632.85 143.191C628.809 132.449 619.423 124.219 608.796 122.084C609.907 128.032 612.889 133.552 617.149 137.549C621.409 141.546 626.911 143.996 632.85 143.191Z" fill="#94BA47"/>
<path d="M660.438 65.2979C650.808 78.3922 644.003 95.6675 639.148 110.424C634.293 125.171 631.591 140.863 633.436 156.284" stroke="#246E2D" stroke-width="0.437352" stroke-miterlimit="10" stroke-linecap="round"/>
<path d="M636.445 73.9579C638.842 81.9089 641.23 89.8687 643.627 97.8198" stroke="#246E2D" stroke-width="0.437352" stroke-miterlimit="10" stroke-linecap="round"/>
<path d="M664.287 86.2037C657.053 89.6238 650.091 93.6212 643.496 98.1522" stroke="#246E2D" stroke-width="0.437352" stroke-miterlimit="10" stroke-linecap="round"/>
<path d="M662.127 104.922C654.062 107.922 645.997 110.931 637.924 113.932" stroke="#246E2D" stroke-width="0.437352" stroke-miterlimit="10" stroke-linecap="round"/>
<path d="M655.908 121.55C648.639 125.259 641.361 128.976 634.093 132.685" stroke="#246E2D" stroke-width="0.437352" stroke-miterlimit="10" stroke-linecap="round"/>
<path d="M626.036 89.1687C629.203 95.9389 634.014 101.939 639.935 106.505" stroke="#246E2D" stroke-width="0.437352" stroke-miterlimit="10" stroke-linecap="round"/>
<path d="M619.913 107.45C623.657 114.212 628.94 120.116 635.238 124.586" stroke="#246E2D" stroke-width="0.437352" stroke-miterlimit="10" stroke-linecap="round"/>
<path d="M615.19 128.269C620.281 133.989 626.141 139.019 632.562 143.2" stroke="#246E2D" stroke-width="0.437352" stroke-miterlimit="10" stroke-linecap="round"/>
<path d="M653.441 136.079C647.327 142.456 640.294 147.958 632.64 152.375" stroke="#246E2D" stroke-width="0.437352" stroke-miterlimit="10" stroke-linecap="round"/>
<path d="M649.321 197.011H607.116V200.947H649.321V197.011Z" fill="#DB6F5E"/>
<path d="M656.423 154.685L655.872 163.502L653.948 194.195C653.782 196.819 651.612 198.857 648.988 198.857H607.947C605.349 198.857 603.189 196.854 602.996 194.265L600.67 163.502L600.005 154.685H656.423Z" fill="#FA987D"/>
<path d="M656.423 154.685L655.872 163.502H600.67L600.005 154.685H656.423Z" fill="#DB6F5E"/>
<path d="M658.829 148.788V155.252C658.829 157.15 657.28 158.681 655.365 158.681H601.063C600.136 158.681 599.288 158.322 598.667 157.736C598.002 157.106 597.599 156.223 597.599 155.252V148.788C597.599 146.898 599.148 145.368 601.072 145.368H655.374C657.097 145.368 658.514 146.61 658.785 148.237C658.82 148.412 658.829 148.604 658.829 148.788Z" fill="#FAB693"/>
<path d="M658.829 148.789V155.253C658.829 157.151 657.28 158.681 655.365 158.681H601.063C600.136 158.681 599.287 158.323 598.666 157.737C598.631 157.562 598.614 157.369 598.614 157.177V150.713C598.614 148.815 600.162 147.284 602.087 147.284H656.388C657.315 147.284 658.164 147.651 658.776 148.229C658.82 148.412 658.829 148.605 658.829 148.789Z" fill="#FA987D"/>
<path d="M698.191 204.349H689.234V337.4H698.191V204.349Z" fill="#F4E8D8"/>
<path d="M589.832 204.349H580.875V337.4H589.832V204.349Z" fill="#F4E8D8"/>
<path d="M705.363 200.947H574.157V212.169H705.363V200.947Z" fill="#835F53"/>
<path d="M705.363 312.183H574.157V323.405H705.363V312.183Z" fill="#835F53"/>
<path d="M269.945 457.624C269.848 458 269.709 458.35 269.49 458.674C268.379 460.344 265.799 460.406 263.927 459.373C262.064 458.333 260.76 456.504 259.527 454.746C254.515 447.565 249.494 440.401 244.473 433.22C243.879 432.371 243.275 431.497 243.074 430.508C242.75 428.916 243.529 427.534 244.71 426.485C245.418 425.846 246.284 425.321 247.141 424.945C247.334 424.858 247.526 424.779 247.718 424.7C249.835 423.808 252.162 423.038 253.317 421.088C257.524 425.496 261.74 429.817 266.157 433.911C266.472 435.651 266.787 437.375 267.093 439.08C268.003 444.127 268.904 449.043 269.796 453.968C270.023 455.184 270.225 456.496 269.945 457.624Z" fill="#535A61"/>
<path d="M263.927 459.373C262.064 458.332 260.76 456.504 259.527 454.746C254.506 447.573 249.485 440.401 244.473 433.219C243.879 432.371 243.275 431.487 243.074 430.499C242.75 428.907 243.537 427.534 244.718 426.475C247.911 433.412 252.311 439.762 256.676 446.042C258.574 448.772 260.489 451.527 262.956 453.766C264.941 455.568 267.347 457.02 269.945 457.615C269.849 457.982 269.709 458.332 269.49 458.664C268.37 460.353 265.799 460.405 263.927 459.373Z" fill="#81898F"/>
<path d="M267.093 439.08C260.314 436.605 254.156 432.389 249.459 426.904C248.856 426.196 248.27 425.461 247.719 424.7C249.835 423.808 252.162 423.038 253.317 421.087C257.524 425.496 261.74 429.817 266.157 433.911C266.472 435.651 266.787 437.374 267.093 439.08Z" fill="#404754"/>
<path d="M371.428 461.07C369.425 461.805 367.186 461.604 365.051 461.385C356.339 460.511 347.627 459.645 338.915 458.77C337.883 458.665 336.825 458.551 335.941 458.061C334.524 457.265 333.991 455.778 333.964 454.195C333.938 453.242 334.104 452.245 334.375 451.352C334.542 450.793 334.743 450.233 334.927 449.664C335.539 447.819 336.09 445.947 335.478 444.154C341.566 443.839 347.592 443.454 353.575 442.78C354.467 443.305 355.351 443.83 356.234 444.346C361.308 447.329 366.232 450.206 371.157 453.093C372.224 453.714 373.352 454.414 374.026 455.367C374.244 455.682 374.419 456.015 374.524 456.391C375.067 458.333 373.431 460.327 371.428 461.07Z" fill="#535A61"/>
<path d="M371.428 461.07C369.425 461.805 367.186 461.604 365.052 461.385C356.34 460.51 347.627 459.644 338.915 458.77C337.883 458.665 336.825 458.551 335.941 458.061C334.524 457.265 333.991 455.778 333.965 454.195C341.303 456.294 348.992 457.099 356.602 457.886C359.908 458.227 363.25 458.568 366.556 458.157C369.215 457.825 371.883 456.95 374.026 455.367C374.245 455.682 374.42 456.014 374.525 456.39C375.067 458.332 373.431 460.326 371.428 461.07Z" fill="#81898F"/>
<path d="M356.234 444.346C349.893 448.23 342.344 450.102 334.926 449.664C335.539 447.819 336.09 445.947 335.478 444.154C341.565 443.839 347.592 443.454 353.575 442.781C354.467 443.305 355.351 443.83 356.234 444.346Z" fill="#404754"/>
<path d="M355.167 443.647C352.149 445.912 338.836 447.452 334.813 446.061C318.045 402.938 322.514 388.121 324.509 375.945C324.089 373.627 323.695 371.484 323.31 369.481C319.943 351.558 318.106 344.639 315.561 319.089C315.543 319.491 315.517 319.885 315.499 320.279C314.126 348.916 315.281 371.554 309.901 379.059C303.166 388.453 283.713 417.388 268.589 438.495C262.081 434.742 254.288 427.902 252.066 421.088C270.085 395.949 266.91 384.228 286.249 370.828C278.893 335.411 276.942 312.083 277.432 296.74C278.255 270.359 286.249 267.586 286.249 267.586C286.249 267.586 323.678 274.217 343.927 268.697C345.353 275.188 346.403 281.538 347.155 287.81C352.701 333.871 343.464 375.306 355.167 443.647Z" fill="#2B3650"/>
<path d="M347.155 287.81C325.654 297.956 300.822 301.044 277.432 296.74C278.254 270.359 286.249 267.586 286.249 267.586C286.249 267.586 323.678 274.217 343.927 268.697C345.353 275.188 346.402 281.538 347.155 287.81Z" fill="#1D2538"/>
<path d="M326.94 312.345L323.31 369.481C319.943 351.558 318.106 344.639 315.561 319.089C315.928 318.914 326.94 312.345 326.94 312.345Z" fill="#1D2538"/>
<path d="M268.012 206.155C265.335 203.19 264.067 199 264.347 195.02C264.793 188.609 269.787 183.57 272.586 177.78C275.98 170.739 276.007 162.166 273.076 155.116C289.433 159.262 306.56 160.356 324.185 158.51C320.748 163.094 321.998 169.671 324.491 174.823C326.984 179.975 330.571 184.751 331.603 190.384C333.291 199.647 327.299 209.024 319.234 213.896C311.161 218.777 284.194 224.087 268.012 206.155Z" fill="#40455A"/>
<path d="M310.627 197.032C311.038 193.463 311.58 189.824 313.26 186.649C314.939 183.474 317.975 180.797 321.552 180.465C326.197 180.036 330.264 183.5 333.229 187.104C338.862 193.961 342.72 202.079 346.21 210.38C339.737 215.61 332.643 220.08 325.138 223.658C318.919 215.558 309.472 207.108 310.627 197.032Z" fill="#F4E8D8"/>
<path d="M348.93 284.423C326.328 292.357 299.064 290.546 275.464 286.47C278.009 271.67 281.053 254.692 279.392 248.412C279.365 248.307 279.33 248.193 279.304 248.088C279.304 248.079 279.295 248.088 279.295 248.088C276.864 239.332 267.697 221.506 265.965 209.251C268.991 202.569 275.175 193.647 280.424 187.13C293.798 191.687 303.507 192.483 314.581 184.611C333.536 197.985 336.387 219.993 338.312 235.326C339.317 243.338 340.498 249.794 341.942 256.267C343.778 264.515 346.044 272.807 348.93 284.423Z" fill="#866694"/>
<path d="M348.93 284.423C326.328 292.357 299.063 290.546 275.464 286.47C278.009 271.67 281.053 254.692 279.391 248.412C279.365 248.307 279.33 248.193 279.304 248.088C289.249 254.919 301.644 258.619 313.811 259.179C323.293 259.608 332.696 258.409 341.941 256.266C343.778 264.515 346.044 272.807 348.93 284.423Z" fill="#866694"/>
<path d="M372.862 263.641C374.402 265.977 375.933 268.312 377.472 270.639C378.067 271.548 378.697 272.633 378.329 273.656C377.831 275.056 375.88 275.248 374.489 274.732C372.268 273.901 370.553 271.837 370.151 269.502C369.748 267.166 370.667 264.647 372.862 263.641Z" fill="#E88A82"/>
<path d="M381.181 245.183L378.583 253.152L372.276 272.404C371.419 275.028 367.911 276.69 364.028 276.331L333.142 273.445C329.249 273.077 326.144 270.794 325.821 268.065L323.459 248.008L322.479 239.699L381.181 245.183Z" fill="#FA987D"/>
<path d="M381.181 245.183L378.574 253.152L323.45 248.009L322.47 239.699L381.181 245.183Z" fill="#DB6F5E"/>
<path d="M384.618 239.069L382.187 249.469L320.546 243.714L319.995 235.334L319.838 233.025L384.618 239.069Z" fill="#FAB693"/>
<path d="M382.467 241.168L380.551 249.32L320.546 243.713L319.995 235.334L382.467 241.168Z" fill="#FA987D"/>
<path d="M352.639 261.787C355.316 265.076 356.234 267.446 355.937 268.312C355.342 270.035 352.429 269.808 351.152 268.898C352.683 270.971 353.61 272.511 354.292 275.266C351.563 273.333 348.729 270.735 346.761 268.032C346.14 267.175 345.528 266.117 345.851 265.102C346.105 264.315 346.857 263.807 347.601 263.44C348.948 262.767 350.995 262.058 352.639 261.787Z" fill="#DB6F5E"/>
<path d="M337.367 257.011C337.367 257.011 344.216 256.416 347.452 257.868C350.689 259.32 353.286 261.936 355.395 264.796C356.059 265.706 356.715 266.869 356.26 267.901C355.814 268.916 354.45 269.231 353.383 268.907C352.324 268.583 351.476 267.796 350.619 267.088C349.761 266.379 348.773 265.706 347.627 265.924C349.691 268.688 351.765 271.444 353.829 274.208C354.187 274.689 354.564 275.231 354.52 275.826C354.45 276.674 353.549 277.217 352.718 277.392C350.942 277.776 348.974 277.155 347.645 275.633C347.382 276.666 346.543 277.532 345.519 277.829C344.496 278.126 343.324 277.855 342.589 277.094C341.985 277.908 340.944 278.363 339.939 278.258C338.933 278.153 338.005 277.497 337.577 276.893C336.956 277.671 335.731 277.741 334.839 277.287C333.947 276.832 333.335 275.992 332.801 275.135C331.06 272.318 329.958 269.108 329.836 266.362C332.329 263.501 337.367 257.011 337.367 257.011Z" fill="#F9B6A7"/>
<path d="M371.769 279.359C368.48 279.525 368.953 274.189 369.679 272.011C369.932 271.259 370.387 270.524 371.332 270.472C372.618 270.41 372.88 271.067 373.282 272.204C373.755 273.559 375.075 279.192 371.769 279.359Z" fill="#F9B6A7"/>
<path d="M363.004 278.405C359.716 278.571 360.188 273.236 360.914 271.058C361.168 270.305 361.622 269.571 362.567 269.518C363.853 269.457 364.115 270.113 364.518 271.25C364.99 272.606 366.311 278.248 363.004 278.405Z" fill="#F9B6A7"/>
<path d="M359.025 278.405C355.736 278.572 356.208 273.236 356.934 271.058C357.188 270.306 357.643 269.571 358.587 269.518C359.873 269.457 360.136 270.113 360.538 271.25C361.01 272.606 362.331 278.248 359.025 278.405Z" fill="#F9B6A7"/>
<path d="M367.745 278.397C364.474 278.685 364.518 273.341 365.069 271.145C365.261 270.384 365.664 269.632 366.591 269.545C367.868 269.431 368.183 270.078 368.673 271.198C369.267 272.527 371.034 278.099 367.745 278.397Z" fill="#F9B6A7"/>
<path d="M312.779 196.366C312.193 198.719 310.837 200.941 308.86 201.728C306.892 202.507 304.74 201.728 302.807 200.845C296.772 198.063 291.147 194.049 286.249 189.045C287.036 186.089 287.561 183.237 287.885 180.464C288.252 177.324 288.366 174.298 288.313 171.367C288.287 169.364 288.165 167.414 288.016 165.507C293.605 166.32 299.238 166.714 306.149 167.081C306.14 167.414 306.131 167.746 306.122 168.07C306.017 171.682 305.982 175.33 306.743 178.82C307.391 181.794 308.703 184.689 310.671 186.64C311.222 187.191 311.817 187.663 312.481 188.048C313.286 191.512 313.356 194.014 312.779 196.366Z" fill="#F9B6A7"/>
<path d="M310.671 186.639C302.825 188.739 294.165 186.377 287.885 180.464C288.252 177.324 288.366 174.297 288.313 171.367C294.358 171.577 300.428 170.457 306.122 168.069C306.017 171.682 305.982 175.329 306.743 178.82C307.382 181.794 308.694 184.689 310.671 186.639Z" fill="#E88A82"/>
<path d="M329.697 160.195C328.921 157.217 324.818 155.708 320.531 156.825C316.244 157.941 313.397 161.26 314.173 164.238C314.948 167.216 319.052 168.725 323.339 167.608C327.626 166.492 330.472 163.173 329.697 160.195Z" fill="#E88A82"/>
<path d="M278.193 155.824C277.196 140.315 286.643 127.09 299.3 126.267C311.957 125.454 323.031 137.359 324.036 152.867C325.042 168.376 318.115 181.601 305.458 182.423C292.801 183.246 279.19 171.332 278.193 155.824Z" fill="#F9B6A7"/>
<path d="M281.517 152.912C288.926 151.277 295.206 147.113 299.195 140.57C305.519 145.329 312.849 147.297 320.634 148.53C322.025 151.583 322.943 154.854 323.354 158.187C323.923 153.148 323.853 148.04 323.083 142.836C315.281 139.879 307.793 136.118 301.137 131.412C294.218 138.401 287.526 145.617 281.517 152.912Z" fill="#E88A82"/>
<path d="M288.112 121.939C277.878 122.953 271.239 131.893 270.417 140.185C269.219 152.334 276.4 162.542 276.584 162.883C277.931 160.312 278.779 157.574 278.254 154.932C288.917 151.381 298.338 142.109 299.553 133.45C298.39 127.659 297.271 121.029 288.112 121.939Z" fill="#40455A"/>
<path d="M280.637 153.038C276.977 150.962 272.7 151.588 271.083 154.437C269.467 157.286 271.123 161.278 274.783 163.355C278.443 165.431 282.72 164.805 284.337 161.956C285.953 159.107 284.296 155.115 280.637 153.038Z" fill="#F9B6A7"/>
<path d="M327.124 152.378C326.197 155.37 325.209 158.475 323.468 161.772C323.459 157.224 322.628 152.719 321.666 148.276C314.721 145.827 308.231 143.666 302.44 140.132C296.658 136.616 291.541 131.569 289.232 124.947C289.232 123.39 290.282 121.676 292.18 120.233C295.469 117.74 301.312 116.095 308.668 117.539C318.885 119.551 325.305 127.44 327.64 135.173C329.223 140.412 329.066 146.08 327.124 152.378Z" fill="#40455A"/>
<path d="M327.124 152.378C327.203 146.85 326.319 141.313 324.168 136.231C321.395 129.671 316.391 123.933 309.91 120.95C304.39 118.396 297.804 118.028 292.171 120.241C295.46 117.748 301.303 116.104 308.659 117.547C318.876 119.559 325.296 127.449 327.631 135.181C329.223 140.412 329.066 146.08 327.124 152.378Z" fill="#5A6478"/>
<path d="M300.28 154.119C298.67 153.13 296.702 152.754 294.848 153.078C292.993 153.401 291.261 154.416 289.862 156.069C290.527 154.749 291.305 153.454 292.407 152.457C293.509 151.468 294.97 150.804 296.44 150.917C297.918 151.031 299.361 152.046 300.28 154.119Z" fill="#40455A"/>
<path d="M320.73 154.591C319.462 153.218 317.616 152.431 315.788 152.483C313.951 152.536 312.158 153.419 311.187 154.504C312.009 153.157 312.998 151.88 314.319 151.049C315.631 150.227 317.319 149.912 318.727 150.55C320.127 151.189 321.106 152.903 320.73 154.591Z" fill="#40455A"/>
<path d="M297.612 163.487C298.394 163.487 299.029 162.508 299.029 161.3C299.029 160.093 298.394 159.114 297.612 159.114C296.829 159.114 296.194 160.093 296.194 161.3C296.194 162.508 296.829 163.487 297.612 163.487Z" fill="#2C3C4D"/>
<path d="M314.581 163.487C315.363 163.487 315.998 162.508 315.998 161.3C315.998 160.093 315.363 159.114 314.581 159.114C313.798 159.114 313.164 160.093 313.164 161.3C313.164 162.508 313.798 163.487 314.581 163.487Z" fill="#2C3C4D"/>
<path d="M309.315 161.964C309.648 163.504 309.429 165.166 308.703 166.565" stroke="#9E4958" stroke-width="0.874704" stroke-miterlimit="10" stroke-linecap="round"/>
<path d="M308.423 172.67C306.079 173.624 303.166 172.976 301.452 171.113" stroke="#9E4958" stroke-width="0.874704" stroke-miterlimit="10" stroke-linecap="round"/>
<path d="M338.311 256.897C336.781 261.857 334.226 265.959 331.06 269.519C317.782 264.105 303.638 260.142 292.556 251.421C287.124 247.153 283.52 240.899 279.435 235.248C276.828 231.662 274.344 227.979 271.965 224.218C278.543 221.375 285.479 218.454 292.573 216.013C294.27 218.952 296.037 221.874 297.874 224.752C301.512 230.507 303.638 238.336 309.726 241.467C314.239 243.785 318.569 245.412 322.287 248.36C327.054 252.13 332.512 255.043 338.311 256.897Z" fill="#F9B6A7"/>
<path d="M297.874 224.752C292.643 229.598 286.275 233.219 279.435 235.248C276.828 231.662 274.344 227.979 271.965 224.218C278.543 221.375 285.479 218.454 292.573 216.013C294.27 218.952 296.037 221.874 297.874 224.752Z" fill="#E88A82"/>
<path d="M298.092 221.261C289.818 226.58 277.633 229.816 268.248 231.714C266.367 219.136 261.958 207.878 263.314 196.708C265.029 182.626 283.17 179.862 288.733 193.621C291.969 201.616 295.669 211.106 298.092 221.261Z" fill="#F4E8D8"/>
<path d="M519.112 417.683C501.697 422.153 483.625 423.605 465.79 421.969C460.664 421.497 455.154 420.57 451.533 416.616C447.054 411.726 447.002 403.854 448.419 397.145C451.095 384.436 457.865 373.064 466.096 363.539C474.336 354.013 484.045 346.132 495.897 339.52C506.709 342.074 517.52 344.628 528.34 347.182C530.431 347.672 532.679 348.267 534.052 350.033C535.828 352.308 535.53 355.667 535.093 358.606C532.136 378.138 526.958 397.267 519.112 417.683Z" fill="#30344A"/>
<path d="M571.577 401.107C571.56 401.343 571.516 401.562 571.455 401.772C570.746 404.23 567.422 405.21 564.711 405.577C553.576 407.099 542.449 408.612 531.314 410.134C528.533 403.031 525.909 395.885 524.431 388.756C523.923 386.325 523.416 383.832 523.827 381.391C524.238 378.942 525.778 376.528 528.157 375.819C531.446 374.84 534.656 377.333 537.306 379.511C537.394 379.581 537.49 379.659 537.577 379.729C545.887 386.5 555.395 391.818 565.498 395.387C568.341 396.384 571.84 398.107 571.577 401.107Z" fill="#734943"/>
<path d="M571.577 401.107C571.56 401.343 571.516 401.561 571.455 401.771C558.387 395.036 544.348 390.199 529.906 387.452C531.253 384.015 534.009 381.434 537.577 379.729C545.887 386.499 555.395 391.817 565.498 395.386C568.341 396.383 571.84 398.106 571.577 401.107Z" fill="#996A59"/>
<path d="M461.259 338.688C458.627 341.942 456.099 345.283 453.746 348.695C449.294 355.141 445.454 361.833 442.611 368.647C436.278 368.201 429.936 367.746 424.338 366.128C426.665 355.57 429.963 345.231 434.686 335.067C435.657 332.976 436.68 330.903 437.774 328.83C446.503 327.282 455.968 331.148 461.259 338.688Z" fill="#FFD4C4"/>
<path d="M453.746 348.695C453.781 347.776 453.763 346.849 453.693 345.931C453.448 342.808 452.46 339.65 450.361 337.315C447.964 334.656 444.273 333.335 440.695 333.492C438.605 333.589 436.567 334.148 434.686 335.067C435.657 332.976 436.68 330.903 437.774 328.83C446.503 327.282 455.967 331.148 461.259 338.688C458.627 341.942 456.099 345.283 453.746 348.695Z" fill="#EDAB9F"/>
<path d="M450.649 273.033C442.243 277.074 442.584 289.714 441.614 298.95C440.643 308.187 439.803 317.958 435.823 325.113C444.64 326.084 453.151 329.618 459.947 335.137C468.073 326.215 472.027 313.855 470.54 302.047C469.053 290.238 462.143 279.173 450.649 273.033Z" fill="#8ADBD5"/>
<path d="M459.501 342.1C456.58 338.199 452.801 334.962 448.419 333.3C444.045 331.638 439.06 331.63 434.861 333.781C433.339 333.02 432.403 330.869 432.63 329.067C432.875 327.169 436.444 323.329 435.814 321.544C440.66 319.436 445.401 318.736 451.533 320.048C457.664 321.36 464.391 325.332 465.834 332.119C464.12 333.676 463.411 333.326 463.123 335.732C462.965 337.044 463.053 338.417 462.624 339.659C462.213 340.893 461.015 341.986 459.501 342.1Z" fill="#AEEBE1"/>
<path d="M427.522 364.089C419.204 367.667 412.958 375.688 411.524 384.636C411.41 385.353 411.322 386.097 411.541 386.788C411.76 387.479 412.346 388.1 413.072 388.135C413.964 388.17 414.638 387.365 415.162 386.639C417.069 383.971 418.976 381.312 421.067 378.513C419.501 382.58 418.854 386.989 419.169 391.336C419.23 392.185 419.344 393.051 419.781 393.777C420.218 394.503 421.075 395.036 421.906 394.852C423.122 394.581 423.542 393.103 424.067 391.38C424.426 392.613 425.335 393.794 426.604 394.004C427.872 394.223 429.298 393.016 429.569 391.494C429.971 392.578 431.432 392.981 432.49 392.508C433.549 392.036 434.196 390.925 434.467 389.805C434.73 388.677 434.677 387.505 434.712 386.35C434.747 385.196 434.878 383.997 435.263 382.607C438.141 381.312 440.555 378.994 441.955 376.16C443.354 373.326 443.748 370.011 442.654 367.334C437.887 366.634 433.199 365.445 427.522 364.089Z" fill="#FFD4C4"/>
<path d="M628.1 423.709C627.707 425.082 626.622 425.887 625.266 426.333C623.806 426.805 622.048 426.875 620.508 426.788C610.869 426.237 601.23 425.694 591.59 425.152C590.007 425.065 588.433 424.968 586.849 424.881C585.485 417.367 584.278 409.862 584.182 402.576C584.173 402.016 584.164 401.465 584.173 400.905C584.19 398.963 584.322 397.03 584.995 395.228C585.354 394.284 585.896 393.374 586.587 392.613C587.567 391.511 588.853 390.732 590.313 390.593C593.733 390.26 596.401 393.322 598.588 395.963C605.507 404.308 613.887 411.445 623.228 416.939C625.826 418.461 628.931 420.822 628.1 423.709Z" fill="#835F53"/>
<path d="M628.1 423.709C627.707 425.082 626.622 425.887 625.266 426.333C624.392 424.286 622.878 422.414 621.146 421.023C617.709 418.277 613.467 416.72 609.933 414.105C604.886 410.396 601.606 404.824 597.468 400.127C594.538 396.803 590.751 393.768 586.587 392.613C587.567 391.511 588.852 390.732 590.313 390.593C593.733 390.26 596.401 393.322 598.588 395.963C605.507 404.308 613.886 411.445 623.228 416.939C625.826 418.461 628.931 420.822 628.1 423.709Z" fill="#A37F6D"/>
<path d="M591.59 425.151C590.007 425.064 588.433 424.968 586.849 424.88C585.485 417.366 584.278 409.862 584.182 402.575C584.173 402.015 584.164 401.464 584.173 400.905C587.602 403.572 589.928 407.692 590.987 411.961C592.054 416.256 592.01 420.725 591.59 425.151Z" fill="#735046"/>
<path d="M588.765 428.099C572.522 429.612 523.145 432.411 512.15 432.411C512.106 432.411 512.071 432.402 512.027 432.402C505.231 431.703 497.796 427.005 497.525 420.174C496.956 405.776 501.889 391.431 508.852 378.311C510.05 376.063 511.301 373.858 512.596 371.689C505.283 368.82 499.038 365.199 494.717 359.662C494.078 358.849 493.483 357.974 492.967 357.064C489.915 351.816 488.9 345.264 491.752 339.999C514.485 344.757 539.545 338.993 558.885 328.488C560.949 339.762 561.413 349.664 559.821 359.303C558.194 369.179 551.336 387.941 544.855 398.473C560.442 395.157 566.565 395.744 584.173 394.099C589.578 401.744 591.59 419.675 588.765 428.099Z" fill="#40455A"/>
<path d="M559.821 359.303C543.77 364.167 526.127 363.196 509.377 360.65C503.866 359.819 498.268 358.77 492.967 357.064C489.915 351.816 488.9 345.264 491.752 339.999C514.485 344.757 539.545 338.993 558.885 328.488C560.949 339.762 561.413 349.664 559.821 359.303Z" fill="#30344A"/>
<path d="M538.146 416.264C541.26 411.532 543.411 406.179 544.907 400.301C545.555 406.424 542.773 412.801 538.146 416.264Z" fill="#30344A"/>
<path d="M545.878 400.397C547.925 405.698 548.047 411.716 546.219 417.096C549.176 412.005 549.15 405.322 545.878 400.397Z" fill="#30344A"/>
<path d="M570.475 403.973C573.746 405.014 576.668 407.131 578.688 409.913C580.709 412.694 581.811 416.123 581.785 419.561C579.974 415.03 577.341 410.822 574.052 407.219C572.767 405.802 571.297 404.428 570.475 403.973Z" fill="#30344A"/>
<path d="M578.75 401.927C583.797 407.018 585.537 415.109 583.036 421.826C583.359 415.205 581.61 408.487 578.75 401.927Z" fill="#30344A"/>
<path d="M512.15 432.411C512.106 432.411 512.071 432.402 512.027 432.402C505.231 431.702 497.796 427.005 497.525 420.174C496.956 405.776 501.889 391.431 508.852 378.311C506.018 388.51 503.875 398.892 502.44 409.38C501.758 414.357 501.277 419.667 503.42 424.215C505.152 427.898 508.441 430.644 512.15 432.411Z" fill="#515970"/>
<path d="M563.459 349.927C545.204 358.631 503.997 361.316 479.593 348.571C481.963 344.688 485.296 340.804 486.678 337.506C487.028 336.675 487.247 335.88 487.299 335.127C487.605 330.736 476.951 316.916 470.347 312.035C465.335 308.335 459.658 305.597 454.76 301.757C449.862 297.909 445.637 292.538 445.252 286.328C444.85 279.864 448.751 273.732 453.877 269.769C458.994 265.807 465.239 263.62 471.598 261.049C487.693 255.844 514.231 256.728 532.819 269.428C539.064 273.688 546.621 285.173 552.876 302.597C557.45 315.359 561.325 331.305 563.459 349.927Z" fill="#6CC5C3"/>
<path d="M563.459 349.928C545.204 358.631 503.997 361.316 479.593 348.572C481.963 344.688 485.296 340.805 486.678 337.507C493.553 341.365 501.259 343.744 509.114 344.33C521.544 345.257 534.253 341.697 544.391 334.446C535.443 337.621 525.314 337.332 516.567 333.658C529.031 331.419 540.481 323.94 547.531 313.409C549.779 310.059 551.563 306.411 552.876 302.598C557.45 315.36 561.325 331.305 563.459 349.928Z" fill="#5AB4B8"/>
<path d="M499.125 258.32C501.802 264.023 503.158 270.365 502.379 276.593C501.452 284.01 497.245 291.165 490.667 294.725C484.098 298.277 475.237 297.664 469.814 292.521C467.12 289.976 465.405 286.573 463.822 283.214C463.009 281.482 462.204 279.541 462.764 277.712C463.297 275.972 464.907 274.835 466.42 273.838C474.494 268.511 482.742 263.437 492.206 258.058" fill="#3C99A3"/>
<path d="M495.259 259.09C496.545 263.944 497.848 268.86 497.892 273.89C497.936 278.91 496.606 284.132 493.212 287.841C489.224 292.197 482.698 293.859 476.969 292.407C471.24 290.955 466.429 286.634 463.901 281.298C474.494 274.895 484.535 267.592 495.259 259.09Z" fill="#EDAB9F"/>
<path d="M450.366 258.168C445.947 257.856 442.189 260.091 441.972 263.161C441.755 266.23 445.162 268.972 449.581 269.284C453.999 269.596 457.757 267.361 457.974 264.292C458.191 261.222 454.785 258.481 450.366 258.168Z" fill="#EDAB9F"/>
<path d="M492.355 249.66C488.603 234.581 475.587 224.836 463.28 227.898C450.973 230.959 444.911 245.471 447.78 260.743C450.597 275.727 457.822 288.427 474.441 284.587C486.801 281.727 496.099 264.74 492.355 249.66Z" fill="#FFD4C4"/>
<path d="M486.582 250.745C482.068 248.935 478.237 245.488 476.173 241.377C472.858 244.115 468.869 246.031 464.653 246.897C463.568 247.115 462.449 247.273 461.364 247.08C460.279 246.888 459.212 246.293 458.758 245.121C455.477 247.43 451.445 248.628 447.36 248.165C447.238 245.908 447.115 243.643 446.993 241.386C458.005 237.765 468.817 233.54 479.357 228.72C482.497 234.511 485.637 240.301 486.582 250.745Z" fill="#EDAB9F"/>
<path d="M497.052 252.459C494.795 253.002 492.652 253.999 491.113 255.731C484.684 251.725 479.952 245.077 477.686 237.205C475.639 238.971 473.558 240.738 471.222 242.103C468.878 243.476 466.254 244.447 463.551 244.508C462.641 244.526 461.688 244.43 460.936 243.914C460.192 243.397 459.737 242.365 460.166 241.709C455.014 244.771 449.425 247.937 443.45 247.491C442.305 247.404 441.141 247.176 440.17 246.564C439.882 246.38 439.61 246.162 439.383 245.908C438.823 245.322 438.456 244.561 438.447 243.756C438.447 242.61 439.331 241.456 440.59 241.036C439.296 240.616 438.263 239.575 437.634 238.359C437.013 237.143 436.759 235.77 436.671 234.414C436.558 232.831 436.689 231.152 437.599 229.857C438.412 228.702 439.742 228.029 441.071 227.557C443.608 226.664 446.363 226.376 448.672 226.559C448.191 224.609 449.582 222.579 451.366 221.652C453.16 220.725 455.25 220.638 457.262 220.576C462.668 220.393 468.073 220.218 473.488 220.034C475.701 219.964 478.027 219.912 480.03 220.874C480.704 221.197 481.316 221.679 481.859 222.265C482.926 223.437 483.687 225.055 483.932 226.813C486.32 225.142 489.836 226.358 491.647 228.641C493.448 230.924 493.982 233.933 494.454 236.802C495.32 242.024 496.186 247.237 497.052 252.459Z" fill="#73323B"/>
<path d="M499.718 251.659C498.029 248.852 493.738 248.336 490.132 250.505C486.527 252.674 484.972 256.707 486.661 259.514C488.349 262.32 492.641 262.837 496.246 260.668C499.852 258.499 501.406 254.466 499.718 251.659Z" fill="#FFD4C4"/>
<path d="M481.859 222.265C473.453 221.267 464.828 222.072 456.746 224.618C455.652 224.959 454.55 225.344 453.667 226.07C452.783 226.796 452.162 227.933 451.987 229.175C448.865 228.58 445.523 229.245 442.882 231.003C441.202 232.123 439.742 233.784 439.418 235.779C439.103 237.773 440.231 240.065 442.663 240.975C440.896 242.015 439.724 243.887 439.383 245.908C438.823 245.322 438.456 244.561 438.447 243.756C438.447 242.61 439.331 241.456 440.59 241.036C439.296 240.616 438.263 239.575 437.634 238.359C437.013 237.143 436.759 235.77 436.671 234.414C436.558 232.831 436.689 231.152 437.599 229.857C438.412 228.702 439.742 228.029 441.071 227.557C443.608 226.664 446.363 226.376 448.672 226.559C448.191 224.609 449.582 222.579 451.366 221.652C453.16 220.725 455.25 220.638 457.262 220.576C462.668 220.393 468.073 220.218 473.488 220.034C475.701 219.964 478.027 219.912 480.03 220.874C480.704 221.197 481.316 221.679 481.859 222.265Z" fill="#944B50"/>
<path d="M491.358 280.677C490.509 283.153 488.611 286.214 485.532 288.786C481.614 292.049 475.779 294.533 467.758 294.017C462.694 293.693 457.113 290.938 454.034 285.462C452.705 283.092 451.629 280.599 450.745 277.94C449.398 273.942 448.462 269.577 447.666 264.732C446.827 259.58 446.521 246.949 446.521 246.949C446.521 246.949 447.43 247.631 448.261 246.293C447.491 266.044 451.944 272.254 456.973 277.284C455.757 271.091 459.571 269.77 464.426 269.158C474.214 267.933 479.462 267.819 481.509 274.493C488.611 268.991 489.547 258.836 485.9 249.73C487.702 249.643 489.95 240.205 491.813 247.351C492.276 249.171 496.851 264.653 491.358 280.677Z" fill="#73323B"/>
<path d="M485.532 288.786C481.614 292.049 475.78 294.533 467.759 294.017C462.694 293.693 457.113 290.938 454.034 285.462C452.705 283.092 451.629 280.599 450.746 277.94C451.428 279.269 452.18 280.564 453.02 281.797C455.224 285.042 458.137 287.911 461.723 289.495C464.986 290.938 468.642 291.244 472.211 291.191C476.724 291.121 481.351 290.422 485.532 288.786Z" fill="#944B50"/>
<path d="M471.266 253.23C472.631 251.926 474.467 251.139 476.357 251.052C478.246 250.964 480.144 251.594 481.859 252.915C480.931 251.76 479.891 250.667 478.605 249.932C477.319 249.197 475.753 248.856 474.336 249.285C472.91 249.705 471.721 251.008 471.266 253.23Z" fill="#73323B"/>
<path d="M449.591 255.573C450.859 254.199 452.705 253.412 454.533 253.465C456.361 253.517 458.163 254.401 459.134 255.485C458.311 254.138 457.314 252.861 456.002 252.03C454.69 251.199 453.002 250.893 451.594 251.532C450.185 252.17 449.215 253.884 449.591 255.573Z" fill="#73323B"/>
<path d="M475.226 261.37C474.86 260.219 473.958 259.478 473.213 259.716C472.467 259.953 472.159 261.078 472.526 262.229C472.892 263.38 473.793 264.12 474.539 263.883C475.285 263.646 475.592 262.521 475.226 261.37Z" fill="#2C3C4D"/>
<path d="M459.06 262.707C458.694 261.557 457.793 260.816 457.047 261.053C456.301 261.291 455.994 262.416 456.36 263.567C456.726 264.717 457.627 265.458 458.373 265.221C459.119 264.983 459.426 263.858 459.06 262.707Z" fill="#2C3C4D"/>
<path d="M462.056 274.475C466.56 274.125 470.969 272.708 475.062 270.277C475.815 272.586 475.246 275.289 473.61 277.091C471.975 278.892 469.351 279.741 466.971 279.216C464.61 278.7 462.572 276.837 462.056 274.475Z" fill="white"/>
<path d="M462.047 261.346C462.703 262.781 462.965 264.408 462.799 265.991C462.738 266.551 462.641 267.189 462.991 267.635C463.245 267.959 463.673 268.081 464.076 268.038C464.478 267.994 464.846 267.81 465.195 267.609" fill="#FFD4C4"/>
<path d="M462.047 261.346C462.703 262.781 462.965 264.408 462.799 265.991C462.738 266.551 462.641 267.189 462.991 267.635C463.245 267.959 463.673 268.081 464.076 268.038C464.478 267.994 464.846 267.81 465.195 267.609" stroke="#BA6168" stroke-width="0.874704" stroke-miterlimit="10" stroke-linecap="round"/>
<path d="M512.841 355.569C509.692 358.893 506.315 362.007 502.764 364.885C494.017 371.996 482.838 378.801 472.324 382.825C471.292 378.382 468.318 373.746 463.621 370.885C471.213 363.363 479.016 355.473 485.917 346.604C487.072 345.125 488.191 343.621 489.285 342.09C494.192 342.615 499.204 343.157 503.691 345.213C508.187 347.268 512.141 351.134 512.841 355.569Z" fill="#FFD4C4"/>
<path d="M512.841 355.569C509.692 358.893 506.316 362.007 502.764 364.885C503.849 360.459 502.939 355.508 500.088 351.93C496.781 347.784 491.122 345.737 485.917 346.603C487.072 345.125 488.192 343.621 489.285 342.09C494.192 342.615 499.204 343.157 503.691 345.213C508.187 347.268 512.141 351.134 512.841 355.569Z" fill="#EDAB9F"/>
<path d="M520.171 343.593C530.964 328.015 536.825 309.078 536.72 290.123C536.676 282.067 534.804 272.812 527.728 268.955C522.489 266.103 515.657 267.31 510.934 270.958C506.21 274.605 503.403 280.291 502.099 286.108C500.796 291.933 501.102 297.978 500.525 303.217C499.082 316.241 494.708 328.837 489.39 340.821C497.525 346.751 508.563 348.474 520.171 343.593Z" fill="#8ADBD5"/>
<path d="M511.983 358.769C505.965 350.004 494.97 344.931 484.395 346.051C483.354 343.715 485.208 341.546 486.94 339.884C488.672 338.222 489.836 335.703 489.381 333.35C501.6 333.193 514.021 337.601 522.821 344.905C523.144 346.278 522.541 347.713 521.71 348.85C520.879 349.987 519.812 350.94 519.007 352.095C518.071 353.424 517.503 354.99 516.549 356.311C515.604 357.623 514.082 358.743 511.983 358.769Z" fill="#AEEBE1"/>
<path d="M495.784 330.928C506.245 326.711 515.089 318.62 520.214 308.579C517.695 319.469 507.96 328.312 495.784 330.928Z" fill="#6BBBBF"/>
<path d="M505.073 332.931C511.677 332.966 518.281 331.129 523.923 327.7C519.856 332.441 513.129 334.733 505.073 332.931Z" fill="#6BBBBF"/>
<path d="M420.55 330.186C425.326 348.161 427.749 366.757 427.723 385.362" stroke="#3E704F" stroke-width="0.874704" stroke-miterlimit="10"/>
<path d="M439.129 347.584C435.989 360.547 434.17 373.825 433.715 387.156" stroke="#3E704F" stroke-width="0.874704" stroke-miterlimit="10"/>
<path d="M441.307 303.866C434.764 332.845 431.502 362.559 431.581 392.264" stroke="#3E704F" stroke-width="0.874704" stroke-miterlimit="10"/>
<path d="M422.79 277.74C430.391 312.623 432.814 348.634 429.954 384.226" stroke="#3E704F" stroke-width="0.874704" stroke-miterlimit="10"/>
<path d="M432.674 425.737H421.242V430.784H432.674V425.737Z" fill="#D96662"/>
<path d="M448.183 425.737H436.75V430.784H448.183V425.737Z" fill="#D96662"/>
<path d="M461.653 387.487L460.909 391.274L460.498 393.382L459.081 400.651L458.337 404.447L456.92 411.716L455.294 420.026C454.541 423.865 451.768 426.892 448.182 428.099C447.089 428.466 445.917 428.676 444.692 428.676H424.723C423.516 428.676 422.335 428.475 421.233 428.099C417.646 426.892 414.873 423.865 414.121 420.026L412.494 411.716L411.077 404.447L410.334 400.651L408.917 393.382L408.506 391.274L407.762 387.487H461.653Z" fill="#FA987D"/>
<path d="M460.499 393.381L459.082 400.65H410.343L408.926 393.381H460.499Z" fill="#F7C7B2"/>
<path d="M458.338 404.438L456.921 411.707H412.503L411.086 404.438H458.338Z" fill="#F7C7B2"/>
<path d="M461.653 387.486L460.909 391.274H408.514L407.771 387.486H461.653Z" fill="#ED806B"/>
<path d="M465.326 379.973V386.437C465.326 388.335 463.778 389.865 461.862 389.865H407.561C406.634 389.865 405.785 389.507 405.164 388.921C404.499 388.291 404.097 387.408 404.097 386.437V379.973C404.097 378.083 405.645 376.552 407.57 376.552H461.871C463.594 376.552 465.011 377.795 465.282 379.422C465.309 379.588 465.326 379.789 465.326 379.973Z" fill="#FAB693"/>
<path d="M465.326 379.973V386.437C465.326 388.335 463.778 389.865 461.863 389.865H407.561C406.634 389.865 405.785 389.507 405.164 388.921C405.129 388.746 405.112 388.553 405.112 388.361V381.897C405.112 379.999 406.66 378.468 408.584 378.468H462.886C463.813 378.468 464.662 378.835 465.274 379.413C465.309 379.588 465.326 379.789 465.326 379.973Z" fill="#FA987D"/>
<path d="M466.84 368.769C463.411 367.404 459.431 367.474 456.046 368.943C452.661 370.413 449.906 373.282 448.558 376.72C448.209 377.612 448.016 378.766 448.733 379.405C449.18 379.799 449.844 379.834 450.404 379.65C450.964 379.466 451.445 379.108 451.909 378.749C453.439 377.568 454.979 376.396 457.034 375.381C455.075 379.939 452.503 384.233 449.407 388.117C448.716 388.983 447.981 389.858 447.701 390.925C447.421 391.992 447.728 393.313 448.707 393.811C449.836 394.389 451.183 393.671 452.197 392.919C454.48 391.222 456.51 389.193 458.609 386.98C457.157 390.208 455.714 393.435 454.262 396.663C454.017 397.214 453.763 397.782 453.684 398.386C453.606 398.99 453.745 399.654 454.174 400.083C454.664 400.573 455.442 400.66 456.116 400.494C456.789 400.328 457.375 399.925 457.97 399.506C459.422 400.643 461.81 400.293 463.044 398.727C464.408 398.946 465.799 398.272 466.77 397.293C467.741 396.313 468.379 395.053 468.992 393.811C470.855 390.041 472.7 386.175 473.216 382.012C473.75 377.813 473.715 371.498 466.84 368.769Z" fill="#FFD4C4"/>
<path d="M458.53 398.84C460.971 395.49 462.545 391.51 463.044 387.399" stroke="#BA6168" stroke-width="0.874704" stroke-miterlimit="10" stroke-linecap="round"/>
<path d="M463.761 397.012C464.968 395.797 465.738 394.205 466.201 392.56C466.674 390.916 466.866 389.201 467.05 387.504" stroke="#BA6168" stroke-width="0.874704" stroke-miterlimit="10" stroke-linecap="round"/>
<path d="M416.194 324.124C419.807 321.159 424.382 320.905 428.475 323.092C432.578 325.278 435.158 330.072 434.782 334.76C434.397 339.519 431.309 343.595 427.968 346.971C422.833 352.176 416.763 356.4 410.211 359.567C404.395 362.383 395.114 365.209 395.114 365.209C395.114 365.209 392.114 359.471 390.915 350.382C390.032 343.7 389.463 336.903 390.767 330.282C391.703 325.532 393.408 320.774 396.741 317.292C400.074 313.811 405.278 311.887 409.774 313.487C414.27 315.088 417.979 320.546 416.194 324.124Z" fill="#3E704F"/>
<mask id="mask3_25_835" style="mask-type:alpha" maskUnits="userSpaceOnUse" x="389" y="312" width="46" height="54">
<path d="M416.194 324.124C419.807 321.159 424.382 320.905 428.475 323.092C432.578 325.278 435.158 330.072 434.782 334.76C434.397 339.519 431.309 343.595 427.968 346.971C422.833 352.176 416.763 356.4 410.211 359.567C404.395 362.383 395.114 365.209 395.114 365.209C395.114 365.209 392.114 359.471 390.915 350.382C390.032 343.7 389.463 336.903 390.767 330.282C391.703 325.532 393.408 320.774 396.741 317.292C400.074 313.811 405.278 311.887 409.774 313.487C414.27 315.088 417.979 320.546 416.194 324.124Z" fill="#3E704F"/>
</mask>
<g mask="url(#mask3_25_835)">
<path d="M418.635 320.668C407.867 335.407 399.444 351.86 393.784 369.223" stroke="#7EBF7E" stroke-width="0.874704" stroke-miterlimit="10"/>
<path d="M414.83 326.231C421.985 323.555 429.735 322.496 437.336 323.144" stroke="#7EBF7E" stroke-width="0.874704" stroke-miterlimit="10"/>
<path d="M410.841 332.477C419.632 331.812 428.615 334.244 435.884 339.23" stroke="#7EBF7E" stroke-width="0.874704" stroke-miterlimit="10"/>
<path d="M406.66 339.439C415.005 342.763 422.519 348.16 428.327 355.009" stroke="#7EBF7E" stroke-width="0.874704" stroke-miterlimit="10"/>
<path d="M402.392 348.073C408.488 352.245 413.264 358.342 415.862 365.261" stroke="#7EBF7E" stroke-width="0.874704" stroke-miterlimit="10"/>
<path d="M398.578 356.785C400.441 360.17 401.263 364.124 400.904 367.972" stroke="#7EBF7E" stroke-width="0.874704" stroke-miterlimit="10"/>
<path d="M414.62 326.397C413.369 323.161 412.101 319.898 410.194 317.003C408.287 314.108 405.68 311.553 402.435 310.329" stroke="#7EBF7E" stroke-width="0.874704" stroke-miterlimit="10"/>
<path d="M410.728 332.529C405.89 325.575 398.517 320.414 390.329 318.254" stroke="#7EBF7E" stroke-width="0.874704" stroke-miterlimit="10"/>
<path d="M406.949 339.824C400.091 334.865 391.694 332.066 383.235 331.943" stroke="#7EBF7E" stroke-width="0.874704" stroke-miterlimit="10"/>
<path d="M402.383 348.159C395.84 345.553 388.37 345.334 381.678 347.547" stroke="#7EBF7E" stroke-width="0.874704" stroke-miterlimit="10"/>
<path d="M398.508 356.373C394.397 356.172 390.224 357.607 387.119 360.301" stroke="#7EBF7E" stroke-width="0.874704" stroke-miterlimit="10"/>
</g>
<path d="M421.119 275.087C424.653 273.163 428.563 273.697 431.659 276.225C434.756 278.752 436.155 283.24 435.062 287.15C433.951 291.121 430.671 294.077 427.303 296.395C422.107 299.964 416.291 302.553 410.238 304.171C404.867 305.606 396.557 306.481 396.557 306.481C396.557 306.481 394.974 301.119 395.455 293.211C395.814 287.403 396.452 281.543 398.639 276.137C400.205 272.262 402.435 268.501 405.82 266.095C409.206 263.69 413.92 262.912 417.454 265.011C420.979 267.101 423.21 272.332 421.119 275.087Z" fill="#468554"/>
<mask id="mask4_25_835" style="mask-type:alpha" maskUnits="userSpaceOnUse" x="395" y="263" width="41" height="44">
<path d="M421.119 275.087C424.653 273.163 428.563 273.697 431.659 276.225C434.756 278.752 436.155 283.24 435.062 287.15C433.951 291.121 430.671 294.077 427.303 296.395C422.107 299.964 416.291 302.553 410.238 304.171C404.867 305.606 396.557 306.481 396.557 306.481C396.557 306.481 394.974 301.119 395.455 293.211C395.814 287.403 396.452 281.543 398.639 276.137C400.205 272.262 402.435 268.501 405.82 266.095C409.206 263.69 413.92 262.912 417.454 265.011C420.979 267.101 423.21 272.332 421.119 275.087Z" fill="#468554"/>
</mask>
<g mask="url(#mask4_25_835)">
<path d="M423.743 272.551C412.223 283.283 402.4 295.861 394.773 309.655" stroke="#7EBF7E" stroke-width="0.874704" stroke-miterlimit="10"/>
<path d="M419.614 276.644C426.096 275.551 432.814 275.918 439.129 277.72" stroke="#7EBF7E" stroke-width="0.874704" stroke-miterlimit="10"/>
<path d="M415.223 281.288C422.754 282.172 429.945 285.697 435.254 291.129" stroke="#7EBF7E" stroke-width="0.874704" stroke-miterlimit="10"/>
<path d="M410.552 286.511C417.051 290.701 422.501 296.509 426.279 303.271" stroke="#7EBF7E" stroke-width="0.874704" stroke-miterlimit="10"/>
<path d="M405.523 293.131C409.984 297.671 413.01 303.619 414.06 309.917" stroke="#7EBF7E" stroke-width="0.874704" stroke-miterlimit="10"/>
<path d="M400.861 299.894C401.875 303.069 401.919 306.559 400.983 309.76" stroke="#7EBF7E" stroke-width="0.874704" stroke-miterlimit="10"/>
<path d="M419.413 276.748C418.888 273.8 418.355 270.826 417.227 268.054C416.098 265.281 414.314 262.692 411.777 261.117" stroke="#7EBF7E" stroke-width="0.874704" stroke-miterlimit="10"/>
<path d="M415.118 281.314C412.179 274.623 406.809 269.042 400.248 265.858" stroke="#7EBF7E" stroke-width="0.874704" stroke-miterlimit="10"/>
<path d="M410.727 286.878C405.759 281.542 399.129 277.798 392 276.302" stroke="#7EBF7E" stroke-width="0.874704" stroke-miterlimit="10"/>
<path d="M405.497 293.202C400.397 289.913 394.134 288.504 388.116 289.283" stroke="#7EBF7E" stroke-width="0.874704" stroke-miterlimit="10"/>
<path d="M400.878 299.535C397.44 298.686 393.688 299.22 390.618 300.995" stroke="#7EBF7E" stroke-width="0.874704" stroke-miterlimit="10"/>
</g>
<path d="M440.03 344.653C436.557 341.521 432 341.058 427.81 343.052C423.621 345.046 420.813 349.708 420.979 354.414C421.145 359.181 424.049 363.397 427.216 366.923C432.105 372.354 437.974 376.85 444.369 380.323C450.045 383.402 459.186 386.647 459.186 386.647C459.186 386.647 462.44 381.058 464.058 372.031C465.248 365.401 466.122 358.639 465.125 351.965C464.408 347.18 462.921 342.343 459.755 338.713C456.588 335.083 451.471 332.923 446.914 334.314C442.365 335.713 438.412 340.988 440.03 344.653Z" fill="#468554"/>
<mask id="mask5_25_835" style="mask-type:alpha" maskUnits="userSpaceOnUse" x="420" y="333" width="46" height="54">
<path d="M440.03 344.653C436.557 341.521 432 341.058 427.81 343.052C423.621 345.046 420.813 349.708 420.979 354.414C421.145 359.181 424.049 363.397 427.216 366.923C432.105 372.354 437.974 376.85 444.369 380.323C450.045 383.402 459.186 386.647 459.186 386.647C459.186 386.647 462.44 381.058 464.058 372.031C465.248 365.401 466.122 358.639 465.125 351.965C464.408 347.18 462.921 342.343 459.755 338.713C456.588 335.083 451.471 332.923 446.914 334.314C442.365 335.713 438.412 340.988 440.03 344.653Z" fill="#468554"/>
</mask>
<g mask="url(#mask5_25_835)">
<path d="M437.756 341.092C447.832 356.303 455.486 373.124 460.341 390.723" stroke="#7EBF7E" stroke-width="0.874704" stroke-miterlimit="10"/>
<path d="M441.298 346.822C434.283 343.822 426.586 342.405 418.958 342.711" stroke="#7EBF7E" stroke-width="0.874704" stroke-miterlimit="10"/>
<path d="M444.99 353.233C436.243 352.166 427.154 354.178 419.676 358.831" stroke="#7EBF7E" stroke-width="0.874704" stroke-miterlimit="10"/>
<path d="M448.847 360.379C440.362 363.309 432.612 368.356 426.498 374.925" stroke="#7EBF7E" stroke-width="0.874704" stroke-miterlimit="10"/>
<path d="M452.713 369.196C446.433 373.088 441.386 378.949 438.473 385.745" stroke="#7EBF7E" stroke-width="0.874704" stroke-miterlimit="10"/>
<path d="M456.124 378.075C454.104 381.373 453.107 385.283 453.29 389.14" stroke="#7EBF7E" stroke-width="0.874704" stroke-miterlimit="10"/>
<path d="M441.5 346.988C442.899 343.813 444.316 340.62 446.346 337.803C448.375 334.996 451.104 332.564 454.402 331.497" stroke="#7EBF7E" stroke-width="0.874704" stroke-miterlimit="10"/>
<path d="M445.103 353.294C450.255 346.568 457.848 341.757 466.131 339.973" stroke="#7EBF7E" stroke-width="0.874704" stroke-miterlimit="10"/>
<path d="M448.541 360.755C455.617 356.111 464.128 353.714 472.586 353.967" stroke="#7EBF7E" stroke-width="0.874704" stroke-miterlimit="10"/>
<path d="M452.722 369.285C459.379 366.984 466.849 367.107 473.426 369.626" stroke="#7EBF7E" stroke-width="0.874704" stroke-miterlimit="10"/>
<path d="M456.212 377.673C460.323 377.655 464.425 379.282 467.408 382.116" stroke="#7EBF7E" stroke-width="0.874704" stroke-miterlimit="10"/>
</g>
<path d="M444.238 299.403C441.561 296.946 438.053 296.587 434.817 298.153C431.581 299.718 429.42 303.375 429.551 307.066C429.683 310.81 431.913 314.116 434.362 316.88C438.132 321.14 442.654 324.674 447.588 327.394C451.961 329.808 459.011 332.354 459.011 332.354C459.011 332.354 461.522 327.963 462.764 320.886C463.674 315.682 464.356 310.381 463.586 305.142C463.035 301.389 461.889 297.593 459.449 294.741C457.008 291.89 453.063 290.193 449.547 291.286C446.031 292.38 442.987 296.534 444.238 299.403Z" fill="#468554"/>
<mask id="mask6_25_835" style="mask-type:alpha" maskUnits="userSpaceOnUse" x="429" y="290" width="35" height="43">
<path d="M444.238 299.403C441.561 296.946 438.053 296.587 434.817 298.153C431.581 299.718 429.42 303.375 429.551 307.066C429.683 310.81 431.913 314.116 434.362 316.88C438.132 321.14 442.654 324.674 447.588 327.394C451.961 329.808 459.011 332.354 459.011 332.354C459.011 332.354 461.522 327.963 462.764 320.886C463.674 315.682 464.356 310.381 463.586 305.142C463.035 301.389 461.889 297.593 459.449 294.741C457.008 291.89 453.063 290.193 449.547 291.286C446.031 292.38 442.987 296.534 444.238 299.403Z" fill="#468554"/>
</mask>
<g mask="url(#mask6_25_835)">
<path d="M442.479 296.614C450.247 308.553 456.151 321.753 459.895 335.555" stroke="#7EBF7E" stroke-width="0.874704" stroke-miterlimit="10"/>
<path d="M445.208 301.109C439.794 298.756 433.872 297.646 427.985 297.882" stroke="#7EBF7E" stroke-width="0.874704" stroke-miterlimit="10"/>
<path d="M448.06 306.147C441.316 305.316 434.309 306.891 428.545 310.538" stroke="#7EBF7E" stroke-width="0.874704" stroke-miterlimit="10"/>
<path d="M451.025 311.754C444.482 314.055 438.508 318.017 433.793 323.169" stroke="#7EBF7E" stroke-width="0.874704" stroke-miterlimit="10"/>
<path d="M454.017 318.665C449.171 321.718 445.287 326.319 443.039 331.646" stroke="#7EBF7E" stroke-width="0.874704" stroke-miterlimit="10"/>
<path d="M456.64 325.636C455.083 328.225 454.314 331.287 454.454 334.322" stroke="#7EBF7E" stroke-width="0.874704" stroke-miterlimit="10"/>
<path d="M445.366 301.24C446.441 298.747 447.535 296.237 449.101 294.033C450.666 291.828 452.766 289.922 455.311 289.082" stroke="#7EBF7E" stroke-width="0.874704" stroke-miterlimit="10"/>
<path d="M448.139 306.191C452.11 300.917 457.962 297.138 464.347 295.739" stroke="#7EBF7E" stroke-width="0.874704" stroke-miterlimit="10"/>
<path d="M450.797 312.043C456.247 308.404 462.816 306.515 469.332 306.716" stroke="#7EBF7E" stroke-width="0.874704" stroke-miterlimit="10"/>
<path d="M454.016 318.735C459.151 316.924 464.907 317.02 469.98 318.997" stroke="#7EBF7E" stroke-width="0.874704" stroke-miterlimit="10"/>
<path d="M456.702 325.313C459.877 325.304 463.035 326.581 465.335 328.794" stroke="#7EBF7E" stroke-width="0.874704" stroke-miterlimit="10"/>
</g>
</svg>
