<svg width="589" height="462" viewBox="0 0 589 462" fill="none" xmlns="http://www.w3.org/2000/svg">
<path d="M584.349 345.753C582.022 346.61 579.425 346.374 576.94 346.121C566.82 345.106 556.7 344.1 546.588 343.085C545.39 342.963 544.157 342.832 543.133 342.263C541.489 341.336 540.868 339.613 540.841 337.776C540.815 336.665 541.008 335.51 541.323 334.478C541.515 333.831 541.751 333.175 541.961 332.519C542.67 330.376 543.308 328.198 542.6 326.116C549.667 325.749 556.674 325.303 563.619 324.524C564.651 325.136 565.683 325.74 566.706 326.344C572.602 329.807 578.322 333.149 584.034 336.499C585.276 337.216 586.588 338.03 587.367 339.14C587.621 339.508 587.822 339.893 587.944 340.33C588.583 342.569 586.676 344.887 584.349 345.753Z" fill="#535A61"/>
<path d="M584.349 345.753C582.022 346.61 579.425 346.374 576.94 346.121C566.82 345.106 556.7 344.1 546.588 343.085C545.39 342.963 544.157 342.832 543.133 342.263C541.489 341.336 540.868 339.613 540.841 337.776C549.361 340.216 558.292 341.152 567.135 342.062C570.975 342.456 574.859 342.858 578.699 342.377C581.786 341.992 584.883 340.977 587.376 339.132C587.629 339.499 587.83 339.884 587.953 340.321C588.583 342.569 586.676 344.887 584.349 345.753Z" fill="#81898F"/>
<path d="M566.706 326.327C559.341 330.84 550.577 333.01 541.961 332.502C542.669 330.359 543.308 328.181 542.599 326.1C549.667 325.732 556.673 325.286 563.618 324.508C564.651 325.12 565.683 325.732 566.706 326.327Z" fill="#404754"/>
<path d="M480.881 344.005C483.207 344.862 485.805 344.626 488.289 344.372C498.41 343.357 508.53 342.352 518.642 341.337C519.84 341.214 521.073 341.083 522.097 340.515C523.741 339.587 524.362 337.864 524.388 336.027C524.415 334.917 524.222 333.762 523.907 332.73C523.715 332.082 523.479 331.426 523.269 330.77C522.56 328.627 521.922 326.449 522.63 324.368C515.563 324 508.556 323.554 501.611 322.776C500.579 323.388 499.547 323.991 498.523 324.595C492.628 328.059 486.907 331.4 481.195 334.75C479.953 335.468 478.641 336.281 477.863 337.392C477.609 337.759 477.408 338.144 477.286 338.582C476.647 340.821 478.554 343.139 480.881 344.005Z" fill="#535A61"/>
<path d="M480.88 344.004C483.207 344.861 485.805 344.625 488.289 344.372C498.409 343.357 508.53 342.351 518.641 341.336C519.84 341.214 521.073 341.083 522.096 340.514C523.741 339.587 524.362 337.864 524.388 336.027C515.869 338.467 506.938 339.403 498.095 340.313C494.255 340.707 490.371 341.109 486.531 340.628C483.443 340.243 480.347 339.228 477.854 337.383C477.6 337.75 477.399 338.135 477.277 338.572C476.647 340.82 478.554 343.138 480.88 344.004Z" fill="#81898F"/>
<path d="M498.523 324.577C505.888 329.09 514.653 331.259 523.268 330.752C522.56 328.609 521.921 326.431 522.63 324.349C515.562 323.982 508.556 323.536 501.611 322.757C500.579 323.37 499.546 323.982 498.523 324.577Z" fill="#404754"/>
<path d="M519.516 214.828V214.802C519.498 214.557 519.481 214.321 519.463 214.076C519.463 214.041 519.455 213.997 519.455 213.962C519.455 213.997 519.446 214.032 519.446 214.067C517.915 236.696 519.463 270.871 521.169 299.386V299.395C521.807 310.04 523.863 320.545 524.397 328.715C515.527 328.942 506.08 325.522 498.217 322.758C491.482 269.987 490.755 230.057 490.755 175.257C490.755 171.513 491.298 167.813 491.63 164.148C510.952 163.352 530.327 163.702 550.052 166.501C550.367 171.032 550.681 175.528 551.005 179.989C554.548 228.902 560.286 277.16 565.989 324.507C558.528 327.009 549.588 330.167 540.841 331.181C533.73 285.758 526.295 258.144 519.516 214.828Z" fill="#E3405E"/>
<path d="M551.005 179.989C531.018 184.074 509.868 182.438 490.755 175.257C491 171.522 491.298 167.813 491.63 164.148C510.952 163.352 530.327 163.702 550.052 166.501C550.367 171.032 550.681 175.528 551.005 179.989Z" fill="#CC2F56"/>
<path d="M521.169 299.386C506.693 267.766 505.407 206.003 505.407 206.003L519.446 214.068C517.915 236.696 519.463 270.871 521.169 299.386Z" fill="#CC2F56"/>
<path d="M495.925 120.736C484.922 128.294 467.524 137.662 460.876 137.662C453.38 137.662 430.436 122.398 418.514 110.476C421.042 105.648 423.666 102.455 426.299 99.2712C438.702 107.931 447.047 109.567 462.232 113.511C470.419 110.397 474.696 106.085 481.16 100.618C485.105 105.088 492.549 115.908 495.925 120.736Z" fill="#EABFC0"/>
<path d="M508.53 94.9236C507.961 90.3314 507.288 85.9491 505.486 82.0392C498.506 82.3716 491.919 87.13 486.96 91.4073C482 95.6846 477.356 100.434 472.553 104.222C478.571 112.444 485.622 122.66 494.185 127.952C502.031 120.579 510.087 107.633 508.53 94.9236Z" fill="#34384F"/>
<path d="M427.436 101.598C425.923 94.4868 423.885 87.1655 419.047 81.7424C418.4 81.0164 417.683 80.3166 416.782 79.9842C415.872 79.6518 414.735 79.7743 414.114 80.509C413.222 81.5674 413.764 83.1681 414.35 84.4277C415.452 86.7982 416.555 89.1774 417.394 91.1629C414.586 89.1161 411.761 87.0518 408.577 85.6698C407.685 85.2762 406.723 84.935 405.752 85.0488C404.781 85.1625 403.81 85.8535 403.688 86.8244C403.522 88.1452 404.834 89.1161 405.962 89.8334C408.455 91.4253 410.764 93.306 412.968 95.3965C410.58 94.2419 408.105 93.2797 405.568 92.51C404.895 92.3 404.195 92.1076 403.487 92.1688C402.778 92.2301 402.061 92.5887 401.755 93.2272C401.212 94.3643 402.183 95.6064 403.417 96.8223C402.629 96.6736 401.842 97.3383 401.685 98.1256C401.527 98.9128 401.886 99.735 402.428 100.33C402.97 100.925 403.679 101.327 404.379 101.729C407.073 103.26 409.767 104.791 412.102 106.094C413.677 110.144 417.604 113.179 421.89 113.494C423.963 109.715 426.045 105.963 427.436 101.598Z" fill="#EABFC0"/>
<path d="M403.994 97.391C407.239 98.222 410.265 99.8926 412.697 102.193" stroke="#6E2949" stroke-width="0.874704" stroke-miterlimit="10" stroke-linecap="round"/>
<path d="M426.01 101.948C424.961 97.9419 422.975 94.1806 420.237 91.0754C419.756 90.5244 419.231 89.9821 418.566 89.6847C417.902 89.3873 417.053 89.3873 416.493 89.8683C415.549 90.6818 415.96 92.2038 416.476 93.3409C417.149 94.8104 417.875 96.2537 418.951 98.0031C417.088 100.653 419.074 106.951 419.153 106.943" fill="#EABFC0"/>
<path d="M426.01 101.948C424.961 97.9419 422.975 94.1806 420.237 91.0754C419.756 90.5244 419.231 89.9821 418.566 89.6847C417.902 89.3873 417.053 89.3873 416.493 89.8683C415.549 90.6818 415.96 92.2038 416.476 93.3409C417.149 94.8104 417.875 96.2537 418.951 98.0031C417.088 100.653 419.074 106.951 419.153 106.943" stroke="#6E2949" stroke-width="0.874704" stroke-miterlimit="10" stroke-linecap="round"/>
<path d="M551.757 172.605C533.712 178.396 508.547 178.571 490.458 173.191C490.563 168.582 490.633 163.395 490.721 157.902C491.149 129.911 491.893 93.9257 498.418 85.5198C500.255 83.1581 504.698 81.8636 510.331 81.3912C519.472 80.639 531.727 82.056 541.042 84.5664C547.777 86.3858 552.982 88.7912 554.338 91.3628C557.513 97.3721 553.682 124.532 550.585 137.661C550.542 137.862 550.489 138.055 550.445 138.247C547.681 149.671 549.299 162.284 551.757 172.605Z" fill="#40455A"/>
<path d="M541.042 84.5665C536.494 89.4386 531.254 93.6459 525.516 97.0485C523.093 98.4918 520.251 99.8213 517.539 99.0254C514.941 98.2556 513.271 95.719 512.23 93.2086C510.69 89.4911 510.043 85.4062 510.332 81.3913C519.472 80.6391 531.727 82.0561 541.042 84.5665Z" fill="#575F73"/>
<path d="M551.757 172.605C533.712 178.395 508.547 178.57 490.458 173.191C490.563 168.581 490.633 163.394 490.72 157.901C495.575 160.543 500.867 162.353 506.325 163.193C517.11 164.846 528.446 162.677 537.858 157.166C526.531 160.858 516.655 159.379 509.29 154.166C519.612 155.137 531.175 152.128 540.71 145.944C544.322 143.6 547.646 140.809 550.585 137.661C550.541 137.862 550.489 138.054 550.445 138.247C547.681 149.67 549.299 162.283 551.757 172.605Z" fill="#34384F"/>
<path d="M536.477 84.4177C533.844 88.5988 522.49 96.9785 518.886 95.9114C516.271 95.1329 514.399 92.7449 513.507 90.1733C512.624 87.5929 512.58 84.8201 512.536 82.0998C513.236 81.435 513.866 80.6215 514.382 79.6943C515.834 77.1665 516.516 73.8601 515.877 70.7811C522.648 67.8334 529.234 65.0955 535.602 61.9116C534.841 65.5504 534.482 69.1017 534.535 72.5568C534.587 76.6679 535.235 80.639 536.477 84.4177Z" fill="#FFDCDD"/>
<path d="M535.602 61.9117C534.841 65.5505 534.482 69.1018 534.535 72.5569C525.779 80.5692 517.014 84.2779 514.381 79.6945C515.833 77.1666 516.516 73.8602 515.877 70.7812C522.647 67.8335 529.234 65.0957 535.602 61.9117Z" fill="#EABFC0"/>
<path d="M500.524 50.2633C496.243 49.123 492.131 50.6092 491.339 53.5827C490.547 56.5563 493.375 59.8912 497.655 61.0315C501.936 62.1717 506.048 60.6855 506.84 57.712C507.632 54.7384 504.804 51.4035 500.524 50.2633Z" fill="#EABFC0"/>
<path d="M542.897 49.5164C543.982 34.0166 534.605 20.7299 521.957 19.8464C509.3 18.9542 498.165 30.8065 497.071 46.3062C495.987 61.806 502.827 75.0752 515.484 75.9674C528.141 76.8596 541.812 65.0161 542.897 49.5164Z" fill="#FFDCDD"/>
<path d="M539.713 46.3756C537.666 43.6816 535.086 41.4073 532.269 40.034C530.109 41.0312 527.633 41.3024 525.306 40.8125C522.98 40.3139 520.828 39.0544 519.236 37.1738C517.163 39.0719 513.962 39.6142 511.381 38.5208C508.801 37.4274 506.973 34.7421 507.034 31.7593C506.168 33.0539 505.661 34.5496 505.118 36.0104C504.576 37.4712 503.972 38.9494 502.949 40.1215C501.926 41.2936 500.404 42.1421 498.934 41.731C497.797 44.2501 497.158 46.9967 496.844 49.9707C495.365 44.1452 496.126 37.7861 498.934 32.4679C500.264 29.9575 502.066 27.6395 504.454 26.1C506.771 24.613 509.518 23.9307 512.247 23.5809C518.195 22.8199 524.327 23.5459 529.934 25.6889C533.301 26.966 536.529 28.8028 538.899 31.5057C541.27 34.2085 542.696 37.891 542.144 41.4423" fill="#EABFC0"/>
<path d="M517.408 47.3125C519.017 46.3328 520.994 45.9654 522.849 46.2978C524.703 46.6302 526.426 47.6536 527.817 49.3155C527.161 47.986 526.382 46.6914 525.289 45.6943C524.196 44.6971 522.735 44.0236 521.265 44.1286C519.787 44.2423 518.344 45.2394 517.408 47.3125Z" fill="#FCB735"/>
<path d="M498.689 48.4759C499.791 47.1114 501.392 46.3329 502.967 46.3941C504.55 46.4554 506.098 47.3475 506.929 48.4409C506.229 47.0939 505.372 45.8081 504.244 44.9771C503.115 44.1461 501.663 43.8312 500.439 44.4523C499.223 45.0821 498.374 46.7877 498.689 48.4759Z" fill="#FCB735"/>
<path d="M519.627 52.917C518.845 52.9126 518.205 53.8881 518.198 55.0958C518.191 56.3035 518.82 57.2861 519.603 57.2905C520.386 57.2949 521.025 56.3194 521.032 55.1117C521.039 53.904 520.41 52.9214 519.627 52.917Z" fill="#2C3C4D"/>
<path d="M502.661 52.8223C501.878 52.8179 501.239 53.7934 501.232 55.0011C501.225 56.2088 501.854 57.1914 502.637 57.1958C503.419 57.2002 504.059 56.2247 504.066 55.017C504.073 53.8093 503.444 52.8267 502.661 52.8223Z" fill="#2C3C4D"/>
<path d="M508.539 55.0448C508.197 56.5843 508.407 58.2462 509.125 59.6457" stroke="#6E2949" stroke-width="0.874704" stroke-miterlimit="10" stroke-linecap="round"/>
<path d="M510.218 63.4849C513.428 63.2312 516.577 62.2691 519.359 60.7996C520.548 62.4003 520.531 64.6832 519.306 66.2665C518.09 67.8409 515.755 68.6019 513.743 68.0683C511.74 67.5348 510.192 65.7504 510.218 63.4849Z" fill="white"/>
<path d="M550.524 38.9944C549.868 41.6623 549.037 44.5663 546.955 46.2545C544.637 48.1263 542.136 49.7708 539.494 51.1441C538.751 46.3682 536.336 41.706 532.733 38.2597C527.799 39.7992 522.201 38.4084 519.166 34.6734C517.574 36.6152 515.195 37.4375 513.174 36.7989C511.39 36.2479 510.06 34.7346 509.133 33.1077C508.206 31.4807 507.594 29.6876 507.016 28.1306C504.384 30.6148 503.456 34.341 502.17 37.7174C501.821 38.6446 501.392 39.6067 500.57 40.149C499.739 40.6826 498.409 40.5514 498.453 39.6592C497.062 43.6654 497.158 47.724 497.158 52.911C494.84 49.281 493.808 44.2077 494.727 40.0091C494.613 40.0091 492.566 38.802 492.234 37.42C492.19 37.2363 492.155 37.0438 492.129 36.8514C491.98 35.6006 492.33 34.306 492.837 33.1252C493.45 31.7519 494.517 30.3261 495.838 29.8013C494.394 28.6904 494.071 26.5124 494.788 24.833C495.514 23.1623 497.088 21.9727 498.785 21.3167C500.491 20.6607 502.328 20.4595 505.022 20.1708C506.159 16.8819 508.871 14.2928 511.976 12.7096C515.09 11.1351 518.58 10.4791 522.053 10.1467C523.347 10.0243 524.694 9.94553 525.919 10.3829C527.152 10.8202 528.237 11.9049 527.668 13.2519C530.458 13.2432 533.275 13.2519 535.987 13.8904C538.173 14.4065 540.308 15.3862 541.917 16.9082C542.311 17.2843 542.678 17.6954 543.002 18.1328C544.664 20.372 545.153 23.5909 544.253 25.6115C546.929 26.2238 549.107 28.3668 550.148 30.9034C551.189 33.4488 551.18 36.3266 550.524 38.9944Z" fill="#FCB735"/>
<path d="M541.917 16.9082C536.441 14.0829 529.619 13.733 523.828 16.3221C524.563 15.115 523.645 13.4356 522.332 12.9195C521.02 12.3947 519.525 12.7096 518.178 13.1382C513.218 14.7389 508.661 18.0453 506.255 22.6812C504.707 22.3488 503.098 22.1651 501.549 22.445C499.993 22.7337 498.488 23.5472 497.64 24.8855C496.782 26.215 496.73 28.0869 498.296 29.4514C495.33 30.9209 493.117 33.7025 492.129 36.8514C491.98 35.6006 492.33 34.306 492.837 33.1252C493.45 31.7519 494.517 30.3261 495.838 29.8013C494.394 28.6904 494.071 26.5124 494.788 24.833C495.514 23.1623 497.088 21.9727 498.785 21.3167C500.491 20.6607 502.328 20.4595 505.022 20.1708C506.159 16.8819 508.871 14.2928 511.976 12.7096C515.09 11.1351 518.58 10.4791 522.053 10.1467C523.347 10.0243 524.694 9.94553 525.919 10.3829C527.152 10.8202 528.237 11.9049 527.668 13.2519C530.458 13.2432 533.275 13.2519 535.987 13.8904C538.173 14.4065 540.308 15.3862 541.917 16.9082Z" fill="#FFD261"/>
<path d="M550.014 48.2259C548.414 45.3682 544.141 44.7177 540.47 46.7729C536.799 48.8281 535.121 52.8108 536.721 55.6685C538.321 58.5262 542.594 59.1768 546.264 57.1216C549.935 55.0664 551.614 51.0837 550.014 48.2259Z" fill="#FFDCDD"/>
<path d="M556.157 124.349C555.973 124.682 555.781 125.032 555.588 125.364C552.877 130.245 550.104 135.073 547.156 139.114C544.348 142.981 541.401 146.121 538.182 147.923C531.123 151.885 504.777 151.255 490.449 149.287C489.181 145.211 489.198 142.429 489.041 138.248C503.832 136.928 513.34 132.239 527.536 130.367C528.254 128.609 528.98 126.816 529.697 124.997C531.385 120.798 533.073 116.468 534.674 112.13C535.916 108.806 537.088 105.465 538.164 102.167C545.818 108.15 551.88 114.185 556.157 124.349Z" fill="#FFDCDD"/>
<path d="M555.589 125.364C549.054 120.186 542.241 115.235 534.683 112.13C533.082 116.468 531.385 120.798 529.706 124.997C534.491 130.91 540.5 135.808 547.156 139.123" fill="#EABFC0"/>
<path d="M553.682 137.216C567.082 105.246 556.831 89.8683 550.183 86.9205C545.162 84.6988 538.847 86.7456 536.485 91.7051C534.15 96.6122 530.712 118.637 529.173 123.046C538.891 128.408 543.903 132.886 553.682 137.216Z" fill="#575F73"/>
<path d="M422.616 170.742C418.899 172.999 415.041 173.244 413.991 171.285C413.886 171.092 413.825 170.9 413.782 170.681C413.388 168.678 415.478 165.704 418.837 163.657C421.033 162.328 423.281 161.698 424.969 161.812C426.132 161.882 427.025 162.319 427.453 163.115C428.503 165.074 426.325 168.494 422.616 170.742Z" fill="#E69749"/>
<path d="M424.969 161.821C425.511 163.5 423.263 166.465 419.721 168.609C417.551 169.921 415.382 170.638 413.782 170.682C413.388 168.678 415.478 165.704 418.837 163.658C421.033 162.337 423.281 161.707 424.969 161.821Z" fill="#EDAD5A"/>
<path d="M424.322 169.545L424.602 165.337L452.925 167.139L452.636 171.347L424.322 169.545Z" fill="#E69749"/>
<path d="M428.03 168.267L426.062 166.684L443.373 142.665L445.341 144.248L428.03 168.267Z" fill="#E69749"/>
<path d="M476.471 162.162L475.387 159.232L486.207 154.64C487.108 154.255 487.781 153.581 488 152.82C488.131 152.366 488.079 151.946 487.834 151.57L477.022 134.985C476.375 133.997 474.871 133.559 473.366 133.927L464.777 136.009L464.138 132.93L472.728 130.848C475.43 130.192 478.151 131.128 479.489 133.175L490.3 149.759C491.061 150.922 491.263 152.331 490.851 153.721C490.362 155.418 489.058 156.818 487.291 157.57L476.471 162.162Z" fill="#E69749"/>
<path d="M477.74 170.236L450.607 177.067C447.816 177.767 445.105 176.07 444.492 173.324C444.457 173.157 444.422 173.009 444.405 172.834L438.466 126.448L466.561 118.996L481.554 163.308C482.533 166.247 480.749 169.475 477.74 170.236Z" fill="#E69749"/>
<path d="M473.008 166.344L445.874 173.175C445.411 173.289 444.947 173.341 444.492 173.324C444.457 173.158 444.422 173.009 444.405 172.834L438.466 126.448L463.421 119.827L476.813 159.416C477.801 162.355 476.017 165.583 473.008 166.344Z" fill="#EDAD5A"/>
<path d="M493.826 138.396C492.138 135.746 489.671 130.043 486.05 128.888C482.944 127.9 479.655 129.011 477.023 131.075C477.74 131.687 477.994 132.081 478.588 133.113C476.41 134.084 474.162 135.098 472.562 136.813C472.019 137.39 471.547 138.09 471.512 138.86C471.46 140.076 472.728 141.178 474.18 141.108C474.031 141.939 474.32 142.822 474.923 143.434C475.527 144.038 476.445 144.362 477.513 144.44C477.416 145.376 477.836 146.347 478.597 146.933C479.358 147.528 480.443 147.72 481.816 147.738C481.247 148.621 481.589 149.846 482.393 150.52C483.207 151.193 484.37 151.377 485.446 151.237C486.522 151.097 487.537 150.677 488.525 150.24C489.513 149.811 490.511 149.365 491.761 149.129C492.706 144.335 493.432 143.618 493.826 138.396Z" fill="#FFDCDD"/>
<path d="M286.836 180.95C307.208 150.519 312.797 111.227 301.671 76.6065C290.545 41.9858 262.921 12.6832 230.601 0C226.717 32.9588 222.86 66.5387 229.403 99.1126C235.937 131.669 254.638 163.657 286.836 180.95Z" fill="#C2CD61"/>
<path d="M288.988 229.986C289.915 162.476 274.783 85.3712 235.5 9.84058" stroke="#62663A" stroke-width="1.74941" stroke-miterlimit="10" stroke-linecap="round"/>
<mask id="mask0_25_840" style="mask-type:alpha" maskUnits="userSpaceOnUse" x="225" y="0" width="83" height="181">
<path d="M286.836 180.95C307.208 150.519 312.797 111.227 301.671 76.6065C290.545 41.9858 262.921 12.6832 230.601 0C226.717 32.9588 222.86 66.5387 229.403 99.1126C235.937 131.669 254.638 163.657 286.836 180.95Z" fill="#B0BA59"/>
</mask>
<g mask="url(#mask0_25_840)">
<path d="M256.51 7.00623C252.032 13.3478 247.562 19.6807 243.083 26.0223C233.829 23.9317 223.954 24.5003 215.032 27.6405" stroke="#E7ED74" stroke-width="0.874704" stroke-miterlimit="10"/>
<path d="M216.484 34.226C225.992 30.0537 237.231 29.73 246.906 33.9723C252.985 25.4877 261.443 18.6038 271.135 14.2653" stroke="#E7ED74" stroke-width="0.874704" stroke-miterlimit="10"/>
<path d="M216.484 60.0043C230.251 56.4967 244.955 56.4618 258.522 60.7128C264.758 48.0384 275.605 37.5419 288.699 31.5065" stroke="#E7ED74" stroke-width="0.874704" stroke-miterlimit="10"/>
<path d="M297.429 45.6245C283.696 52.8058 272.132 63.8271 263.586 77.8398C250.308 72.9677 235.036 73.4488 222.117 79.1432" stroke="#E7ED74" stroke-width="0.874704" stroke-miterlimit="10"/>
<path d="M218.163 104.719C236.199 101.308 254.962 101.535 273.024 105.812C280.109 89.1318 292.714 74.6992 308.537 65.1649" stroke="#E7ED74" stroke-width="0.874704" stroke-miterlimit="10"/>
<path d="M310.4 69.2769C294.323 79.056 281.395 93.6199 273.383 110.528C255.749 107.318 237.083 109.723 220.927 117.281" stroke="#E7ED74" stroke-width="0.874704" stroke-miterlimit="10"/>
<path d="M226.875 142.454C243.897 135.841 263.14 134.757 280.468 139.585C288.227 120.018 301.286 102.445 317.993 89.1145" stroke="#E7ED74" stroke-width="0.874704" stroke-miterlimit="10"/>
<path d="M330.729 102.261C311.205 114.28 294.735 130.908 283.014 150.877C266.149 145.271 246.915 146.731 231.161 154.822" stroke="#E7ED74" stroke-width="0.874704" stroke-miterlimit="10"/>
<path d="M248.542 172.246C260.315 168.047 273.637 168.056 286.871 172.753C293.449 162.449 305.362 155.513 317.853 154.717" stroke="#E7ED74" stroke-width="0.874704" stroke-miterlimit="10"/>
<path d="M288.988 229.986C289.915 162.476 274.783 85.3712 235.5 9.84058" stroke="#62663A" stroke-width="1.74941" stroke-miterlimit="10" stroke-linecap="round"/>
</g>
<path d="M299.196 181.72C288.341 154.648 289.626 123.237 302.677 97.092C315.728 70.9472 340.324 50.4266 368.087 42.5455C369.653 94.8441 345.87 147.335 299.196 181.72Z" fill="#CDDC71"/>
<path d="M298.819 245.933C288.349 152.628 329.714 91.0664 359.428 55.8683" stroke="#62663A" stroke-width="1.74941" stroke-miterlimit="10" stroke-linecap="round"/>
<mask id="mask1_25_840" style="mask-type:alpha" maskUnits="userSpaceOnUse" x="291" y="42" width="78" height="140">
<path d="M299.196 181.72C288.341 154.648 289.626 123.237 302.677 97.092C315.728 70.9472 340.324 50.4266 368.087 42.5455C369.653 94.8441 345.87 147.335 299.196 181.72Z" fill="#CACF6B"/>
</mask>
<g mask="url(#mask1_25_840)">
<path d="M337.595 47.9264C342.222 55.1602 345.756 63.05 347.112 71.5171C357.049 69.3216 367.291 68.3857 377.482 68.7443" stroke="#FFFF91" stroke-width="0.874704" stroke-miterlimit="10"/>
<path d="M319.804 63.1276C327.335 70.3176 333.02 79.3008 335.758 89.946C347.129 87.3569 358.877 86.316 370.536 86.8845" stroke="#FFFF91" stroke-width="0.874704" stroke-miterlimit="10"/>
<path d="M370.055 92.9033C356.393 92.8858 342.721 94.8101 329.119 98.7375C323.084 91.3813 315.666 85.1009 307.33 80.29" stroke="#FFFF91" stroke-width="0.874704" stroke-miterlimit="10"/>
<path d="M286.39 106.469C295.994 116.056 304.252 126.902 310.532 138.938C326.749 131.958 344.689 128.774 362.411 129.736" stroke="#FFFF91" stroke-width="0.874704" stroke-miterlimit="10"/>
<path d="M354.057 136.595C337.639 136.848 321.299 140.846 306.981 147.791C301.794 140.54 295.321 134.154 287.947 128.985" stroke="#FFFF91" stroke-width="0.874704" stroke-miterlimit="10"/>
<path d="M281.238 153.678C288.83 156.713 295.881 160.999 302.616 167.131C313.191 162.626 325.428 161.891 336.502 165.084" stroke="#FFFF91" stroke-width="0.874704" stroke-miterlimit="10"/>
<path d="M298.819 245.933C288.349 152.628 329.714 91.0664 359.428 55.8683" stroke="#62663A" stroke-width="1.74941" stroke-miterlimit="10" stroke-linecap="round"/>
</g>
<path d="M265.45 186.872C274.914 161.776 266.648 132.552 249.032 111.988C231.415 91.4239 205.716 78.627 180 71.7256C183.63 95.9724 188.406 120.683 201.316 141.746C214.227 162.817 236.917 179.813 265.45 186.872Z" fill="#CDDC71"/>
<path d="M277.704 221.423C268.826 180.417 234.442 118.129 186.21 77.6567" stroke="#62663A" stroke-width="1.74941" stroke-miterlimit="10" stroke-linecap="round"/>
<mask id="mask2_25_840" style="mask-type:alpha" maskUnits="userSpaceOnUse" x="180" y="71" width="90" height="116">
<path d="M265.45 186.872C274.914 161.776 266.648 132.552 249.032 111.988C231.415 91.4239 205.716 78.627 180 71.7256C183.63 95.9724 188.406 120.683 201.316 141.746C214.227 162.817 236.917 179.813 265.45 186.872Z" fill="#CACF6B"/>
</mask>
<g mask="url(#mask2_25_840)">
<path d="M210.212 71.1145C206.416 77.3162 203.354 83.9377 201.115 90.8041C192.919 92.501 185.196 96.2797 178.924 101.659" stroke="#FFFF91" stroke-width="0.874704" stroke-miterlimit="10"/>
<path d="M178.32 112.33C186.42 105.114 196.514 100.023 207.256 97.7316C208.078 88.3198 214.061 79.4766 222.65 74.9806" stroke="#FFFF91" stroke-width="0.874704" stroke-miterlimit="10"/>
<path d="M250.195 84.9604C238.736 94.416 230.706 107.677 227.776 121.969C213.387 119.074 197.966 121.278 185.056 128.066" stroke="#FFFF91" stroke-width="0.874704" stroke-miterlimit="10"/>
<path d="M188.817 144.957C203.792 135.597 223.158 133.131 240.083 138.606C243.267 125.932 252.391 114.779 264.4 108.875" stroke="#FFFF91" stroke-width="0.874704" stroke-miterlimit="10"/>
<path d="M281.028 133.857C268.59 138.056 257.708 146.479 250.746 157.308C235.465 154.902 219.239 158.786 206.871 167.796" stroke="#FFFF91" stroke-width="0.874704" stroke-miterlimit="10"/>
<path d="M205.191 173.096C220.63 165.233 238.386 161.681 257.026 163.65C262.371 154.308 271.774 147.231 282.437 144.502" stroke="#FFFF91" stroke-width="0.874704" stroke-miterlimit="10"/>
<path d="M280.101 162.372C272.412 165.163 265.712 170.428 261.295 177.12C248.638 175.799 235.491 179.683 225.747 187.608" stroke="#FFFF91" stroke-width="0.874704" stroke-miterlimit="10"/>
<path d="M277.704 221.423C268.826 180.417 234.442 118.129 186.21 77.6567" stroke="#62663A" stroke-width="1.74941" stroke-miterlimit="10" stroke-linecap="round"/>
</g>
<path d="M340.211 195.375L319.445 336.753L310.724 336.692L287.86 336.552L256.265 336.753L236.864 204.655L235.5 195.375H340.211Z" fill="#887360"/>
<path d="M330.116 204.655L310.724 336.692L287.859 336.552L256.265 336.753L236.864 204.655H330.116Z" fill="#645649"/>
<path d="M399.157 294.18C392.946 286.448 390.462 275.724 392.631 265.962C393.244 263.216 394.197 260.408 393.629 257.653C392.693 253.122 388.057 250.428 386.124 246.238C384.742 243.237 384.882 239.774 385.109 236.467C385.336 233.161 385.607 229.732 384.444 226.636C383.29 223.539 380.228 220.915 377.035 221.492C386.5 219.515 396.917 225.901 399.69 235.374C400.819 239.223 400.81 243.404 402.428 247.06C405.253 253.463 412.741 257.758 412.907 264.781C412.968 267.51 411.849 270.108 411.28 272.776C410.327 277.22 410.921 281.899 409.959 286.334C409.006 290.769 405.612 295.3 399.157 294.18Z" fill="#A0B327"/>
<path d="M389.054 229.181C392.614 230.196 394.276 234.429 394.582 238.199C394.888 241.969 394.398 245.931 395.842 249.413C397.888 254.355 403.583 257.714 403.661 263.084C403.696 265.778 402.227 268.306 402.271 271C402.314 273.668 403.819 276.03 404.842 278.479C407.379 284.541 406.95 291.827 403.723 297.53" stroke="#6A8F1F" stroke-width="0.874704" stroke-miterlimit="10" stroke-linecap="round"/>
<path d="M396.629 231.875C395.955 233.826 395.29 235.767 394.687 237.631C392.763 237.272 390.829 236.922 388.905 236.563" stroke="#6A8F1F" stroke-width="0.874704" stroke-miterlimit="10" stroke-linecap="round"/>
<path d="M388.993 248.565C391.617 248.801 394.206 249.352 396.471 250.463C397.504 248.46 398.824 246.614 400.39 245.013" stroke="#6A8F1F" stroke-width="0.874704" stroke-miterlimit="10" stroke-linecap="round"/>
<path d="M406.513 255.325C405.07 256.751 403.845 258.404 402.559 260.25C400.652 259.585 398.623 259.314 396.62 259.445" stroke="#6A8F1F" stroke-width="0.874704" stroke-miterlimit="10" stroke-linecap="round"/>
<path d="M396.419 270.52C398.317 271.202 400.294 271.674 402.682 271.622C404.029 269.846 405.524 268.184 407.143 266.662" stroke="#6A8F1F" stroke-width="0.874704" stroke-miterlimit="10" stroke-linecap="round"/>
<path d="M410.335 276.336C408.691 277.683 407.204 279.24 405.708 281.366C403.408 280.823 401.02 280.666 398.667 280.885" stroke="#6A8F1F" stroke-width="0.874704" stroke-miterlimit="10" stroke-linecap="round"/>
<path d="M408.752 297.68C405.577 294.609 404.947 289.667 405.323 285.206C405.7 280.754 406.88 276.337 406.566 271.876C406.329 268.508 405.253 265.036 406.321 261.843C407.589 258.055 411.42 255.93 413.922 252.851C416.345 249.868 417.473 246.02 419.432 242.704C421.392 239.389 424.829 236.389 428.573 237.01C425.319 238.637 424.453 243.002 424.742 246.693C425.039 250.384 426.071 254.163 425.074 257.723C423.85 262.088 419.782 265.193 418.741 269.61C417.779 273.686 419.616 277.92 419.406 282.119C419.074 288.88 413.703 294.076 408.752 297.68Z" fill="#CACC34"/>
<path d="M422.546 243.859C420.438 244.83 419.703 247.533 419.721 249.895C419.747 252.256 420.272 254.67 419.651 256.953C418.348 261.808 412.461 264.178 411.053 269.007C409.522 274.238 413.939 279.739 412.776 285.066C412.312 287.183 411.009 288.994 410.02 290.918C409.032 292.843 408.341 295.16 409.181 297.164" stroke="#95B332" stroke-width="0.874704" stroke-miterlimit="10" stroke-linecap="round"/>
<path d="M423.762 250.087C422.354 250.533 421.033 251.286 419.703 252.221C419.047 251.495 418.199 250.953 417.281 250.664" stroke="#95B332" stroke-width="0.874704" stroke-miterlimit="10" stroke-linecap="round"/>
<path d="M412.277 256.91C414.324 257.802 416.073 259.377 417.114 261.24C419.03 260.645 421.033 260.357 423.036 260.374" stroke="#95B332" stroke-width="0.874704" stroke-miterlimit="10" stroke-linecap="round"/>
<path d="M418.015 267.87C415.514 268.027 413.038 268.639 410.738 269.672C409.959 268.674 409.006 267.817 407.921 267.179" stroke="#95B332" stroke-width="0.874704" stroke-miterlimit="10" stroke-linecap="round"/>
<path d="M407.633 278.261C409.592 278.296 411.525 279.223 412.811 280.737C414.446 279.372 416.519 278.559 418.628 278.462" stroke="#95B332" stroke-width="0.874704" stroke-miterlimit="10" stroke-linecap="round"/>
<path d="M407.064 287.848C408.061 288.574 408.971 289.431 409.854 290.621C411.315 289.947 412.933 289.624 414.534 289.702" stroke="#95B332" stroke-width="0.874704" stroke-miterlimit="10" stroke-linecap="round"/>
<path d="M403.285 297.767C406.128 294.898 405.463 289.99 403.74 286.299C402.017 282.608 399.428 279.205 398.912 275.155C398.614 272.785 399.052 270.38 398.999 267.992C398.947 265.604 398.238 262.997 396.296 261.676C394.486 260.443 392.124 260.644 389.999 260.146C385.625 259.122 382.572 255.238 379.117 252.308C375.662 249.378 370.362 247.357 366.434 250.83C368.892 251.853 369.732 254.976 369.854 257.688C369.977 260.399 369.758 263.338 371.236 265.595C373.843 269.592 380.421 269.435 382.564 273.712C384.339 277.246 382.048 282.066 384.304 285.302C386.29 288.154 390.786 288.18 392.684 291.093C393.681 292.623 393.856 294.836 395.404 295.772C396.428 296.385 397.705 296.21 398.886 296.315C400.075 296.437 401.44 297.111 403.285 297.767Z" fill="#CACC34"/>
<path d="M373.274 254.198C375.995 254.337 377.84 257.11 378.785 259.726C379.73 262.35 380.333 265.289 382.362 267.152C384.654 269.251 388.363 269.566 390.042 272.208C391.267 274.141 390.961 276.66 391.451 278.908C392.238 282.538 395.037 285.293 397.53 288.005C400.023 290.716 402.454 294.014 402.218 297.723" stroke="#95B332" stroke-width="0.874704" stroke-miterlimit="10" stroke-linecap="round"/>
<path d="M380.123 254.802C379.432 256.017 378.96 257.364 378.864 258.51C377.499 258.808 376.126 259.114 374.761 259.411C374.796 259.525 374.823 259.647 374.858 259.761" stroke="#95B332" stroke-width="0.874704" stroke-miterlimit="10" stroke-linecap="round"/>
<path d="M375.391 268.114C377.412 267.126 379.695 266.732 381.943 267.003C383.106 264.694 384.969 262.77 387.208 261.554" stroke="#95B332" stroke-width="0.874704" stroke-miterlimit="10" stroke-linecap="round"/>
<path d="M396.052 265.376C393.699 267.415 391.713 269.907 390.235 272.575C388.302 272.768 386.404 273.31 384.646 274.15" stroke="#95B332" stroke-width="0.874704" stroke-miterlimit="10" stroke-linecap="round"/>
<path d="M387.313 286.08C389.474 285.013 391.932 284.567 394.512 284.943C395.089 283.054 396.358 281.401 398.011 280.369" stroke="#95B332" stroke-width="0.874704" stroke-miterlimit="10" stroke-linecap="round"/>
<path d="M402.682 287.436C401.833 288.678 400.976 289.92 400.25 291.241C398.702 291.215 397.145 291.591 395.789 292.343" stroke="#95B332" stroke-width="0.874704" stroke-miterlimit="10" stroke-linecap="round"/>
<path d="M432.798 290.488C432.728 291.459 432.623 292.395 432.483 293.287C432.159 295.36 431.643 297.258 430.952 298.973C426.894 309.154 416.852 313.231 404.79 313.231C392.719 313.231 382.135 309.146 377.875 298.973C377.14 297.258 376.607 295.36 376.275 293.287C376.126 292.395 376.021 291.459 375.951 290.488H432.798Z" fill="#FA987D"/>
<path d="M432.474 293.279C432.151 295.352 431.635 297.25 430.944 298.965H377.867C377.132 297.25 376.598 295.352 376.266 293.279H432.474Z" fill="#FAB693"/>
<path d="M367.659 128.408C367.633 124.253 369.198 120.116 371.962 117.019C374.726 113.923 378.663 111.902 382.791 111.456C380.447 118.463 374.998 124.358 367.659 128.408Z" fill="#739E3E"/>
<path d="M375.129 139.691C376.747 135.632 379.861 132.195 383.736 130.201C387.611 128.206 392.22 127.646 397.023 128.521C391.285 134.565 383.473 138.598 375.129 139.691Z" fill="#739E3E"/>
<path d="M370.974 138.406C367.711 136.927 363.801 136.945 360.548 138.458C357.294 139.971 354.757 142.937 353.786 146.392C357.075 146.007 360.39 145.613 363.513 144.511C366.627 143.4 369.575 141.511 370.974 138.406Z" fill="#739E3E"/>
<path d="M361.335 126.44C357.871 124.463 353.358 125.145 349.964 127.245C346.57 129.344 344.129 132.659 342.03 136.053C349.159 136.07 356.244 133 361.335 126.44Z" fill="#96BF54"/>
<path d="M353.541 117.02C352.185 116.67 351.101 115.603 350.401 114.387C349.701 113.171 349.343 111.798 348.993 110.442C348.293 107.757 347.593 105.071 346.893 102.395C349.43 103.987 351.984 105.701 353.751 108.133C355.509 110.556 356.358 113.853 353.541 117.02Z" fill="#BDDE71"/>
<path d="M350.943 118.323C347.812 117.239 344.287 117.326 341.217 118.586C338.146 119.845 335.566 122.251 334.097 125.216C339.861 125.653 345.783 123.642 350.943 118.323Z" fill="#96BF54"/>
<path d="M349.098 115.155C347.252 111.692 343.972 109.024 340.211 107.913C336.45 106.802 332.242 107.266 328.813 109.173C332.102 110.572 334.98 112.794 338.208 114.325C341.435 115.846 345.345 116.625 349.098 115.155Z" fill="#BDDE71"/>
<path d="M362.21 121.927C359.043 113.608 361.239 103.505 367.589 97.26C367.878 101.651 368.158 106.077 367.642 110.442C367.117 114.824 365.752 119.189 362.21 121.927Z" fill="#96BF54"/>
<path d="M377.779 151.335C372.365 134.015 359.008 119.355 342.266 112.358" stroke="#246E2D" stroke-width="0.437352" stroke-miterlimit="10" stroke-linecap="round"/>
<path d="M354.101 118.743C353.795 116.145 352.763 113.626 351.153 111.571" stroke="#246E2D" stroke-width="0.437352" stroke-miterlimit="10" stroke-linecap="round"/>
<path d="M352.64 118.008C349.631 119.092 346.465 119.696 343.272 119.801" stroke="#246E2D" stroke-width="0.437352" stroke-miterlimit="10" stroke-linecap="round"/>
<path d="M362.892 126.502C357.915 126.344 352.894 127.893 348.862 130.823" stroke="#246E2D" stroke-width="0.437352" stroke-miterlimit="10" stroke-linecap="round"/>
<path d="M366.863 131.042C368.052 126.598 370.449 122.487 373.729 119.26" stroke="#246E2D" stroke-width="0.437352" stroke-miterlimit="10" stroke-linecap="round"/>
<path d="M373.966 141.223C377.526 136.902 382.406 133.675 387.777 132.092" stroke="#246E2D" stroke-width="0.437352" stroke-miterlimit="10" stroke-linecap="round"/>
<path d="M372.557 139.202C370.467 138.817 368.289 139.115 366.259 139.753C364.23 140.392 362.314 141.345 360.407 142.29" stroke="#246E2D" stroke-width="0.437352" stroke-miterlimit="10" stroke-linecap="round"/>
<path d="M364.703 105.605C363.819 112.131 362.936 118.647 362.043 125.173" stroke="#246E2D" stroke-width="0.437352" stroke-miterlimit="10" stroke-linecap="round"/>
<path d="M405.079 87.061C404.851 80.7369 406.303 72.917 410.126 67.6513C413.948 62.3856 419.599 58.2483 426.045 56.009C424.06 68.2024 415.873 80.7544 405.079 87.061Z" fill="#D4E66E"/>
<path d="M400.399 98.1871C406.828 87.0346 419.922 80.0982 432.754 81.0429C425.739 91.3207 414.036 98.2483 400.399 98.1871Z" fill="#B8D957"/>
<path d="M400.793 96.7878C403.356 85.4779 399.288 72.8909 390.62 65.2985C391.197 69.2346 390.917 73.2408 390.812 77.2207C390.708 81.2006 390.769 85.2592 392.002 89.0379C393.218 92.8254 395.763 96.3417 400.793 96.7878Z" fill="#D4E66E"/>
<path d="M397.408 107.223C395.396 101.712 393.349 96.1492 390.209 91.2508C387.069 86.3525 382.678 82.0927 377.289 80.317C378.444 86.23 379.625 92.248 382.398 97.5487C385.179 102.849 389.833 107.415 397.408 107.223Z" fill="#B8D957"/>
<path d="M395.684 113.529C399.253 108.535 405 105.36 410.992 103.68C416.975 102.001 423.255 101.668 429.474 101.354C420.351 110.38 407.563 115.769 395.684 113.529Z" fill="#B8D957"/>
<path d="M392.501 124.279C388.792 112.06 380.578 102.499 371.07 99.3152C372.382 105.149 374.079 110.826 376.126 116.267C377.438 119.74 379.922 122.206 382.599 123.676C385.275 125.145 388.162 125.731 392.501 124.279Z" fill="#94BA47"/>
<path d="M390.62 133.367C396.865 119.556 407.511 115.864 421.777 117.22C414.307 126.16 403.085 135.335 390.62 133.367Z" fill="#94BA47"/>
<path d="M389.439 152.611C390.769 146.401 395.002 141.074 400.224 137.479C405.455 133.884 411.622 131.872 417.841 130.604C410.694 144.52 400.863 150.818 389.439 152.611Z" fill="#94BA47"/>
<path d="M389.85 143.191C385.809 132.449 376.423 124.219 365.796 122.084C366.907 128.032 369.889 133.552 374.149 137.549C378.409 141.546 383.911 143.996 389.85 143.191Z" fill="#94BA47"/>
<path d="M417.438 65.2979C407.808 78.3922 401.003 95.6675 396.148 110.424C391.293 125.171 388.591 140.863 390.436 156.284" stroke="#246E2D" stroke-width="0.437352" stroke-miterlimit="10" stroke-linecap="round"/>
<path d="M393.445 73.9579C395.842 81.9089 398.23 89.8687 400.627 97.8198" stroke="#246E2D" stroke-width="0.437352" stroke-miterlimit="10" stroke-linecap="round"/>
<path d="M421.287 86.2037C414.053 89.6238 407.091 93.6212 400.496 98.1522" stroke="#246E2D" stroke-width="0.437352" stroke-miterlimit="10" stroke-linecap="round"/>
<path d="M419.127 104.922C411.062 107.922 402.997 110.931 394.924 113.932" stroke="#246E2D" stroke-width="0.437352" stroke-miterlimit="10" stroke-linecap="round"/>
<path d="M412.908 121.55C405.639 125.259 398.361 128.976 391.093 132.685" stroke="#246E2D" stroke-width="0.437352" stroke-miterlimit="10" stroke-linecap="round"/>
<path d="M383.036 89.1687C386.203 95.9389 391.014 101.939 396.935 106.505" stroke="#246E2D" stroke-width="0.437352" stroke-miterlimit="10" stroke-linecap="round"/>
<path d="M376.913 107.45C380.657 114.212 385.94 120.116 392.238 124.586" stroke="#246E2D" stroke-width="0.437352" stroke-miterlimit="10" stroke-linecap="round"/>
<path d="M372.19 128.269C377.281 133.989 383.141 139.019 389.562 143.2" stroke="#246E2D" stroke-width="0.437352" stroke-miterlimit="10" stroke-linecap="round"/>
<path d="M410.441 136.079C404.327 142.456 397.294 147.958 389.64 152.375" stroke="#246E2D" stroke-width="0.437352" stroke-miterlimit="10" stroke-linecap="round"/>
<path d="M406.321 197.011H364.116V200.947H406.321V197.011Z" fill="#DB6F5E"/>
<path d="M413.423 154.685L412.872 163.502L410.948 194.195C410.782 196.819 408.612 198.857 405.988 198.857H364.947C362.349 198.857 360.189 196.854 359.996 194.265L357.67 163.502L357.005 154.685H413.423Z" fill="#FA987D"/>
<path d="M413.423 154.685L412.872 163.502H357.67L357.005 154.685H413.423Z" fill="#DB6F5E"/>
<path d="M415.829 148.788V155.252C415.829 157.15 414.28 158.681 412.365 158.681H358.063C357.136 158.681 356.288 158.322 355.667 157.736C355.002 157.106 354.599 156.223 354.599 155.252V148.788C354.599 146.898 356.148 145.368 358.072 145.368H412.374C414.097 145.368 415.514 146.61 415.785 148.237C415.82 148.412 415.829 148.604 415.829 148.788Z" fill="#FAB693"/>
<path d="M415.829 148.789V155.253C415.829 157.151 414.28 158.681 412.365 158.681H358.063C357.136 158.681 356.287 158.323 355.666 157.737C355.631 157.562 355.614 157.369 355.614 157.177V150.713C355.614 148.815 357.162 147.284 359.087 147.284H413.388C414.315 147.284 415.164 147.651 415.776 148.229C415.82 148.412 415.829 148.605 415.829 148.789Z" fill="#FA987D"/>
<path d="M455.191 204.349H446.234V337.4H455.191V204.349Z" fill="#F4E8D8"/>
<path d="M346.832 204.349H337.875V337.4H346.832V204.349Z" fill="#F4E8D8"/>
<path d="M462.363 200.947H331.157V212.169H462.363V200.947Z" fill="#835F53"/>
<path d="M462.363 312.183H331.157V323.405H462.363V312.183Z" fill="#835F53"/>
<path d="M26.9447 457.624C26.8485 458 26.7085 458.35 26.4899 458.674C25.379 460.344 22.7986 460.406 20.9268 459.373C19.0636 458.333 17.7603 456.504 16.527 454.746C11.5149 447.565 6.49414 440.401 1.47334 433.22C0.878544 432.371 0.274998 431.497 0.0738165 430.508C-0.249824 428.916 0.528662 427.534 1.70951 426.485C2.41802 425.846 3.28398 425.321 4.14119 424.945C4.33362 424.858 4.52606 424.779 4.71849 424.7C6.83527 423.808 9.16199 423.038 10.3166 421.088C14.5239 425.496 18.74 429.817 23.1572 433.911C23.4721 435.651 23.787 437.375 24.0932 439.08C25.0029 444.127 25.9038 449.043 26.796 453.968C27.0234 455.184 27.2246 456.496 26.9447 457.624Z" fill="#535A61"/>
<path d="M20.9268 459.373C19.0637 458.332 17.7604 456.504 16.5271 454.746C11.5063 447.573 6.48548 440.401 1.47343 433.219C0.878628 432.371 0.275082 431.487 0.0739001 430.499C-0.24974 428.907 0.537493 427.534 1.71834 426.475C4.91101 433.412 9.31077 439.762 13.6755 446.042C15.5736 448.772 17.4892 451.527 19.9559 453.766C21.9415 455.568 24.3469 457.02 26.9448 457.615C26.8486 457.982 26.7086 458.332 26.4899 458.664C25.3703 460.353 22.7987 460.405 20.9268 459.373Z" fill="#81898F"/>
<path d="M24.0933 439.08C17.3143 436.605 11.1564 432.389 6.45926 426.904C5.85571 426.196 5.26966 425.461 4.7186 424.7C6.83538 423.808 9.16209 423.038 10.3167 421.087C14.524 425.496 18.7401 429.817 23.1574 433.911C23.4722 435.651 23.7871 437.374 24.0933 439.08Z" fill="#404754"/>
<path d="M128.428 461.07C126.425 461.805 124.186 461.604 122.051 461.385C113.339 460.511 104.627 459.645 95.9152 458.77C94.883 458.665 93.8246 458.551 92.9412 458.061C91.5242 457.265 90.9906 455.778 90.9644 454.195C90.9381 453.242 91.1043 452.245 91.3755 451.352C91.5417 450.793 91.7428 450.233 91.9265 449.664C92.5388 447.819 93.0899 445.947 92.4776 444.154C98.5655 443.839 104.592 443.454 110.575 442.78C111.467 443.305 112.351 443.83 113.234 444.346C118.308 447.329 123.232 450.206 128.157 453.093C129.224 453.714 130.352 454.414 131.026 455.367C131.244 455.682 131.419 456.015 131.524 456.391C132.067 458.333 130.431 460.327 128.428 461.07Z" fill="#535A61"/>
<path d="M128.428 461.07C126.425 461.805 124.186 461.604 122.052 461.385C113.34 460.51 104.627 459.644 95.9154 458.77C94.8833 458.665 93.8249 458.551 92.9415 458.061C91.5244 457.265 90.9909 455.778 90.9646 454.195C98.3034 456.294 105.992 457.099 113.602 457.886C116.908 458.227 120.25 458.568 123.556 458.157C126.215 457.825 128.883 456.95 131.026 455.367C131.245 455.682 131.42 456.014 131.525 456.39C132.067 458.332 130.431 460.326 128.428 461.07Z" fill="#81898F"/>
<path d="M113.234 444.346C106.893 448.23 99.344 450.102 91.9265 449.664C92.5388 447.819 93.0898 445.947 92.4775 444.154C98.5655 443.839 104.592 443.454 110.575 442.781C111.467 443.305 112.351 443.83 113.234 444.346Z" fill="#404754"/>
<path d="M112.167 443.647C109.149 445.912 95.8365 447.452 91.8128 446.061C75.0448 402.938 79.5145 388.121 81.5088 375.945C81.089 373.627 80.6953 371.484 80.3105 369.481C76.9429 351.558 75.106 344.639 72.5606 319.089C72.5431 319.491 72.5169 319.885 72.4994 320.279C71.1261 348.916 72.2807 371.554 66.9013 379.059C60.1661 388.453 40.7127 417.388 25.589 438.495C19.0812 434.742 11.2876 427.902 9.06589 421.088C27.0848 395.949 23.9096 384.228 43.2493 370.828C35.893 335.411 33.9425 312.083 34.4323 296.74C35.2545 270.359 43.2493 267.586 43.2493 267.586C43.2493 267.586 80.6779 274.217 100.927 268.697C102.353 275.188 103.403 281.538 104.155 287.81C109.701 333.871 100.464 375.306 112.167 443.647Z" fill="#2B3650"/>
<path d="M104.155 287.81C82.6544 297.956 57.8216 301.044 34.432 296.74C35.2543 270.359 43.249 267.586 43.249 267.586C43.249 267.586 80.6776 274.217 100.927 268.697C102.353 275.188 103.402 281.538 104.155 287.81Z" fill="#1D2538"/>
<path d="M83.9404 312.345L80.3104 369.481C76.9428 351.558 75.1059 344.639 72.5605 319.089C72.9279 318.914 83.9404 312.345 83.9404 312.345Z" fill="#1D2538"/>
<path d="M25.0118 206.155C22.3352 203.19 21.0669 199 21.3468 195.02C21.7929 188.609 26.7874 183.57 29.5865 177.78C32.9803 170.739 33.0066 162.166 30.0763 155.116C46.4333 159.262 63.56 160.356 81.1852 158.51C77.7477 163.094 78.9985 169.671 81.4914 174.823C83.9843 179.975 87.5706 184.751 88.6027 190.384C90.2909 199.647 84.2992 209.024 76.2344 213.896C68.1609 218.777 41.1938 224.087 25.0118 206.155Z" fill="#40455A"/>
<path d="M67.6271 197.032C68.0382 193.463 68.5805 189.824 70.2599 186.649C71.9394 183.474 74.9746 180.797 78.5521 180.465C83.1968 180.036 87.2642 183.5 90.2294 187.104C95.8625 193.961 99.7199 202.079 103.21 210.38C96.7372 215.61 89.6434 220.08 82.1384 223.658C75.9193 215.558 66.4725 207.108 67.6271 197.032Z" fill="#F4E8D8"/>
<path d="M105.93 284.423C83.3281 292.357 56.0636 290.546 32.4641 286.47C35.0095 271.67 38.0534 254.692 36.3915 248.412C36.3653 248.307 36.3303 248.193 36.304 248.088C36.304 248.079 36.2953 248.088 36.2953 248.088C33.8636 239.332 24.6967 221.506 22.9648 209.251C25.9913 202.569 32.1754 193.647 37.4237 187.13C50.7979 191.687 60.5071 192.483 71.5808 184.611C90.5357 197.985 93.3872 219.993 95.3115 235.326C96.3175 243.338 97.4983 249.794 98.9416 256.267C100.778 264.515 103.044 272.807 105.93 284.423Z" fill="#866694"/>
<path d="M105.93 284.423C83.3279 292.357 56.0634 290.546 32.4639 286.47C35.0093 271.67 38.0533 254.692 36.3913 248.412C36.3651 248.307 36.3301 248.193 36.3039 248.088C46.2493 254.919 58.6438 258.619 70.8109 259.179C80.2927 259.608 89.6958 258.409 98.9414 256.266C100.778 264.515 103.044 272.807 105.93 284.423Z" fill="#866694"/>
<path d="M129.862 263.641C131.402 265.977 132.933 268.312 134.472 270.639C135.067 271.548 135.697 272.633 135.329 273.656C134.831 275.056 132.88 275.248 131.489 274.732C129.268 273.901 127.553 271.837 127.151 269.502C126.748 267.166 127.667 264.647 129.862 263.641Z" fill="#E88A82"/>
<path d="M138.181 245.183L135.583 253.152L129.276 272.404C128.419 275.028 124.911 276.69 121.028 276.331L90.1419 273.445C86.2495 273.077 83.1443 270.794 82.8206 268.065L80.4589 248.008L79.4793 239.699L138.181 245.183Z" fill="#FA987D"/>
<path d="M138.181 245.183L135.574 253.152L80.4502 248.009L79.4705 239.699L138.181 245.183Z" fill="#DB6F5E"/>
<path d="M141.618 239.069L139.187 249.469L77.5462 243.714L76.9952 235.334L76.8377 233.025L141.618 239.069Z" fill="#FAB693"/>
<path d="M139.467 241.168L137.551 249.32L77.5464 243.713L76.9954 235.334L139.467 241.168Z" fill="#FA987D"/>
<path d="M109.639 261.787C112.316 265.076 113.234 267.446 112.937 268.312C112.342 270.035 109.429 269.808 108.152 268.898C109.683 270.971 110.61 272.511 111.292 275.266C108.563 273.333 105.729 270.735 103.761 268.032C103.14 267.175 102.528 266.117 102.851 265.102C103.105 264.315 103.857 263.807 104.601 263.44C105.948 262.767 107.995 262.058 109.639 261.787Z" fill="#DB6F5E"/>
<path d="M94.3669 257.011C94.3669 257.011 101.216 256.416 104.452 257.868C107.689 259.32 110.286 261.936 112.395 264.796C113.059 265.706 113.715 266.869 113.26 267.901C112.814 268.916 111.45 269.231 110.383 268.907C109.324 268.583 108.476 267.796 107.619 267.088C106.761 266.379 105.773 265.706 104.627 265.924C106.691 268.688 108.765 271.444 110.829 274.208C111.187 274.689 111.564 275.231 111.52 275.826C111.45 276.674 110.549 277.217 109.718 277.392C107.942 277.776 105.974 277.155 104.645 275.633C104.382 276.666 103.543 277.532 102.519 277.829C101.496 278.126 100.324 277.855 99.5889 277.094C98.9853 277.908 97.9444 278.363 96.9385 278.258C95.9326 278.153 95.0054 277.497 94.5768 276.893C93.9558 277.671 92.7312 277.741 91.839 277.287C90.9468 276.832 90.3345 275.992 89.8009 275.135C88.0603 272.318 86.9582 269.108 86.8357 266.362C89.3286 263.501 94.3669 257.011 94.3669 257.011Z" fill="#F9B6A7"/>
<path d="M128.769 279.359C125.48 279.525 125.953 274.189 126.679 272.011C126.932 271.259 127.387 270.524 128.332 270.472C129.618 270.41 129.88 271.067 130.282 272.204C130.755 273.559 132.075 279.192 128.769 279.359Z" fill="#F9B6A7"/>
<path d="M120.004 278.405C116.716 278.571 117.188 273.236 117.914 271.058C118.168 270.305 118.622 269.571 119.567 269.518C120.853 269.457 121.115 270.113 121.518 271.25C121.99 272.606 123.311 278.248 120.004 278.405Z" fill="#F9B6A7"/>
<path d="M116.025 278.405C112.736 278.572 113.208 273.236 113.934 271.058C114.188 270.306 114.643 269.571 115.587 269.518C116.873 269.457 117.136 270.113 117.538 271.25C118.01 272.606 119.331 278.248 116.025 278.405Z" fill="#F9B6A7"/>
<path d="M124.745 278.397C121.474 278.685 121.518 273.341 122.069 271.145C122.261 270.384 122.664 269.632 123.591 269.545C124.868 269.431 125.183 270.078 125.673 271.198C126.267 272.527 128.034 278.099 124.745 278.397Z" fill="#F9B6A7"/>
<path d="M69.7788 196.366C69.1928 198.719 67.837 200.941 65.8602 201.728C63.8921 202.507 61.7403 201.728 59.8072 200.845C53.7718 198.063 48.1474 194.049 43.2491 189.045C44.0363 186.089 44.5611 183.237 44.8848 180.464C45.2522 177.324 45.3659 174.298 45.3134 171.367C45.2871 169.364 45.1647 167.414 45.016 165.507C50.6053 166.32 56.2384 166.714 63.1486 167.081C63.1398 167.414 63.1311 167.746 63.1223 168.07C63.0174 171.682 62.9824 175.33 63.7434 178.82C64.3907 181.794 65.7027 184.689 67.6708 186.64C68.2219 187.191 68.8167 187.663 69.4814 188.048C70.2862 191.512 70.3561 194.014 69.7788 196.366Z" fill="#F9B6A7"/>
<path d="M67.6708 186.639C59.8247 188.739 51.1651 186.377 44.8848 180.464C45.2521 177.324 45.3659 174.297 45.3134 171.367C51.3576 171.577 57.428 170.457 63.1223 168.069C63.0174 171.682 62.9824 175.329 63.7434 178.82C64.3819 181.794 65.694 184.689 67.6708 186.639Z" fill="#E88A82"/>
<path d="M86.6968 160.195C85.9213 157.217 81.8175 155.708 77.5307 156.825C73.2439 157.941 70.3974 161.26 71.1729 164.238C71.9484 167.216 76.0521 168.725 80.3389 167.608C84.6258 166.492 87.4723 163.173 86.6968 160.195Z" fill="#E88A82"/>
<path d="M35.1933 155.824C34.1961 140.315 43.6429 127.09 56.2999 126.267C68.9568 125.454 80.0306 137.359 81.0365 152.867C82.0424 168.376 75.1147 181.601 62.4578 182.423C49.8008 183.246 36.1904 171.332 35.1933 155.824Z" fill="#F9B6A7"/>
<path d="M38.5171 152.912C45.9258 151.277 52.2062 147.113 56.1948 140.57C62.5189 145.329 69.8489 147.297 77.6338 148.53C79.0246 151.583 79.943 154.854 80.3541 158.187C80.9227 153.148 80.8527 148.04 80.083 142.836C72.2806 139.879 64.7932 136.118 58.1367 131.412C51.2178 138.401 44.5263 145.617 38.5171 152.912Z" fill="#E88A82"/>
<path d="M45.1124 121.939C34.8783 122.953 28.2393 131.893 27.4171 140.185C26.2188 152.334 33.4001 162.542 33.5838 162.883C34.9308 160.312 35.7793 157.574 35.2544 154.932C45.9171 151.381 55.3376 142.109 56.5535 133.45C55.3901 127.659 54.2705 121.029 45.1124 121.939Z" fill="#40455A"/>
<path d="M37.6366 153.038C33.9768 150.962 29.6995 151.588 28.0832 154.437C26.4668 157.286 28.1234 161.278 31.7832 163.355C35.443 165.431 39.7202 164.805 41.3366 161.956C42.953 159.107 41.2964 155.115 37.6366 153.038Z" fill="#F9B6A7"/>
<path d="M84.1242 152.378C83.197 155.37 82.2086 158.475 80.468 161.772C80.4592 157.224 79.6282 152.719 78.6661 148.276C71.7209 145.827 65.2306 143.666 59.4401 140.132C53.6583 136.616 48.5413 131.569 46.2321 124.947C46.2321 123.39 47.2817 121.676 49.1798 120.233C52.4687 117.74 58.3117 116.095 65.668 117.539C75.8845 119.551 82.3048 127.44 84.6403 135.173C86.2235 140.412 86.0661 146.08 84.1242 152.378Z" fill="#40455A"/>
<path d="M84.124 152.378C84.2027 146.85 83.3193 141.313 81.1675 136.231C78.3947 129.671 73.3914 123.933 66.9099 120.95C61.3905 118.396 54.804 118.028 49.1709 120.241C52.4598 117.748 58.3028 116.104 65.659 117.547C75.8756 119.559 82.2959 127.449 84.6314 135.181C86.2233 140.412 86.0659 146.08 84.124 152.378Z" fill="#5A6478"/>
<path d="M57.2796 154.119C55.6701 153.13 53.702 152.754 51.8477 153.078C49.9933 153.401 48.2614 154.416 46.8618 156.069C47.5266 154.749 48.3051 153.454 49.4072 152.457C50.5094 151.468 51.9701 150.804 53.4396 150.917C54.9179 151.031 56.3611 152.046 57.2796 154.119Z" fill="#40455A"/>
<path d="M77.7301 154.591C76.4618 153.218 74.6162 152.431 72.788 152.483C70.9512 152.536 69.158 153.419 68.1871 154.504C69.0093 153.157 69.9977 151.88 71.3185 151.049C72.6306 150.227 74.3188 149.912 75.7271 150.55C77.1266 151.189 78.1062 152.903 77.7301 154.591Z" fill="#40455A"/>
<path d="M54.6115 163.487C55.3941 163.487 56.0285 162.508 56.0285 161.3C56.0285 160.093 55.3941 159.114 54.6115 159.114C53.8289 159.114 53.1945 160.093 53.1945 161.3C53.1945 162.508 53.8289 163.487 54.6115 163.487Z" fill="#2C3C4D"/>
<path d="M71.5808 163.487C72.3634 163.487 72.9978 162.508 72.9978 161.3C72.9978 160.093 72.3634 159.114 71.5808 159.114C70.7982 159.114 70.1638 160.093 70.1638 161.3C70.1638 162.508 70.7982 163.487 71.5808 163.487Z" fill="#2C3C4D"/>
<path d="M66.3153 161.964C66.6477 163.504 66.429 165.166 65.703 166.565" stroke="#9E4958" stroke-width="0.874704" stroke-miterlimit="10" stroke-linecap="round"/>
<path d="M65.423 172.67C63.0788 173.624 60.1661 172.976 58.4517 171.113" stroke="#9E4958" stroke-width="0.874704" stroke-miterlimit="10" stroke-linecap="round"/>
<path d="M95.3113 256.897C93.7805 261.857 91.2264 265.959 88.06 269.519C74.782 264.105 60.638 260.142 49.5555 251.421C44.1236 247.153 40.5198 240.899 36.435 235.248C33.8283 231.662 31.3442 227.979 28.965 224.218C35.5428 221.375 42.4792 218.454 49.573 216.013C51.2699 218.952 53.0368 221.874 54.8737 224.752C58.5125 230.507 60.638 238.336 66.7259 241.467C71.2394 243.785 75.5692 245.412 79.2867 248.36C84.0538 252.13 89.512 255.043 95.3113 256.897Z" fill="#F9B6A7"/>
<path d="M54.8737 224.752C49.643 229.598 43.2751 233.219 36.435 235.248C33.8283 231.662 31.3442 227.979 28.965 224.218C35.5428 221.375 42.4792 218.454 49.573 216.013C51.2699 218.952 53.0368 221.874 54.8737 224.752Z" fill="#E88A82"/>
<path d="M55.0924 221.261C46.8177 226.58 34.6331 229.816 25.2475 231.714C23.3669 219.136 18.9584 207.878 20.3142 196.708C22.0286 182.626 40.17 179.862 45.7331 193.621C48.9695 201.616 52.6695 211.106 55.0924 221.261Z" fill="#F4E8D8"/>
<path d="M276.112 417.683C258.697 422.153 240.625 423.605 222.79 421.969C217.664 421.497 212.154 420.57 208.533 416.616C204.054 411.726 204.002 403.854 205.419 397.145C208.095 384.436 214.865 373.064 223.096 363.539C231.336 354.013 241.045 346.132 252.897 339.52C263.709 342.074 274.52 344.628 285.34 347.182C287.431 347.672 289.679 348.267 291.052 350.033C292.828 352.308 292.53 355.667 292.093 358.606C289.136 378.138 283.958 397.267 276.112 417.683Z" fill="#30344A"/>
<path d="M328.577 401.107C328.56 401.343 328.516 401.562 328.455 401.772C327.746 404.23 324.422 405.21 321.711 405.577C310.576 407.099 299.449 408.612 288.314 410.134C285.533 403.031 282.909 395.885 281.431 388.756C280.923 386.325 280.416 383.832 280.827 381.391C281.238 378.942 282.778 376.528 285.157 375.819C288.446 374.84 291.656 377.333 294.306 379.511C294.394 379.581 294.49 379.659 294.577 379.729C302.887 386.5 312.395 391.818 322.498 395.387C325.341 396.384 328.84 398.107 328.577 401.107Z" fill="#734943"/>
<path d="M328.577 401.107C328.56 401.343 328.516 401.561 328.455 401.771C315.387 395.036 301.348 390.199 286.906 387.452C288.253 384.015 291.009 381.434 294.577 379.729C302.887 386.499 312.395 391.817 322.498 395.386C325.341 396.383 328.84 398.106 328.577 401.107Z" fill="#996A59"/>
<path d="M218.259 338.688C215.627 341.942 213.099 345.283 210.746 348.695C206.294 355.141 202.454 361.833 199.611 368.647C193.278 368.201 186.936 367.746 181.338 366.128C183.665 355.57 186.963 345.231 191.686 335.067C192.657 332.976 193.68 330.903 194.774 328.83C203.503 327.282 212.968 331.148 218.259 338.688Z" fill="#FFD4C4"/>
<path d="M210.746 348.695C210.781 347.776 210.763 346.849 210.693 345.931C210.448 342.808 209.46 339.65 207.361 337.315C204.964 334.656 201.273 333.335 197.695 333.492C195.605 333.589 193.567 334.148 191.686 335.067C192.657 332.976 193.68 330.903 194.774 328.83C203.503 327.282 212.967 331.148 218.259 338.688C215.627 341.942 213.099 345.283 210.746 348.695Z" fill="#EDAB9F"/>
<path d="M207.649 273.033C199.243 277.074 199.584 289.714 198.614 298.95C197.643 308.187 196.803 317.958 192.823 325.113C201.64 326.084 210.151 329.618 216.947 335.137C225.073 326.215 229.027 313.855 227.54 302.047C226.053 290.238 219.143 279.173 207.649 273.033Z" fill="#8ADBD5"/>
<path d="M216.501 342.1C213.58 338.199 209.801 334.962 205.419 333.3C201.045 331.638 196.06 331.63 191.861 333.781C190.339 333.02 189.403 330.869 189.63 329.067C189.875 327.169 193.444 323.329 192.814 321.544C197.66 319.436 202.401 318.736 208.533 320.048C214.664 321.36 221.391 325.332 222.834 332.119C221.12 333.676 220.411 333.326 220.123 335.732C219.965 337.044 220.053 338.417 219.624 339.659C219.213 340.893 218.015 341.986 216.501 342.1Z" fill="#AEEBE1"/>
<path d="M184.522 364.089C176.204 367.667 169.958 375.688 168.524 384.636C168.41 385.353 168.322 386.097 168.541 386.788C168.76 387.479 169.346 388.1 170.072 388.135C170.964 388.17 171.638 387.365 172.162 386.639C174.069 383.971 175.976 381.312 178.067 378.513C176.501 382.58 175.854 386.989 176.169 391.336C176.23 392.185 176.344 393.051 176.781 393.777C177.218 394.503 178.075 395.036 178.906 394.852C180.122 394.581 180.542 393.103 181.067 391.38C181.426 392.613 182.335 393.794 183.604 394.004C184.872 394.223 186.298 393.016 186.569 391.494C186.971 392.578 188.432 392.981 189.49 392.508C190.549 392.036 191.196 390.925 191.467 389.805C191.73 388.677 191.677 387.505 191.712 386.35C191.747 385.196 191.878 383.997 192.263 382.607C195.141 381.312 197.555 378.994 198.955 376.16C200.354 373.326 200.748 370.011 199.654 367.334C194.887 366.634 190.199 365.445 184.522 364.089Z" fill="#FFD4C4"/>
<path d="M385.1 423.709C384.707 425.082 383.622 425.887 382.266 426.333C380.806 426.805 379.048 426.875 377.508 426.788C367.869 426.237 358.23 425.694 348.59 425.152C347.007 425.065 345.433 424.968 343.849 424.881C342.485 417.367 341.278 409.862 341.182 402.576C341.173 402.016 341.164 401.465 341.173 400.905C341.19 398.963 341.322 397.03 341.995 395.228C342.354 394.284 342.896 393.374 343.587 392.613C344.567 391.511 345.853 390.732 347.313 390.593C350.733 390.26 353.401 393.322 355.588 395.963C362.507 404.308 370.887 411.445 380.228 416.939C382.826 418.461 385.931 420.822 385.1 423.709Z" fill="#835F53"/>
<path d="M385.1 423.709C384.707 425.082 383.622 425.887 382.266 426.333C381.392 424.286 379.878 422.414 378.146 421.023C374.709 418.277 370.467 416.72 366.933 414.105C361.886 410.396 358.606 404.824 354.468 400.127C351.538 396.803 347.751 393.768 343.587 392.613C344.567 391.511 345.852 390.732 347.313 390.593C350.733 390.26 353.401 393.322 355.588 395.963C362.507 404.308 370.886 411.445 380.228 416.939C382.826 418.461 385.931 420.822 385.1 423.709Z" fill="#A37F6D"/>
<path d="M348.59 425.151C347.007 425.064 345.433 424.968 343.849 424.88C342.485 417.366 341.278 409.862 341.182 402.575C341.173 402.015 341.164 401.464 341.173 400.905C344.602 403.572 346.928 407.692 347.987 411.961C349.054 416.256 349.01 420.725 348.59 425.151Z" fill="#735046"/>
<path d="M345.765 428.099C329.522 429.612 280.145 432.411 269.15 432.411C269.106 432.411 269.071 432.402 269.027 432.402C262.231 431.703 254.796 427.005 254.525 420.174C253.956 405.776 258.889 391.431 265.852 378.311C267.05 376.063 268.301 373.858 269.596 371.689C262.283 368.82 256.038 365.199 251.717 359.662C251.078 358.849 250.483 357.974 249.967 357.064C246.915 351.816 245.9 345.264 248.752 339.999C271.485 344.757 296.545 338.993 315.885 328.488C317.949 339.762 318.413 349.664 316.821 359.303C315.194 369.179 308.336 387.941 301.855 398.473C317.442 395.157 323.565 395.744 341.173 394.099C346.578 401.744 348.59 419.675 345.765 428.099Z" fill="#40455A"/>
<path d="M316.821 359.303C300.77 364.167 283.127 363.196 266.377 360.65C260.866 359.819 255.268 358.77 249.967 357.064C246.915 351.816 245.9 345.264 248.752 339.999C271.485 344.757 296.545 338.993 315.885 328.488C317.949 339.762 318.413 349.664 316.821 359.303Z" fill="#30344A"/>
<path d="M295.146 416.264C298.26 411.532 300.411 406.179 301.907 400.301C302.555 406.424 299.773 412.801 295.146 416.264Z" fill="#30344A"/>
<path d="M302.878 400.397C304.925 405.698 305.047 411.716 303.219 417.096C306.176 412.005 306.15 405.322 302.878 400.397Z" fill="#30344A"/>
<path d="M327.475 403.973C330.746 405.014 333.668 407.131 335.688 409.913C337.709 412.694 338.811 416.123 338.785 419.561C336.974 415.03 334.341 410.822 331.052 407.219C329.767 405.802 328.297 404.428 327.475 403.973Z" fill="#30344A"/>
<path d="M335.75 401.927C340.797 407.018 342.537 415.109 340.036 421.826C340.359 415.205 338.61 408.487 335.75 401.927Z" fill="#30344A"/>
<path d="M269.15 432.411C269.106 432.411 269.071 432.402 269.027 432.402C262.231 431.702 254.796 427.005 254.525 420.174C253.956 405.776 258.889 391.431 265.852 378.311C263.018 388.51 260.875 398.892 259.44 409.38C258.758 414.357 258.277 419.667 260.42 424.215C262.152 427.898 265.441 430.644 269.15 432.411Z" fill="#515970"/>
<path d="M320.459 349.927C302.204 358.631 260.997 361.316 236.593 348.571C238.963 344.688 242.296 340.804 243.678 337.506C244.028 336.675 244.247 335.88 244.299 335.127C244.605 330.736 233.951 316.916 227.347 312.035C222.335 308.335 216.658 305.597 211.76 301.757C206.862 297.909 202.637 292.538 202.252 286.328C201.85 279.864 205.751 273.732 210.877 269.769C215.994 265.807 222.239 263.62 228.598 261.049C244.693 255.844 271.231 256.728 289.819 269.428C296.064 273.688 303.621 285.173 309.876 302.597C314.45 315.359 318.325 331.305 320.459 349.927Z" fill="#6CC5C3"/>
<path d="M320.459 349.928C302.204 358.631 260.997 361.316 236.593 348.572C238.963 344.688 242.296 340.805 243.678 337.507C250.553 341.365 258.259 343.744 266.114 344.33C278.544 345.257 291.253 341.697 301.391 334.446C292.443 337.621 282.314 337.332 273.567 333.658C286.031 331.419 297.481 323.94 304.531 313.409C306.779 310.059 308.563 306.411 309.876 302.598C314.45 315.36 318.325 331.305 320.459 349.928Z" fill="#5AB4B8"/>
<path d="M256.125 258.32C258.802 264.023 260.158 270.365 259.379 276.593C258.452 284.01 254.245 291.165 247.667 294.725C241.098 298.277 232.237 297.664 226.814 292.521C224.12 289.976 222.405 286.573 220.822 283.214C220.009 281.482 219.204 279.541 219.764 277.712C220.297 275.972 221.907 274.835 223.42 273.838C231.494 268.511 239.742 263.437 249.206 258.058" fill="#3C99A3"/>
<path d="M252.259 259.09C253.545 263.944 254.848 268.86 254.892 273.89C254.936 278.91 253.606 284.132 250.212 287.841C246.224 292.197 239.698 293.859 233.969 292.407C228.24 290.955 223.429 286.634 220.901 281.298C231.494 274.895 241.535 267.592 252.259 259.09Z" fill="#EDAB9F"/>
<path d="M207.366 258.168C202.947 257.856 199.189 260.091 198.972 263.161C198.755 266.23 202.162 268.972 206.581 269.284C210.999 269.596 214.757 267.361 214.974 264.292C215.191 261.222 211.785 258.481 207.366 258.168Z" fill="#EDAB9F"/>
<path d="M249.355 249.66C245.603 234.581 232.587 224.836 220.28 227.898C207.973 230.959 201.911 245.471 204.78 260.743C207.597 275.727 214.822 288.427 231.441 284.587C243.801 281.727 253.099 264.74 249.355 249.66Z" fill="#FFD4C4"/>
<path d="M243.582 250.745C239.068 248.935 235.237 245.488 233.173 241.377C229.858 244.115 225.869 246.031 221.653 246.897C220.568 247.115 219.449 247.273 218.364 247.08C217.279 246.888 216.212 246.293 215.758 245.121C212.477 247.43 208.445 248.628 204.36 248.165C204.238 245.908 204.115 243.643 203.993 241.386C215.005 237.765 225.817 233.54 236.357 228.72C239.497 234.511 242.637 240.301 243.582 250.745Z" fill="#EDAB9F"/>
<path d="M254.052 252.459C251.795 253.002 249.652 253.999 248.113 255.731C241.684 251.725 236.952 245.077 234.686 237.205C232.639 238.971 230.558 240.738 228.222 242.103C225.878 243.476 223.254 244.447 220.551 244.508C219.641 244.526 218.688 244.43 217.936 243.914C217.192 243.397 216.737 242.365 217.166 241.709C212.014 244.771 206.425 247.937 200.45 247.491C199.305 247.404 198.141 247.176 197.17 246.564C196.882 246.38 196.61 246.162 196.383 245.908C195.823 245.322 195.456 244.561 195.447 243.756C195.447 242.61 196.331 241.456 197.59 241.036C196.296 240.616 195.263 239.575 194.634 238.359C194.013 237.143 193.759 235.77 193.671 234.414C193.558 232.831 193.689 231.152 194.599 229.857C195.412 228.702 196.742 228.029 198.071 227.557C200.608 226.664 203.363 226.376 205.672 226.559C205.191 224.609 206.582 222.579 208.366 221.652C210.16 220.725 212.25 220.638 214.262 220.576C219.668 220.393 225.073 220.218 230.488 220.034C232.701 219.964 235.027 219.912 237.03 220.874C237.704 221.197 238.316 221.679 238.859 222.265C239.926 223.437 240.687 225.055 240.932 226.813C243.32 225.142 246.836 226.358 248.647 228.641C250.448 230.924 250.982 233.933 251.454 236.802C252.32 242.024 253.186 247.237 254.052 252.459Z" fill="#73323B"/>
<path d="M256.718 251.659C255.029 248.852 250.738 248.336 247.132 250.505C243.527 252.674 241.972 256.707 243.661 259.514C245.349 262.32 249.641 262.837 253.246 260.668C256.852 258.499 258.406 254.466 256.718 251.659Z" fill="#FFD4C4"/>
<path d="M238.859 222.265C230.453 221.267 221.828 222.072 213.746 224.618C212.652 224.959 211.55 225.344 210.667 226.07C209.783 226.796 209.162 227.933 208.987 229.175C205.865 228.58 202.523 229.245 199.882 231.003C198.202 232.123 196.742 233.784 196.418 235.779C196.103 237.773 197.231 240.065 199.663 240.975C197.896 242.015 196.724 243.887 196.383 245.908C195.823 245.322 195.456 244.561 195.447 243.756C195.447 242.61 196.331 241.456 197.59 241.036C196.296 240.616 195.263 239.575 194.634 238.359C194.013 237.143 193.759 235.77 193.671 234.414C193.558 232.831 193.689 231.152 194.599 229.857C195.412 228.702 196.742 228.029 198.071 227.557C200.608 226.664 203.363 226.376 205.672 226.559C205.191 224.609 206.582 222.579 208.366 221.652C210.16 220.725 212.25 220.638 214.262 220.576C219.668 220.393 225.073 220.218 230.488 220.034C232.701 219.964 235.027 219.912 237.03 220.874C237.704 221.197 238.316 221.679 238.859 222.265Z" fill="#944B50"/>
<path d="M248.358 280.677C247.509 283.153 245.611 286.214 242.532 288.786C238.614 292.049 232.779 294.533 224.758 294.017C219.694 293.693 214.113 290.938 211.034 285.462C209.705 283.092 208.629 280.599 207.745 277.94C206.398 273.942 205.462 269.577 204.666 264.732C203.827 259.58 203.521 246.949 203.521 246.949C203.521 246.949 204.43 247.631 205.261 246.293C204.491 266.044 208.944 272.254 213.973 277.284C212.757 271.091 216.571 269.77 221.426 269.158C231.214 267.933 236.462 267.819 238.509 274.493C245.611 268.991 246.547 258.836 242.9 249.73C244.702 249.643 246.95 240.205 248.813 247.351C249.276 249.171 253.851 264.653 248.358 280.677Z" fill="#73323B"/>
<path d="M242.532 288.786C238.614 292.049 232.78 294.533 224.759 294.017C219.694 293.693 214.113 290.938 211.034 285.462C209.705 283.092 208.629 280.599 207.746 277.94C208.428 279.269 209.18 280.564 210.02 281.797C212.224 285.042 215.137 287.911 218.723 289.495C221.986 290.938 225.642 291.244 229.211 291.191C233.724 291.121 238.351 290.422 242.532 288.786Z" fill="#944B50"/>
<path d="M228.266 253.23C229.631 251.926 231.467 251.139 233.357 251.052C235.246 250.964 237.144 251.594 238.859 252.915C237.931 251.76 236.891 250.667 235.605 249.932C234.319 249.197 232.753 248.856 231.336 249.285C229.91 249.705 228.721 251.008 228.266 253.23Z" fill="#73323B"/>
<path d="M206.591 255.573C207.859 254.199 209.705 253.412 211.533 253.465C213.361 253.517 215.163 254.401 216.134 255.485C215.311 254.138 214.314 252.861 213.002 252.03C211.69 251.199 210.002 250.893 208.594 251.532C207.185 252.17 206.215 253.884 206.591 255.573Z" fill="#73323B"/>
<path d="M232.226 261.37C231.86 260.219 230.958 259.478 230.213 259.716C229.467 259.953 229.159 261.078 229.526 262.229C229.892 263.38 230.793 264.12 231.539 263.883C232.285 263.646 232.592 262.521 232.226 261.37Z" fill="#2C3C4D"/>
<path d="M216.06 262.707C215.694 261.557 214.793 260.816 214.047 261.053C213.301 261.291 212.994 262.416 213.36 263.567C213.726 264.717 214.627 265.458 215.373 265.221C216.119 264.983 216.426 263.858 216.06 262.707Z" fill="#2C3C4D"/>
<path d="M219.056 274.475C223.56 274.125 227.969 272.708 232.062 270.277C232.815 272.586 232.246 275.289 230.61 277.091C228.975 278.892 226.351 279.741 223.971 279.216C221.61 278.7 219.572 276.837 219.056 274.475Z" fill="white"/>
<path d="M219.047 261.346C219.703 262.781 219.965 264.408 219.799 265.991C219.738 266.551 219.641 267.189 219.991 267.635C220.245 267.959 220.673 268.081 221.076 268.038C221.478 267.994 221.846 267.81 222.195 267.609" fill="#FFD4C4"/>
<path d="M219.047 261.346C219.703 262.781 219.965 264.408 219.799 265.991C219.738 266.551 219.641 267.189 219.991 267.635C220.245 267.959 220.673 268.081 221.076 268.038C221.478 267.994 221.846 267.81 222.195 267.609" stroke="#BA6168" stroke-width="0.874704" stroke-miterlimit="10" stroke-linecap="round"/>
<path d="M269.841 355.569C266.692 358.893 263.315 362.007 259.764 364.885C251.017 371.996 239.838 378.801 229.324 382.825C228.292 378.382 225.318 373.746 220.621 370.885C228.213 363.363 236.016 355.473 242.917 346.604C244.072 345.125 245.191 343.621 246.285 342.09C251.192 342.615 256.204 343.157 260.691 345.213C265.187 347.268 269.141 351.134 269.841 355.569Z" fill="#FFD4C4"/>
<path d="M269.841 355.569C266.692 358.893 263.316 362.007 259.764 364.885C260.849 360.459 259.939 355.508 257.088 351.93C253.781 347.784 248.122 345.737 242.917 346.603C244.072 345.125 245.192 343.621 246.285 342.09C251.192 342.615 256.204 343.157 260.691 345.213C265.187 347.268 269.141 351.134 269.841 355.569Z" fill="#EDAB9F"/>
<path d="M277.171 343.593C287.964 328.015 293.825 309.078 293.72 290.123C293.676 282.067 291.804 272.812 284.728 268.955C279.489 266.103 272.657 267.31 267.934 270.958C263.21 274.605 260.403 280.291 259.099 286.108C257.796 291.933 258.102 297.978 257.525 303.217C256.082 316.241 251.708 328.837 246.39 340.821C254.525 346.751 265.563 348.474 277.171 343.593Z" fill="#8ADBD5"/>
<path d="M268.983 358.769C262.965 350.004 251.97 344.931 241.395 346.051C240.354 343.715 242.208 341.546 243.94 339.884C245.672 338.222 246.836 335.703 246.381 333.35C258.6 333.193 271.021 337.601 279.821 344.905C280.144 346.278 279.541 347.713 278.71 348.85C277.879 349.987 276.812 350.94 276.007 352.095C275.071 353.424 274.503 354.99 273.549 356.311C272.604 357.623 271.082 358.743 268.983 358.769Z" fill="#AEEBE1"/>
<path d="M252.784 330.928C263.245 326.711 272.089 318.62 277.214 308.579C274.695 319.469 264.96 328.312 252.784 330.928Z" fill="#6BBBBF"/>
<path d="M262.073 332.931C268.677 332.966 275.281 331.129 280.923 327.7C276.856 332.441 270.129 334.733 262.073 332.931Z" fill="#6BBBBF"/>
<path d="M177.55 330.186C182.326 348.161 184.749 366.757 184.723 385.362" stroke="#3E704F" stroke-width="0.874704" stroke-miterlimit="10"/>
<path d="M196.129 347.584C192.989 360.547 191.17 373.825 190.715 387.156" stroke="#3E704F" stroke-width="0.874704" stroke-miterlimit="10"/>
<path d="M198.307 303.866C191.764 332.845 188.502 362.559 188.581 392.264" stroke="#3E704F" stroke-width="0.874704" stroke-miterlimit="10"/>
<path d="M179.79 277.74C187.391 312.623 189.814 348.634 186.954 384.226" stroke="#3E704F" stroke-width="0.874704" stroke-miterlimit="10"/>
<path d="M189.674 425.737H178.242V430.784H189.674V425.737Z" fill="#D96662"/>
<path d="M205.183 425.737H193.75V430.784H205.183V425.737Z" fill="#D96662"/>
<path d="M218.653 387.487L217.909 391.274L217.498 393.382L216.081 400.651L215.337 404.447L213.92 411.716L212.294 420.026C211.541 423.865 208.768 426.892 205.182 428.099C204.089 428.466 202.917 428.676 201.692 428.676H181.723C180.516 428.676 179.335 428.475 178.233 428.099C174.646 426.892 171.873 423.865 171.121 420.026L169.494 411.716L168.077 404.447L167.334 400.651L165.917 393.382L165.506 391.274L164.762 387.487H218.653Z" fill="#FA987D"/>
<path d="M217.499 393.381L216.082 400.65H167.343L165.926 393.381H217.499Z" fill="#F7C7B2"/>
<path d="M215.338 404.438L213.921 411.707H169.503L168.086 404.438H215.338Z" fill="#F7C7B2"/>
<path d="M218.653 387.486L217.909 391.274H165.514L164.771 387.486H218.653Z" fill="#ED806B"/>
<path d="M222.326 379.973V386.437C222.326 388.335 220.778 389.865 218.862 389.865H164.561C163.634 389.865 162.785 389.507 162.164 388.921C161.499 388.291 161.097 387.408 161.097 386.437V379.973C161.097 378.083 162.645 376.552 164.57 376.552H218.871C220.594 376.552 222.011 377.795 222.282 379.422C222.309 379.588 222.326 379.789 222.326 379.973Z" fill="#FAB693"/>
<path d="M222.326 379.973V386.437C222.326 388.335 220.778 389.865 218.863 389.865H164.561C163.634 389.865 162.785 389.507 162.164 388.921C162.129 388.746 162.112 388.553 162.112 388.361V381.897C162.112 379.999 163.66 378.468 165.584 378.468H219.886C220.813 378.468 221.662 378.835 222.274 379.413C222.309 379.588 222.326 379.789 222.326 379.973Z" fill="#FA987D"/>
<path d="M223.84 368.769C220.411 367.404 216.431 367.474 213.046 368.943C209.661 370.413 206.906 373.282 205.558 376.72C205.209 377.612 205.016 378.766 205.733 379.405C206.18 379.799 206.844 379.834 207.404 379.65C207.964 379.466 208.445 379.108 208.909 378.749C210.439 377.568 211.979 376.396 214.034 375.381C212.075 379.939 209.503 384.233 206.407 388.117C205.716 388.983 204.981 389.858 204.701 390.925C204.421 391.992 204.728 393.313 205.707 393.811C206.836 394.389 208.183 393.671 209.197 392.919C211.48 391.222 213.51 389.193 215.609 386.98C214.157 390.208 212.714 393.435 211.262 396.663C211.017 397.214 210.763 397.782 210.684 398.386C210.606 398.99 210.745 399.654 211.174 400.083C211.664 400.573 212.442 400.66 213.116 400.494C213.789 400.328 214.375 399.925 214.97 399.506C216.422 400.643 218.81 400.293 220.044 398.727C221.408 398.946 222.799 398.272 223.77 397.293C224.741 396.313 225.379 395.053 225.992 393.811C227.855 390.041 229.7 386.175 230.216 382.012C230.75 377.813 230.715 371.498 223.84 368.769Z" fill="#FFD4C4"/>
<path d="M215.53 398.84C217.971 395.49 219.545 391.51 220.044 387.399" stroke="#BA6168" stroke-width="0.874704" stroke-miterlimit="10" stroke-linecap="round"/>
<path d="M220.761 397.012C221.968 395.797 222.738 394.205 223.201 392.56C223.674 390.916 223.866 389.201 224.05 387.504" stroke="#BA6168" stroke-width="0.874704" stroke-miterlimit="10" stroke-linecap="round"/>
<path d="M173.194 324.124C176.807 321.159 181.382 320.905 185.475 323.092C189.578 325.278 192.158 330.072 191.782 334.76C191.397 339.519 188.309 343.595 184.968 346.971C179.833 352.176 173.763 356.4 167.211 359.567C161.395 362.383 152.114 365.209 152.114 365.209C152.114 365.209 149.114 359.471 147.915 350.382C147.032 343.7 146.463 336.903 147.767 330.282C148.703 325.532 150.408 320.774 153.741 317.292C157.074 313.811 162.278 311.887 166.774 313.487C171.27 315.088 174.979 320.546 173.194 324.124Z" fill="#3E704F"/>
<mask id="mask3_25_840" style="mask-type:alpha" maskUnits="userSpaceOnUse" x="146" y="312" width="46" height="54">
<path d="M173.194 324.124C176.807 321.159 181.382 320.905 185.475 323.092C189.578 325.278 192.158 330.072 191.782 334.76C191.397 339.519 188.309 343.595 184.968 346.971C179.833 352.176 173.763 356.4 167.211 359.567C161.395 362.383 152.114 365.209 152.114 365.209C152.114 365.209 149.114 359.471 147.915 350.382C147.032 343.7 146.463 336.903 147.767 330.282C148.703 325.532 150.408 320.774 153.741 317.292C157.074 313.811 162.278 311.887 166.774 313.487C171.27 315.088 174.979 320.546 173.194 324.124Z" fill="#3E704F"/>
</mask>
<g mask="url(#mask3_25_840)">
<path d="M175.635 320.668C164.867 335.407 156.444 351.86 150.784 369.223" stroke="#7EBF7E" stroke-width="0.874704" stroke-miterlimit="10"/>
<path d="M171.83 326.231C178.985 323.555 186.735 322.496 194.336 323.144" stroke="#7EBF7E" stroke-width="0.874704" stroke-miterlimit="10"/>
<path d="M167.841 332.477C176.632 331.812 185.615 334.244 192.884 339.23" stroke="#7EBF7E" stroke-width="0.874704" stroke-miterlimit="10"/>
<path d="M163.66 339.439C172.005 342.763 179.519 348.16 185.327 355.009" stroke="#7EBF7E" stroke-width="0.874704" stroke-miterlimit="10"/>
<path d="M159.392 348.073C165.488 352.245 170.264 358.342 172.862 365.261" stroke="#7EBF7E" stroke-width="0.874704" stroke-miterlimit="10"/>
<path d="M155.578 356.785C157.441 360.17 158.263 364.124 157.904 367.972" stroke="#7EBF7E" stroke-width="0.874704" stroke-miterlimit="10"/>
<path d="M171.62 326.397C170.369 323.161 169.101 319.898 167.194 317.003C165.287 314.108 162.68 311.553 159.435 310.329" stroke="#7EBF7E" stroke-width="0.874704" stroke-miterlimit="10"/>
<path d="M167.728 332.529C162.89 325.575 155.517 320.414 147.329 318.254" stroke="#7EBF7E" stroke-width="0.874704" stroke-miterlimit="10"/>
<path d="M163.949 339.824C157.091 334.865 148.694 332.066 140.235 331.943" stroke="#7EBF7E" stroke-width="0.874704" stroke-miterlimit="10"/>
<path d="M159.383 348.159C152.84 345.553 145.37 345.334 138.678 347.547" stroke="#7EBF7E" stroke-width="0.874704" stroke-miterlimit="10"/>
<path d="M155.508 356.373C151.397 356.172 147.224 357.607 144.119 360.301" stroke="#7EBF7E" stroke-width="0.874704" stroke-miterlimit="10"/>
</g>
<path d="M178.119 275.087C181.653 273.163 185.563 273.697 188.659 276.225C191.756 278.752 193.155 283.24 192.062 287.15C190.951 291.121 187.671 294.077 184.303 296.395C179.107 299.964 173.291 302.553 167.238 304.171C161.867 305.606 153.557 306.481 153.557 306.481C153.557 306.481 151.974 301.119 152.455 293.211C152.814 287.403 153.452 281.543 155.639 276.137C157.205 272.262 159.435 268.501 162.82 266.095C166.206 263.69 170.92 262.912 174.454 265.011C177.979 267.101 180.21 272.332 178.119 275.087Z" fill="#468554"/>
<mask id="mask4_25_840" style="mask-type:alpha" maskUnits="userSpaceOnUse" x="152" y="263" width="41" height="44">
<path d="M178.119 275.087C181.653 273.163 185.563 273.697 188.659 276.225C191.756 278.752 193.155 283.24 192.062 287.15C190.951 291.121 187.671 294.077 184.303 296.395C179.107 299.964 173.291 302.553 167.238 304.171C161.867 305.606 153.557 306.481 153.557 306.481C153.557 306.481 151.974 301.119 152.455 293.211C152.814 287.403 153.452 281.543 155.639 276.137C157.205 272.262 159.435 268.501 162.82 266.095C166.206 263.69 170.92 262.912 174.454 265.011C177.979 267.101 180.21 272.332 178.119 275.087Z" fill="#468554"/>
</mask>
<g mask="url(#mask4_25_840)">
<path d="M180.743 272.551C169.223 283.283 159.4 295.861 151.773 309.655" stroke="#7EBF7E" stroke-width="0.874704" stroke-miterlimit="10"/>
<path d="M176.614 276.644C183.096 275.551 189.814 275.918 196.129 277.72" stroke="#7EBF7E" stroke-width="0.874704" stroke-miterlimit="10"/>
<path d="M172.223 281.288C179.754 282.172 186.945 285.697 192.254 291.129" stroke="#7EBF7E" stroke-width="0.874704" stroke-miterlimit="10"/>
<path d="M167.552 286.511C174.051 290.701 179.501 296.509 183.279 303.271" stroke="#7EBF7E" stroke-width="0.874704" stroke-miterlimit="10"/>
<path d="M162.523 293.131C166.984 297.671 170.01 303.619 171.06 309.917" stroke="#7EBF7E" stroke-width="0.874704" stroke-miterlimit="10"/>
<path d="M157.861 299.894C158.875 303.069 158.919 306.559 157.983 309.76" stroke="#7EBF7E" stroke-width="0.874704" stroke-miterlimit="10"/>
<path d="M176.413 276.748C175.888 273.8 175.355 270.826 174.227 268.054C173.098 265.281 171.314 262.692 168.777 261.117" stroke="#7EBF7E" stroke-width="0.874704" stroke-miterlimit="10"/>
<path d="M172.118 281.314C169.179 274.623 163.809 269.042 157.248 265.858" stroke="#7EBF7E" stroke-width="0.874704" stroke-miterlimit="10"/>
<path d="M167.727 286.878C162.759 281.542 156.129 277.798 149 276.302" stroke="#7EBF7E" stroke-width="0.874704" stroke-miterlimit="10"/>
<path d="M162.497 293.202C157.397 289.913 151.134 288.504 145.116 289.283" stroke="#7EBF7E" stroke-width="0.874704" stroke-miterlimit="10"/>
<path d="M157.878 299.535C154.44 298.686 150.688 299.22 147.618 300.995" stroke="#7EBF7E" stroke-width="0.874704" stroke-miterlimit="10"/>
</g>
<path d="M197.03 344.653C193.557 341.521 189 341.058 184.81 343.052C180.621 345.046 177.813 349.708 177.979 354.414C178.145 359.181 181.049 363.397 184.216 366.923C189.105 372.354 194.974 376.85 201.369 380.323C207.045 383.402 216.186 386.647 216.186 386.647C216.186 386.647 219.44 381.058 221.058 372.031C222.248 365.401 223.122 358.639 222.125 351.965C221.408 347.18 219.921 342.343 216.755 338.713C213.588 335.083 208.471 332.923 203.914 334.314C199.365 335.713 195.412 340.988 197.03 344.653Z" fill="#468554"/>
<mask id="mask5_25_840" style="mask-type:alpha" maskUnits="userSpaceOnUse" x="177" y="333" width="46" height="54">
<path d="M197.03 344.653C193.557 341.521 189 341.058 184.81 343.052C180.621 345.046 177.813 349.708 177.979 354.414C178.145 359.181 181.049 363.397 184.216 366.923C189.105 372.354 194.974 376.85 201.369 380.323C207.045 383.402 216.186 386.647 216.186 386.647C216.186 386.647 219.44 381.058 221.058 372.031C222.248 365.401 223.122 358.639 222.125 351.965C221.408 347.18 219.921 342.343 216.755 338.713C213.588 335.083 208.471 332.923 203.914 334.314C199.365 335.713 195.412 340.988 197.03 344.653Z" fill="#468554"/>
</mask>
<g mask="url(#mask5_25_840)">
<path d="M194.756 341.092C204.832 356.303 212.486 373.124 217.341 390.723" stroke="#7EBF7E" stroke-width="0.874704" stroke-miterlimit="10"/>
<path d="M198.298 346.822C191.283 343.822 183.586 342.405 175.958 342.711" stroke="#7EBF7E" stroke-width="0.874704" stroke-miterlimit="10"/>
<path d="M201.99 353.233C193.243 352.166 184.154 354.178 176.676 358.831" stroke="#7EBF7E" stroke-width="0.874704" stroke-miterlimit="10"/>
<path d="M205.847 360.379C197.362 363.309 189.612 368.356 183.498 374.925" stroke="#7EBF7E" stroke-width="0.874704" stroke-miterlimit="10"/>
<path d="M209.713 369.196C203.433 373.088 198.386 378.949 195.473 385.745" stroke="#7EBF7E" stroke-width="0.874704" stroke-miterlimit="10"/>
<path d="M213.124 378.075C211.104 381.373 210.107 385.283 210.29 389.14" stroke="#7EBF7E" stroke-width="0.874704" stroke-miterlimit="10"/>
<path d="M198.5 346.988C199.899 343.813 201.316 340.62 203.346 337.803C205.375 334.996 208.104 332.564 211.402 331.497" stroke="#7EBF7E" stroke-width="0.874704" stroke-miterlimit="10"/>
<path d="M202.103 353.294C207.255 346.568 214.848 341.757 223.131 339.973" stroke="#7EBF7E" stroke-width="0.874704" stroke-miterlimit="10"/>
<path d="M205.541 360.755C212.617 356.111 221.128 353.714 229.586 353.967" stroke="#7EBF7E" stroke-width="0.874704" stroke-miterlimit="10"/>
<path d="M209.722 369.285C216.379 366.984 223.849 367.107 230.426 369.626" stroke="#7EBF7E" stroke-width="0.874704" stroke-miterlimit="10"/>
<path d="M213.212 377.673C217.323 377.655 221.425 379.282 224.408 382.116" stroke="#7EBF7E" stroke-width="0.874704" stroke-miterlimit="10"/>
</g>
<path d="M201.238 299.403C198.561 296.946 195.053 296.587 191.817 298.153C188.581 299.718 186.42 303.375 186.551 307.066C186.683 310.81 188.913 314.116 191.362 316.88C195.132 321.14 199.654 324.674 204.588 327.394C208.961 329.808 216.011 332.354 216.011 332.354C216.011 332.354 218.522 327.963 219.764 320.886C220.674 315.682 221.356 310.381 220.586 305.142C220.035 301.389 218.889 297.593 216.449 294.741C214.008 291.89 210.063 290.193 206.547 291.286C203.031 292.38 199.987 296.534 201.238 299.403Z" fill="#468554"/>
<mask id="mask6_25_840" style="mask-type:alpha" maskUnits="userSpaceOnUse" x="186" y="290" width="35" height="43">
<path d="M201.238 299.403C198.561 296.946 195.053 296.587 191.817 298.153C188.581 299.718 186.42 303.375 186.551 307.066C186.683 310.81 188.913 314.116 191.362 316.88C195.132 321.14 199.654 324.674 204.588 327.394C208.961 329.808 216.011 332.354 216.011 332.354C216.011 332.354 218.522 327.963 219.764 320.886C220.674 315.682 221.356 310.381 220.586 305.142C220.035 301.389 218.889 297.593 216.449 294.741C214.008 291.89 210.063 290.193 206.547 291.286C203.031 292.38 199.987 296.534 201.238 299.403Z" fill="#468554"/>
</mask>
<g mask="url(#mask6_25_840)">
<path d="M199.479 296.614C207.247 308.553 213.151 321.753 216.895 335.555" stroke="#7EBF7E" stroke-width="0.874704" stroke-miterlimit="10"/>
<path d="M202.208 301.109C196.794 298.756 190.872 297.646 184.985 297.882" stroke="#7EBF7E" stroke-width="0.874704" stroke-miterlimit="10"/>
<path d="M205.06 306.147C198.316 305.316 191.309 306.891 185.545 310.538" stroke="#7EBF7E" stroke-width="0.874704" stroke-miterlimit="10"/>
<path d="M208.025 311.754C201.482 314.055 195.508 318.017 190.793 323.169" stroke="#7EBF7E" stroke-width="0.874704" stroke-miterlimit="10"/>
<path d="M211.017 318.665C206.171 321.718 202.287 326.319 200.039 331.646" stroke="#7EBF7E" stroke-width="0.874704" stroke-miterlimit="10"/>
<path d="M213.64 325.636C212.083 328.225 211.314 331.287 211.454 334.322" stroke="#7EBF7E" stroke-width="0.874704" stroke-miterlimit="10"/>
<path d="M202.366 301.24C203.441 298.747 204.535 296.237 206.101 294.033C207.666 291.828 209.766 289.922 212.311 289.082" stroke="#7EBF7E" stroke-width="0.874704" stroke-miterlimit="10"/>
<path d="M205.139 306.191C209.11 300.917 214.962 297.138 221.347 295.739" stroke="#7EBF7E" stroke-width="0.874704" stroke-miterlimit="10"/>
<path d="M207.797 312.043C213.247 308.404 219.816 306.515 226.332 306.716" stroke="#7EBF7E" stroke-width="0.874704" stroke-miterlimit="10"/>
<path d="M211.016 318.735C216.151 316.924 221.907 317.02 226.98 318.997" stroke="#7EBF7E" stroke-width="0.874704" stroke-miterlimit="10"/>
<path d="M213.702 325.313C216.877 325.304 220.035 326.581 222.335 328.794" stroke="#7EBF7E" stroke-width="0.874704" stroke-miterlimit="10"/>
</g>
</svg>
