<svg width="32" height="32" viewBox="0 0 32 32" fill="none" xmlns="http://www.w3.org/2000/svg">
<path d="M13.3944 4.04867C14.0571 1.31711 17.9429 1.31711 18.6056 4.04867C18.705 4.45902 18.8999 4.8401 19.1744 5.16089C19.449 5.48168 19.7954 5.73311 20.1855 5.89472C20.5755 6.05633 20.9983 6.12355 21.4192 6.09091C21.8402 6.05827 22.2475 5.92669 22.608 5.70689C25.0082 4.24467 27.7569 6.99178 26.2947 9.39356C26.0752 9.75391 25.9438 10.161 25.9112 10.5816C25.8787 11.0023 25.9458 11.4248 26.1073 11.8146C26.2687 12.2044 26.5198 12.5507 26.8402 12.8252C27.1607 13.0997 27.5413 13.2947 27.9513 13.3944C30.6829 14.0571 30.6829 17.9429 27.9513 18.6056C27.541 18.705 27.1599 18.8999 26.8391 19.1744C26.5183 19.449 26.2669 19.7954 26.1053 20.1855C25.9437 20.5755 25.8765 20.9983 25.9091 21.4192C25.9417 21.8402 26.0733 22.2475 26.2931 22.608C27.7553 25.0082 25.0082 27.7569 22.6064 26.2947C22.2461 26.0752 21.839 25.9438 21.4184 25.9112C20.9977 25.8787 20.5752 25.9458 20.1854 26.1073C19.7956 26.2687 19.4493 26.5198 19.1748 26.8402C18.9003 27.1607 18.7053 27.5413 18.6056 27.9513C17.9429 30.6829 14.0571 30.6829 13.3944 27.9513C13.295 27.541 13.1001 27.1599 12.8256 26.8391C12.551 26.5183 12.2046 26.2669 11.8145 26.1053C11.4245 25.9437 11.0017 25.8765 10.5808 25.9091C10.1598 25.9417 9.7525 26.0733 9.392 26.2931C6.99178 27.7553 4.24311 25.0082 5.70533 22.6064C5.92482 22.2461 6.05619 21.839 6.08875 21.4184C6.12132 20.9977 6.05416 20.5752 5.89273 20.1854C5.73131 19.7956 5.48018 19.4493 5.15976 19.1748C4.83933 18.9003 4.45865 18.7053 4.04867 18.6056C1.31711 17.9429 1.31711 14.0571 4.04867 13.3944C4.45902 13.295 4.8401 13.1001 5.16089 12.8256C5.48168 12.551 5.73311 12.2046 5.89472 11.8145C6.05633 11.4245 6.12355 11.0017 6.09091 10.5808C6.05827 10.1598 5.92669 9.7525 5.70689 9.392C4.24467 6.99178 6.99178 4.24311 9.39356 5.70533C10.9429 6.65111 12.9651 5.81422 13.3944 4.04867Z" stroke="#263238" stroke-width="2.5" stroke-linecap="round" stroke-linejoin="round"/>
<path d="M20.6663 16.0002C20.6663 17.2378 20.1747 18.4248 19.2995 19.3C18.4243 20.1752 17.2374 20.6668 15.9997 20.6668C14.762 20.6668 13.575 20.1752 12.6998 19.3C11.8247 18.4248 11.333 17.2378 11.333 16.0002C11.333 14.7625 11.8247 13.5755 12.6998 12.7003C13.575 11.8252 14.762 11.3335 15.9997 11.3335C17.2374 11.3335 18.4243 11.8252 19.2995 12.7003C20.1747 13.5755 20.6663 14.7625 20.6663 16.0002V16.0002Z" stroke="#263238" stroke-width="2.5" stroke-linecap="round" stroke-linejoin="round"/>
</svg>
