<svg width="402" height="302" viewBox="0 0 402 302" fill="none" xmlns="http://www.w3.org/2000/svg">
<path d="M383.876 279.95H82.2097C77.621 279.945 73.2217 278.116 69.9769 274.863C66.7322 271.611 64.907 267.202 64.9019 262.603V101.219C64.907 96.6194 66.7322 92.21 69.9769 88.9578C73.2217 85.7057 77.621 83.8764 82.2097 83.8712H383.876C388.465 83.8764 392.864 85.7057 396.109 88.9578C399.354 92.21 401.179 96.6194 401.184 101.219V262.603C401.179 267.202 399.354 271.611 396.109 274.863C392.864 278.116 388.465 279.945 383.876 279.95Z" fill="white"/>
<path d="M383.876 279.95H82.2097C77.621 279.945 73.2217 278.116 69.9769 274.863C66.7322 271.611 64.907 267.202 64.9019 262.603V101.219C64.907 96.6194 66.7322 92.21 69.9769 88.9578C73.2217 85.7057 77.621 83.8764 82.2097 83.8712H383.876C388.465 83.8764 392.864 85.7057 396.109 88.9578C399.354 92.21 401.179 96.6194 401.184 101.219V262.603C401.179 267.202 399.354 271.611 396.109 274.863C392.864 278.116 388.465 279.945 383.876 279.95ZM82.2097 84.9225C77.8991 84.9274 73.7664 86.6459 70.7183 89.701C67.6702 92.756 65.9557 96.8981 65.9508 101.219V262.603C65.9557 266.923 67.6702 271.065 70.7183 274.12C73.7664 277.175 77.8991 278.894 82.2097 278.899H383.876C388.187 278.894 392.32 277.175 395.368 274.12C398.416 271.065 400.13 266.923 400.135 262.603V101.219C400.13 96.8981 398.416 92.756 395.368 89.701C392.32 86.6459 388.187 84.9274 383.876 84.9225H82.2097Z" fill="#F2F2F2"/>
<path d="M383.876 267.334H82.2096C80.9581 267.332 79.7583 266.833 78.8734 265.947C77.9885 265.06 77.4907 263.857 77.4893 262.603V101.219C77.4907 99.9643 77.9885 98.7618 78.8734 97.8748C79.7583 96.9879 80.9581 96.489 82.2096 96.4875H383.876C385.128 96.489 386.328 96.9879 387.212 97.8748C388.097 98.7618 388.595 99.9643 388.597 101.219V262.603C388.595 263.857 388.097 265.06 387.212 265.947C386.328 266.833 385.128 267.332 383.876 267.334ZM82.2096 97.5389C81.2362 97.54 80.303 97.928 79.6147 98.6179C78.9265 99.3077 78.5393 100.243 78.5382 101.219V262.603C78.5393 263.578 78.9265 264.514 79.6147 265.203C80.303 265.893 81.2362 266.281 82.2096 266.282H383.876C384.85 266.281 385.783 265.893 386.471 265.203C387.159 264.514 387.547 263.578 387.548 262.603V101.219C387.547 100.243 387.159 99.3077 386.471 98.6179C385.783 97.928 384.85 97.54 383.876 97.5389H82.2096Z" fill="#F2F2F2"/>
<path d="M307.099 268.103L15.5035 190.629C11.0693 189.446 7.2845 186.547 4.9795 182.571C2.6745 178.594 2.0375 173.863 3.20828 169.416L44.4655 13.4195C45.6463 8.97511 48.5378 5.18167 52.5056 2.8714C56.4734 0.561117 61.1935 -0.0773267 65.6304 1.09613L357.226 78.5697C361.66 79.7532 365.445 82.6513 367.75 86.6282C370.055 90.605 370.692 95.336 369.521 99.783L328.264 255.779C327.083 260.224 324.192 264.017 320.224 266.327C316.256 268.638 311.536 269.276 307.099 268.103Z" fill="#F2F2F2"/>
<path d="M307.099 268.103L15.5035 190.629C11.0693 189.446 7.2845 186.547 4.9795 182.571C2.6745 178.594 2.0375 173.863 3.20828 169.416L44.4655 13.4195C45.6463 8.97511 48.5378 5.18167 52.5056 2.8714C56.4734 0.561117 61.1935 -0.0773267 65.6304 1.09613L357.226 78.5697C361.66 79.7532 365.445 82.6513 367.75 86.6282C370.055 90.605 370.692 95.336 369.521 99.783L328.264 255.779C327.083 260.224 324.192 264.017 320.224 266.327C316.256 268.638 311.536 269.276 307.099 268.103ZM65.3616 2.11239C61.1936 1.01008 56.7596 1.60983 53.0323 3.78009C49.3049 5.95035 46.5887 9.51388 45.4795 13.6889L4.22223 169.685C3.12243 173.863 3.72082 178.307 5.88613 182.043C8.05143 185.779 11.6068 188.501 15.7723 189.613L307.368 267.086C311.536 268.189 315.97 267.589 319.697 265.419C323.425 263.248 326.141 259.685 327.25 255.51L368.507 99.5136C369.607 95.3361 369.009 90.8919 366.843 87.156C364.678 83.4202 361.123 80.6977 356.957 79.5859L65.3616 2.11239Z" fill="#E6E6E6"/>
<path d="M310.324 255.907L18.7284 178.434C17.5191 178.111 16.4869 177.321 15.8582 176.236C15.2296 175.152 15.0559 173.861 15.3751 172.648L56.6324 16.6522C56.9544 15.4401 57.743 14.4055 58.8252 13.7755C59.9073 13.1454 61.1946 12.9713 62.4046 13.2913L354 90.7648C355.21 91.0876 356.242 91.878 356.87 92.9626C357.499 94.0472 357.673 95.3374 357.353 96.5503L316.096 252.547C315.774 253.759 314.986 254.793 313.904 255.423C312.821 256.053 311.534 256.227 310.324 255.907ZM62.1359 14.3075C61.1947 14.0586 60.1935 14.194 59.3518 14.6841C58.5101 15.1742 57.8968 15.9788 57.6463 16.9216L16.3891 172.918C16.1407 173.861 16.2759 174.865 16.7648 175.708C17.2537 176.552 18.0566 177.167 18.9972 177.418L310.593 254.891C311.534 255.14 312.535 255.005 313.377 254.515C314.219 254.025 314.832 253.22 315.082 252.277L356.34 96.2809C356.588 95.3376 356.453 94.334 355.964 93.4905C355.475 92.6469 354.672 92.0321 353.732 91.7811L62.1359 14.3075Z" fill="white"/>
<path d="M319.365 301.503H17.6985C13.1097 301.498 8.71043 299.669 5.4657 296.416C2.22097 293.164 0.395808 288.755 0.390625 284.156V122.772C0.395808 118.172 2.22097 113.763 5.4657 110.511C8.71043 107.259 13.1097 105.429 17.6985 105.424H319.365C323.954 105.429 328.353 107.259 331.598 110.511C334.843 113.763 336.668 118.172 336.673 122.772V284.156C336.668 288.755 334.843 293.164 331.598 296.416C328.353 299.669 323.954 301.498 319.365 301.503Z" fill="white"/>
<path d="M237.405 287.835H42.5976C42.3537 287.836 42.11 287.83 41.8696 287.817L134.005 235.809C135.759 234.798 139.695 234.443 142.796 235.014C143.646 235.146 144.47 235.414 145.234 235.809L207.068 270.71L210.031 272.38L237.405 287.835Z" fill="#E6E6E6"/>
<path d="M298.865 287.835H130.373L163.023 272.38L165.373 271.267L207.919 251.126C210.709 249.806 217.419 249.723 220.699 250.877C220.919 250.955 221.123 251.038 221.311 251.126L298.865 287.835Z" fill="#E6E6E6"/>
<path d="M17.6988 106.475C13.3882 106.48 9.25553 108.199 6.20746 111.254C3.15938 114.309 1.44483 118.451 1.43994 122.772V284.156C1.44483 288.476 3.15938 292.618 6.20746 295.673C9.25553 298.728 13.3882 300.447 17.6988 300.452H319.366C323.676 300.447 327.809 298.728 330.857 295.673C333.905 292.618 335.62 288.476 335.624 284.156V122.772C335.62 118.451 333.905 114.309 330.857 111.254C327.809 108.199 323.676 106.48 319.366 106.475H17.6988Z" fill="#3F3D56"/>
<path d="M319.365 288.887H17.6979C16.4464 288.885 15.2466 288.386 14.3617 287.499C13.4767 286.613 12.979 285.41 12.9775 284.156V122.772C12.979 121.517 13.4767 120.315 14.3617 119.428C15.2466 118.541 16.4464 118.042 17.6979 118.04H319.365C320.616 118.042 321.816 118.541 322.701 119.428C323.586 120.315 324.083 121.517 324.085 122.772V284.156C324.083 285.41 323.586 286.613 322.701 287.499C321.816 288.386 320.616 288.885 319.365 288.887ZM17.6979 119.092C16.7245 119.093 15.7913 119.481 15.103 120.171C14.4147 120.861 14.0276 121.796 14.0265 122.772V284.156C14.0276 285.131 14.4147 286.067 15.103 286.756C15.7913 287.446 16.7245 287.834 17.6979 287.835H319.365C320.338 287.834 321.271 287.446 321.959 286.756C322.648 286.067 323.035 285.131 323.036 284.156V122.772C323.035 121.796 322.648 120.861 321.959 120.171C321.271 119.481 320.338 119.093 319.365 119.092H17.6979Z" fill="#CCCCCC"/>
<path d="M252.15 147.58C270.081 147.58 284.617 133.011 284.617 115.039C284.617 97.0671 270.081 82.4978 252.15 82.4978C234.219 82.4978 219.683 97.0671 219.683 115.039C219.683 133.011 234.219 147.58 252.15 147.58Z" fill="#FF6584"/>
<path d="M265.723 233.516C288.433 233.516 306.844 210.419 306.844 181.927C306.844 153.435 288.433 130.338 265.723 130.338C243.012 130.338 224.602 153.435 224.602 181.927C224.602 210.419 243.012 233.516 265.723 233.516Z" fill="#F2F2F2"/>
<path d="M265.837 171.553H265.949L267.983 288.404H263.69L265.837 171.553Z" fill="#CCCCCC"/>
<path d="M272.85 248.912C272.975 249.151 273.001 249.431 272.921 249.689C272.841 249.947 272.662 250.163 272.424 250.289L266.526 253.401L265.579 251.597L271.476 248.485C271.715 248.359 271.994 248.334 272.251 248.414C272.509 248.494 272.724 248.673 272.85 248.912Z" fill="#CCCCCC"/>
<path d="M147.502 233.516C170.212 233.516 188.623 210.419 188.623 181.927C188.623 153.435 170.212 130.338 147.502 130.338C124.791 130.338 106.381 153.435 106.381 181.927C106.381 210.419 124.791 233.516 147.502 233.516Z" fill="#F2F2F2"/>
<path d="M154.628 250.844V250.844C154.503 250.605 154.287 250.426 154.03 250.346C153.772 250.266 153.494 250.291 153.255 250.417L149.138 252.59L147.727 171.553H147.614L145.468 288.404H149.761L149.177 254.872L154.202 252.221C154.441 252.095 154.62 251.879 154.7 251.621C154.779 251.363 154.754 251.083 154.628 250.844Z" fill="#CCCCCC"/>
<path d="M206.469 63.0378C235.246 63.0378 258.635 117.384 258.635 153.486C258.635 189.588 235.307 218.855 206.531 218.855C177.754 218.855 154.426 189.588 154.426 153.486C154.426 117.384 177.693 63.0378 206.469 63.0378Z" fill="#7EBF7E"/>
<path d="M215.561 240.286C215.482 240.136 215.375 240.003 215.245 239.894C215.115 239.786 214.965 239.704 214.803 239.654C214.641 239.604 214.472 239.586 214.303 239.602C214.135 239.617 213.971 239.666 213.821 239.745L208.604 242.498L206.817 139.816H206.674L203.955 287.879H209.394L208.654 245.39L215.022 242.03C215.171 241.951 215.304 241.843 215.412 241.713C215.52 241.582 215.602 241.432 215.652 241.27C215.702 241.108 215.72 240.938 215.704 240.769C215.689 240.6 215.64 240.436 215.561 240.286Z" fill="#3F3D56"/>
<path d="M320.414 300.452H18.7478C14.159 300.447 9.75974 298.617 6.51502 295.365C3.27029 292.113 1.44512 287.703 1.43994 283.104V121.72C1.44512 117.121 3.27029 112.712 6.51502 109.459C9.75974 106.207 14.159 104.378 18.7478 104.373H320.414C325.003 104.378 329.402 106.207 332.647 109.459C335.892 112.712 337.717 117.121 337.722 121.72V283.104C337.717 287.703 335.892 292.113 332.647 295.365C329.402 298.617 325.003 300.447 320.414 300.452Z" fill="white"/>
<path d="M238.455 286.784H43.6474C43.4035 286.785 43.1598 286.779 42.9194 286.765L135.054 234.758C136.809 233.747 140.745 233.391 143.846 233.963C144.696 234.094 145.519 234.363 146.284 234.758L208.118 269.659L211.081 271.329L238.455 286.784Z" fill="#E6E6E6"/>
<path d="M299.914 286.784H131.421L164.072 271.329L166.422 270.215L208.968 250.074C211.758 248.754 218.468 248.672 221.747 249.825C221.968 249.904 222.172 249.987 222.36 250.074L299.914 286.784Z" fill="#E6E6E6"/>
<path d="M320.414 300.452H18.7478C14.159 300.447 9.75974 298.617 6.51502 295.365C3.27029 292.113 1.44512 287.703 1.43994 283.104V121.72C1.44512 117.121 3.27029 112.712 6.51502 109.459C9.75974 106.207 14.159 104.378 18.7478 104.373H320.414C325.003 104.378 329.402 106.207 332.647 109.459C335.892 112.712 337.717 117.121 337.722 121.72V283.104C337.717 287.703 335.892 292.113 332.647 295.365C329.402 298.617 325.003 300.447 320.414 300.452ZM18.7478 105.424C14.4372 105.429 10.3045 107.147 7.25642 110.203C4.20834 113.258 2.49379 117.4 2.4889 121.72V283.104C2.49379 287.425 4.20834 291.567 7.25642 294.622C10.3045 297.677 14.4372 299.395 18.7478 299.4H320.414C324.725 299.395 328.858 297.677 331.906 294.622C334.954 291.567 336.668 287.425 336.673 283.104V121.72C336.668 117.4 334.954 113.258 331.906 110.203C328.858 107.147 324.725 105.429 320.414 105.424H18.7478Z" fill="#3F3D56"/>
<path d="M320.414 287.835H18.7472C17.4957 287.834 16.2959 287.335 15.411 286.448C14.5261 285.561 14.0283 284.359 14.0269 283.104V121.72C14.0283 120.466 14.5261 119.263 15.411 118.376C16.2959 117.489 17.4957 116.991 18.7472 116.989H320.414C321.665 116.991 322.865 117.489 323.75 118.376C324.635 119.263 325.133 120.466 325.134 121.72V283.104C325.133 284.359 324.635 285.561 323.75 286.448C322.865 287.335 321.665 287.834 320.414 287.835ZM18.7472 118.04C17.7738 118.042 16.8406 118.43 16.1523 119.119C15.4641 119.809 15.0769 120.745 15.0758 121.72V283.104C15.0769 284.08 15.4641 285.015 16.1523 285.705C16.8406 286.395 17.7738 286.783 18.7472 286.784H320.414C321.387 286.783 322.32 286.395 323.009 285.705C323.697 285.015 324.084 284.08 324.085 283.104V121.72C324.084 120.745 323.697 119.809 323.009 119.119C322.32 118.43 321.387 118.042 320.414 118.04H18.7472Z" fill="#CCCCCC"/>
<path d="M253.199 146.529C271.13 146.529 285.666 131.96 285.666 113.988C285.666 96.0157 271.13 81.4465 253.199 81.4465C235.268 81.4465 220.732 96.0157 220.732 113.988C220.732 131.96 235.268 146.529 253.199 146.529Z" fill="#FF6584"/>
<path d="M266.773 232.464C289.483 232.464 307.894 209.367 307.894 180.876C307.894 152.384 289.483 129.287 266.773 129.287C244.062 129.287 225.652 152.384 225.652 180.876C225.652 209.367 244.062 232.464 266.773 232.464Z" fill="#F2F2F2"/>
<path d="M266.885 170.502H266.998L269.032 287.353H264.739L266.885 170.502Z" fill="#CCCCCC"/>
<path d="M273.899 247.861C274.025 248.1 274.05 248.379 273.97 248.638C273.891 248.896 273.712 249.112 273.473 249.237L267.575 252.35L266.628 250.546L272.526 247.434C272.764 247.308 273.043 247.282 273.301 247.362C273.558 247.442 273.773 247.622 273.899 247.861Z" fill="#CCCCCC"/>
<path d="M148.552 232.464C171.262 232.464 189.672 209.367 189.672 180.876C189.672 152.384 171.262 129.287 148.552 129.287C125.841 129.287 107.431 152.384 107.431 180.876C107.431 209.367 125.841 232.464 148.552 232.464Z" fill="#F2F2F2"/>
<path d="M155.678 249.793V249.793C155.552 249.554 155.337 249.374 155.079 249.294C154.822 249.214 154.543 249.24 154.304 249.366L150.187 251.538L148.777 170.502H148.664L146.518 287.353H150.81L150.227 253.821L155.252 251.169C155.49 251.043 155.669 250.828 155.749 250.569C155.829 250.311 155.803 250.032 155.678 249.793Z" fill="#CCCCCC"/>
<path d="M207.518 61.9864C236.295 61.9864 259.684 116.333 259.684 152.435C259.684 188.537 236.356 217.803 207.58 217.803C178.803 217.803 155.475 188.537 155.475 152.435C155.475 116.333 178.742 61.9864 207.518 61.9864Z" fill="#7EBF7E"/>
<path d="M216.61 239.235C216.532 239.084 216.424 238.951 216.294 238.843C216.164 238.735 216.014 238.653 215.852 238.603C215.691 238.553 215.521 238.535 215.352 238.55C215.184 238.566 215.02 238.615 214.871 238.694L209.653 241.446L207.867 138.764H207.724L205.004 286.827H210.443L209.704 244.338L216.071 240.979C216.221 240.9 216.353 240.792 216.461 240.661C216.57 240.531 216.651 240.381 216.701 240.219C216.751 240.057 216.769 239.886 216.753 239.718C216.738 239.549 216.689 239.385 216.61 239.235Z" fill="#3F3D56"/>
</svg>
