<svg width="19" height="16" viewBox="0 0 19 16" fill="none" xmlns="http://www.w3.org/2000/svg">
<path d="M10.1956 15.0024C10.2327 15.269 10.14 15.5534 9.9361 15.74C9.56539 16.0867 8.98152 16.0867 8.62007 15.74L4.90369 12.1761C4.80261 12.0813 4.72575 11.9654 4.67913 11.8375C4.6325 11.7095 4.61737 11.5729 4.63492 11.4384V6.88793L0.19565 1.4398C0.045149 1.25452 -0.0227604 1.01964 0.00676135 0.786495C0.0362831 0.553347 0.160836 0.340883 0.353203 0.195528C0.529291 0.0711013 0.723914 0 0.927806 0H13.9027C14.1066 0 14.3012 0.0711013 14.4773 0.195528C14.6697 0.340883 14.7942 0.553347 14.8238 0.786495C14.8533 1.01964 14.7854 1.25452 14.6349 1.4398L10.1956 6.88793V15.0024M2.81844 1.77753L6.48848 6.28357V11.1807L8.34204 12.9582V6.2658L12.0121 1.77753H2.81844ZM14.5978 15.9978L12.0492 13.3315L13.1242 12.3005L14.5978 13.7137L17.9249 10.523L19 11.7761L14.5978 15.9978Z" fill="white"/>
</svg>
